<svg width="103" height="103" viewBox="0 0 103 103" fill="none" xmlns="http://www.w3.org/2000/svg">
<g id="10_Airtable">
<rect id="Rectangle Copy 4" width="103" height="103" rx="15" fill="#6A89F7"/>
<g id="Group">
<path id="Vector" d="M84.3292 54.5047C84.3292 58.5069 84.3292 62.4948 84.3292 66.497C84.3292 67.4795 83.9824 67.9852 83.0722 68.332C77.8996 70.3403 72.7415 72.3487 67.5689 74.357C63.7978 75.8308 60.0123 77.2901 56.2412 78.7638C55.9233 78.8794 55.6199 79.0095 55.2731 78.995C54.3195 78.9372 53.6982 78.2437 53.6982 77.2467C53.6982 70.4848 53.6982 63.7084 53.6982 56.9465C53.6982 55.7039 53.6982 54.4613 53.6982 53.2332C53.6982 52.2074 54.0161 51.7306 54.9697 51.3694C60.5324 49.2021 66.1096 47.0348 71.6867 44.8675C75.111 43.5382 78.5353 42.2379 81.9307 40.8652C83.2022 40.3451 84.387 41.2409 84.3725 42.5268C84.3003 46.5146 84.3292 50.5169 84.3292 54.5047Z" fill="#213FAA"/>
<path id="Vector_2" d="M51.4729 48.2774C50.187 48.2918 48.9733 47.9739 47.7885 47.5116C42.0669 45.2287 36.3597 42.9603 30.6381 40.6919C28.3408 39.7816 26.0435 38.8569 23.7317 37.9466C23.0237 37.6721 22.5903 37.1953 22.5469 36.4295C22.518 35.6638 22.9081 35.1147 23.7028 34.7824C25.1188 34.19 26.5492 33.6121 27.9651 33.0197C34.6259 30.26 41.2867 27.4859 47.9475 24.7407C50.2737 23.7726 52.6288 23.7437 54.9695 24.7118C63.0607 28.0494 71.1374 31.4159 79.2142 34.7535C79.9077 35.0425 80.3845 35.4615 80.4423 36.2417C80.4857 37.0508 80.11 37.6143 79.3153 37.9322C77.6248 38.6113 75.9488 39.2759 74.2583 39.9405C67.8432 42.4835 61.4424 45.0409 55.0273 47.5838C53.8858 48.0462 52.7011 48.3063 51.4729 48.2774Z" fill="#213FAA" fill-opacity="0.8"/>
<path id="Vector_3" d="M39.1049 58.175C37.9491 58.7384 36.7932 59.3019 35.6373 59.8654C30.8548 62.1628 26.0868 64.4601 21.3043 66.743C20.2496 67.2487 19.0648 66.7719 18.7758 65.7027C18.718 65.5437 18.718 65.3848 18.718 65.2114C18.718 57.6548 18.718 50.0982 18.718 42.5416C18.718 42.0359 18.9058 41.6313 19.2815 41.3135C19.6427 41.7758 20.134 42.0792 20.5674 42.4549C21.7233 43.4663 22.9081 44.4344 24.0784 45.4169C24.9598 46.1537 25.8412 46.8906 26.7225 47.642C27.705 48.4655 28.6731 49.3035 29.6556 50.1271C30.4069 50.7628 31.1582 51.3986 31.9096 52.0343C32.8921 52.8723 33.889 53.7103 34.8715 54.5484C35.7529 55.2997 36.6487 56.051 37.5301 56.8023C38.0646 57.2502 38.5848 57.7126 39.1049 58.175Z" fill="#213FAA" fill-opacity="0.7"/>
<path id="Vector_4" d="M39.1049 58.1741C38.5848 57.7262 38.0646 57.2638 37.53 56.8159C36.6487 56.0646 35.7529 55.3132 34.8715 54.5619C33.889 53.7239 32.892 52.8859 31.9095 52.0479C31.1582 51.4121 30.4069 50.7764 29.6556 50.1407C28.6731 49.3171 27.705 48.4791 26.7225 47.6555C25.8411 46.9186 24.9598 46.1673 24.0784 45.4304C22.9081 44.4479 21.7233 43.4654 20.5674 42.4685C20.134 42.0928 19.6427 41.7894 19.2815 41.327C19.8594 40.778 20.5096 40.6769 21.2465 40.9658C29.1932 44.1156 37.1255 47.2798 45.0722 50.4296C45.7224 50.6897 46.3726 50.9498 47.0227 51.1954C47.7307 51.4699 48.1642 51.9612 48.1931 52.727C48.222 53.5072 47.8174 54.0129 47.1383 54.3307C44.552 55.5733 41.9657 56.8304 39.3795 58.0729C39.2928 58.1018 39.1916 58.1307 39.1049 58.1741Z" fill="#213FAA" fill-opacity="0.5"/>
</g>
<path id="Rectangle Copy 4_2" opacity="0.504278" d="M0 15C0 6.71573 6.71573 0 15 0H88C96.2843 0 103 6.71573 103 15V88C103 96.2843 96.2843 103 88 103H15C6.71573 103 0 96.2843 0 88V15Z" fill="url(#paint0_linear)"/>
</g>
<defs>
<linearGradient id="paint0_linear" x1="0" y1="0" x2="0" y2="103" gradientUnits="userSpaceOnUse">
<stop stop-color="white" stop-opacity="0.0707769"/>
<stop offset="1" stop-opacity="0.104731"/>
</linearGradient>
</defs>
</svg>
