<svg width="103" height="103" viewBox="0 0 103 103" fill="none" xmlns="http://www.w3.org/2000/svg">
<g id="10_Atom">
<rect id="Rectangle Copy 4" width="103" height="103" rx="15" fill="#6A89F7"/>
<g id="Group">
<path id="Vector" d="M38.9042 53.1398C38.8448 53.2341 38.8109 53.2856 38.7854 53.337C37.2242 56.5016 35.8836 59.7519 34.9078 63.1567C34.526 64.4859 34.2121 65.8238 34 67.1874C33.7963 68.4652 33.669 69.7517 33.7284 71.0466C33.7794 72.1101 33.9236 73.1649 34.3563 74.1512C34.7381 75.0088 35.3066 75.6777 36.1975 76.0208C36.8424 76.2695 37.5127 76.3038 38.1915 76.218C39.8884 76.0122 41.3987 75.3004 42.8497 74.4513C43.5284 74.0483 44.1818 73.6023 44.8436 73.1649C45.1066 72.9934 45.3612 72.839 45.6921 72.8476C46.1672 72.8562 46.6 73.1478 46.7781 73.5937C46.9563 74.0483 46.8545 74.5628 46.5066 74.8887C46.3624 75.0259 46.1927 75.146 46.0315 75.2575C44.606 76.2437 43.1212 77.1357 41.509 77.7874C40.5333 78.1819 39.5236 78.4907 38.4715 78.5936C36.8933 78.7565 35.3915 78.5336 34.0763 77.5559C33.1175 76.8441 32.4897 75.9007 32.0569 74.7944C31.76 74.0225 31.5818 73.225 31.4715 72.4102C31.3272 71.364 31.3272 70.3091 31.3866 69.2542C31.4884 67.4704 31.8109 65.7123 32.2436 63.9714C33.1006 60.4981 34.3648 57.1791 35.8751 53.9545C36.4181 52.7882 37.0121 51.639 37.589 50.4898C37.6654 50.344 37.6654 50.2239 37.606 50.0696C36.5963 47.5482 35.7054 44.9754 35.0012 42.3425C34.9842 42.2653 34.9503 42.1967 34.9248 42.111C34.8824 42.111 34.84 42.0938 34.7975 42.1024C32.2945 42.6341 29.8339 43.303 27.4921 44.375C26.3636 44.8896 25.286 45.4985 24.3187 46.2961C23.7587 46.7592 23.2581 47.2738 22.8763 47.9084C22.5963 48.3801 22.4181 48.8861 22.3672 49.4264C22.3248 49.9581 22.4436 50.4641 22.6472 50.9529C22.9018 51.5618 23.2836 52.0935 23.7248 52.5738C24.446 53.3713 25.2775 54.0317 26.1769 54.6063C26.7963 55.0008 27.4412 55.361 28.086 55.7298C28.4424 55.9356 28.6715 56.2272 28.7309 56.6474C28.8412 57.4107 28.1963 58.1311 27.3478 57.9767C27.229 57.9595 27.1103 57.9081 27 57.8566C25.5915 57.1191 24.2339 56.2872 23.029 55.2324C22.0448 54.3747 21.1878 53.4057 20.6109 52.2222C20.1442 51.2616 19.9236 50.2582 20.0084 49.1862C20.0848 48.2 20.4327 47.2909 20.9672 46.4676C21.6206 45.4642 22.469 44.6666 23.4193 43.972C24.6921 43.0458 26.0836 42.3425 27.5345 41.7508C29.1466 41.099 30.8012 40.593 32.4812 40.1728C32.9987 40.0441 33.5248 39.9412 34.0424 39.8297C34.1272 39.8126 34.2121 39.7868 34.3139 39.7611C34.3054 39.6668 34.2969 39.581 34.28 39.4953C34 38.2088 33.7793 36.9139 33.6097 35.6017C33.406 34.0066 33.3042 32.4114 33.3721 30.8077C33.44 29.1954 33.6606 27.6002 34.2545 26.0823C34.7297 24.8902 35.4 23.8525 36.4351 23.0806C37.1733 22.5232 38.0048 22.1973 38.9212 22.0772C40.0497 21.9229 41.1357 22.0944 42.2133 22.4289C43.5369 22.8491 44.7503 23.5009 45.8872 24.2813C46.6084 24.7787 47.2957 25.3276 48 25.8593C48.263 26.0565 48.4497 26.3053 48.509 26.6397C48.6024 27.1028 48.4157 27.5831 48.0339 27.8489C47.6351 28.132 47.126 28.1577 46.7272 27.8747C46.3794 27.626 46.0484 27.343 45.709 27.0857C44.64 26.2709 43.5115 25.5334 42.2727 25.0017C41.4751 24.6672 40.6606 24.4099 39.7866 24.4099C38.6581 24.4014 37.7503 24.8645 37.0884 25.7993C36.5709 26.5197 36.2824 27.343 36.0872 28.2006C35.9006 29.0239 35.8072 29.8557 35.7563 30.6962C35.6969 31.5795 35.7224 32.4714 35.7818 33.3548C35.8581 34.5812 36.0024 35.8075 36.223 37.0168C36.3587 37.7457 36.5115 38.4747 36.6557 39.2037C36.6642 39.238 36.6727 39.2723 36.6897 39.3323C36.8169 39.3237 36.9442 39.3152 37.0715 39.3066C37.8436 39.2037 38.6157 39.0922 39.3878 39.0064C40.2363 38.9121 41.0933 38.8263 41.9503 38.7577C42.5527 38.7063 43.1551 38.672 43.7575 38.6376C44.1987 38.6119 44.6315 38.5948 45.0727 38.5862C45.2084 38.5862 45.2763 38.5176 45.3527 38.4232C45.9381 37.6857 46.5236 36.9396 47.126 36.2106C49.3321 33.552 51.7078 31.0564 54.3466 28.8266C55.9587 27.463 57.6557 26.2281 59.4969 25.2161C60.863 24.4614 62.2884 23.8525 63.8242 23.5523C65.0545 23.3208 66.2848 23.3036 67.4812 23.7153C68.9745 24.2298 70.0181 25.2504 70.7054 26.6654C71.1127 27.5059 71.3503 28.3978 71.4945 29.324C71.6642 30.3875 71.6812 31.4595 71.6387 32.5315C71.5878 33.6292 71.4606 34.7184 71.2484 35.799C71.206 36.0048 71.1806 36.2192 71.1212 36.425C70.9515 37.0253 70.4169 37.377 69.789 37.2826C69.1866 37.1883 68.7709 36.6394 68.8218 36.082C68.8642 35.6789 68.949 35.2844 69 34.8813C69.0933 34.1438 69.1781 33.4062 69.2375 32.6687C69.28 32.2142 69.2969 31.7511 69.28 31.288C69.246 30.1388 69.1187 29.0067 68.6606 27.9433C68.3636 27.2572 67.9394 26.6654 67.286 26.2795C66.7939 25.9794 66.2594 25.8421 65.6909 25.8164C64.5369 25.7564 63.4594 26.0737 62.3987 26.4939C61.0242 27.0428 59.7515 27.7889 58.5381 28.6379C55.6109 30.6619 53.0569 33.1147 50.6812 35.7475C49.9345 36.5708 49.2303 37.4284 48.509 38.2775C48.4497 38.3461 48.3987 38.4318 48.3139 38.5433C48.5684 38.5605 48.7806 38.5776 49.0012 38.5862C49.8666 38.6119 50.7406 38.6205 51.606 38.6634C52.5563 38.7148 53.5151 38.7834 54.4654 38.8521C55.1442 38.9035 55.8315 38.9635 56.5103 39.0321C57.2654 39.1093 58.0206 39.2037 58.7757 39.3066C59.5648 39.4181 60.3539 39.5381 61.1345 39.6668C63.3236 40.027 65.4957 40.4901 67.6424 41.0733C69.6872 41.6307 71.6981 42.2911 73.6497 43.1229C75.686 43.9891 77.646 45.0097 79.4024 46.3904C80.4715 47.2395 81.4303 48.1914 82.126 49.392C82.6775 50.344 83 51.356 83 52.4623C83 53.5686 82.6691 54.5892 82.0836 55.5154C81.3963 56.6217 80.4545 57.4793 79.4109 58.2254C78.1806 59.1002 76.84 59.7605 75.44 60.3351C75.1684 60.4466 74.9139 60.5667 74.6084 60.5495C74.1078 60.5238 73.6836 60.1808 73.5394 59.6748C73.4036 59.1774 73.5987 58.6371 74.023 58.3798C74.1672 58.294 74.32 58.2254 74.4727 58.1568C75.72 57.6337 76.9418 57.0591 78.0533 56.2701C78.7745 55.7555 79.4363 55.1809 79.9454 54.4519C80.3272 53.9116 80.5818 53.3199 80.6242 52.6424C80.6581 52.0335 80.5224 51.4675 80.2594 50.9272C79.8436 50.0781 79.2327 49.392 78.5369 48.7746C77.2218 47.6082 75.72 46.7335 74.1503 45.9788C72.0969 44.9839 69.9503 44.2293 67.7527 43.5946C65.7672 43.02 63.7563 42.5655 61.72 42.2053C60.9139 42.0595 60.0994 41.9137 59.2848 41.8022C58.1818 41.6479 57.0787 41.5192 55.9757 41.4077C54.7709 41.2877 53.566 41.1847 52.3612 41.1076C50.4351 40.9789 48.509 40.9618 46.583 40.9789C46.4218 40.9789 46.3454 41.0647 46.2691 41.1762C45.6751 42.0166 45.0642 42.8485 44.4787 43.7061C43.0278 45.8158 41.6872 47.9941 40.44 50.2411C40.3381 50.4212 40.3297 50.567 40.4145 50.7556C42.2557 55.0694 44.4363 59.2117 46.9818 63.1395C48.6703 65.7552 50.52 68.2508 52.5903 70.5664C54.2363 72.4017 55.9927 74.1255 58.0036 75.5491C59.0472 76.2866 60.1418 76.9298 61.3636 77.3415C61.9575 77.5473 62.56 77.6845 63.1878 77.6845C64.3842 77.6931 65.3175 77.1871 65.9794 76.1837C66.463 75.4633 66.7345 74.6486 66.9212 73.8081C67.2012 72.5732 67.2606 71.3211 67.2521 70.0604C67.2436 68.6368 67.0993 67.2389 66.8872 65.8324C66.2678 61.7673 65.0884 57.8566 63.6375 54.0317C62.9078 52.1107 62.0933 50.2325 61.2194 48.3801C61.0836 48.0971 60.9818 47.8055 61.0497 47.4882C61.1515 46.9822 61.5503 46.5962 62.0254 46.5362C62.5769 46.459 63.0521 46.7077 63.2981 47.2309C63.7139 48.1228 64.1212 49.0061 64.5115 49.9066C65.8351 52.9511 66.9721 56.0728 67.8715 59.2717C68.3127 60.8411 68.703 62.4363 68.983 64.04C69.1612 65.0605 69.2969 66.0811 69.4242 67.1102C69.5769 68.328 69.6533 69.563 69.6194 70.7979C69.5769 72.4017 69.4157 73.9968 68.8981 75.5234C68.4739 76.7755 67.8545 77.8989 66.8363 78.7737C66.0218 79.4769 65.08 79.88 64.0109 80.0172C62.823 80.1716 61.6775 79.9743 60.5491 79.5884C58.9794 79.0481 57.5794 78.2077 56.2472 77.23C54.1939 75.7206 52.3866 73.9454 50.6981 72.0415C47.7624 68.7225 45.2594 65.0863 43.0194 61.2528C41.543 58.7314 40.2109 56.1328 38.9975 53.4657C38.989 53.3285 38.9551 53.2599 38.9042 53.1398ZM39.1927 47.5139C40.5163 45.3098 41.8909 43.1572 43.4012 41.0218C41.3054 41.1419 39.2945 41.3391 37.2666 41.665C37.8097 43.6718 38.446 45.61 39.1927 47.5139Z" fill="#213FAA" stroke="#213FAA"/>
<path id="Vector_2" d="M51.6824 55.0605C49.7988 55.0777 48.1018 53.5168 48.1018 51.4243C48.1103 49.4518 49.6545 47.8052 51.7079 47.8052C53.8206 47.8138 55.3139 49.5718 55.2885 51.4757C55.263 53.4825 53.617 55.0863 51.6824 55.0605Z" fill="#213FAA" stroke="#213FAA"/>
</g>
<path id="Rectangle Copy 4_2" opacity="0.504278" d="M0 15C0 6.71573 6.71573 0 15 0H88C96.2843 0 103 6.71573 103 15V88C103 96.2843 96.2843 103 88 103H15C6.71573 103 0 96.2843 0 88V15Z" fill="url(#paint0_linear)"/>
</g>
<defs>
<linearGradient id="paint0_linear" x1="0" y1="0" x2="0" y2="103" gradientUnits="userSpaceOnUse">
<stop stop-color="white" stop-opacity="0.0707769"/>
<stop offset="1" stop-opacity="0.104731"/>
</linearGradient>
</defs>
</svg>
