<svg width="103" height="103" viewBox="0 0 103 103" fill="none" xmlns="http://www.w3.org/2000/svg">
<g id="10_Visual">
<rect id="Rectangle Copy 4" width="103" height="103" rx="15" fill="#6A89F7"/>
<g id="Frame">
<g id="Group">
<path id="Vector" d="M63.75 79.4721C63.75 80.4381 62.8734 81.368 61.8963 81.4944C61.7867 81.5124 61.6771 81.5215 61.5766 81.5395C61.4853 81.5395 61.394 81.5395 61.3027 81.5395C61.1109 81.5395 60.9466 81.3951 60.7457 81.4673L60.7365 81.4583C60.7365 81.386 60.6909 81.3951 60.6361 81.3951C60.4443 81.3048 60.2799 81.1694 60.1247 81.0339C57.5495 78.7047 54.9744 76.3845 52.3993 74.0553C51.2304 72.999 50.0615 71.9518 48.9018 70.8955C47.943 70.0288 46.9841 69.1621 46.0162 68.2954C44.8564 67.2482 43.6967 66.201 42.537 65.1537C41.5781 64.287 40.6193 63.4203 39.6513 62.5536C38.6834 61.6779 37.7154 60.8112 36.7475 59.9355C36.5466 59.7459 36.3365 59.5654 36.1265 59.3758C36.0443 59.3036 35.9713 59.2133 35.8525 59.2133C35.743 59.0959 35.6425 58.9695 35.5238 58.8702C34.9028 58.3015 34.2819 57.7417 33.6609 57.182C33.2135 56.7757 32.766 56.3605 32.3186 55.9632C31.4784 55.2139 30.6383 54.4646 29.7982 53.7152C29.1498 53.1375 28.5106 52.5597 27.8714 51.9819C27.707 51.8194 27.5518 51.6569 27.3874 51.5034C26.7482 50.9346 26.109 50.3659 25.4698 49.7881C24.5109 48.9304 23.5521 48.0637 22.6024 47.197C21.3605 46.0685 20.1186 44.9491 18.8766 43.8206C18.5296 43.5046 18.2831 43.1435 18.1278 42.7011C18.0822 42.5657 18.0913 42.4032 18 42.2768V41.5907C18.0822 41.4643 18.0731 41.3108 18.1278 41.1663C18.274 40.7511 18.5114 40.3809 18.8401 40.083C19.9725 39.0628 21.1048 38.0336 22.2463 37.0315C23.1412 36.2461 24.4196 36.21 25.4058 36.9232C26.6112 37.8079 27.7984 38.7107 28.9855 39.6045C31.2319 41.2837 33.4783 42.9719 35.7247 44.6511C35.7886 44.6963 35.8434 44.7685 35.9439 44.7505C35.953 44.8407 36.0169 44.8949 36.09 44.9491C36.3639 45.1567 36.6379 45.3644 36.9118 45.572C38.4003 46.6734 39.8888 47.7748 41.359 48.9033C42.5278 49.7881 43.6967 50.6638 44.8838 51.5305C45.0939 51.684 45.2674 51.9187 45.5596 51.9458C45.5322 52.0541 45.6418 52.0812 45.6966 52.1354C45.8792 52.2798 46.071 52.4152 46.2536 52.5506C50.4816 55.7195 54.7187 58.8973 58.9467 62.0752C59.7503 62.68 60.563 63.2849 61.3666 63.8898C62.0332 64.3863 62.6907 64.8919 63.3573 65.3975C63.4943 65.4877 63.6222 65.578 63.7591 65.6593C63.75 70.2636 63.75 74.8678 63.75 79.4721Z" fill="#213FAA"/>
<path id="Vector_2" d="M35.8434 59.2312C33.944 60.6576 32.0446 62.084 30.1452 63.5104C28.6202 64.657 27.0952 65.7945 25.5793 66.9411C24.3831 67.8439 23.1594 67.7987 22.0454 66.7966C21.0317 65.8938 20.0364 64.973 19.0136 64.0792C18.4931 63.6188 18.1461 63.0681 18 62.391V61.6868C18.1461 60.9736 18.5479 60.4229 19.0867 59.9354C21.8627 57.4527 24.6296 54.9429 27.4057 52.4511C27.5701 52.3067 27.7527 52.1803 27.8714 51.9907C28.5106 52.5685 29.1498 53.1463 29.7982 53.7241C30.6383 54.4734 31.4784 55.2137 32.3186 55.9721C32.766 56.3783 33.2135 56.7846 33.6609 57.1908C34.2819 57.7506 34.9028 58.3193 35.5238 58.8791C35.6334 58.9874 35.7338 59.1138 35.8434 59.2312Z" fill="#213FAA" fill-opacity="0.8"/>
<path id="Vector_3" d="M79 31.8403C79 45.2379 79 58.6444 78.9908 72.042C78.9908 72.8816 78.8082 73.6851 78.2968 74.3983C77.8037 75.0664 77.1645 75.5087 76.4066 75.8247C76.023 75.9872 75.6486 76.1948 75.2651 76.3754C73.8314 77.0525 72.3977 77.7296 70.964 78.4067C70.133 78.8039 69.3112 79.2012 68.4893 79.5984C67.083 80.2755 65.6768 80.9707 64.2613 81.6207C63.0742 82.1624 61.8871 82.1262 60.7456 81.4672C60.9465 81.395 61.1109 81.5394 61.3027 81.5394C61.394 81.5394 61.4853 81.5394 61.5766 81.5394C61.6862 81.5214 61.7958 81.5033 61.8962 81.4943C62.8824 81.3679 63.75 80.438 63.75 79.472C63.7591 74.8677 63.75 70.2635 63.75 65.6502C63.75 65.5689 63.7591 65.4877 63.7591 65.3974C63.7591 56.4506 63.7591 47.5039 63.7591 38.5572C63.7591 38.4759 63.7591 38.3947 63.75 38.3044C63.75 33.8355 63.75 29.3667 63.7408 24.8978C63.7408 24.5728 63.7408 24.2298 63.6312 23.9138C63.266 22.8485 62.0423 22.2707 61.1657 22.4783C61.0013 22.5144 60.8369 22.6047 60.6543 22.5867C61.3574 22.1082 62.1519 21.9547 62.992 22.0179C63.5947 22.063 64.1335 22.2887 64.6723 22.5506C68.6902 24.4645 72.7082 26.3604 76.717 28.2924C77.8676 28.8431 78.6712 29.7278 78.936 31.0007C78.9817 31.2716 79 31.5605 79 31.8403Z" fill="#213FAA" fill-opacity="0.6"/>
<path id="Vector_4" d="M63.7501 38.3135C63.6953 38.3496 63.6313 38.3857 63.5766 38.4218C62.6725 39.0989 61.7685 39.776 60.8553 40.4531C60.1887 40.9496 59.5038 41.4371 58.8372 41.9337C58.2984 42.3399 57.7779 42.7552 57.2391 43.1615C56.5725 43.658 55.8876 44.1455 55.221 44.6511C54.4083 45.265 53.6047 45.8789 52.792 46.4928C52.0614 47.0345 51.3126 47.5581 50.6003 48.1178C49.8698 48.7047 49.1027 49.2463 48.3631 49.8151C47.8334 50.2214 47.2855 50.6186 46.7468 51.0249C46.3358 51.3318 45.934 51.6388 45.5322 51.9367C45.24 51.9096 45.0665 51.6749 44.8565 51.5214C43.6785 50.6547 42.5005 49.779 41.3316 48.8943C39.8614 47.7658 38.3729 46.6643 36.8845 45.5629C36.6105 45.3553 36.3366 45.1476 36.0626 44.94C35.9896 44.8858 35.9256 44.8407 35.9165 44.7414C40.3454 40.751 44.7743 36.7516 49.2032 32.7612C52.2715 29.9987 55.3306 27.2361 58.3989 24.4736C58.965 23.968 59.5221 23.4624 60.0882 22.9478C60.2252 22.8214 60.3804 22.7312 60.5357 22.6318C60.5813 22.6318 60.6087 22.6228 60.627 22.5777C60.8096 22.5957 60.974 22.5145 61.1384 22.4693C62.015 22.2707 63.2387 22.8395 63.604 23.9048C63.7135 24.2298 63.7135 24.5638 63.7135 24.8888C63.7501 29.3757 63.7501 33.8446 63.7501 38.3135Z" fill="#213FAA" fill-opacity="0.8"/>
<path id="Vector_5" d="M60.6451 22.5869C60.636 22.6321 60.5995 22.6411 60.5538 22.6501C60.563 22.5959 60.6086 22.5869 60.6451 22.5869Z" fill="#213FAA" fill-opacity="0.6"/>
<path id="Vector_6" d="M60.7274 81.4673C60.6909 81.4492 60.6635 81.4221 60.627 81.4041C60.6726 81.4041 60.7274 81.386 60.7274 81.4673Z" fill="#213FAA" fill-opacity="0.6"/>
</g>
</g>
<path id="Rectangle Copy 4_2" opacity="0.504278" d="M0 15C0 6.71573 6.71573 0 15 0H88C96.2843 0 103 6.71573 103 15V88C103 96.2843 96.2843 103 88 103H15C6.71573 103 0 96.2843 0 88V15Z" fill="url(#paint0_linear)"/>
</g>
<defs>
<linearGradient id="paint0_linear" x1="0" y1="0" x2="0" y2="103" gradientUnits="userSpaceOnUse">
<stop stop-color="white" stop-opacity="0.0707769"/>
<stop offset="1" stop-opacity="0.104731"/>
</linearGradient>
</defs>
</svg>
