<svg width="103" height="103" viewBox="0 0 103 103" fill="none" xmlns="http://www.w3.org/2000/svg">
<g id="10_Webflow">
<rect id="Rectangle Copy 4" width="103" height="103" rx="15" fill="#6A89F7"/>
<g id="Group 3" opacity="0.779134">
<g id="Group">
<path id="Vector" d="M55.2228 76C53.8549 66.3467 52.487 57.0383 51.168 47.7298C51.0215 47.7298 50.8749 47.6805 50.7772 47.6805C50.2398 49.0596 49.6536 50.4386 49.1162 51.8669C47.846 55.216 46.5759 58.6143 45.2568 61.9634C43.7424 65.9035 41.7395 69.5481 38.4663 72.3554C36.1214 74.3747 33.3856 75.606 30.3568 76.0492C29.4774 76.197 28.5981 76.0492 27.4745 76.0492C24.9341 60.6829 22.4426 45.4642 20 29.9009C21.0748 29.9994 21.7587 29.9994 22.4426 30.1471C29.1355 31.4769 34.0696 37.2393 34.4604 44.1345C34.7535 49.3058 35.0955 54.428 35.3886 59.5993C35.3886 59.9441 35.4863 60.2396 35.8771 60.7321C36.1702 60.0918 36.5122 59.4023 36.7565 58.7128C38.8083 53.4429 40.8113 48.1731 42.8142 42.8539C44.0355 39.7019 45.6965 36.796 48.0903 34.3335C51.0215 31.3292 55.0762 29.7039 59.131 30.0486C60.1569 35.0723 60.5477 40.2929 61.2317 45.4642C61.9156 50.5371 62.5507 55.61 63.1858 60.7321C63.3323 60.7321 63.5278 60.7321 63.6743 60.7321C64.456 58.2695 65.2865 55.7577 66.0681 53.2952C66.9963 50.3401 67.9245 47.3358 68.8527 44.3807C69.8298 41.3764 71.1976 38.6183 73.1029 36.1558C75.7898 32.7082 79.356 30.6889 83.6062 30.0486C84.2902 29.9501 85.0229 30.0486 86 30.0486C85.658 31.0337 85.4138 31.8217 85.1207 32.5112C81.2124 42.2629 77.3042 51.9654 73.396 61.7171C72.2235 64.6229 70.9045 67.4303 68.9016 69.8436C66.3612 73.1927 62.8438 75.2612 58.5936 76C57.5677 76.1477 56.493 76 55.2228 76Z" fill="#213FAA"/>
</g>
</g>
<path id="Rectangle Copy 4_2" opacity="0.504278" d="M0 15C0 6.71573 6.71573 0 15 0H88C96.2843 0 103 6.71573 103 15V88C103 96.2843 96.2843 103 88 103H15C6.71573 103 0 96.2843 0 88V15Z" fill="url(#paint0_linear)"/>
</g>
<defs>
<linearGradient id="paint0_linear" x1="0" y1="0" x2="0" y2="103" gradientUnits="userSpaceOnUse">
<stop stop-color="white" stop-opacity="0.0707769"/>
<stop offset="1" stop-opacity="0.104731"/>
</linearGradient>
</defs>
</svg>
