<svg width="103" height="103" viewBox="0 0 103 103" fill="none" xmlns="http://www.w3.org/2000/svg">
<g id="10_Zapier">
<rect id="Rectangle Copy 4" width="103" height="103" rx="15" fill="#6A89F7"/>
<g id="Group" opacity="0.8">
<path id="Vector" d="M49.7468 20C50.89 20 52.0617 20 53.2048 20C53.2334 20.0572 53.2906 20.0572 53.3477 20.0572C54.3765 20.1143 55.3768 20.2286 56.4056 20.3715C56.6914 20.4001 56.7486 20.5144 56.7486 20.7716C56.7486 26.6588 56.7486 32.5745 56.7486 38.4616C56.7486 38.5474 56.7486 38.6331 56.7486 38.776C56.8629 38.6617 56.92 38.6045 56.9772 38.5474C61.1782 34.3464 65.3507 30.1739 69.5517 25.9729C69.7231 25.8014 69.8089 25.8014 69.9804 25.9443C72.6953 27.9162 75.0387 30.2596 77.0107 32.9746C77.1535 33.1746 77.1535 33.2604 76.9821 33.4604C72.8096 37.6329 68.6372 41.8053 64.4647 45.9778C64.4076 46.0349 64.2933 46.1207 64.2647 46.235C64.4076 46.235 64.5219 46.235 64.6362 46.235C70.5233 46.235 76.4105 46.235 82.2977 46.235C82.5549 46.235 82.6406 46.2921 82.6692 46.5493C82.7835 47.3781 82.8978 48.2069 82.955 49.0357C82.9835 49.2643 82.9264 49.5215 83.0407 49.7501C83.0407 50.9504 83.0407 52.1221 83.0407 53.3224C82.9835 53.351 82.9835 53.3796 82.9835 53.4367C82.9264 54.437 82.8121 55.4372 82.6692 56.4375C82.6406 56.6947 82.5549 56.7804 82.2977 56.7804C76.4105 56.7804 70.5233 56.7804 64.6362 56.7804C64.5219 56.7804 64.4076 56.7518 64.3218 56.809C64.7219 57.2091 65.0934 57.6092 65.4935 58.0093C69.3516 61.8674 73.2383 65.754 77.0964 69.6121C77.2107 69.7264 77.2393 69.8122 77.125 69.9836C75.1245 72.6986 72.781 75.0706 70.0375 77.0711C69.866 77.214 69.7517 77.1854 69.5803 77.0425C65.4078 72.8415 61.2068 68.669 57.0343 64.4966C56.9772 64.4394 56.8914 64.3537 56.7771 64.268C56.7771 64.4109 56.7771 64.4966 56.7771 64.5537C56.7771 66.1256 56.7771 67.6974 56.7771 69.2692C56.7771 73.6131 56.7771 77.9284 56.7771 82.2724C56.7771 82.5581 56.6914 82.6439 56.4342 82.701C55.6054 82.8153 54.8052 82.9011 53.9764 82.9868C51.4901 83.1869 49.0038 83.0726 46.5461 82.701C46.3174 82.6725 46.2603 82.5867 46.2603 82.3581C46.2603 76.4424 46.2603 70.5266 46.2603 64.6109C46.2603 64.5252 46.2603 64.4394 46.2603 64.2965C46.146 64.4109 46.0888 64.468 46.0316 64.5252C41.8306 68.7262 37.6582 72.8986 33.4571 77.0997C33.3143 77.2426 33.2285 77.2711 33.057 77.1568C30.3135 75.1563 27.9415 72.7843 25.941 70.0408C25.8553 69.9265 25.8267 69.8408 25.9696 69.7264C29.9992 65.6969 34.0287 61.6673 38.0583 57.6378C38.2869 57.4091 38.5441 57.1805 38.8299 56.9233C38.6298 56.8376 38.5155 56.8662 38.4012 56.8662C32.5426 56.8662 26.6841 56.8662 20.7969 56.8662C20.7398 56.8662 20.654 56.8662 20.5969 56.8662C20.4825 56.8662 20.4254 56.8376 20.3968 56.6947C20.3111 56.0945 20.2253 55.523 20.1682 54.9228C19.8252 52.1793 20.0539 49.4358 20.3968 46.7208C20.454 46.3779 20.454 46.3779 20.8255 46.3779C26.7126 46.3779 32.5712 46.3779 38.4584 46.3779C38.5727 46.3779 38.687 46.4064 38.8013 46.3207C38.687 46.2064 38.5727 46.0921 38.4584 45.9778C34.3145 41.8339 30.1706 37.69 25.9982 33.5462C25.8553 33.4033 25.8553 33.3175 25.9696 33.1746C27.9415 30.4597 30.3135 28.0877 33.0285 26.1158C33.2285 25.9729 33.3142 25.9729 33.4857 26.1444C37.6582 30.3454 41.8592 34.5178 46.0316 38.6903C46.0888 38.7474 46.1745 38.8046 46.2603 38.9189C46.2603 38.776 46.2603 38.6903 46.2603 38.6045C46.2603 34.3464 46.2603 30.0596 46.2603 25.8014C46.2603 24.1439 46.2603 22.4863 46.2603 20.8002C46.2603 20.6287 46.3174 20.543 46.4889 20.5144C47.2891 20.4001 48.1179 20.2858 48.9466 20.2286C49.1753 20.0857 49.4611 20.1143 49.7468 20ZM59.3492 51.4648C59.3492 49.2643 58.9777 47.1495 58.2346 45.0633C58.1775 44.8918 58.0632 44.8061 57.8917 44.7489C56.2627 44.1773 54.5766 43.8058 52.8619 43.6915C50.1755 43.4915 47.5749 43.863 45.06 44.7489C44.8885 44.8061 44.8028 44.8918 44.7456 45.0633C43.231 49.35 43.231 53.6368 44.7456 57.9236C44.8028 58.095 44.9171 58.2093 45.0886 58.2665C46.7175 58.8381 48.4037 59.2096 50.1469 59.3239C52.8333 59.5239 55.4339 59.1524 57.9488 58.2379C58.0917 58.1808 58.1775 58.095 58.2346 57.9521C58.9777 55.8659 59.3492 53.6939 59.3492 51.4648Z" fill="#213FAA"/>
</g>
<path id="Rectangle Copy 4_2" opacity="0.504278" d="M0 15C0 6.71573 6.71573 0 15 0H88C96.2843 0 103 6.71573 103 15V88C103 96.2843 96.2843 103 88 103H15C6.71573 103 0 96.2843 0 88V15Z" fill="url(#paint0_linear)"/>
</g>
<defs>
<linearGradient id="paint0_linear" x1="0" y1="0" x2="0" y2="103" gradientUnits="userSpaceOnUse">
<stop stop-color="white" stop-opacity="0.0707769"/>
<stop offset="1" stop-opacity="0.104731"/>
</linearGradient>
</defs>
</svg>
