<svg width="103" height="103" viewBox="0 0 103 103" fill="none" xmlns="http://www.w3.org/2000/svg">
<g id="9_Briefbox Copy 2">
<g id="9_Briefbox Copy">
<g id="9_Briefbox">
<rect id="Rectangle-Copy-70" width="103" height="103" rx="15" fill="#D9EC62"/>
<g id="Group-8">
<path id="Fill 1" fill-rule="evenodd" clip-rule="evenodd" d="M60.4167 34.0936C61.014 31.478 61.5746 29.4709 62.0942 28.0833C62.6377 29.0253 63.2428 30.3685 63.8242 32.2194C64.3342 33.8441 64.7359 35.5818 65 37.25C63.5885 36.0758 62.0516 35.0143 60.4167 34.0936M80.5979 56.3406L74.6453 51.7386C74.6329 51.7291 74.6204 51.7196 74.6077 51.7103C74.3701 51.5339 74.2009 51.2746 74.1425 50.9949C73.5389 48.1271 72.2222 45.2899 70.3575 42.6817C70.4465 42.4311 70.5004 42.1628 70.508 41.8814C70.6549 36.3794 68.2543 24.7062 63.1418 22.0129C62.2804 21.5593 61.2411 21.6755 60.4933 22.3092C58.418 24.0675 57.2342 27.9414 56.2699 32.0138C51.7414 25.4113 47.4945 19.8872 42.1752 18.1208C41.0166 17.7366 39.7613 18.2944 39.2346 19.4297C37.4838 23.2036 36.935 29.801 37.2099 33.8107C34.0036 35.5589 30.6793 37.6955 28.5961 40.7075C27.7208 41.973 27.6545 43.6548 28.4272 44.9925C29.0565 46.0821 30.1388 46.778 31.3264 46.9045C27.2756 51.3824 25.9503 55.9505 25.6055 59.2781C25.4398 60.8784 26.2152 62.4043 27.5809 63.1657C28.3574 63.5986 29.2286 63.73 30.056 63.5754C28.4345 68.2754 26.7357 75.0148 27.2304 81.6733C27.329 82.995 28.3961 84.0003 29.6565 84C29.7193 84 29.7824 83.9978 29.846 83.9927C31.1873 83.886 32.1908 82.6744 32.088 81.2865C31.4046 72.0972 35.7522 62.1906 36.6302 60.2991C37.0911 59.3066 36.9501 58.1177 36.2711 57.2692C35.5899 56.4182 34.4832 56.0522 33.452 56.3372C32.5078 56.5977 31.6931 56.9082 30.9307 57.3098C31.7448 54.4182 33.6504 50.9011 37.8641 47.5858L37.9678 47.5041C38.709 46.918 39.0923 45.96 38.9686 45.0034C38.8449 44.0482 38.2322 43.2297 37.3683 42.8663L37.2503 42.8161C36.6627 42.5652 35.5571 42.0925 34.1105 41.8988C36.2234 39.957 39.151 38.4275 40.9026 37.5127C41.7717 37.0588 42.2613 36.1392 42.2375 35.1952C42.2442 35.0135 42.2337 34.8286 42.2006 34.6424C41.8096 32.4383 42.0134 27.5219 42.8461 24.0047C46.1959 26.2304 49.4986 30.8181 52.8535 35.7449C52.8679 35.7662 52.8846 35.7855 52.8995 35.8059C52.9087 35.8188 52.9185 35.8308 52.9279 35.8432C53.0806 36.0456 53.2579 36.2181 53.4525 36.3587C53.4603 36.3643 53.4681 36.3702 53.476 36.3755C53.5225 36.408 53.5696 36.4393 53.6178 36.4685C53.63 36.4755 53.6424 36.4825 53.6549 36.4898C53.7017 36.5169 53.7491 36.5438 53.7975 36.5676C53.8089 36.5732 53.8208 36.578 53.8324 36.5833C53.9093 36.6197 53.9881 36.6513 54.0682 36.6793C54.1009 36.6908 54.1331 36.7034 54.1667 36.7135C55.4847 37.1484 56.8047 37.7196 58.0913 38.4121C63.9467 41.563 68.2733 46.7953 69.3813 52.0629C69.6933 53.5577 70.5326 54.8803 71.7459 55.7892L77.5182 60.252C77.4641 60.4133 77.3345 60.6205 77.1845 60.702C75.8949 61.4032 73.9749 62.0095 69.4944 61.1867L69.1133 61.1184C68.8289 61.0677 68.548 61.0173 68.2692 60.9694C68.2343 60.9636 68.1994 60.9582 68.1647 60.954C64.5551 60.3615 53.987 58.6928 51.6968 66.4683C49.8253 72.83 51.8307 77.1682 53.4419 80.6537C53.6714 81.1496 53.8879 81.6181 54.0909 82.0846C54.4969 83.0182 55.3843 83.5707 56.3134 83.5707C56.6477 83.5707 56.9873 83.499 57.3119 83.3481C58.5384 82.7766 59.0851 81.2846 58.533 80.0152C58.307 79.4955 58.068 78.9788 57.8369 78.479C56.3346 75.2293 55.0374 72.4231 56.3567 67.9368C56.8463 66.2757 59.1752 64.5826 67.4878 65.9464C67.51 65.9497 67.5322 65.9534 67.5544 65.9565C67.7956 65.9979 68.0383 66.0416 68.2835 66.0855L68.6568 66.1519C73.2978 67.0046 76.6265 66.6996 79.4509 65.164C81.114 64.2595 82.2735 62.418 82.4042 60.4721C82.5173 58.7939 81.8591 57.2896 80.5979 56.3406" fill="#9BB110"/>
</g>
</g>
<rect id="Rectangle Copy 38" opacity="0.610166" width="103" height="103" rx="15" fill="url(#paint0_linear)"/>
</g>
</g>
<defs>
<linearGradient id="paint0_linear" x1="0" y1="0" x2="0" y2="103" gradientUnits="userSpaceOnUse">
<stop stop-color="white" stop-opacity="0.0707769"/>
<stop offset="1" stop-color="#0B1A3F" stop-opacity="0.104731"/>
</linearGradient>
</defs>
</svg>
