<svg width="103" height="103" viewBox="0 0 103 103" fill="none" xmlns="http://www.w3.org/2000/svg">
<g id="11_Notion">
<g id="8_Mobbin">
<rect id="Rectangle-Copy-58" width="103" height="103" rx="15" fill="#D9EC62"/>
<g id="Group 3">
<mask id="mask0" mask-type="alpha" maskUnits="userSpaceOnUse" x="23" y="21" width="58" height="61">
<path id="Clip 2" fill-rule="evenodd" clip-rule="evenodd" d="M23 21.2207H80.9999V81.7795H23V21.2207Z" fill="white"/>
</mask>
<g mask="url(#mask0)">
<path id="Fill 1" fill-rule="evenodd" clip-rule="evenodd" d="M72.5896 30.9239C72.612 30.7867 72.6342 30.6494 72.6566 30.5122C72.311 30.1959 71.9904 29.8455 71.6155 29.5689C69.9883 28.3675 68.3335 27.2031 66.7111 25.9956C65.1182 24.8101 63.3692 24.3455 61.3888 24.5623C59.6891 24.7485 57.9749 24.798 56.2682 24.9159C53.3795 25.1153 50.4903 25.3102 47.603 25.5265C44.6281 25.7494 41.6564 26.0105 38.6812 26.2273C35.7934 26.4378 32.9026 26.6076 30.0145 26.8112C29.6688 26.8355 29.3137 26.9173 28.9918 27.0458C28.0625 27.4165 27.9665 27.9383 28.7495 28.5798C30.3145 29.8614 31.8929 31.1281 33.5029 32.3514C34.5632 33.1572 35.8145 33.3608 37.1255 33.2735C40.5396 33.0464 43.9532 32.8094 47.3688 32.6116C51.0041 32.4011 54.6423 32.2459 58.2779 32.0402C62.5696 31.7971 66.8603 31.5343 71.1499 31.2558C71.635 31.2243 72.1101 31.0384 72.5896 30.9239M77.057 54.941C77.057 49.2136 77.0638 43.4859 77.0538 37.7584C77.0496 35.3813 76.6235 34.8976 74.3088 34.9796C71.5491 35.0777 68.7949 35.3295 66.0367 35.4778C62.1823 35.6849 58.3261 35.852 54.4715 36.0482C52.8512 36.1307 51.2319 36.2392 49.6127 36.3442C45.8933 36.5851 42.1771 36.8905 38.4543 37.0571C35.3455 37.1965 34.858 37.6045 34.857 40.697C34.853 51.6674 34.8551 62.6378 34.8562 73.6085C34.8564 74.0049 34.8483 74.4029 34.8799 74.7972C35.0088 76.4021 35.7792 77.1605 37.4013 77.2719C37.8827 77.3047 38.3686 77.311 38.85 77.2846C42.1344 77.1034 45.4188 76.9236 48.7018 76.7186C53.9097 76.3944 59.1157 76.0387 64.3239 75.7196C67.6947 75.5133 71.0682 75.3573 74.4396 75.1618C76.2568 75.0563 76.9486 74.3413 77.043 72.5197C77.0657 72.0802 77.0572 71.6388 77.0572 71.1983C77.058 65.7792 77.0578 60.3601 77.057 54.941M37.2362 81.7795H36.709C36.5455 81.7166 36.3844 81.6068 36.2181 81.5981C34.6313 81.513 33.5664 80.6202 32.6484 79.4098C30.1518 76.1195 27.6278 72.8504 25.0992 69.5842C23.7842 67.8856 23.2182 66.0239 23.2321 63.8322C23.3023 52.6558 23.2691 41.4791 23.2527 30.3021C23.2517 29.567 23.0879 28.8315 22.9999 28.0964V27.8319C23.0521 27.7111 23.1338 27.5945 23.152 27.4686C23.548 24.7231 24.9492 23.9683 27.7583 23.8583C30.5111 23.7504 33.2596 23.5148 36.0077 23.304C40.1513 22.9864 44.2909 22.6138 48.4358 22.3161C52.7555 22.0059 57.0796 21.7612 61.4012 21.4725C61.7861 21.4468 62.1641 21.3074 62.5453 21.2207H62.809C64.6312 21.5454 66.3467 22.0574 67.8924 23.1919C71.467 25.8158 75.0704 28.4066 78.76 30.8628C80.2709 31.8685 80.7716 33.0471 80.7639 34.8052C80.7099 47.3475 80.7312 59.8906 80.7471 72.4331C80.7481 73.1688 80.9118 73.904 80.9999 74.6394V75.1683C80.9274 75.3751 80.8301 75.5769 80.7858 75.7898C80.2643 78.3033 79.8531 78.8021 77.3198 79.1752C75.419 79.4553 73.4849 79.5291 71.5625 79.6391C67.8903 79.8496 64.2149 80.0143 60.542 80.2105C58.8803 80.2991 57.2201 80.4158 55.5598 80.5231C51.8897 80.7611 48.2207 81.0153 44.5495 81.2348C42.4512 81.3598 40.3493 81.4209 38.2505 81.5344C37.909 81.5532 37.5742 81.6949 37.2362 81.7795" fill="#9BB110"/>
</g>
</g>
<path id="Fill 4" fill-rule="evenodd" clip-rule="evenodd" d="M49.2136 51.7151C49.1882 52.1468 49.1415 52.5782 49.141 53.01C49.1358 57.7034 49.1337 62.3965 49.1397 67.0899C49.1423 68.8938 49.1854 68.934 50.9826 69.345C51.0249 69.3548 51.0737 69.3521 51.1095 69.3731C51.5343 69.6229 52.2376 69.8038 52.3222 70.1433C52.5045 70.8731 51.7706 71.1412 51.2244 71.4005C50.9539 71.5288 50.6445 71.6226 50.3482 71.6375C47.7011 71.7724 45.0525 71.8888 42.4041 71.9999C42.2905 72.0044 42.1725 71.9045 42.0245 71.8394C41.8906 71.1292 42.326 70.7711 42.8417 70.5036C43.1868 70.3242 43.5696 70.2103 43.9458 70.1053C44.6337 69.913 44.9491 69.4536 44.9598 68.7475C44.9645 68.4377 44.976 68.1279 44.976 67.8179C44.9768 61.3537 44.9768 54.8893 44.9757 48.4249C44.9755 48.1152 44.9666 47.8054 44.9554 47.4956C44.9269 46.6943 44.494 46.2932 43.7301 46.2246C43.6001 46.2132 43.4685 46.2127 43.3398 46.1933C42.8487 46.1197 42.0999 46.3073 42.0569 45.6261C42.0271 45.1513 42.3793 44.5036 42.7631 44.1893C43.1999 43.832 43.8513 43.637 44.428 43.5846C46.7205 43.3763 49.0219 43.2703 51.3168 43.0849C52.0638 43.0246 52.5629 43.3059 52.9564 43.9172C54.0292 45.5841 55.1226 47.2369 56.1956 48.9034C58.6273 52.6803 61.0493 56.4637 63.4834 60.2392C63.6666 60.5235 63.9118 60.7661 64.3253 61.2666C64.4308 60.6521 64.5439 60.2969 64.5446 59.9417C64.5569 55.4255 64.5629 50.9093 64.5462 46.3931C64.5415 45.1643 64.4013 45.0389 63.2583 44.8179C63.0019 44.7682 62.7207 44.7709 62.4949 44.6582C62.1686 44.4954 61.6122 44.2161 61.632 44.0445C61.6816 43.6184 61.9252 43.1399 62.2385 42.8458C62.492 42.6077 62.956 42.5458 63.3353 42.5132C65.4994 42.3267 67.6661 42.1683 69.8325 42.0105C70.3278 41.9741 70.8403 42.0004 70.9714 42.6239C71.0993 43.2329 70.7878 43.638 70.2521 43.8827C70.2124 43.9008 70.1698 43.9117 70.1302 43.9297C69.5508 44.1925 68.7347 44.3043 68.4543 44.7586C68.1269 45.2892 68.2141 46.1184 68.2128 46.8179C68.1992 54.0347 68.206 61.2517 68.2037 68.469C68.2031 70.5761 68.0851 70.7313 66.1009 71.3503C63.6713 72.1085 62.2388 71.6239 60.7627 69.3317C58.0208 65.074 55.346 60.7719 52.6431 56.4882C51.6155 54.8588 50.5879 53.2294 49.5603 51.6003C49.4446 51.6385 49.329 51.6768 49.2136 51.7151" fill="#9BB110"/>
</g>
<rect id="Rectangle Copy 49" opacity="0.665109" width="103" height="103" rx="15" fill="url(#paint0_linear)"/>
</g>
<defs>
<linearGradient id="paint0_linear" x1="0" y1="0" x2="0" y2="103" gradientUnits="userSpaceOnUse">
<stop stop-color="white" stop-opacity="0.0707769"/>
<stop offset="1" stop-color="#0B1A3F" stop-opacity="0.104731"/>
</linearGradient>
</defs>
</svg>
