<svg width="103" height="103" viewBox="0 0 103 103" fill="none" xmlns="http://www.w3.org/2000/svg">
<g id="11_Notion">
<g id="8_Mobbin">
<rect id="Rectangle-Copy-58" width="103" height="103" rx="15" fill="#D9EC62"/>
<g id="Group 3">
<mask id="mask0" mask-type="alpha" maskUnits="userSpaceOnUse" x="18" y="16" width="68" height="71">
<path id="Clip 2" fill-rule="evenodd" clip-rule="evenodd" d="M18 16H85.9999V87H18V16Z" fill="white"/>
</mask>
<g mask="url(#mask0)">
<path id="Fill 1" fill-rule="evenodd" clip-rule="evenodd" d="M76.1396 27.3764C76.1658 27.2155 76.1918 27.0546 76.2181 26.8937C75.8129 26.5229 75.437 26.1121 74.9975 25.7878C73.0898 24.3792 71.1496 23.0141 69.2475 21.5985C67.3799 20.2085 65.3294 19.6638 63.0075 19.918C61.0148 20.1363 59.0051 20.1943 57.0041 20.3326C53.6174 20.5663 50.23 20.7948 46.8449 21.0484C43.3571 21.3098 39.873 21.6158 36.3849 21.8701C32.9991 22.1169 29.61 22.3159 26.2239 22.5546C25.8186 22.5832 25.4023 22.679 25.0249 22.8296C23.9354 23.2643 23.8228 23.876 24.7408 24.6282C26.5756 26.1307 28.4261 27.6158 30.3138 29.05C31.5569 29.9948 33.0239 30.2335 34.561 30.1312C38.5637 29.8648 42.5658 29.587 46.5704 29.3551C50.8324 29.1083 55.0979 28.9263 59.3603 28.6851C64.3919 28.4002 69.4224 28.092 74.4516 27.7655C75.0204 27.7286 75.5773 27.5107 76.1396 27.3764ZM81.3771 55.5343C81.3771 48.8194 81.3852 42.1041 81.3734 35.3892C81.3685 32.6022 80.869 32.0351 78.1552 32.1313C74.9196 32.2463 71.6905 32.5414 68.4568 32.7154C63.9379 32.9581 59.4168 33.1541 54.8976 33.3841C52.9979 33.4809 51.0995 33.608 49.2011 33.7311C44.8404 34.0135 40.4835 34.3716 36.1188 34.567C32.474 34.7304 31.9025 35.2088 31.9012 38.8344C31.8966 51.6963 31.8991 64.5581 31.9003 77.4203C31.9006 77.885 31.891 78.3516 31.9281 78.8139C32.0793 80.6956 32.9824 81.5848 34.8843 81.7153C35.4487 81.7538 36.0183 81.7612 36.5827 81.7302C40.4334 81.5178 44.284 81.307 48.1332 81.0667C54.2389 80.6866 60.3426 80.2696 66.4486 79.8953C70.4007 79.6535 74.3558 79.4706 78.3085 79.2415C80.439 79.1178 81.2501 78.2794 81.3607 76.1438C81.3873 75.6285 81.3774 75.1111 81.3774 74.5945C81.3784 68.2411 81.378 61.8877 81.3771 55.5343ZM34.6908 87H34.0726C33.881 86.9262 33.6921 86.7975 33.4971 86.7873C31.6367 86.6875 30.3882 85.6408 29.312 84.2217C26.3849 80.3641 23.4257 76.5314 20.4612 72.702C18.9194 70.7106 18.2558 68.5279 18.2722 65.9583C18.3544 52.8549 18.3155 39.7512 18.2963 26.6472C18.2951 25.7853 18.1031 24.9231 17.9999 24.0611V23.7511C18.0611 23.6094 18.1569 23.4727 18.1782 23.3251C18.6425 20.1062 20.2853 19.2214 23.5787 19.0924C26.8062 18.9659 30.0285 18.6896 33.2504 18.4425C38.1084 18.0702 42.9618 17.6333 47.8213 17.2842C52.8857 16.9205 57.9554 16.6337 63.0221 16.2952C63.4733 16.2651 63.9166 16.1017 64.3635 16H64.6726C66.809 16.3807 68.8203 16.981 70.6325 18.3111C74.8235 21.3873 79.0481 24.4248 83.3738 27.3045C85.1452 28.4836 85.7322 29.8655 85.7232 31.9266C85.6599 46.6314 85.6849 61.3371 85.7035 76.0421C85.7047 76.9047 85.8966 77.7666 85.9999 78.6288V79.2489C85.9149 79.4914 85.8008 79.7279 85.7489 79.9775C85.1375 82.9245 84.6553 83.5092 81.6853 83.9467C79.4567 84.275 77.1892 84.3615 74.9354 84.4905C70.63 84.7373 66.321 84.9305 62.0147 85.1605C60.0665 85.2644 58.1202 85.4011 56.1735 85.527C51.8707 85.806 47.5691 86.104 43.265 86.3613C40.8049 86.508 38.3405 86.5796 35.8799 86.7126C35.4796 86.7346 35.087 86.9008 34.6908 87Z" fill="#9BB110"/>
</g>
</g>
<path id="Fill 4" fill-rule="evenodd" clip-rule="evenodd" d="M48.4573 51.3342C48.4276 51.8379 48.3728 52.3413 48.3722 52.845C48.3661 58.3206 48.3636 63.7959 48.3707 69.2716C48.3737 71.3762 48.4242 71.423 50.5314 71.9025C50.5809 71.9139 50.6382 71.9108 50.6801 71.9353C51.1781 72.2267 52.0028 72.4377 52.1019 72.8339C52.3156 73.6853 51.4552 73.9981 50.8148 74.3006C50.4977 74.4503 50.135 74.5597 49.7876 74.577C46.6841 74.7345 43.5788 74.8703 40.4738 74.9998C40.3406 75.0051 40.2023 74.8886 40.0287 74.8126C39.8717 73.9841 40.3822 73.5663 40.9868 73.2542C41.3914 73.045 41.8402 72.912 42.2812 72.7895C43.0878 72.5651 43.4576 72.0292 43.4701 71.2054C43.4756 70.844 43.4891 70.4826 43.4891 70.1208C43.49 62.5794 43.49 55.0376 43.4888 47.4958C43.4885 47.1344 43.4781 46.773 43.4649 46.4116C43.4315 45.4767 42.924 45.0087 42.0284 44.9287C41.876 44.9154 41.7217 44.9148 41.5708 44.8922C40.995 44.8063 40.1172 45.0251 40.0667 44.2304C40.0318 43.6765 40.4447 42.9209 40.8946 42.5542C41.4067 42.1373 42.1704 41.9098 42.8466 41.8487C45.5344 41.6057 48.2326 41.4821 50.9232 41.2657C51.7989 41.1953 52.3841 41.5236 52.8454 42.2368C54.1032 44.1814 55.3851 46.1097 56.6431 48.054C59.4941 52.4603 62.3337 56.8744 65.1874 61.2791C65.4023 61.6108 65.6897 61.8937 66.1745 62.4777C66.2982 61.7608 66.4307 61.3464 66.4317 60.932C66.446 55.6631 66.4531 50.3942 66.4335 45.1252C66.428 43.6917 66.2636 43.5454 64.9235 43.2875C64.6229 43.2296 64.2933 43.2327 64.0285 43.1013C63.6459 42.9112 62.9936 42.5855 63.0169 42.3853C63.075 41.8881 63.3606 41.3299 63.7279 40.9867C64.0252 40.709 64.5691 40.6368 65.0138 40.5987C67.551 40.3811 70.0913 40.1964 72.6312 40.0123C73.2119 39.9698 73.8128 40.0005 73.9664 40.7279C74.1164 41.4383 73.7512 41.911 73.1231 42.1965C73.0766 42.2176 73.0267 42.2303 72.9802 42.2514C72.301 42.5579 71.3441 42.6884 71.0154 43.2184C70.6315 43.8374 70.7338 44.8048 70.7323 45.6209C70.7163 54.0404 70.7243 62.4603 70.7215 70.8805C70.7209 73.3388 70.5826 73.5198 68.2563 74.242C65.4078 75.1266 63.7282 74.5612 61.9976 71.887C58.783 66.9196 55.6471 61.9006 52.4781 56.9029C51.2733 55.0019 50.0686 53.101 48.8638 51.2003C48.7282 51.245 48.5926 51.2896 48.4573 51.3342Z" fill="#9BB110"/>
</g>
<rect id="Rectangle Copy 49" opacity="0.665109" width="103" height="103" rx="15" fill="url(#paint0_linear)"/>
</g>
<defs>
<linearGradient id="paint0_linear" x1="0" y1="0" x2="0" y2="103" gradientUnits="userSpaceOnUse">
<stop stop-color="white" stop-opacity="0.0707769"/>
<stop offset="1" stop-color="#0B1A3F" stop-opacity="0.104731"/>
</linearGradient>
</defs>
</svg>
