<svg width="103" height="103" viewBox="0 0 103 103" fill="none" xmlns="http://www.w3.org/2000/svg">
<g id="1_Unsplash">
<rect id="Rectangle Copy 4" width="103" height="103" rx="15" fill="#44DBBD"/>
<g id="Group 3" opacity="0.779134">
<path id="Vector" d="M51.1667 80.012C45.5962 80.012 40.0257 80.1691 34.5336 80.012C27.1586 79.7764 22.5296 75.7716 22.2942 68.39C21.9019 56.8465 21.9019 45.303 22.2942 33.7595C22.4511 26.8491 26.8448 22.5301 33.7491 22.2945C45.2824 21.9018 56.8157 21.9018 68.349 22.2945C75.724 22.5301 79.8039 27.1632 79.8823 34.5447C80.0392 45.6956 80.0392 56.768 79.8823 67.9188C79.7254 75.536 75.4102 79.7764 67.7998 80.012C62.3077 80.1691 56.7372 80.012 51.1667 80.012ZM38.4565 44.9103C37.7504 44.5177 36.9658 44.8318 36.5736 45.46C34.8475 48.6011 35.0829 48.8367 37.9858 50.4858C39.0057 51.114 40.0257 51.5851 41.0457 52.1348C43.3994 53.3913 45.6747 54.6477 48.6561 56.2968C49.1268 56.5324 49.1268 57.2391 48.6561 57.5532C44.1055 60.0661 40.1826 62.2649 36.1028 64.5422C35.4751 64.8563 35.2398 65.6415 35.4751 66.2697L36.3382 68.39C36.652 69.1753 37.5935 69.4894 38.2996 69.0967C43.4778 66.3483 48.3422 63.9139 53.0497 61.1655C55.7173 59.5949 55.6388 54.098 52.8928 52.5275C48.2638 49.9361 43.4778 47.5017 38.4565 44.9103Z" fill="#167C6B"/>
</g>
<path id="Rectangle Copy 4_2" opacity="0.504278" d="M0 15C0 6.71573 6.71573 0 15 0H88C96.2843 0 103 6.71573 103 15V88C103 96.2843 96.2843 103 88 103H15C6.71573 103 0 96.2843 0 88V15Z" fill="url(#paint0_linear)"/>
</g>
<defs>
<linearGradient id="paint0_linear" x1="0" y1="0" x2="0" y2="103" gradientUnits="userSpaceOnUse">
<stop stop-color="white" stop-opacity="0.0707769"/>
<stop offset="1" stop-opacity="0.104731"/>
</linearGradient>
</defs>
</svg>
