<?xml version="1.0" encoding="UTF-8"?>
<svg width="103px" height="104px" viewBox="0 0 103 104" version="1.1" xmlns="http://www.w3.org/2000/svg" xmlns:xlink="http://www.w3.org/1999/xlink">
    <!-- Generator: Sketch 57.1 (83088) - https://sketch.com -->
    <title>1_Kaboompics</title>
    <desc>Created with Sketch.</desc>
    <defs>
        <polygon id="path-1" points="6.40713479e-05 0.24297561 49.88068 0.24297561 49.88068 50.7709475 6.40713479e-05 50.7709475"></polygon>
        <polygon id="path-3" points="0.377892291 0.131931726 45.908 0.131931726 45.908 45 0.377892291 45"></polygon>
        <linearGradient x1="50%" y1="0%" x2="50%" y2="100%" id="linearGradient-5">
            <stop stop-color="#FFFFFF" stop-opacity="0.0707768794" offset="0%"></stop>
            <stop stop-color="#000000" stop-opacity="0.104731206" offset="100%"></stop>
        </linearGradient>
    </defs>
    <g id="Page-1" stroke="none" stroke-width="1" fill="none" fill-rule="evenodd">
        <g id="Home-Copy-5" transform="translate(-549.000000, -298.000000)">
            <g id="1_Kaboompics" transform="translate(549.000000, 298.000000)">
                <rect id="Rectangle-Copy-9" fill="#44DBBD" x="0" y="0" width="103" height="104" rx="15"></rect>
                <g id="Group-9" opacity="0.779134115" transform="translate(49.482963, 52.370590) rotate(-15.000000) translate(-49.482963, -52.370590) translate(17.982963, 13.370590)">
                    <g id="Group-3" transform="translate(0.153677, 0.545445)">
                        <mask id="mask-2" fill="white">
                            <use xlink:href="#path-1"></use>
                        </mask>
                        <g id="Clip-2"></g>
                        <path d="M15.9180645,10.3058976 C16.7970968,10.5604829 17.0708871,11.7330683 16.3910484,12.3599951 C15.9128226,12.8003366 15.2575806,12.935922 14.5374194,12.8662634 C13.0434677,12.7215561 11.8604032,13.3418488 10.7233065,14.2018 C10.01,14.7416537 9.7958871,15.6530195 9.14145161,16.2733122 C7.85798387,17.4894341 7.95435484,18.171922 9.41846774,19.2487268 C10.2039516,19.8258976 10.56,20.5258 10.4890323,21.5205073 C10.4454839,22.1308488 10.3620161,22.6860439 9.82008065,23.0194098 C9.19145161,23.4062634 8.64145161,23.067922 8.1083871,22.7420195 C7.99145161,22.6702878 7.88782258,22.5765805 7.79387097,22.4749951 C7.1225,21.7535317 6.28580645,21.6490439 5.36685484,21.5976293 C4.40798387,21.5445561 3.52733871,22.4223366 3.21685484,23.3171171 C2.88741935,24.2666293 3.26322581,25.6345073 4.09346774,26.3132634 C4.84629032,26.9294098 5.67895161,27.2598732 6.62895161,26.7030195 C7.02814516,26.4687512 7.41443548,26.2278488 7.78459677,25.9392634 C8.96201613,25.0200195 9.57129032,25.0204341 10.8192742,25.8215073 C11.3777419,26.1797512 11.8696774,26.7142146 12.5737097,26.7357756 C14.3035484,26.789678 16.0104032,26.8937512 17.688629,26.1146537 C18.8628226,25.5698244 19.9087903,24.8164341 20.8773387,24.0464585 C21.9926613,23.1595561 22.9462903,23.0778732 24.1015323,23.6484098 C24.4301613,23.8105317 24.763629,23.9635317 25.1301613,23.8735561 C27.0777419,23.3967268 29.038629,22.9310927 30.1523387,20.9454098 C30.8898387,19.6310195 32.0015323,19.1985561 33.4515323,19.1218488 C35.3975,19.0181902 37.1970968,18.4016293 38.8341935,17.1651902 C40.0390323,16.2550683 40.9483065,15.1778488 41.4725,13.8091415 C41.9479032,12.5681415 42.7225,12.1103854 43.9434677,12.2256537 C44.2983065,12.259239 44.6591935,12.2190195 45.0168548,12.2285561 C45.5152419,12.242239 45.8878226,12.0083854 46.2325806,11.6613366 C47.1079839,10.7798244 47.2410484,9.77350732 46.8003226,8.6282878 C46.3410484,7.4358 45.2321774,6.62519024 43.9551613,6.88972683 C43.0628226,7.07465366 42.3749194,7.7928 42.0692742,8.6743122 C41.8898387,9.19343415 41.6555645,9.66901951 41.2676613,10.0550439 C40.6652419,10.6554341 39.7587903,10.6910927 39.106371,10.1487512 C38.3426613,9.51353171 38.4462903,8.70665366 38.5229032,7.89770244 C38.5612097,7.49053171 38.7547581,7.12399512 38.5777419,6.67494634 C38.0277419,5.27721463 36.3769355,4.27297073 34.9608065,4.69092195 C33.0958871,5.24072683 31.2503226,5.89170244 29.7890323,7.30850732 C29.4454839,7.64187317 29.051129,7.8790439 28.6023387,8.00177561 C27.8745161,8.2008 27.3172581,7.91262927 26.8507258,7.33297073 C26.3781452,6.74584878 26.4354032,6.20475122 26.8616129,5.62343415 C27.1672581,5.20548293 27.4547581,4.75767805 27.3329839,4.19087317 C27.0305645,3.52123902 26.4954839,3.35787317 25.8289516,3.30023902 C24.9402419,3.22353171 24.1926613,3.04109268 23.3741129,3.04755062 C22.0091935,3.05892195 20.6878226,3.32097073 19.5946774,3.73477561 C18.3805645,4.19501951 17.1265323,4.7825561 16.6273387,5.6690439 C16.488629,5.91533659 16.3172581,6.14089756 16.0894355,6.30260488 C15.1091935,6.99753171 14.6458871,7.99265366 14.2527419,9.0022878 C14.0858065,9.43143415 14.3128226,9.92236098 14.7446774,10.0508976 C15.1285484,10.1653366 15.5458871,10.1980927 15.9180645,10.3058976 M13.1995161,5.05082439 C13.4660484,4.64323902 13.8156452,4.30116585 14.2265323,4.0503122 C14.9378226,3.61577561 16.0575806,2.92375122 16.4547581,2.63101951 C17.3273387,1.98792195 18.1466935,1.2830439 19.2172581,0.985336585 C21.3398387,0.396141463 23.4394355,0.0660926829 25.6878226,0.341409756 C27.4184677,0.553287805 28.9757258,1.02348293 30.4624194,1.86726341 C31.3684677,2.38140976 32.2966935,2.48589756 33.2712903,2.16414146 C35.3991129,1.46133659 37.3902419,2.05136098 39.3571774,2.83999512 C39.6382258,2.95236098 39.9555645,3.09665366 40.1354032,3.32636098 C41.0265323,4.46660488 42.1866129,4.39984878 43.3531452,4.07021463 C44.6640323,3.69953171 45.8765323,4.26509268 47.135,4.36460488 C47.3914516,4.38492195 47.6567742,4.67972683 47.863629,4.90197073 C50.1692742,7.38189756 50.5104032,10.4414829 48.8245161,13.3816537 C48.8192742,13.3920195 48.8132258,13.4019707 48.8071774,13.4123366 C48.5277419,13.9016049 48.0741129,14.2461659 47.551129,14.4269463 C46.6345968,14.7441415 45.8305645,15.4038244 44.8104032,15.5788 C44.1039516,15.6998732 43.5894355,16.4997024 43.1616129,17.1577268 C42.0079839,18.9336049 40.2837903,19.9266537 38.4817742,20.805678 C37.3777419,21.3447024 36.2741129,21.8957512 35.0862097,22.1673366 C34.6394355,23.2018488 34.7515323,24.1803854 34.8765323,25.3355561 C37.2148387,25.4611902 39.2192742,26.1457512 40.21,28.6754341 C41.2087903,31.2250195 39.8664516,32.9934341 38.4950806,34.8891415 C39.2741129,36.9162878 40.1160484,38.8969951 41.756371,40.3988 C42.4781452,41.0593122 43.0680645,41.8595561 43.9430645,42.3608488 C44.2378226,42.5296049 44.4104032,42.7452146 44.5051613,42.9931659 C44.8233065,43.8240927 44.1765323,44.7010439 43.3104032,44.7561902 C42.3680645,44.8167268 41.4954839,44.6110683 40.6196774,43.7345317 C38.8902419,42.0030195 37.8083871,39.8647512 36.6458871,37.7870195 C36.0273387,36.6816049 35.3354032,35.6956049 34.4684677,34.8729707 C34.0204839,34.4483854 33.8737097,33.7513854 34.1962903,33.2194098 C34.4660484,32.773678 34.9321774,32.5825317 35.8487097,32.387239 C37.1220968,32.1156537 37.7031452,31.274361 37.4805645,30.0250683 C37.1946774,28.4204341 35.6337903,27.8668976 34.3616129,28.9188244 C33.5184677,29.6158244 32.9007258,29.7995073 32.285,29.4425073 C31.7027419,29.1045805 31.435,28.3856049 31.5624194,27.7109951 C31.7491129,26.7171171 31.9301613,25.698361 30.7970968,24.8421415 C29.6898387,25.8766537 28.4450806,26.5197512 27.0269355,26.8332146 C26.5753226,26.9327268 26.2470968,27.3237268 26.2124194,27.9506537 C26.4829839,28.6107512 27.0156452,29.0556537 27.56,29.463239 C27.9829839,29.7796049 28.2354032,30.2925073 28.2233065,30.8302878 C28.201129,31.7926537 27.7781452,32.0447512 26.5946774,32.1185561 C26.1426613,32.1471659 25.6704839,32.043922 25.2543548,32.3250439 C24.4470968,33.5527756 24.4515323,34.7643366 25.2571774,35.9991171 C26.1491129,36.3586049 26.9652419,36.2022878 27.7241129,35.6541415 C28.2700806,35.260239 28.7898387,34.8140927 29.5587903,34.9961171 L29.5660484,35.001922 C30.1644355,35.5057024 30.4160484,36.3411902 30.1608065,37.0912634 C29.9245161,37.7849463 29.7434677,38.5109707 29.8354032,39.301678 C29.9023387,39.8780195 29.926129,40.4423366 30.1773387,40.9826049 C31.2547581,43.3028976 31.1890323,45.7819951 31.0418548,48.2528 C30.9958871,49.0294098 30.7245161,49.7803122 30.0914516,50.3413122 C29.6059677,50.7717024 29.0708871,50.8985805 28.5345968,50.6311415 C27.9729032,50.3508488 27.7337903,49.8163854 27.7628226,49.1861415 C27.7696774,49.043922 27.81,48.9050195 27.8583871,48.771922 C28.5979032,46.7290195 28.3454839,44.7105805 27.6793548,42.7418976 C27.3648387,41.8127024 27.5333871,40.7205561 26.7144355,39.8460927 C25.6051613,39.7523854 24.6725,38.9654098 23.6003226,38.5047512 C21.9317742,37.788678 20.8954839,35.0715805 21.3672581,33.4234098 C21.6281452,32.5120439 21.9289516,31.6102146 22.5680645,30.8953854 C22.9845968,30.4293366 23.2378226,29.9442146 22.918871,29.3384341 C22.6200806,28.7708 22.1087903,28.6202878 21.4983065,28.5945805 C20.5567742,28.5551902 19.6491129,28.6795805 18.813629,29.1058244 C17.36,29.8476049 15.7668548,29.9321902 14.2148387,30.1801415 C13.0902419,30.3592634 11.9648387,30.172678 10.9225,29.662678 C9.81524194,29.1211659 8.76927419,29.3210195 7.67532258,29.7630195 C5.52693548,30.6300195 3.67169355,30.1357756 1.91846774,28.5618244 C-0.217016129,26.6445561 -0.291209677,24.3304829 0.360806452,21.8236049 C0.749516129,20.330922 1.91362903,19.4357268 3.12169355,18.6421171 C3.43379032,18.4368732 3.77451613,18.2859463 4.12048387,18.1487024 C4.81887097,17.8717268 5.2241129,17.3799707 5.24427419,16.6091659 C5.2708871,15.6086537 5.73782258,14.9547756 6.39709677,14.1906049 C7.39830645,13.0292146 8.52169355,12.1074829 9.7225,11.218922 C10.2483065,10.8291659 10.7785484,10.3515073 10.8757258,9.60640976 C11.0894355,7.97109268 12.0212903,6.71640976 12.9301613,5.4468 C13.0204839,5.31992195 13.1075806,5.1905561 13.1995161,5.05082439" id="Fill-1" fill="#008070" mask="url(#mask-2)"></path>
                    </g>
                    <g id="Group-6" transform="translate(16.226462, 32.162864)">
                        <mask id="mask-4" fill="white">
                            <use xlink:href="#path-3"></use>
                        </mask>
                        <g id="Clip-5"></g>
                        <path d="M42.3979125,16.9961284 C41.7580196,14.2767248 40.5028768,11.9511743 38.7910196,9.7676422 C37.6775732,10.5223211 36.8167161,11.2679174 36.8676446,12.5720917 C36.9473232,14.6181468 36.1513589,16.3099817 34.9372875,17.8697064 C34.6736089,18.2082385 34.3450375,18.5707156 34.5224661,19.1189725 C34.7467161,19.054156 34.9015554,19.0297982 35.0387339,18.966633 C36.6479125,18.2301193 38.2168411,17.5885596 40.0954482,18.1603486 C40.8737518,18.3977339 41.8450911,18.0364954 42.3979125,16.9961284 M3.95094821,27.0331927 C4.75184107,30.6331927 6.71300179,33.5193853 9.13251964,36.1141101 C9.9765375,37.0186514 10.8969482,37.9376422 12.2884482,38.5160367 C12.4416446,37.2618165 12.4601268,36.2247523 12.6605554,35.2112202 C12.9784482,33.5982385 13.5246982,32.2131468 15.1576982,31.5113119 C15.6246804,31.3106697 16.0982339,31.0361284 16.0160911,30.4048899 C15.9212161,30.2917706 15.8694661,30.1679174 15.7865018,30.1410826 C13.8894125,29.5222294 12.4206982,28.353055 11.3766625,26.6546147 C10.8542339,25.8045688 10.1252161,25.4404404 9.14976964,25.5721376 C7.40135893,25.8082844 5.69771607,26.2054404 3.95094821,27.0331927 M37.6147339,27.4567706 C36.4996446,27.9038807 35.7468054,28.6713578 34.7035911,28.6556697 C33.3782161,28.6358532 32.1974125,29.3116789 30.8860018,29.4025046 C30.3565911,29.4392477 29.8333411,29.8256697 29.3433589,30.1138349 C28.7917696,30.4383303 28.5580732,30.9465413 28.7736982,31.5868624 C28.8735018,31.8832844 29.0266982,32.1607156 29.1536089,32.448055 C29.8399125,34.002 29.9019304,35.5613119 29.2172696,37.1383761 C28.7708232,38.1663578 28.8981446,38.5061284 29.7286089,39.3371835 C30.5036268,40.1129174 31.3353232,40.2454404 32.2795554,39.7508532 C35.5447339,38.0408532 38.0595375,35.5200275 40.0449304,32.4360826 C40.3160018,32.0153945 40.3661089,31.5620917 40.0810732,30.9993853 C38.5864839,30.4424587 37.8640375,29.1787431 37.6147339,27.4567706 M41.4282161,28.1127798 C42.5100375,26.5575963 43.0583411,22.7363119 42.3777875,21.0556239 C40.9025018,21.0556239 39.3508232,21.0519083 37.7991446,21.0581009 C37.4196446,21.0593394 37.1157161,21.2649358 36.7953589,21.4507156 C36.1189125,21.8429174 35.4276804,22.2140642 34.7245375,22.5558991 C32.2832518,23.7428257 31.3460018,22.3651651 30.9808768,20.4396606 C30.7697696,19.3262202 31.1915732,18.2709908 31.7908054,17.3164954 C32.2068589,16.6538807 32.6200375,15.9883761 33.0640196,15.3443394 C33.6993946,14.4232844 34.0957339,13.5340183 33.8714839,12.298789 C33.6743411,11.2138349 34.3253232,10.1949358 35.0128589,9.30814679 C35.4248054,8.77640367 35.8129304,8.22566972 36.2491089,7.63241284 C35.5919661,6.39924771 34.4534661,5.75190826 33.3219482,5.14750459 C32.0832339,4.48530275 30.8642339,3.76736697 29.5080554,3.34337615 C28.9404482,3.16585321 28.5005732,2.8132844 28.2816625,2.22126606 C27.8890196,1.15901835 28.5387696,0.185944954 29.6748054,0.133926606 C30.2169482,0.109568807 30.7085732,0.312688073 31.1841804,0.501770642 C36.7928946,2.7307156 40.9135911,6.56768807 43.6349839,11.9924587 C45.7292161,16.1683761 46.2085196,20.5969541 45.7472875,25.1324587 C45.4721089,27.8390642 44.5533411,30.4197523 43.2645196,32.8497523 C41.5165196,36.1471376 39.0280018,38.793055 36.0827696,40.9864954 C33.6262875,42.816633 30.7705911,43.8912661 27.8011268,44.5233303 C23.2606804,45.4893853 18.8520732,44.9477339 14.5075375,43.2571376 C10.2057161,41.5838807 6.88714464,38.6836514 4.38671607,34.9738349 C2.29494821,31.8700734 0.960948214,28.3774128 0.513680357,24.5065872 C-0.0272303571,19.8344312 1.10264464,15.6081468 2.93032321,11.4508073 C3.5796625,9.97365138 4.36823393,9.82874312 5.92689464,10.8786055 C6.40414464,12.1369541 5.73468036,13.1958991 5.22744821,14.2684679 C4.04089464,16.7744312 3.58705536,19.4281927 3.57760893,22.1773211 C3.5767875,22.5360826 3.52955536,22.9183761 3.84046607,23.252367 C4.35180536,23.5578716 4.90955536,23.4212202 5.46155536,23.2688807 C7.03171607,22.8378716 8.63144821,22.7553028 10.2521268,22.725578 C11.6637518,22.6995688 12.8030732,23.3126422 13.3998411,24.4149358 C14.4237518,26.3078257 16.0633232,27.1021376 17.9345375,27.6590642 C18.9724125,28.760945 19.5856089,30.0060826 19.0048589,31.5100734 C18.6265911,32.4897523 18.0487161,33.4512661 17.1287161,33.9631927 C15.7133946,34.7508991 15.4197339,35.9807615 15.4451982,37.4025963 C15.4599839,38.2324128 15.2928232,39.0762661 15.6250911,40.0885596 C19.0635911,42.0512202 22.8836446,41.7036055 26.5915732,41.5768624 C27.0281625,40.8927798 26.6790554,40.4923211 26.4355018,40.1207615 C25.5873768,38.8277339 25.3516268,37.5986972 26.3356982,36.2090642 C27.1255018,35.0931468 26.7078054,33.8954862 26.0925554,32.8138349 C24.9400911,30.7875963 25.0698768,29.8525046 26.7825554,28.3130092 C28.0656268,27.1603486 29.6160732,26.5873211 31.2671446,26.2438349 C31.9793232,26.0956239 32.7005375,25.9915872 33.4131268,25.8462661 C34.3914482,25.6476881 35.2366982,25.2732385 35.9718768,24.5053486 C37.4397696,22.9736972 39.4543232,23.4951193 40.1073589,25.5015413 C40.2687696,25.9977798 40.3529661,26.5192018 40.5110911,27.0162661 C40.6519661,27.4567706 40.7723054,27.9373211 41.4282161,28.1127798" id="Fill-4" fill="#008070" mask="url(#mask-4)"></path>
                    </g>
                    <path d="M38.7602788,48.9441105 C37.6047264,50.1769638 37.0740315,50.2032941 36.132406,49.217606 C35.8620684,48.9347675 35.589995,48.6230505 35.54747,48.261221 C35.2484931,45.7190716 33.749703,43.6126464 32.9425955,41.257782 C32.8397543,40.9575314 32.762949,40.633074 32.7603454,40.3188089 C32.7538364,39.5917525 33.2250831,39.0396653 33.8790138,38.9351934 C34.5442266,38.8290227 35.2172502,39.1815092 35.3804074,39.9017707 C35.8099969,41.7979781 36.8119385,43.4741999 37.4979799,45.2697575 C37.9570766,46.4720337 38.3454429,47.6785567 38.7602788,48.9441105" id="Fill-7" fill="#008070"></path>
                </g>
                <rect id="Rectangle-Copy-20" fill="url(#linearGradient-5)" opacity="0.504278274" x="0" y="1" width="103" height="103" rx="15"></rect>
            </g>
        </g>
    </g>
</svg>