<svg width="103" height="103" viewBox="0 0 103 103" fill="none" xmlns="http://www.w3.org/2000/svg">
<g id="2_Medialoot">
<g id="Group 2 Copy 7">
<path id="Stroke 1" d="M77 35H25" stroke="#0093EE" stroke-width="7"/>
<path id="Stroke 4" d="M77 53H59" stroke="#0093EE" stroke-width="7"/>
<path id="Stroke 6" d="M77 69H59" stroke="#0093EE" stroke-width="7"/>
<path id="Stroke 8" fill-rule="evenodd" clip-rule="evenodd" d="M47 60.5C47 55.2531 42.9707 51 38 51C33.0304 51 29 55.2531 29 60.5C29 65.7469 33.0304 70 38 70C42.9707 70 47 65.7469 47 60.5Z" stroke="#0093EE" stroke-width="7"/>
</g>
<g id="2_Pixaden">
<rect id="Rectangle-Copy-16" width="103" height="103" rx="15" fill="#90E2F3"/>
</g>
<g id="Group">
<path id="Vector" d="M70.766 73.8697C68.1263 76.1264 65.1017 77.5024 61.8571 78.4381C57.8426 79.539 53.7181 79.9243 49.5937 79.9243C44.4243 79.9243 39.255 79.7591 34.1956 78.3831C30.1262 77.2823 26.4416 75.4659 23.527 72.3285C20.7774 69.3012 19.1826 65.7786 19.0176 61.5954C18.7426 53.6144 21.7122 46.7892 26.2767 40.5695C29.5762 36.0561 33.7557 32.5334 39.145 30.7171C40.1899 30.3868 41.2348 30.1116 42.3346 29.8914C42.6646 29.8364 43.1045 29.7813 43.2145 29.341C43.3245 28.8456 42.9395 28.5154 42.5546 28.2952C41.8397 27.9099 41.0698 27.6347 40.2999 27.8549C39.475 28.0751 38.6501 28.1851 37.8802 28.6805C37.4952 28.9557 37.0553 28.9557 36.7803 28.5154C36.5603 28.1301 36.6153 27.6898 37.0003 27.3595C37.1653 27.1944 37.3852 27.0843 37.6052 26.9742C39.145 26.0936 40.7398 26.0936 42.3896 26.4238C43.5445 26.644 44.4793 27.3045 44.7543 28.4603C44.9743 29.4511 45.4142 29.5612 46.2941 29.341C47.064 29.1759 47.8889 29.286 48.6588 29.286C49.9236 29.286 50.1436 28.9557 49.8137 27.7448C49.2087 25.4881 47.174 23.8919 44.6993 23.7268C43.7644 23.6717 42.8845 23.7818 41.9497 23.7818C41.3997 23.7818 40.9048 23.7268 40.7948 23.1213C40.7398 22.5159 41.2347 22.2957 41.7297 22.2406C43.0495 22.0755 44.3144 21.8553 45.6892 22.1306C49.0438 22.8461 50.9135 24.9927 51.5184 28.1851C51.7384 29.3961 52.2333 29.7813 53.2782 29.9465C57.6226 30.8271 61.4721 32.6985 64.7717 35.6158C69.0612 39.4136 72.1958 44.0371 74.3955 49.2661C75.2754 51.4127 75.9353 53.6144 76.3752 55.8711C76.5952 56.8618 76.4302 57.6324 75.8253 58.403C73.5156 61.4303 71.2609 64.4576 69.0062 67.4849C68.7862 67.7601 68.5662 68.0903 68.3463 68.3655C67.4664 69.7416 67.5214 70.9525 68.6762 72.1634C69.3361 72.7689 70.051 73.2642 70.766 73.8697ZM58.6675 59.1185C58.5575 60.4395 58.9425 61.6504 59.7124 62.6962C61.0872 64.6777 63.5069 64.7328 64.8817 62.8063C66.3665 60.8248 66.3665 57.5774 64.8817 55.5959C63.4519 53.6694 61.0322 53.6694 59.6574 55.6509C58.9975 56.6967 58.5575 57.7975 58.6675 59.1185ZM30.4011 59.3937C30.2911 60.8799 30.7311 62.2009 31.666 63.3017C32.9308 64.7878 34.8556 64.7328 36.0654 63.2467C37.7152 61.2101 37.7702 57.7425 36.1754 55.761C34.7456 53.9446 32.5459 54.0547 31.336 55.9812C30.6761 56.9719 30.2911 58.1278 30.4011 59.3937ZM47.8339 68.8609C49.1537 68.8059 50.4736 68.5857 51.7384 68.1454C52.3433 67.9252 52.8932 67.5399 52.6733 66.8244C52.4533 66.0538 51.8484 65.8336 51.0785 66.1639C48.9338 66.9344 46.789 66.9344 44.6443 66.1639C43.9294 65.9437 43.4345 66.1088 43.1045 66.7143C42.7196 67.4849 43.3245 67.8701 43.8744 68.0903C45.1942 68.6407 46.5141 68.8059 47.8339 68.8609Z" fill="#0F9BD4"/>
<path id="Vector_2" d="M87.9237 63.0262C87.8137 63.5216 87.6488 63.9619 87.3188 64.3472C84.5142 68.035 81.7645 71.7778 78.9599 75.4656C78.08 76.6215 76.9801 76.7866 75.7703 75.9059C73.9555 74.5849 72.1407 73.2639 70.326 71.8879C69.0062 70.8421 68.8412 69.9614 69.8311 68.5854C72.5257 64.9527 75.2203 61.3749 77.97 57.7972C79.1248 56.2561 80.1697 56.201 81.7095 57.3569C83.3593 58.5678 85.0091 59.8338 86.6589 61.0997C87.3738 61.5401 87.8137 62.2006 87.9237 63.0262Z" fill="#0F9BD4"/>
</g>
<rect id="Rectangle Copy 29" opacity="0.499372" width="103" height="103" rx="15" fill="url(#paint0_linear)"/>
</g>
<defs>
<linearGradient id="paint0_linear" x1="0" y1="0" x2="0" y2="103" gradientUnits="userSpaceOnUse">
<stop stop-color="white" stop-opacity="0.0707769"/>
<stop offset="1" stop-color="#0B1A3F" stop-opacity="0.104731"/>
</linearGradient>
</defs>
</svg>
