<svg width="103" height="103" viewBox="0 0 103 103" fill="none" xmlns="http://www.w3.org/2000/svg">
<g id="2_Medialoot">
<g id="Group 2 Copy 7">
<path id="Stroke 1" d="M77 35H25" stroke="#0093EE" stroke-width="7"/>
<path id="Stroke 4" d="M77 53H59" stroke="#0093EE" stroke-width="7"/>
<path id="Stroke 6" d="M77 69H59" stroke="#0093EE" stroke-width="7"/>
<path id="Stroke 8" fill-rule="evenodd" clip-rule="evenodd" d="M47 60.5C47 55.2531 42.9707 51 38 51C33.0304 51 29 55.2531 29 60.5C29 65.7469 33.0304 70 38 70C42.9707 70 47 65.7469 47 60.5Z" stroke="#0093EE" stroke-width="7"/>
</g>
<g id="2_Pixaden">
<rect id="Rectangle-Copy-16" width="103" height="103" rx="15" fill="#90E2F3"/>
</g>
<g id="Group">
<path id="Vector" d="M52.3189 44.8347C51.5717 48.0904 49.3299 51.434 44.3189 53.0178C48.0552 54.5577 48.6706 57.6813 48.0552 61.3329L47.3079 65.7765C47.0002 67.8002 47.0442 69.1201 47.3519 70H36.6705C36.4067 69.0321 36.4507 67.8882 36.8463 65.7765L37.5056 62.0369C38.2969 57.8133 36.3628 57.1974 33.4617 57.1974H28.099L25.4176 69.956H15L22.8242 33H39.4397C50.1211 33.044 53.7695 38.2354 52.3189 44.8347ZM41.4178 45.7586C42.0331 42.7669 40.8024 41.1391 37.7254 41.1391H31.4836L29.6814 49.6742H35.4397C38.9562 49.6302 40.9342 48.0904 41.4178 45.7586Z" fill="#169CD4"/>
<path id="Vector_2" d="M88.0555 44.8347C87.3082 48.0904 85.0665 51.434 80.0554 53.0178C83.7917 54.5577 84.4071 57.6813 83.7917 61.3329L83.0445 65.7765C82.7368 67.8002 82.7807 69.1201 83.0884 70H72.407C72.1433 69.0321 72.1873 67.8882 72.5829 65.7765L73.2422 62.0369C74.0334 57.8133 72.0993 57.1974 69.1982 57.1974H63.8355L61.1542 69.956H50.7805L58.6047 33H75.2202C85.8577 33.044 89.5061 38.2354 88.0555 44.8347ZM77.1543 45.7586C77.7697 42.7669 76.5389 41.1391 73.462 41.1391H67.2202L65.418 49.6742H71.1763C74.6928 49.6302 76.6708 48.0904 77.1543 45.7586Z" fill="#169CD4"/>
</g>
<rect id="Rectangle Copy 29" opacity="0.499372" width="103" height="103" rx="15" fill="url(#paint0_linear)"/>
</g>
<defs>
<linearGradient id="paint0_linear" x1="0" y1="0" x2="0" y2="103" gradientUnits="userSpaceOnUse">
<stop stop-color="white" stop-opacity="0.0707769"/>
<stop offset="1" stop-color="#0B1A3F" stop-opacity="0.104731"/>
</linearGradient>
</defs>
</svg>
