<svg width="103" height="103" viewBox="0 0 103 103" fill="none" xmlns="http://www.w3.org/2000/svg">
<g id="2_GraphicPear">
<g id="2_Pixaden">
<rect id="Rectangle-Copy-16" width="103" height="103" rx="15" fill="#90E2F3"/>
</g>
<g id="Group">
<path id="Vector" d="M51.5742 20.8719C51.5742 18.8096 51.5742 16.909 51.5742 15.0084C55.4938 14.8466 57.7971 17.0303 59.171 21.9233C68.5862 24.5923 75.6981 30.2132 79.9814 39.1501C83.3353 46.146 83.901 53.4653 81.8402 60.906C77.961 75.1808 64.02 85.5735 48.0183 83.8346C32.1781 82.0957 20.5001 68.6702 20.0152 53.4249C19.4899 37.0069 32.663 21.1954 51.5742 20.8719ZM51.4934 23.5004C44.9472 23.46 39.29 25.401 34.2794 29.1214C27.7736 33.9335 23.854 40.4037 22.7225 48.451C20.3788 65.1116 32.4206 79.4268 47.8566 81.3274C63.6159 83.2685 78.2034 72.1074 80.3046 56.0534C82.1634 41.8999 71.4956 26.1694 58.6457 24.5518C57.3526 27.5847 55.1706 29.4449 51.453 29.6471C51.4934 27.5443 51.4934 25.6437 51.4934 23.5004Z" fill="#169CD4"/>
<path id="Vector_2" d="M51.4934 74.0084C42.3206 73.9679 34.8451 66.8507 34.3197 57.6712C34.2389 56.0132 34.8047 54.517 35.4108 53.0208C36.9059 49.4218 38.8455 46.0249 40.6235 42.5877C41.7145 40.4849 42.6843 38.3821 43.6137 36.2388C45.0684 32.9229 47.7354 31.1032 51.3317 31.0627C54.9281 31.0223 57.7567 32.7207 59.171 36.0366C61.1106 40.5253 63.5755 44.7714 65.7172 49.1791C66.3637 50.5136 66.9294 51.8481 67.5759 53.1826C68.667 55.4471 68.7478 57.7925 68.2629 60.2593C66.7274 68.1852 59.6155 74.0488 51.4934 74.0084ZM51.453 71.5821C58.4032 71.5821 64.5049 66.6486 65.9192 59.8549C66.3233 57.833 66.3233 55.8515 65.3535 53.9509C64.7069 52.6164 64.1412 51.2819 63.4543 49.9475C61.3126 45.6206 58.8881 41.4554 57.0293 36.9667C56.0191 34.5809 53.9987 33.3677 51.4125 33.4081C48.8264 33.4486 46.8464 34.7022 45.8766 37.088C44.2198 41.051 42.0782 44.7714 40.179 48.613C39.2092 50.5136 38.3202 52.4951 37.4312 54.4361C36.9463 55.4875 36.7038 56.5794 36.7847 57.7521C37.31 65.5567 43.7349 71.5821 51.453 71.5821Z" fill="#169CD4"/>
</g>
<rect id="Rectangle Copy 29" opacity="0.499372" width="103" height="103" rx="15" fill="url(#paint0_linear)"/>
</g>
<defs>
<linearGradient id="paint0_linear" x1="0" y1="0" x2="0" y2="103" gradientUnits="userSpaceOnUse">
<stop stop-color="white" stop-opacity="0.0707769"/>
<stop offset="1" stop-color="#0B1A3F" stop-opacity="0.104731"/>
</linearGradient>
</defs>
</svg>
