<svg width="103" height="103" viewBox="0 0 103 103" fill="none" xmlns="http://www.w3.org/2000/svg">
<g id="2_MockupsDesign">
<g id="2_Pixaden">
<rect id="Rectangle-Copy-16" width="103" height="103" rx="15" fill="#90E2F3"/>
</g>
<g id="Group">
<path id="Vector" d="M80.14 37.431C80.14 49.9172 80.14 61.7957 80.14 74.5028C75.2817 69.862 70.9203 65.7183 66.1172 61.1879C61.2037 65.8288 56.6767 70.1382 51.5424 75.0001C46.7945 70.5249 42.0467 66.1051 36.8571 61.2432C32.2749 65.5526 27.8583 69.6962 23 74.2819C23 61.7404 23 49.7515 23 37.431C27.3614 33.2874 31.9436 28.978 37.1332 24.1161C41.605 28.3702 46.2976 32.7901 51.4872 37.652C56.2902 33.0664 60.8725 28.757 66.062 23.8398C71.0307 28.0387 75.3369 32.8454 80.14 37.431Z" fill="#169CD4"/>
</g>
<rect id="Rectangle Copy 29" opacity="0.499372" width="103" height="103" rx="15" fill="url(#paint0_linear)"/>
</g>
<defs>
<linearGradient id="paint0_linear" x1="0" y1="0" x2="0" y2="103" gradientUnits="userSpaceOnUse">
<stop stop-color="white" stop-opacity="0.0707769"/>
<stop offset="1" stop-color="#0B1A3F" stop-opacity="0.104731"/>
</linearGradient>
</defs>
</svg>
