<?xml version="1.0" encoding="UTF-8"?>
<svg width="103px" height="103px" viewBox="0 0 103 103" version="1.1" xmlns="http://www.w3.org/2000/svg" xmlns:xlink="http://www.w3.org/1999/xlink">
    <!-- Generator: Sketch 57.1 (83088) - https://sketch.com -->
    <title>2_Pixelbuddha</title>
    <desc>Created with Sketch.</desc>
    <defs>
        <polygon id="path-1" points="0 2 52 2 52 4 0 4"></polygon>
        <linearGradient x1="50%" y1="0%" x2="50%" y2="100%" id="linearGradient-3">
            <stop stop-color="#FFFFFF" stop-opacity="0.0707768794" offset="0%"></stop>
            <stop stop-color="#0B1A3F" stop-opacity="0.104731206" offset="100%"></stop>
        </linearGradient>
    </defs>
    <g id="Page-1" stroke="none" stroke-width="1" fill="none" fill-rule="evenodd">
        <g id="Home-Copy-5" transform="translate(-549.000000, -480.000000)">
            <g id="2_Pixelbuddha" transform="translate(549.000000, 480.000000)">
                <g id="Group-2-Copy-8" transform="translate(25.000000, 34.000000)">
                    <mask id="mask-2" fill="white">
                        <use xlink:href="#path-1"></use>
                    </mask>
                    <g id="Clip-2"></g>
                    <path d="M52,1 L0,1" id="Stroke-1" stroke="#0093EE" stroke-width="7"></path>
                    <path d="M52,19 L34,19" id="Stroke-4" stroke="#0093EE" stroke-width="7"></path>
                    <path d="M52,35 L34,35" id="Stroke-6" stroke="#0093EE" stroke-width="7"></path>
                    <path d="M22,26.5 C22,21.2530975 17.9707498,17 13,17 C8.0303998,17 4,21.2530975 4,26.5 C4,31.7469025 8.0303998,36 13,36 C17.9707498,36 22,31.7469025 22,26.5 Z" id="Stroke-8" stroke="#0093EE" stroke-width="7"></path>
                </g>
                <g fill-rule="nonzero">
                    <rect id="Rectangle-Copy-17" fill="#90E2F3" x="0" y="0" width="103" height="103" rx="15"></rect>
                    <g id="Group-5" transform="translate(18.000000, 27.000000)" fill="#0F9BD4">
                        <path d="M0,21.2796268 C7.19779802,29.3759797 15.944183,34.0468615 26.9633945,33.5480823 C37.9050343,33.0526141 46.5204726,28.2235135 52.7793449,19 C57.8876892,23.458741 62.9511985,27.8784595 68,32.2851705 C61.665691,43.222602 47.4418439,52.3307033 29.9739823,49.4676301 C21.5504568,48.0874141 14.5054299,44.1307633 8.77888443,37.8675246 C4.43012583,33.1110297 1.32014191,27.6646632 0,21.2796268" id="Fill-1"></path>
                        <path d="M35.9661157,9.48146101 C35.9661157,12.2941007 35.9411177,15.1069751 35.9817395,17.9193802 C35.9935175,18.7400169 35.7086836,19.0039438 34.8765361,19.0000434 C29.2731211,18.974384 23.6692254,18.9774338 18.0658104,18.9976096 C17.3074553,19.0004248 16.9966619,18.778257 16.9999734,17.9967987 C17.0233425,12.3321062 17.0226214,6.66764827 17.0007481,1.00295574 C16.9976234,0.231116162 17.2894278,-0.00254712699 18.0598012,0.000737296741 C23.7033574,0.0239628646 29.3471539,0.0251358731 34.99071,-3.29003476e-05 C35.8036282,-0.00372013547 36.0079394,0.307830916 35.999767,1.04330723 C35.9685194,3.85571235 35.9870276,6.66858668 35.9870276,9.48146101 L35.9661157,9.48146101 Z" id="Fill-3"></path>
                    </g>
                </g>
                <rect id="Rectangle-Copy-25" fill="url(#linearGradient-3)" opacity="0.49937221" x="0" y="0" width="103" height="103" rx="15"></rect>
            </g>
        </g>
    </g>
</svg>