<svg width="103" height="103" viewBox="0 0 103 103" fill="none" xmlns="http://www.w3.org/2000/svg">
<g id="3_Blushy">
<g id="8_Mobbin">
<rect id="Rectangle-Copy-58" width="103" height="103" rx="25" fill="#77BCFE"/>
<g id="blushy">
<g id="Blushy Icon">
<mask id="mask0" mask-type="alpha" maskUnits="userSpaceOnUse" x="0" y="0" width="103" height="103">
<g id="mask 2">
<path id="Vector" d="M35.3697 0H67.2598C79.6875 0 84.194 1.29398 88.7374 3.72379C93.2807 6.1536 96.8464 9.71926 99.2762 14.2626L99.4206 14.5352C101.757 18.9894 103 23.5611 103 35.7402V67.2598L102.998 67.996C102.948 79.8677 101.657 84.2849 99.2762 88.7374C96.8464 93.2807 93.2807 96.8464 88.7374 99.2762L88.4648 99.4206C84.0106 101.757 79.4389 103 67.2598 103H35.7402L35.004 102.998C23.1323 102.948 18.7151 101.657 14.2626 99.2762C9.71926 96.8464 6.1536 93.2807 3.72379 88.7374L3.57937 88.4648C1.26658 84.0561 0.0254758 79.5322 0 67.6303V35.7402C0 23.3125 1.29398 18.806 3.72379 14.2626C6.1536 9.71926 9.71926 6.1536 14.2626 3.72379L14.5352 3.57937C18.944 1.26658 23.4678 0.0254758 35.3697 0Z" fill="white"/>
</g>
</mask>
<g mask="url(#mask0)">
<g id="Blushy Expressions/Happy 1">
<g id="blushes">
<g id="Group 7">
<path id="blush circles" d="M4.99473 92.6484C18.6443 92.6484 29.7095 81.8149 29.7095 68.4511C29.7095 55.0874 18.6443 44.2539 4.99473 44.2539C-8.65489 44.2539 -19.7201 55.0874 -19.7201 68.4511C-19.7201 81.8149 -8.65489 92.6484 4.99473 92.6484Z" fill="#336AB6" fill-opacity="0.5"/>
</g>
<g id="Group 7_2">
<path id="blush circles_2" d="M98.1606 92.6484C111.81 92.6484 122.875 81.8149 122.875 68.4511C122.875 55.0874 111.81 44.2539 98.1606 44.2539C84.511 44.2539 73.4458 55.0874 73.4458 68.4511C73.4458 81.8149 84.511 92.6484 98.1606 92.6484Z" fill="#336AB6" fill-opacity="0.5"/>
</g>
</g>
<g id="Group 6">
<path id="Oval" d="M25.3592 38.3961C28.2004 38.3961 30.5036 36.0928 30.5036 33.2516C30.5036 30.4104 28.2004 28.1072 25.3592 28.1072C22.518 28.1072 20.2147 30.4104 20.2147 33.2516C20.2147 36.0928 22.518 38.3961 25.3592 38.3961Z" fill="#336AB6"/>
<path id="Oval_2" d="M77.4338 38.3961C80.275 38.3961 82.5782 36.0928 82.5782 33.2516C82.5782 30.4104 80.275 28.1072 77.4338 28.1072C74.5926 28.1072 72.2893 30.4104 72.2893 33.2516C72.2893 36.0928 74.5926 38.3961 77.4338 38.3961Z" fill="#336AB6"/>
</g>
<path id="Path" d="M57.065 45.039C57.3065 43.6942 58.5982 42.7987 59.9502 43.039C61.3021 43.2792 62.2023 44.5641 61.9608 45.909C61.2132 50.0725 56.7557 53 52 53C47.2443 53 42.7869 50.0725 42.0392 45.909C41.7977 44.5641 42.6979 43.2792 44.0498 43.039C45.381 42.8024 46.6537 43.6669 46.9231 44.9773L46.935 45.039C47.2117 46.5798 49.4546 48.0528 52 48.0528C54.5164 48.0528 56.7373 46.6131 57.0548 45.0915L57.065 45.039Z" fill="#336AB6"/>
</g>
</g>
</g>
</g>
<rect id="Rectangle Copy 49" opacity="0.665109" width="103" height="103" rx="25" fill="url(#paint0_linear)"/>
</g>
</g>
<defs>
<linearGradient id="paint0_linear" x1="0" y1="0" x2="0" y2="103" gradientUnits="userSpaceOnUse">
<stop stop-color="white" stop-opacity="0.0707769"/>
<stop offset="1" stop-color="#0B1A3F" stop-opacity="0.104731"/>
</linearGradient>
</defs>
</svg>
