<svg width="103" height="103" viewBox="0 0 103 103" fill="none" xmlns="http://www.w3.org/2000/svg">
<g id="3_Blushy">
<g id="8_Mobbin">
<rect id="Rectangle-Copy-58" width="103" height="103" rx="25" fill="#77BCFE"/>
<g id="blushy">
<g id="Group">
<path id="Vector" d="M32.6128 79.6689C29.3676 81.9302 25.6294 81.6013 22.5486 78.8466C19.8374 76.4209 19.2212 73.0495 21.0287 69.6781C21.6859 68.4446 22.5486 67.2523 23.4934 66.2655C24.356 65.4021 24.4382 64.6621 23.9863 63.6753C23.7809 63.1819 23.6166 62.6474 23.4112 62.1541C21.8091 58.4537 22.3432 55.0001 24.6436 51.8343C26.9439 48.6684 29.3676 45.5848 31.8323 42.5835C33.763 40.2399 36.4741 39.2943 39.3496 38.6365C40.2533 38.4309 41.1981 38.1431 42.1019 37.8964C42.1019 37.773 42.0608 37.6086 42.0608 37.4852C40.089 37.4852 38.0762 37.5264 36.1044 37.4852C34.0094 37.403 32.0377 36.9508 30.2302 35.5117C30.5178 34.6483 30.8053 33.826 31.1339 32.8804C30.5178 32.6748 29.9427 32.5515 29.4497 32.2637C27.7244 31.3592 27.6423 30.578 29.1622 29.2212C28.3817 27.6177 28.5049 25.932 28.8746 24.2052C28.9568 23.8352 29.0389 23.4651 29.2033 23.1362C29.8194 21.6561 30.2302 21.5327 31.8734 22.4784C32.202 21.7383 32.5717 21.0394 32.8592 20.3404C33.3522 19.0247 33.7219 17.668 34.297 16.3523C35.0775 14.5843 35.858 14.4199 37.6243 15.0366C38.3637 15.2833 39.2264 15.3655 40.0069 15.2422C41.3625 15.0777 42.677 14.7077 43.9915 14.4199C44.4844 14.3377 44.9363 14.2143 45.4292 14.1321C47.8528 13.7621 48.3458 14.0499 49.1263 16.5579C51.2213 15.5711 52.7001 16.2701 53.3984 18.408C54.4254 18.1613 55.3702 17.9146 56.5204 17.6268C56.5204 18.2847 56.5615 18.6958 56.5204 19.0659C56.3971 19.847 56.1096 20.6693 56.0275 21.4505C55.8221 22.9306 56.3561 23.794 57.6706 24.493C59.478 25.4386 60.012 26.4254 59.0262 28.1522C57.9992 30.0024 56.6436 31.8114 55.1648 33.3327C54.5486 33.9905 53.193 33.9905 52.125 34.1138C51.057 34.2783 50.1122 34.4016 49.7014 35.7995C51.057 35.5117 52.2072 35.1828 53.4395 34.9772C58.6154 34.0727 63.6269 34.4839 68.2688 37.1563C72.3766 39.4999 75.2111 43.0357 77.1828 47.2705C78.2509 49.5319 79.0313 51.9165 80.0172 54.3423C80.1404 54.3423 80.428 54.3834 80.6745 54.3423C83.591 53.9722 85.6039 55.329 87.0416 57.6726C88.4794 60.0572 88.274 62.4419 86.7541 64.7443C84.9466 67.4579 82.2355 68.938 79.36 70.1303C78.0455 70.6648 77.1417 71.4049 76.4023 72.6383C71.8426 80.1212 64.9825 84.3971 56.4793 86.0417C48.962 87.4807 41.8965 86.2062 35.5293 81.8069C34.4613 81.1491 33.5987 80.409 32.6128 79.6689ZM29.2443 69.8014C28.4228 70.007 27.6423 70.1303 26.985 70.4181C25.917 70.9115 24.8079 71.4049 23.9041 72.1449C22.6718 73.1317 22.8772 74.2007 24.2739 74.9819C24.8079 75.2697 25.383 75.5163 25.9581 75.5986C28.0531 75.8864 30.1481 76.092 32.2431 76.2975C32.9825 76.3798 33.5576 76.462 34.0916 77.0787C36.1866 79.4634 38.8567 80.9846 41.8143 82.0125C45.9632 83.4104 50.1943 83.5748 54.5075 83.1637C58.7797 82.7525 62.6411 81.3546 66.1738 79.0111C69.9119 76.5031 72.9928 73.3373 75.8683 69.8836C76.4434 69.1847 76.9774 68.6913 78.0044 68.6913C78.6616 68.6913 79.4011 68.3624 79.9351 67.9512C82.523 65.9777 83.8375 63.3053 83.7964 60.0572C83.7553 57.9604 82.523 56.8914 80.428 56.9736C79.6064 57.0147 78.7438 57.1792 77.9633 57.2614C77.306 55.5757 76.731 53.9722 76.0737 52.451C75.0467 50.1897 73.2804 48.9151 70.8157 48.5451C69.6244 48.3806 68.4331 48.3395 67.2418 48.134C64.202 47.6406 61.1212 47.2294 58.1224 46.4894C56.7258 46.1604 55.7399 46.2838 54.7129 47.1472C52.7823 48.7096 50.7694 50.2308 48.8387 51.7932C44.1558 55.6168 38.7334 58.2893 33.7219 61.6607C32.9003 62.1952 31.8323 62.4008 30.8464 62.6063C29.6551 62.853 28.9568 63.3464 28.7925 64.5798C28.6692 65.6899 28.7925 66.8411 28.8746 67.9924C28.9979 68.6091 29.1622 69.1847 29.2443 69.8014Z" fill="#3A6EB7"/>
<path id="Vector_2" d="M42.6359 74.5296C41.4857 74.5296 40.7052 73.9951 40.3766 73.0906C40.048 72.2272 40.2944 71.4049 41.0338 70.7471C42.184 69.7192 43.5807 69.3081 45.0595 69.2669C46.0043 69.2258 46.867 69.637 47.2367 70.6649C47.5653 71.6105 47.0724 72.3506 46.374 72.9262C45.1828 73.8307 43.9504 74.4885 42.6359 74.5296Z" fill="#3A6EB7"/>
<path id="Vector_3" d="M69.8299 64.5387C69.871 66.7178 68.2278 68.3213 66.256 67.9924C65.8042 67.9102 65.2702 67.5401 65.0648 67.129C64.0789 65.1555 66.0096 62.2774 68.2278 62.3186C69.2959 62.3597 69.8299 63.0997 69.8299 64.5387Z" fill="#3A6EB7"/>
<path id="Vector_4" d="M60.9979 61.3318C60.9569 61.6196 60.9569 61.8663 60.8747 62.113C60.6693 62.8942 60.6282 64.0043 59.6424 63.922C59.0673 63.8398 58.3279 63.0175 58.0403 62.3186C57.3831 60.8384 57.4652 59.235 57.9171 57.7137C58.0403 57.3437 58.41 56.7681 58.6565 56.7681C59.0673 56.7681 59.6424 57.097 59.8067 57.4259C60.3407 58.6593 60.7104 59.9339 61.1212 61.2085C61.1212 61.2907 61.039 61.2907 60.9979 61.3318Z" fill="#3A6EB7"/>
<path id="Vector_5" d="M58.1224 70.9116C57.9992 70.3771 57.8349 69.8837 57.7938 69.3904C57.7527 68.8559 57.7938 68.3625 57.7938 67.7869C57.1776 67.7869 56.7668 67.828 56.356 67.7869C55.288 67.7047 54.8772 66.9235 55.4523 65.9778C56.1506 64.7033 58.3278 64.4155 59.3958 65.4845C60.7103 66.8412 60.1352 69.9248 58.1224 70.9116Z" fill="#3A6EB7"/>
<path id="Vector_6" d="M49.5782 67.7868C49.0852 67.0467 48.5101 66.4711 48.3458 65.8133C47.9761 64.5387 47.8118 63.1819 47.6886 61.8251C47.6475 61.4551 48.0172 60.7973 48.3458 60.6739C48.6745 60.5506 49.2906 60.7973 49.6193 61.0851C51.3856 62.6474 51.4678 65.6488 49.5782 67.7868Z" fill="#3A6EB7"/>
<path id="Vector_7" d="M28.1351 74.6118C27.026 74.6118 26.0401 73.9539 26.0401 73.2139C25.9991 72.4738 27.1492 71.6926 28.2173 71.6926C29.2442 71.7337 29.9426 72.3093 29.9837 73.2139C29.9426 74.0773 29.2442 74.6529 28.1351 74.6118Z" fill="#3A6EB7"/>
<path id="Vector_8" d="M79.6476 60.5095C80.4691 60.4684 81.0442 60.7973 81.1675 61.6607C81.2907 62.4419 79.894 63.6342 78.7438 63.7165C77.9223 63.7987 77.5115 63.4286 77.5115 62.6064C77.5526 61.4551 78.4563 60.5506 79.6476 60.5095Z" fill="#3A6EB7"/>
<path id="Vector_9" d="M59.1905 76.7908C60.0531 78.1064 60.0531 79.2988 59.3137 80.5322C58.2868 80.3677 57.7117 79.6688 57.6706 78.8876C57.6295 78.0653 58.1224 77.2841 59.1905 76.7908Z" fill="#3A6EB7"/>
</g>
</g>
<rect id="Rectangle Copy 49" opacity="0.665109" width="103" height="103" rx="25" fill="url(#paint0_linear)"/>
</g>
</g>
<defs>
<linearGradient id="paint0_linear" x1="0" y1="0" x2="0" y2="103" gradientUnits="userSpaceOnUse">
<stop stop-color="white" stop-opacity="0.0707769"/>
<stop offset="1" stop-color="#0B1A3F" stop-opacity="0.104731"/>
</linearGradient>
</defs>
</svg>
