<?xml version="1.0" encoding="UTF-8"?>
<svg width="103px" height="103px" viewBox="0 0 103 103" version="1.1" xmlns="http://www.w3.org/2000/svg" xmlns:xlink="http://www.w3.org/1999/xlink">
    <!-- Generator: Sketch 57.1 (83088) - https://sketch.com -->
    <title>3_Ouch</title>
    <desc>Created with Sketch.</desc>
    <defs>
        <polygon id="path-1" points="0.546114 0.50014025 29.1649407 0.37787973 29.0462983 28.8017127 0.42747158 28.9239732"></polygon>
        <linearGradient x1="50%" y1="0%" x2="50%" y2="100%" id="linearGradient-3">
            <stop stop-color="#FFFFFF" stop-opacity="0.0707768794" offset="0%"></stop>
            <stop stop-color="#000000" stop-opacity="0.104731206" offset="100%"></stop>
        </linearGradient>
    </defs>
    <g id="Page-1" stroke="none" stroke-width="1" fill="none" fill-rule="evenodd">
        <g id="Home-Copy-5" transform="translate(-969.000000, -661.000000)">
            <g id="3_Ouch" transform="translate(969.000000, 661.000000)">
                <g>
                    <rect id="Rectangle-Copy-25" fill="#72BAFF" fill-rule="nonzero" x="0" y="0" width="103" height="103" rx="15"></rect>
                    <g id="Group-4" transform="translate(19.072721, 17.707510)">
                        <path d="M45.60994,49.622684 C39.9339139,50.9482787 34.0785545,48.681862 31.8767999,44.3801321 C29.9170579,40.5529881 31.401008,34.5568404 34.7540167,31.9101683 C38.3335945,29.084084 45.9307243,29.4027011 49,32.8073504 C48.6563153,34.0399102 48.2406942,35.5289278 47.7483379,37.2934409 C46.3314807,36.9450096 45.3297288,36.6394065 44.306991,36.457223 C41.644915,35.9838755 39.5903524,37.2989847 39.2514779,39.6374916 C38.9132572,41.9640403 40.4776582,43.880429 43.091992,44.2707657 C43.9071015,44.3928149 44.7422499,44.3721013 45.6218181,44.4203173 C45.7309302,46.5652801 45.8571872,47.4753658 45.60994,49.622684" id="Fill-1" fill="#2D67B6" fill-rule="nonzero"></path>
                        <g id="Group-5" transform="translate(0.000000, 1.000000)">
                            <g id="Fill-3-Clipped">
                                <mask id="mask-2" fill="white">
                                    <use xlink:href="#path-1"></use>
                                </mask>
                                <g id="path-1"></g>
                                <path d="M20.3771404,14.7222598 C20.0647827,13.3558848 19.911368,11.9229264 19.3992949,10.6394264 C18.7642136,9.05063483 17.5735225,7.94705146 15.7975062,7.65167646 C12.1991729,7.05313479 9.73831933,9.23125983 9.14193713,13.5896348 C8.59807543,17.5662181 11.0195388,21.3147181 14.2965306,21.5350098 C14.7477908,21.5654681 15.2163274,21.4833014 15.6648233,21.3898014 C18.6446607,20.7693014 20.142181,18.5585931 20.3771404,14.7222598 M15.0387258,0.461384793 C23.5594575,-0.0578235366 29.285555,7.40517646 29.0899859,14.6351348 C28.8391323,23.9369681 22.8815306,28.8761764 14.6503518,28.8733456 C5.23055506,28.8683848 0.413888385,21.9231764 0.498197325,14.3964264 C0.597018465,5.64850979 7.08880709,-0.0585318766 15.0387258,0.461384793" id="Fill-3" fill="#2D67B6" fill-rule="nonzero" mask="url(#mask-2)" transform="translate(14.795977, 14.650969) rotate(-10.000000) translate(-14.795977, -14.650969) "></path>
                            </g>
                        </g>
                        <path d="M27,63.1058373 L19.815708,64.4263921 C19.412734,62.6965486 19.0170732,61.1494777 18.6961117,59.5843777 C18.3194738,57.7393666 18.0935809,55.8580499 17.639465,54.0351606 C17.2893552,52.6301625 16.5969839,51.3604331 14.9265812,51.2813284 C13.4635709,51.2135348 11.8797068,52.5284137 11.63949,54.3299165 C11.441091,55.8163938 11.5777321,57.3752551 11.7401617,58.8813769 C11.9763124,61.0695799 12.3697476,63.2396182 12.7329515,65.6659562 L5.47527478,67 C4.17406579,64.5275737 0.8790041,46.0567382 1.00342891,41.6007364 C3.1536882,40.8272309 5.46431124,39.9963088 8.2342782,39 L9.9174635,48.9510031 C10.1259,49.0423599 10.334454,49.1344115 10.5434463,49.2249497 C11.7950997,46.5247076 13.911079,45.4172095 16.541,44.9595907 C19.6294387,44.4219895 21.9002225,45.5183631 23.6305022,48.060934 C24.0206224,48.6354253 24.424409,49.2496725 24.6201065,49.9100494 C25.8562758,54.0787053 26.3744039,58.3771962 27,63.1058373" id="Fill-6" fill="#2D67B6" fill-rule="nonzero"></path>
                        <path d="M57.9643251,6.3564793 L65,10.2476886 C62.6903515,14.6998759 60.7208182,19.0896524 56.8764803,22.330205 C54.7913795,24.088663 52.1563114,24.3049096 49.5773826,23.6842827 C46.3141753,22.898547 43.4048088,21.3331069 41.2490006,18.8041648 C38.7775066,15.9034451 38.1639633,12.7276076 40.3124741,9.3807036 C42.2740014,6.32717266 43.7824087,2.99071046 46.3703887,0 L53.1175443,3.73163847 C51.8293517,5.93649811 50.6563354,7.94322686 49.4829539,9.9505617 C48.8869007,10.9704663 48.2127454,11.9568725 47.71459,13.0196076 C46.9256688,14.6997501 47.2970942,16.0615955 48.65117,16.6407865 C50.1435606,17.2786965 51.2858078,16.7233069 52.0754798,15.479157 C53.3419402,13.4804707 54.5341417,11.4390979 55.7996965,9.4391026 C56.4145346,8.46676098 57.1223316,7.54825631 57.9643251,6.3564793" id="Fill-8" fill="#2D67B6" fill-rule="nonzero"></path>
                        <path d="M59.3053718,54 L54.22007,52.7366354 C53.3249408,48.8859363 55.311298,37.3459245 57.4581954,33.9998076 C60.3629834,33.9852929 63.1006369,34.8151675 66,36.0599419 C65.2174721,42.4751783 61.8540776,47.8859766 59.3053718,54" id="Fill-10" fill="#2D67B6" fill-rule="nonzero"></path>
                        <path d="M55.1600137,65.999181 C52.1857687,65.9521451 49.8653601,63.5736988 50.0060771,60.7178385 C50.1489262,57.8282692 52.175819,55.9813281 55.1806238,56.0001424 C58.1527367,56.0197407 59.9777931,57.9184213 59.9998246,61.0149483 C60.0211453,64.0636556 58.0973027,66.0462168 55.1600137,65.999181" id="Fill-12" fill="#2D67B6" fill-rule="nonzero"></path>
                    </g>
                </g>
                <rect id="Rectangle-Copy-31" fill="url(#linearGradient-3)" opacity="0.504278274" x="0" y="0" width="103" height="103" rx="15"></rect>
            </g>
        </g>
    </g>
</svg>