<svg width="103" height="103" viewBox="0 0 103 103" fill="none" xmlns="http://www.w3.org/2000/svg">
<g id="3_Blushy">
<g id="8_Mobbin">
<rect id="Rectangle-Copy-58" width="103" height="103" rx="25" fill="#77BCFE"/>
<g id="blushy">
<g clip-path="url(#clip0)">
<g id="Group">
<path id="Vector" d="M91.0584 103.332C63.7525 103.332 36.3849 103.332 9.0789 103.332C9.0789 98.3964 8.95562 93.4609 9.01726 88.5254C9.0789 84.3303 10.6199 80.9372 14.2566 78.6545C14.5647 78.4694 14.8113 78.0993 15.1811 77.8525C14.4415 76.1868 13.8867 74.5211 12.9621 73.1021C11.6677 71.0663 11.4828 69.1538 12.469 66.9945C12.8389 66.1925 13.2703 65.3288 13.3936 64.4651C13.8251 61.0103 15.1195 57.6788 15.4277 54.1623C15.4893 53.2986 16.1057 52.3732 16.7221 51.7563C17.8316 50.5841 18.2014 49.2885 18.3247 47.6228C18.448 45.0934 20.0506 43.2426 22.1463 41.947C23.1942 41.3301 24.3037 40.8366 25.4748 40.2196C25.9063 38.1838 26.3377 36.0245 28.68 35.4076C30.6525 34.914 32.2551 34.1737 33.3029 32.3846C33.5495 32.0144 34.1042 31.706 34.5357 31.5209C35.7068 31.089 36.1383 30.1636 36.5081 29.0531C37.2478 26.8939 37.9258 24.4262 39.4052 22.7604C42.1173 19.5524 46.2471 18.2568 49.8221 16.221C51.2398 15.4189 52.7808 14.9254 54.3217 14.4319C55.2463 14.1234 56.2942 14 57.2804 14C58.5132 14 59.7459 14.2468 60.9787 14.3085C64.1223 14.3702 69.1767 16.5911 71.3957 18.8121C71.8888 19.3056 72.7517 19.9226 73.3681 19.8609C76.6966 19.7375 78.6074 21.1564 78.9772 24.4262C83.0454 25.5366 83.2919 25.9068 83.7234 29.8552C83.7851 30.4104 83.97 31.1507 84.3398 31.4592C85.7575 32.6931 85.8191 34.2354 85.8191 35.9628C85.8191 37.5051 85.8191 39.0475 86.1273 40.5281C86.7437 43.4277 86.9286 46.2039 85.326 48.795C87.2368 50.4607 87.2985 52.4349 86.7437 54.5325C86.5588 55.2728 86.4355 56.2599 86.8054 56.8151C89.2093 60.8252 89.2709 65.2671 89.2093 69.6473C89.2093 71.93 88.3463 74.2743 87.6067 76.4953C87.0519 78.2227 85.8808 79.4565 84.0316 80.0118C82.1208 80.567 80.3333 81.2456 78.2992 81.986C78.6074 82.2944 78.854 82.6029 79.1621 82.788C82.4906 84.7621 84.5864 87.7234 86.0041 91.2399C87.6683 95.3734 89.3942 99.3835 91.0584 103.332ZM49.5756 74.5211C49.6988 74.2743 49.8837 74.0275 50.007 73.7191C51.3014 74.1509 52.5958 74.5828 53.8286 75.0146C61.6567 77.8525 69.5465 74.0892 71.0258 66.501C72.1353 60.9486 71.8271 55.3345 71.7655 50.2756C69.115 49.597 66.896 48.9801 64.4921 48.3014C64.9236 47.191 65.2318 46.5123 65.6016 45.5869C58.5748 44.1063 52.2877 40.6515 45.6307 40.8983C45.0759 42.8107 44.6445 44.2914 44.213 45.772C43.9664 46.6974 43.5966 47.6845 43.6582 48.6099C43.6582 50.4607 44.2746 52.3115 44.0281 54.1006C43.5966 56.6917 42.6104 59.2211 41.8707 61.7506C40.8229 65.3288 39.4668 68.907 43.2884 71.7449C43.5966 71.9917 43.7815 72.4235 43.9664 72.732C45.9389 76.742 45.8156 78.9013 42.4871 80.9372C42.0556 81.1839 41.7474 81.6158 41.3776 81.986C44.2746 86.4279 48.2195 88.8956 53.3972 89.3892C57.6502 89.7593 60.9787 87.7234 62.7046 83.7751C64.1839 80.3819 62.8279 78.4694 59.0679 78.0376C56.5407 77.7908 54.0752 76.9888 51.6713 76.2485C50.87 76.0634 50.2536 75.138 49.5756 74.5211Z" fill="#4173B8"/>
<path id="Vector_2" d="M64.6154 60.2699C64.2455 59.2828 63.9373 58.2957 63.5059 57.1235C65.4783 57.1235 66.0331 58.2957 66.1563 59.7763C66.218 61.257 65.0468 62.4908 63.5059 62.6142C61.78 62.7993 60.6088 61.8739 60.1774 59.8997C61.5334 60.2699 62.8278 60.5783 64.0606 60.8868C64.2455 60.7017 64.4304 60.455 64.6154 60.2699Z" fill="#4173B8"/>
<path id="Vector_3" d="M59.0063 65.6372C61.1636 67.3029 63.1977 68.1049 65.4167 65.6989C66.218 67.2412 65.4784 68.0432 64.5538 68.6602C62.9512 69.7089 61.2253 69.7089 59.6227 68.7219C58.7597 68.0432 57.7119 67.3029 59.0063 65.6372Z" fill="#4173B8"/>
<path id="Vector_4" d="M57.2187 48.5483C54.8148 49.227 52.5342 49.9056 50.3768 50.5225C51.3014 47.5612 54.8765 46.3274 57.2187 48.5483Z" fill="#4173B8"/>
<path id="Vector_5" d="M53.7054 55.8281C53.5205 55.7664 53.2739 55.7047 53.2123 55.5813C52.4726 54.2241 52.411 52.8668 53.7054 51.818C53.8903 51.633 54.6916 51.8797 54.9382 52.1265C55.7395 53.0519 55.2464 54.5325 53.7054 55.8281Z" fill="#4173B8"/>
<path id="Vector_6" d="M67.2659 55.6429C66.9577 54.9026 66.4029 54.1005 66.4646 53.4219C66.5262 52.805 67.3275 51.8796 67.8823 51.8179C69.115 51.7562 69.2383 52.8667 69.0534 53.7921C68.9301 54.4707 68.437 55.0259 68.1288 55.7046C67.8206 55.6429 67.5741 55.6429 67.2659 55.6429Z" fill="#4173B8"/>
</g>
</g>
</g>
<rect id="Rectangle Copy 49" opacity="0.665109" width="103" height="103" rx="25" fill="url(#paint0_linear)"/>
</g>
</g>
<defs>
<linearGradient id="paint0_linear" x1="0" y1="0" x2="0" y2="103" gradientUnits="userSpaceOnUse">
<stop stop-color="white" stop-opacity="0.0707769"/>
<stop offset="1" stop-color="#0B1A3F" stop-opacity="0.104731"/>
</linearGradient>
<clipPath id="clip0">
<rect width="103" height="103" rx="25" fill="white"/>
</clipPath>
</defs>
</svg>
