<?xml version="1.0" encoding="UTF-8"?>
<svg width="103px" height="104px" viewBox="0 0 103 104" version="1.1" xmlns="http://www.w3.org/2000/svg" xmlns:xlink="http://www.w3.org/1999/xlink">
    <!-- Generator: Sketch 57.1 (83088) - https://sketch.com -->
    <title>5_Fontspace</title>
    <desc>Created with Sketch.</desc>
    <defs>
        <linearGradient x1="50%" y1="0%" x2="50%" y2="100%" id="linearGradient-1">
            <stop stop-color="#FFFFFF" stop-opacity="0.0707768794" offset="0%"></stop>
            <stop stop-color="#0B1A3F" stop-opacity="0.104731206" offset="100%"></stop>
        </linearGradient>
    </defs>
    <g id="Page-1" stroke="none" stroke-width="1" fill="none" fill-rule="evenodd">
        <g id="Home-Copy-5" transform="translate(-969.000000, -1015.000000)">
            <g id="5_Fontspace" transform="translate(969.000000, 1015.000000)">
                <g id="Group-8" transform="translate(0.000000, -0.000000)">
                    <rect id="Rectangle-Copy-41" fill="#FF9BD8" fill-rule="nonzero" x="2.13162821e-14" y="4.35193215e-10" width="103" height="104" rx="15"></rect>
                    <path d="M46.2155335,53.9209457 C46.0576116,54.7715277 46.1838235,55.6708296 46.1379853,56.5456164 C46.0714258,57.824127 45.802676,58.1726143 44.5816855,58.5158261 C42.9798615,58.9667184 41.3651651,59.3723042 39.7598875,59.811094 C39.3451463,59.9243601 38.9385681,59.9305665 38.522885,59.8554695 C38.5096987,56.0571756 38.1612031,52.2616747 38.3376486,48.323117 C41.0766358,47.9603552 43.7201792,47.4455374 46.431224,47.4495247 C46.4513174,49.608765 46.6158325,51.7667173 46.2155335,53.9209457 M86.7688075,66.3932517 C86.2815415,63.9879759 84.7374862,62.3724598 82.6474543,61.2000779 C80.3436157,59.9076029 77.7848415,59.3437549 75.2587192,58.6837082 C74.0983229,58.3805274 72.9372988,58.0705196 71.7982518,57.6981379 C71.1383078,57.4824668 70.5530864,57.1063612 70.5703542,56.2784325 C70.5869941,55.4806046 71.1492964,55.1004649 71.7834957,54.8081452 C72.8013541,54.3383236 73.8948768,54.2452281 75.000644,54.2446075 C77.5123242,54.2433662 80.0240044,54.2446075 82.5353706,54.2427456 C83.5403566,54.2421249 84.5133187,54.1297898 85.4555127,53.3726135 C85.3001025,51.2028692 85.7299138,48.9567867 85.2351128,46.8925505 C84.7478468,46.5794395 84.4320031,46.5819221 84.118043,46.5819221 C80.7169141,46.5834736 77.3145294,46.5332021 73.9152842,46.6076785 C71.7555532,46.6548468 69.6598701,47.1625273 67.7152017,48.1148936 C65.545738,49.1774228 63.7533402,50.6210227 63.1147456,53.0861899 C61.1016339,53.914429 58.9576009,54.3172219 56.8773018,54.9245145 C56.0503311,55.165942 55.2516168,55.641039 54.1609197,55.4880522 C52.4915943,53.0042659 50.7654421,50.4444517 49.0562437,47.8734661 C48.9532649,47.718307 48.9856027,47.4753279 48.9551486,47.2733108 C50.4458308,46.9577173 51.9572343,46.9102386 53.4736612,46.9350641 C54.2127231,46.9471665 54.8174101,46.7435978 55.1125325,46.0028684 C55.6895911,44.5533725 54.5775447,42.8835507 52.996756,42.9871969 C50.0800674,43.1786632 47.1555298,43.2798269 44.2513996,43.6590356 C42.245823,43.9209441 40.2305136,44.1099279 37.997002,44.3560101 C37.997002,43.3223405 38.0089325,42.4028679 37.9944903,41.4833953 C37.9624664,39.4163663 38.0136419,37.3421999 37.8563479,35.2838598 C37.5624813,31.4505 37.7028215,27.6425863 38.3464395,23.86136 C38.6833186,21.8805994 39.332274,19.9823835 40.4688092,18.2750131 C41.3560603,18.2954941 41.9519564,18.700149 42.5161425,19.1628333 C43.5286636,19.9932446 44.3929955,20.9580236 45.1392785,22.0283108 C47.3213007,25.1556969 48.9369389,28.5605073 50.200942,32.1369237 C50.3215026,32.477653 50.3927715,32.8404149 50.5484957,33.1637664 C50.9070381,33.9072886 51.5961803,34.260741 52.3264513,34.1229597 C53.0576642,33.9851785 53.5791518,33.4039526 53.6290714,32.5840921 C53.6507347,32.2306398 53.577268,31.8647747 53.5019176,31.5138049 C52.2677408,25.7453013 49.7595142,20.5775736 45.9750401,16.020552 C44.8699008,14.6895975 43.5553502,13.585796 42.0194578,12.7671768 C39.481405,11.4145001 36.8588969,11.8703574 34.9161123,13.9783484 C34.2445518,14.706665 33.6838192,15.5169057 33.1887043,16.3718321 C32.1441593,18.1757113 31.4129464,20.1083726 30.7935033,22.0857197 C29.4987322,26.2188468 29.1345385,30.4819972 28.9885471,34.7746278 C28.8827426,37.876878 29.2177379,40.9685775 29.2230753,44.0683452 C29.2240171,44.5673368 29.390102,45.1004633 28.9637443,45.6134192 C26.8460839,45.9327365 24.6803877,46.2619841 22.5137496,46.5850252 C20.9125535,46.8236599 19.3101016,47.0554675 17.7079636,47.2872751 C16.872516,47.4079889 16.1758387,47.7108594 16.0461732,48.6477098 C15.7799351,50.5726131 16.6932448,51.1138079 18.0592848,50.9136527 C20.2796101,50.5884393 22.5143775,50.3463912 24.7494589,50.1418916 C26.2872351,50.0010071 27.8020922,49.5122561 29.4434752,49.7207899 C29.492139,50.0317286 29.5448843,50.2778109 29.5671754,50.5263757 C29.8996591,54.2294019 30.2258636,57.9330487 30.5577193,61.6360749 C31.0333687,66.9415838 31.2656992,72.2514372 30.7630492,77.5678073 C30.6126623,79.1609806 30.3545872,80.7411205 29.8958916,82.2849531 C28.7285882,86.2138909 25.9478443,87.4408888 22.9385375,86.2232004 C21.9030974,85.804271 21.0221256,86.2675759 20.7583991,87.0865055 C20.4356482,88.088833 20.9266817,89.028166 22.0531703,89.3661024 C22.8992925,89.6199426 23.7768108,89.8160637 24.654643,89.9131932 C27.7754056,90.2585773 30.5831501,89.6149775 32.7940565,87.2289415 C34.196516,85.7152097 35.1183026,83.9327424 35.8002237,82.014666 C37.5163292,77.1876676 38.0984111,72.174168 38.3125318,67.0995357 C38.3731261,65.6562462 38.2626122,64.2033367 38.54706,62.7718392 C40.95011,63.2689688 43.1399811,64.3547719 45.3970397,65.0461607 C45.9502373,68.9291714 44.8287721,72.6678842 45.3471201,76.3225007 C46.3784787,77.017303 46.9451766,76.459351 47.4468847,75.8312671 C48.3178098,74.7411195 49.1447805,73.6165267 50.0053449,72.5180005 C51.1782995,71.0210259 52.3656963,69.5349124 53.5496396,68.0407306 C53.8438201,68.1387911 54.0384753,68.2014754 54.2318747,68.2685041 C57.0364795,69.2413514 59.8404565,70.21544 62.6453753,71.1873564 C63.3499016,71.4315768 64.053486,71.6472478 64.6126488,70.9040359 C64.7297559,70.3156728 64.407319,69.8933298 64.1115686,69.475021 C63.0965359,68.0394893 62.0475954,66.6269212 61.0526561,65.1777356 C60.2442091,64.0000783 59.2436185,62.9363078 58.6411292,61.559116 C59.7767226,60.116447 60.8542334,58.7336695 61.9549772,57.369511 C62.0658051,57.2320401 62.317915,57.2059733 62.5040933,57.1280835 C62.6940391,57.2559345 62.7364237,57.451435 62.7700175,57.6596584 C63.1791074,60.2089218 64.7014995,61.9538406 66.9054988,63.1836313 C68.2294683,63.9221885 69.6250205,64.5080691 71.097807,64.897208 C73.0154748,65.4042678 74.937852,65.8933292 76.8526942,66.4109398 C77.505731,66.5875108 78.1685006,66.7761843 78.6733483,67.2674179 C79.2328251,67.8123365 79.2507208,68.3057423 78.7502686,68.9018634 C78.3675513,69.3577207 77.8557965,69.625215 77.2997733,69.7822359 C76.4448601,70.0230428 75.5777025,70.1828566 74.6738116,70.1726161 C72.3718568,70.1465494 70.069274,70.1474804 67.7673191,70.1716852 C66.5312585,70.1847185 66.3180796,70.4047341 66.2976722,71.6391796 C66.2722415,73.1904599 66.2907651,74.7423608 66.2939047,76.2936411 C66.2945326,76.6548514 66.2810324,77.02413 66.5802363,77.3046576 C66.8602886,77.5975979 67.2282497,77.6131138 67.5968388,77.6118725 C70.4218511,77.602563 73.2512588,77.6782806 76.0712477,77.5519811 C78.4353667,77.4464729 80.7184839,76.8640058 82.8041203,75.6795215 C86.2193774,73.739723 87.5885571,70.4391794 86.7688075,66.3932517" id="Fill-1" fill="#D23588" fill-rule="nonzero"></path>
                    <rect id="Rectangle-Copy-36" fill="url(#linearGradient-1)" opacity="0.665108817" x="0" y="1" width="103" height="103" rx="15"></rect>
                </g>
            </g>
        </g>
    </g>
</svg>