<svg width="103" height="103" viewBox="0 0 103 103" fill="none" xmlns="http://www.w3.org/2000/svg">
<g id="9_Calligraphr">
<g id="9_Calligraphr_2">
<rect id="Rectangle-Copy-65" width="103" height="103" rx="15" fill="#FF9BD8"/>
<g id="Group">
<path id="Vector" d="M66.6094 49.7338C66.9861 50.057 67.3091 50.3263 67.632 50.6495C72.5298 55.013 73.9292 61.3696 71.0228 67.2414C67.5243 74.4061 61.6577 78.6617 53.9074 80.2778C48.2561 81.463 42.4433 81.7323 36.8458 80.224C29.2031 78.2308 23.0135 74.1367 20.2148 66.3256C18.2772 60.9925 18.6001 55.7133 22.26 51.0805C24.1438 48.6564 26.7811 47.4712 29.6336 46.7171C30.1718 46.5555 30.7639 46.4477 31.4098 46.2861C31.2483 45.8013 31.0868 45.4242 30.9254 44.9932C28.4496 38.3673 30.118 32.6571 35.7155 28.2398C38.891 25.7618 42.4433 24.5228 46.4799 24.846C50.3013 25.1692 54.3918 27.755 54.8762 31.9029C55.1991 34.5425 54.2303 36.8589 52.2927 38.6366C52.0236 38.906 51.593 39.0676 51.2163 39.2292C50.1398 39.5524 49.5478 38.906 49.8707 37.8286C50.086 37.0744 50.3551 36.3202 50.5704 35.5122C51.4854 32.28 49.4401 29.802 46.3185 29.0478C43.0353 28.2398 40.1289 29.2633 37.4916 31.2026C35.0158 33.0342 33.1321 35.3506 32.54 38.475C32.1633 40.5759 32.2171 42.6768 33.0782 44.67C33.5626 45.7474 34.2623 46.34 35.554 46.34C36.6305 46.34 37.8146 46.5555 38.8372 46.9325C40.5057 47.5251 41.1515 49.3567 40.398 50.7573C39.8598 51.6731 38.9449 52.2118 37.9222 51.8886C36.9534 51.5653 35.9308 51.0805 35.1235 50.3802C31.625 47.3635 28.5572 48.5486 26.189 51.4576C23.9823 54.2049 23.8209 57.3294 24.8435 60.5077C26.2967 65.2482 29.526 68.642 33.5088 71.3355C37.384 73.9751 41.7974 75.0525 46.4799 75.1602C51.916 75.268 57.0829 74.2983 61.7654 71.4432C63.8644 70.1503 65.802 68.642 67.309 66.595C70.8075 61.9083 70.3769 55.9826 66.2864 52.104C64.3488 50.2725 61.9269 49.4644 59.3434 49.1951C55.5759 48.818 52.1312 49.6799 49.1172 52.104C47.072 53.7201 46.157 55.8749 46.4261 58.4606C46.5876 60.0229 47.3411 61.3157 48.6866 62.0699C49.2787 62.3931 50.1937 62.447 50.8395 62.2854C51.5392 62.1238 51.3239 61.2619 51.3777 60.6154C51.4854 59.6996 51.4854 58.73 51.8083 57.8681C52.4542 56.1981 53.9074 55.4439 55.5759 55.7672C57.1905 56.0365 58.4284 57.4371 58.5899 59.1071C58.9128 63.1473 55.2529 66.2179 51.0548 65.4637C45.565 64.4402 42.7124 59.0532 44.8653 53.6124C46.9105 48.5486 50.7319 45.6935 56.1141 44.9394C58.8052 44.5623 61.5501 44.5084 64.295 44.3468C67.9549 44.1313 71.6148 44.0236 75.1132 42.7307C78.3426 41.5456 80.7646 39.5524 81.4104 35.997C82.1101 32.3878 81.3028 29.4788 78.2349 27.5395C76.7817 26.6237 75.1671 26.6237 73.5524 26.8392C72.1531 27.0547 71.7763 28.0243 72.5298 29.3172C73.1218 30.2868 73.7139 31.2026 73.66 32.3877C73.6062 34.0577 72.5836 35.4583 70.969 35.997C69.1928 36.5357 67.3091 36.0509 66.3403 34.7041C65.0485 32.9803 64.9947 30.7717 66.2326 28.8862C67.6858 26.6237 69.8387 25.277 72.476 24.846C75.3824 24.3612 78.2349 24.5228 80.6569 26.4082C83.2404 28.4553 84.6936 31.0949 84.9627 34.4348C85.4471 40.4143 81.1951 47.148 73.4986 48.4948C71.1842 49.1412 68.9237 49.4106 66.6094 49.7338Z" fill="#CD3A88"/>
</g>
</g>
<rect id="Rectangle Copy 55" opacity="0.610166" width="103" height="103" rx="15" fill="url(#paint0_linear)"/>
</g>
<defs>
<linearGradient id="paint0_linear" x1="0" y1="0" x2="0" y2="103" gradientUnits="userSpaceOnUse">
<stop stop-color="white" stop-opacity="0.0707769"/>
<stop offset="1" stop-color="#0B1A3F" stop-opacity="0.104731"/>
</linearGradient>
</defs>
</svg>
