<?xml version="1.0" encoding="UTF-8"?>
<svg width="103px" height="103px" viewBox="0 0 103 103" version="1.1" xmlns="http://www.w3.org/2000/svg" xmlns:xlink="http://www.w3.org/1999/xlink">
    <!-- Generator: Sketch 57.1 (83088) - https://sketch.com -->
    <title>6_Coolers</title>
    <desc>Created with Sketch.</desc>
    <defs>
        <polygon id="path-1" points="0 0 58 0 58 62 0 62"></polygon>
        <linearGradient x1="50%" y1="0%" x2="50%" y2="100%" id="linearGradient-3">
            <stop stop-color="#FFFFFF" stop-opacity="0.0707768794" offset="0%"></stop>
            <stop stop-color="#0B1A3F" stop-opacity="0.104731206" offset="100%"></stop>
        </linearGradient>
    </defs>
    <g id="Page-1" stroke="none" stroke-width="1" fill="none" fill-rule="evenodd">
        <g id="Home-Copy-5" transform="translate(-549.000000, -1325.000000)">
            <g id="6_Coolers" transform="translate(549.000000, 1325.000000)">
                <g>
                    <rect id="Rectangle-Copy-38" fill="#FF756D" fill-rule="nonzero" x="0" y="0" width="103" height="103" rx="15"></rect>
                    <g id="Fill-1-Clipped" transform="translate(22.000000, 21.000000)">
                        <mask id="mask-2" fill="white">
                            <use xlink:href="#path-1"></use>
                        </mask>
                        <g id="path-1"></g>
                        <path d="M30.9504231,61.994059 C28.863027,62.0446801 26.8083582,61.7666057 24.7809624,61.3585579 C20.5240106,60.5014182 16.6192195,58.7953476 13.0887484,56.2465027 C11.8014696,55.3171936 10.5073726,54.3858323 9.3939583,53.2526703 C8.4005446,52.2416149 7.4579265,51.1713873 6.5766724,50.0601156 C3.8698415,46.6459222 2.0364238,42.7928979 0.9738052,38.5646611 C0.226529,35.5913508 -0.1379046,32.5663933 0.0478918,29.5130468 C0.2895974,25.538258 1.0638056,21.6609492 2.8675641,18.0699237 C3.7205226,16.3717199 4.6174586,14.6793307 5.6718954,13.1035754 C6.9346286,11.2165683 8.429522,9.5098136 10.1524846,7.9939145 C12.4498818,5.9718035 14.9548935,4.2838608 17.6941109,2.9557388 C20.1544634,1.7630628 22.7399301,0.9599646 25.4460791,0.4729067 C27.897227,0.0320236 30.3511021,-0.0589577 32.8145228,0.0316816 C34.5927129,0.0970103 36.3576076,0.3477219 38.0993203,0.7838166 C40.4396722,1.3697225 42.7179783,2.0938106 44.8585566,3.2293668 C46.4414049,4.0690628 47.8882299,5.1091912 49.3582368,6.1260613 C51.0818812,7.3183953 52.533138,8.7932503 53.9635993,10.2927317 C55.499061,11.9023485 56.8286127,13.6723796 57.6283892,15.7786312 C57.8169128,16.274924 57.9082769,16.8252583 57.9491862,17.3581488 C58.0596412,18.7844348 57.9969137,20.2107207 57.5625935,21.5826232 C57.4207746,22.030347 57.0767957,22.411374 56.8398628,22.8310509 C55.8675855,24.5555914 54.373033,25.7157742 52.6422295,26.5476033 C51.9750672,26.8680901 51.1647225,26.9590714 50.4099463,27.0107187 C48.4838009,27.1424022 46.6227694,26.8455158 44.936966,25.8300138 C44.0332118,25.2854941 43.2440035,24.6082648 42.6358189,23.721026 C41.4835407,22.039924 40.0858069,20.5855911 38.3795489,19.4722672 C36.6695409,18.356207 34.7621456,17.7723532 32.7477043,17.4313443 C30.3016701,17.0171399 28.0029093,17.5732888 25.7668761,18.3934888 C24.7230075,18.776568 23.7677758,19.4750035 22.8629988,20.1522328 C20.8673076,21.6465837 19.4218463,23.6064443 18.4822964,25.9124443 C17.8911573,27.3633568 17.5291101,28.8758356 17.5570648,30.472797 C17.5809286,31.8122061 17.5778604,33.1375917 17.9518394,34.449638 C18.4741146,36.2822616 19.2899139,37.9452357 20.4759422,39.432746 C22.0523132,41.4086822 23.9869814,42.8886677 26.366538,43.7625671 C29.053937,44.7493381 31.7621315,44.8799955 34.5480536,44.1459883 C37.344544,43.409587 39.5938728,41.8711135 41.4688816,39.726554 C42.196385,38.8947249 42.8144561,37.9640477 43.5630959,37.1530827 C44.4232136,36.2210373 45.4817413,35.6474446 46.7608382,35.3461117 C47.8169795,35.0977943 48.8475526,34.849819 49.9296031,34.9048866 C52.4731378,35.0341758 54.609966,36.1091918 56.1877006,38.0581073 C57.3781608,39.5278317 58.0173683,41.2814452 58.0003448,43.2669584 C57.9849818,44.904964 57.751458,46.4475419 56.8766811,47.8399664 C56.3639515,48.656404 55.8355399,49.47763 55.2065597,50.2030862 C53.3073462,52.3948466 51.3089277,54.4860486 48.9239166,56.1726232 C46.3357226,58.0031945 43.6159371,59.5649264 40.5610364,60.470635 C38.4698902,61.0907445 36.3664713,61.6571545 34.1703246,61.7710521 C33.096115,61.8268038 32.02361,61.9184692 30.9504231,61.994059" id="Fill-1" fill="#CE2020" fill-rule="nonzero" mask="url(#mask-2)"></path>
                    </g>
                </g>
                <rect id="Rectangle-Copy-41" fill="url(#linearGradient-3)" opacity="0.610165551" x="0" y="0" width="103" height="103" rx="15"></rect>
            </g>
        </g>
    </g>
</svg>