<?xml version="1.0" encoding="UTF-8"?>
<svg width="103px" height="103px" viewBox="0 0 103 103" version="1.1" xmlns="http://www.w3.org/2000/svg" xmlns:xlink="http://www.w3.org/1999/xlink">
    <!-- Generator: Sketch 57.1 (83088) - https://sketch.com -->
    <title>6_Gradientsio</title>
    <desc>Created with Sketch.</desc>
    <defs>
        <polygon id="path-1" points="1.7605587e-05 0.00508806063 31.4844125 0.00508806063 31.4844125 35 1.7605587e-05 35"></polygon>
        <polygon id="path-3" points="0.349593928 0.337538 25.4938667 0.337538 25.4938667 25.9753701 0.349593928 25.9753701"></polygon>
        <linearGradient x1="50%" y1="0%" x2="50%" y2="100%" id="linearGradient-5">
            <stop stop-color="#FFFFFF" stop-opacity="0.0707768794" offset="0%"></stop>
            <stop stop-color="#0B1A3F" stop-opacity="0.104731206" offset="100%"></stop>
        </linearGradient>
    </defs>
    <g id="Page-1" stroke="none" stroke-width="1" fill="none" fill-rule="evenodd">
        <g id="Home-Copy-5" transform="translate(-97.000000, -1486.000000)">
            <g id="6_Gradientsio" transform="translate(97.000000, 1486.000000)">
                <g>
                    <rect id="Rectangle-Copy-44" fill="#FF756D" fill-rule="nonzero" x="0" y="0" width="103" height="103" rx="15"></rect>
                    <g id="Group-13" transform="translate(12.000000, 34.000000)">
                        <g id="Group-3">
                            <g id="Fill-1-Clipped">
                                <mask id="mask-2" fill="white">
                                    <use xlink:href="#path-1"></use>
                                </mask>
                                <g id="path-1"></g>
                                <path d="M26.5022857,21.0406452 C25.7674286,20.9971774 25.2108571,20.9384677 24.6542857,20.9350806 C22.1788571,20.9209677 19.7017143,20.9621774 17.2268571,20.9029032 C15.6691429,20.8656452 14.8605714,19.6417742 15.3097143,18.1723387 C15.6028571,17.2120968 16.1554286,16.7841935 17.332,16.7570968 C19.0451429,16.7187097 20.76,16.7373387 22.4742857,16.7373387 C24.3788571,16.7373387 26.2845714,16.7068548 28.1874286,16.7559677 C30.2348571,16.8095968 31.444,18.0385484 31.4702857,20.0521774 C31.4971429,22.0748387 31.4502857,24.0980645 31.4834286,26.1201613 C31.5217143,28.4837903 30.4405714,30.2597581 28.612,31.6625806 C26.0102857,33.6587097 22.9674286,34.6065323 19.7668571,34.9000806 C14.5948571,35.3731452 9.828,34.1983871 5.81657143,30.7734677 C2.41942857,27.8735484 0.663428571,24.1347581 0.150857143,19.7462097 C-0.24,16.3991935 0.104571429,13.16 1.46857143,10.0952419 C3.82114286,4.81137097 7.988,1.60209677 13.6702857,0.464032258 C17.7571429,-0.354516129 21.8371429,-0.181774194 25.6114286,1.83298387 C26.8954286,2.51774194 28.0782857,3.42153226 29.2102857,4.34112903 C30.3251429,5.24717742 30.4428571,6.93225806 29.5988571,7.85919355 C28.8085714,8.72854839 27.3737143,8.7675 26.2594286,7.83548387 C24.6794286,6.51451613 22.9822857,5.44645161 20.976,4.86274194 C15.8434286,3.37016129 9.92342857,5.57177419 7.22857143,10.1449194 C4.63314286,14.5520968 4.38457143,19.145 6.66114286,23.7587903 C9.596,29.7070968 16.4388571,32.1971774 22.612,29.6320161 C23.0937143,29.4321774 23.5474286,29.1696774 24.0234286,28.9557258 C25.8394286,28.1371774 26.8577143,26.9200806 26.5342857,24.7805645 C26.356,23.5984677 26.5022857,22.3689516 26.5022857,21.0406452" id="Fill-1" fill="#CE2020" fill-rule="nonzero" mask="url(#mask-2)"></path>
                            </g>
                        </g>
                        <g id="Group-6" transform="translate(55.000000, 9.000000)">
                            <g id="Fill-4-Clipped">
                                <mask id="mask-4" fill="white">
                                    <use xlink:href="#path-3"></use>
                                </mask>
                                <g id="path-3"></g>
                                <path d="M13.4373778,4.21516522 C10.9113333,4.21855652 9.03644444,4.98781739 7.62435556,6.39973043 C4.20795556,9.81703478 4.27728889,16.2695565 7.48511111,19.7106 C10.5352,22.9809478 16.5851111,22.8656435 19.1822222,18.6807739 C21.4459556,15.0328609 21.4355556,11.2662522 19.2134222,7.5979913 C17.8290667,5.31168696 15.6057778,4.31068696 13.4373778,4.21516522 M25.4915556,14.0069913 C25.5435556,16.1248609 24.7676,18.7943826 22.9967111,21.1451217 C20.1673333,24.9004261 16.2141778,26.3406 11.6306667,25.8980348 C6.15853333,25.370687 2.41337778,22.4157304 0.9932,17.1840783 C-0.458755556,11.8371217 0.427555556,6.8959913 4.86835556,3.03555652 C6.74324444,1.40546957 9.00871111,0.542382609 11.5492,0.383556522 C14.7015556,0.185730435 17.6984889,0.580817391 20.3216,2.45225217 C24.0471111,5.10933913 25.5337333,8.81433913 25.4915556,14.0069913" id="Fill-4" fill="#CE2020" fill-rule="nonzero" mask="url(#mask-4)"></path>
                            </g>
                        </g>
                        <path d="M48.0141272,21.4079446 C48.0151561,18.059133 48.0012663,14.7097552 48.0208149,11.3609437 C48.0305892,9.73410301 48.8722096,8.88699073 50.2709661,9.01213231 C51.1563137,9.09197378 51.8528625,9.81734199 51.9763276,10.8060172 C52.0051361,11.0387465 51.9938185,11.2771384 51.9938185,11.5126991 C51.9948474,18.1168907 51.9891885,24.7210823 52,31.3247076 C52.0015351,32.4430544 51.7875289,33.3773694 50.7283014,33.8326356 C49.4530099,34.3818996 48.1314191,33.5279923 48.0347047,32.0200645 C47.9714289,31.0342206 48.0141272,30.0398829 48.0136128,29.049509 C48.0125839,26.5025096 48.0130984,23.9549439 48.0141272,21.4079446" id="Fill-7" fill="#CE2020" fill-rule="nonzero"></path>
                        <path d="M40.983454,31.9758109 C41.1736163,33.5734734 39.6940206,35.0261955 38.120456,34.9996415 C36.355061,34.9703216 35.0072444,33.7228393 34.999984,32.0112162 C34.9944557,30.5524088 36.4351293,29.0128331 37.8785829,29.0001094 C39.274218,28.9879388 41.0913238,29.9914567 40.983454,31.9758109" id="Fill-9" fill="#CE2020" fill-rule="nonzero"></path>
                        <path d="M53.0000285,3.0300862 C52.9932627,4.79780126 51.7113224,6.03216449 49.9164841,5.99936153 C48.1716549,5.96655857 47.0116881,4.78929679 47.0001006,3.03798321 C46.9872934,1.21741894 48.1984891,-0.0102622046 49.9969866,6.46530812e-05 C51.8400044,0.00978404858 53.0066798,1.18704583 53.0000285,3.0300862" id="Fill-11" fill="#CE2020" fill-rule="nonzero"></path>
                    </g>
                </g>
                <rect id="Rectangle-Copy-45" fill="url(#linearGradient-5)" opacity="0.610165551" x="0" y="0" width="103" height="103" rx="15"></rect>
            </g>
        </g>
    </g>
</svg>