<svg width="103" height="103" viewBox="0 0 103 103" fill="none" xmlns="http://www.w3.org/2000/svg">
<g id="6_Picular">
<g id="6_Gradientsio">
<rect id="Rectangle-Copy-44" width="103" height="103" rx="15" fill="#FF756D"/>
</g>
<g id="Group">
<path id="Vector" d="M33.0926 66.0368C33.0926 56.9746 33.0612 48.1946 33.1239 39.4146C33.1239 37.7213 33.5002 36.028 33.9706 34.3661C36.5418 25.4606 45.1337 19.0638 54.3213 19.0011C67.1777 18.8756 77.0552 29.8506 76.1459 42.3621C75.4247 52.6159 66.5506 61.5213 56.3282 62.0544C51.8441 62.3053 47.3914 62.2739 42.9073 62.2112C39.458 62.1798 36.4791 63.1833 33.9078 65.4723C33.7824 65.6291 33.5316 65.7545 33.0926 66.0368Z" fill="#CE2020"/>
<path id="Vector_2" d="M39.1132 83.8785C37.7021 83.8785 36.291 83.8785 34.9113 83.8785C33.7197 83.8785 33.0612 83.22 33.0612 82.0284C33.0612 79.3317 32.9045 76.6037 33.0926 73.9069C33.4062 69.5797 37.514 65.8482 41.904 65.7227C44.193 65.66 46.4821 65.6914 48.7712 65.7227C50.5585 65.7541 51.1857 66.3812 51.1857 68.1999C51.217 70.5831 51.217 72.9976 51.1857 75.3807C51.1229 79.8648 47.1719 83.8158 42.7192 83.8785C41.5277 83.8785 40.3361 83.8785 39.1132 83.8785Z" fill="#CE2020"/>
</g>
<rect id="Rectangle Copy 45" opacity="0.610166" width="103" height="103" rx="15" fill="url(#paint0_linear)"/>
</g>
<defs>
<linearGradient id="paint0_linear" x1="0" y1="0" x2="0" y2="103" gradientUnits="userSpaceOnUse">
<stop stop-color="white" stop-opacity="0.0707769"/>
<stop offset="1" stop-color="#0B1A3F" stop-opacity="0.104731"/>
</linearGradient>
</defs>
</svg>
