<?xml version="1.0" encoding="UTF-8"?>
<svg width="103px" height="103px" viewBox="0 0 103 103" version="1.1" xmlns="http://www.w3.org/2000/svg" xmlns:xlink="http://www.w3.org/1999/xlink">
    <!-- Generator: Sketch 57.1 (83088) - https://sketch.com -->
    <title>6_Shade</title>
    <desc>Created with Sketch.</desc>
    <defs>
        <polygon id="path-1" points="0 0.39643594 32.5326369 0.39643594 32.5326369 37 0 37"></polygon>
        <linearGradient x1="50%" y1="0%" x2="50%" y2="100%" id="linearGradient-3">
            <stop stop-color="#FFFFFF" stop-opacity="0.0707768794" offset="0%"></stop>
            <stop stop-color="#0B1A3F" stop-opacity="0.104731206" offset="100%"></stop>
        </linearGradient>
    </defs>
    <g id="Page-1" stroke="none" stroke-width="1" fill="none" fill-rule="evenodd">
        <g id="Home-Copy-5" transform="translate(-549.000000, -1486.000000)">
            <g id="6_Shade" transform="translate(549.000000, 1486.000000)">
                <g>
                    <rect id="Rectangle-Copy-66" fill="#FF756D" fill-rule="nonzero" x="0" y="0" width="103" height="103" rx="15"></rect>
                    <g id="Group-13" transform="translate(16.000000, 25.000000)">
                        <path d="M37.10888,0.070739784 C40.4495224,-0.0187809316 43.5178603,-0.0257747375 46.7897247,0.0637459781 C46.8058664,2.17167908 46.8262191,4.07609243 46.8332372,5.98050578 C46.8409572,7.90310302 46.8353427,9.82570027 46.8353427,11.7475981 L46.8353427,17.7657681 C47.3743371,17.1803866 47.7280522,16.8188068 48.0572037,16.436945 C51.1774759,12.820448 55.242392,11.8650941 59.7810336,12.3889301 C61.3994204,12.5763641 62.9595565,13.0246671 64.446002,13.7974826 C67.0960578,15.1759618 68.5677651,17.4293661 69.1993992,20.1786312 C69.6773356,22.2592884 69.9159529,24.4329633 69.9475346,26.5702704 C70.0408761,32.977296 69.9812218,39.3864197 69.9812218,45.7941447 L69.9812218,47.6055404 C68.461791,48.0650335 62.0893052,48.1097938 60.2638827,47.6971593 C60.2315992,47.0691155 60.167734,46.3893176 60.1670322,45.7088202 C60.1579086,39.5920376 60.160014,33.4752549 60.1579086,27.3584723 C60.1579086,25.6512843 59.8834987,24.0119362 59.1374687,22.4481212 C58.6230378,21.3696763 57.8187571,20.6381242 56.715503,20.3262005 C54.6451469,19.7415183 52.5614563,19.7149418 50.5458419,20.5975601 C48.5189984,21.4850741 47.6269907,23.2426175 47.2494139,25.2484411 C46.9714949,26.7241341 46.8655208,28.2501826 46.8528881,29.7545502 C46.8079719,35.1139037 46.83815,40.4739565 46.8311318,45.83331 C46.83043,46.4592556 46.7763902,47.0859006 46.7497212,47.6593927 C45.3362645,48.0335613 39.514704,48.1146895 37.3839918,47.8265447 C36.8625428,47.3796405 37.0246622,46.7592899 37.0211531,46.199086 C37.0036077,43.6946041 37.0127313,41.1887235 37.0127313,38.6842416 C37.0127313,26.5667735 37.0113277,14.4493054 37.0169422,2.33113785 C37.0169422,1.64714364 37.070982,0.963149418 37.10888,0.070739784" id="Fill-4" fill="#CE2020" fill-rule="nonzero"></path>
                        <g id="Group-12" transform="translate(0.000000, 11.000000)">
                            <g id="Fill-10-Clipped">
                                <mask id="mask-2" fill="white">
                                    <use xlink:href="#path-1"></use>
                                </mask>
                                <g id="path-1"></g>
                                <path d="M31.2963574,11.5754849 L22.5668043,11.5754849 C22.4039106,11.2690132 22.1897617,11.0302585 22.1518468,10.7663717 C21.8028894,8.34880566 20.0019319,7.53480566 17.9559319,7.22344717 C16.5278043,7.00563585 15.0399957,7.13408868 13.5816766,7.18086226 C13.1358255,7.19482453 12.6920809,7.43567358 12.258166,7.59973019 C10.2922085,8.34322075 9.77052766,11.1035604 11.9471234,12.4795415 C12.8655064,13.0603717 13.9538043,13.4359566 15.0147191,13.7200887 C17.043166,14.2639189 19.1179532,14.6339189 21.1541234,15.1533151 C22.9059319,15.6001075 24.6731872,16.0441075 26.3582936,16.6842774 C30.3913149,18.217334 32.7195702,21.5871264 32.5208681,25.4972585 C32.273017,30.3749755 29.3128468,34.2166925 24.8304638,35.7162396 C22.8244851,36.3878245 20.7749745,36.699183 18.6615702,36.8918623 C15.3538468,37.1927491 12.1465277,36.8569566 8.97361277,36.0066547 C6.17142128,35.2547868 3.87054894,33.6993906 2.12154894,31.4053906 C0.741868085,29.5965792 0.196314894,27.4757113 -0.000280851064,25.0323151 C3.06520851,24.7167679 6.0576766,24.9108434 8.98063404,24.9115415 C9.15265532,25.2256925 9.27342128,25.3667113 9.31133617,25.5272774 C10.064017,28.6960132 12.1079106,30.3638057 15.393166,30.4950509 C17.279783,30.5704472 19.1383149,30.5432208 20.8248255,29.5142019 C21.8225489,28.9061453 22.5338043,28.115183 22.6763362,26.9137302 C22.8757404,25.2242962 22.1195489,23.9195226 20.3164851,23.2933151 C18.2796128,22.5861264 16.1886766,22.0276358 14.1075702,21.4523906 C11.9695915,20.8617868 9.79229362,20.4038245 7.67608085,19.7469 C5.94533617,19.2100509 4.32342128,18.4183906 3.01535745,17.0745226 C1.64269787,15.664334 0.901953191,14.0230698 0.916697872,12.0697491 C0.924421277,11.027466 0.908974468,9.96423962 1.10486809,8.94918302 C1.84280426,5.12840943 4.40065532,2.81556038 7.92744255,1.66716415 C12.6829532,0.118749057 17.5641447,0.0147301887 22.4495489,1.19523962 C25.0221447,1.81656038 27.229634,3.04733396 28.9533574,5.0739566 C30.3491872,6.71522075 31.1454,8.62386226 31.4515277,10.7391453 C31.4817191,10.9492774 31.3742936,11.1789566 31.2963574,11.5754849" id="Fill-10" fill="#CE2020" fill-rule="nonzero" mask="url(#mask-2)"></path>
                            </g>
                        </g>
                    </g>
                </g>
                <rect id="Rectangle-Copy-44" fill="url(#linearGradient-3)" opacity="0.610165551" x="0" y="0" width="103" height="103" rx="15"></rect>
            </g>
        </g>
    </g>
</svg>