<?xml version="1.0" encoding="UTF-8"?>
<svg width="103px" height="104px" viewBox="0 0 103 104" version="1.1" xmlns="http://www.w3.org/2000/svg" xmlns:xlink="http://www.w3.org/1999/xlink">
    <!-- Generator: Sketch 58 (84663) - https://sketch.com -->
    <title>7_Collectui</title>
    <desc>Created with Sketch.</desc>
    <defs>
        <polygon id="path-1" points="0 0.0642857143 63.9504842 0.0642857143 63.9504842 75 0 75"></polygon>
        <linearGradient x1="50%" y1="0%" x2="50%" y2="100%" id="linearGradient-3">
            <stop stop-color="#FFFFFF" stop-opacity="0.0707768794" offset="0%"></stop>
            <stop stop-color="#0B1A3F" stop-opacity="0.104731206" offset="100%"></stop>
        </linearGradient>
    </defs>
    <g id="Page-1" stroke="none" stroke-width="1" fill="none" fill-rule="evenodd">
        <g id="Home-Copy-5" transform="translate(-844.000000, -1485.000000)">
            <g id="7_Collectui" transform="translate(844.000000, 1485.000000)">
                <g id="7_Awwwards" fill="#FFAA51" fill-rule="nonzero">
                    <rect id="Rectangle-Copy-61" x="0" y="0" width="103" height="104" rx="15"></rect>
                </g>
                <g id="Group-8" transform="translate(18.000000, 14.000000)">
                    <g id="Group-3">
                        <mask id="mask-2" fill="white">
                            <use xlink:href="#path-1"></use>
                        </mask>
                        <g id="Clip-2"></g>
                        <path d="M-0.000134736842,37.8569196 C0.0662231579,18.8404018 14.1640758,2.85100446 32.9655916,0.43359375 C43.9584337,-0.979352679 53.9094232,1.62321429 62.4507284,8.87377232 C63.1648337,9.48013393 64.2966232,10.1223214 63.81696,11.1231027 C63.3180968,12.1640625 62.3399074,13.0436384 61.3957389,13.7665179 C61.1228968,13.9754464 60.1295495,13.5418527 59.6613389,13.1638393 C57.1222232,11.1154018 54.4557811,9.28560268 51.4629389,7.94665179 C33.1794863,-0.233705357 11.8812968,9.43861607 6.62723368,29.1184152 C3.08736,42.3773437 7.77990737,55.7008929 18.6322863,63.7975446 C28.8931705,71.4522321 43.8462653,72.5926339 55.4046653,64.8254464 C56.7516968,63.9204241 58.0478653,62.9390625 59.3470653,61.9664062 C61.0642863,60.6810268 61.6891284,60.8002232 63.3494232,62.7940848 C64.2868547,63.9194196 64.1891705,64.4390625 62.6218442,65.8342634 C56.8315284,70.9891741 50.0226021,73.9121652 42.3277811,74.7441964 C32.1039495,75.8501116 22.7858863,73.381808 14.6558653,67.1183036 C5.90874947,60.3793527 1.02656,51.4466518 0.165928421,40.419308 C0.09216,39.4741071 0.0429810526,38.5268973 -0.000134736842,37.8569196" id="Fill-1" fill="#E47700" mask="url(#mask-2)"></path>
                    </g>
                    <path d="M43.9839286,34.4288955 C43.9839286,36.9929988 44.0248988,39.5581291 43.9760099,42.1215477 C43.8596408,48.1983699 38.9855622,52.9096102 32.7728937,52.9986178 C26.3774086,53.090364 21.2761003,48.6050661 21.095005,42.4707314 C20.9318127,36.9478103 21.0247704,31.4170155 21.0412962,25.8899864 C21.0464605,24.2690213 21.3002004,24.0824477 22.989275,24.0310971 C26.695186,23.918126 26.692776,23.918126 26.6965631,27.6215264 C26.7013832,32.3512529 26.6614458,37.0816641 26.7354676,41.8103635 C26.780225,44.6651108 28.4507081,46.7276906 30.9795,47.3442393 C34.8723591,48.2931972 38.238114,45.7270399 38.3083486,41.6210512 C38.3889119,36.8926941 38.3310716,32.1619406 38.3334816,27.4322141 C38.3348588,23.957837 38.3345145,23.957837 41.866216,24.0242504 C43.8217691,24.0615651 43.9777314,24.2050043 43.9901257,26.2227379 C44.0063072,28.958352 43.9939129,31.6936237 43.9939129,34.4288955 L43.9839286,34.4288955 Z" id="Fill-4" fill="#E47700"></path>
                    <path d="M48.0047614,38.017735 C48.0047614,34.0578652 47.9904984,30.0983302 48.0113443,26.1387952 C48.0212187,24.2333569 48.2505241,24.0518866 50.3365811,24.0150568 C53.9981526,23.9497677 54.0007126,23.9497677 54,27.2778396 C53.9981526,34.695355 54,42.1125357 53.9864496,49.530386 C53.9827924,51.8526703 53.8182192,51.9845878 51.2819629,51.9989849 C51.0383945,52.0003242 50.7944604,52.000659 50.5508921,51.9979805 C48.1971292,51.9738737 48.0252416,51.8389429 48.0164644,49.7292667 C48,45.825646 48.0120757,41.9216905 48.0120757,38.017735 L48.0047614,38.017735 Z" id="Fill-6" fill="#E47700"></path>
                </g>
                <rect id="Rectangle-Copy-46" fill="url(#linearGradient-3)" opacity="0.665108817" x="0" y="1" width="103" height="103" rx="15"></rect>
            </g>
        </g>
    </g>
</svg>