<?xml version="1.0" encoding="UTF-8"?>
<svg width="103px" height="104px" viewBox="0 0 103 104" version="1.1" xmlns="http://www.w3.org/2000/svg" xmlns:xlink="http://www.w3.org/1999/xlink">
    <!-- Generator: Sketch 57.1 (83088) - https://sketch.com -->
    <title>7_Dribbble</title>
    <desc>Created with Sketch.</desc>
    <defs>
        <polygon id="path-1" points="0 0 71 0 71 71 0 71"></polygon>
        <linearGradient x1="50%" y1="0%" x2="50%" y2="100%" id="linearGradient-3">
            <stop stop-color="#FFFFFF" stop-opacity="0.0707768794" offset="0%"></stop>
            <stop stop-color="#0B1A3F" stop-opacity="0.104731206" offset="100%"></stop>
        </linearGradient>
    </defs>
    <g id="Page-1" stroke="none" stroke-width="1" fill="none" fill-rule="evenodd">
        <g id="Home-Copy-5" transform="translate(-549.000000, -1651.000000)">
            <g id="7_Dribbble" transform="translate(549.000000, 1651.000000)">
                <g>
                    <rect id="Rectangle-Copy-57" fill="#FFAA51" fill-rule="nonzero" x="0" y="0" width="103" height="104" rx="15"></rect>
                    <g id="Group-3" transform="translate(18.000000, 16.000000)">
                        <g id="Fill-1-Clipped">
                            <mask id="mask-2" fill="white">
                                <use xlink:href="#path-1"></use>
                            </mask>
                            <g id="path-1"></g>
                            <path d="M53.0392389,59.5460925 C59.5021247,54.5913972 63.459449,48.2918967 64.8912662,40.3465294 C59.1103339,39.0425623 53.3588452,38.7728415 47.4416172,39.7572274 C49.8654961,46.2215046 51.7346943,52.7541616 53.0392389,59.5460925 Z M29.5503131,6.37737763 C32.853703,11.5865982 36.1813127,16.8333328 39.5207948,22.0985869 C44.144401,20.4047592 51.289715,15.9481927 54.5684102,12.6787776 C46.8460952,6.05827132 36.4258851,4.60519793 29.5503131,6.37737763 Z M58.6059923,16.7450087 C53.6832005,21.2300669 48.1064743,24.6101246 42.0814444,27.2275561 C42.0890428,27.3358243 42.0795448,27.3861595 42.0966411,27.4241484 C43.106749,29.6246523 44.1287293,31.8199328 45.121266,34.0289842 C45.297928,34.4221688 45.5301531,34.3528392 45.8416861,34.2963307 C51.7180729,33.2221961 57.5982589,33.2468889 63.4798696,34.2554927 C64.0411989,34.3518894 64.6020534,34.4539845 65.2474396,34.567951 C64.9634507,27.8258804 62.7589746,21.9585031 58.6059923,16.7450087 Z M6.4878456,28.5666629 C15.8813264,28.3691209 24.9756215,27.0694275 33.8927796,24.2088674 C30.7821983,18.6316298 27.3729062,13.3212639 23.5024881,8.19134506 C14.6798347,12.3910121 9.03139884,19.1117139 6.4878456,28.5666629 Z M39.6779861,35.8168343 C38.6370098,33.6082578 37.6302262,31.4737594 36.6205933,29.3316633 C26.5285377,32.7302405 16.2455731,34.1567217 5.77027485,34.2816101 C5.38370795,40.7164458 7.50555184,48.5696901 12.7845171,54.6930174 C20.0485556,45.9617558 28.8374913,39.4680373 39.6779861,35.8168343 Z M41.8017295,41.100608 C31.6754813,44.4407774 23.5713483,50.5384621 16.8980828,58.6842206 C25.0235862,65.4110956 37.2769022,67.4477726 47.7863931,62.5899489 C46.5754034,55.2077662 44.4801538,48.1067011 41.8017295,41.100608 Z M37.5684895,0 C37.7931162,0.0417877313 38.0163182,0.0921229531 38.2423697,0.124413473 C39.7938611,0.348547668 41.3671979,0.474385722 42.8954194,0.80678813 C51.4488058,2.66491759 58.4454768,7.07114894 63.7101951,14.0435269 C70.1778298,22.6085872 72.3419396,32.2644023 70.2020496,42.769743 C68.4458771,51.390362 63.9514432,58.4220975 56.9334018,63.7163182 C48.3652936,70.1796456 38.7096692,72.3426355 28.2030277,70.2005394 C19.5822058,68.4430804 12.5765118,63.928106 7.25195635,56.9334096 C1.62061686,49.5355566 -0.714456191,41.1257756 0.188799646,31.8887876 C0.924891415,24.3612976 3.85691115,17.7189478 8.881806,12.053861 C14.3730506,5.86310362 21.2082563,2.00391166 29.3712766,0.552262858 C30.7081142,0.314832566 32.0625231,0.181396743 33.4088587,0 L37.5684895,0 Z" id="Fill-1" fill="#E47700" fill-rule="nonzero" mask="url(#mask-2)"></path>
                        </g>
                    </g>
                </g>
                <rect id="Rectangle-Copy-47" fill="url(#linearGradient-3)" opacity="0.610165551" x="0" y="0" width="103" height="103" rx="15"></rect>
            </g>
        </g>
    </g>
</svg>