<svg width="103" height="103" viewBox="0 0 103 103" fill="none" xmlns="http://www.w3.org/2000/svg">
<g id="7_LandBook">
<rect id="Rectangle-Copy-58" width="103" height="103" rx="15" fill="#FFAA51"/>
<g id="Group">
<path id="Vector" d="M51.6448 85.314C33.0041 85.1867 18.0255 70.426 18 51.6952C17.9746 32.9389 32.9024 18 51.6194 18C70.2855 18 85.2133 32.888 85.2133 51.6188C85.2133 70.3497 70.3109 85.1358 51.6448 85.314ZM80.356 47.3178C78.881 34.8476 67.0558 21.3593 49.3306 22.4791C44.9057 22.7591 40.7605 24.0824 36.9204 26.322C33.0804 28.5616 29.927 31.5391 27.3839 35.1784C24.5103 39.2758 22.6793 45.1546 22.781 47.2924C22.8319 47.3178 22.9081 47.3687 22.959 47.3687C24.256 47.5723 25.5275 47.7505 26.8245 47.9541C30.4356 48.5394 33.9959 49.3793 37.4799 50.4227C42.032 51.7715 46.4824 53.4512 50.7801 55.4871C51.2888 55.7416 51.7465 55.7416 52.2806 55.4871C57.8753 52.8404 63.6735 50.779 69.7006 49.3029C72.4979 48.6158 75.2953 48.0304 78.1435 47.6487C78.8556 47.5469 79.5677 47.4196 80.356 47.3178ZM49.2797 64.7253C49.3306 64.5981 49.356 64.5472 49.356 64.4708C49.356 62.8421 49.356 61.2387 49.3815 59.61C49.3815 59.2028 49.1526 59.101 48.8474 58.9483C43.7867 56.6069 38.5734 54.7746 33.1567 53.4003C29.8253 52.5604 26.443 51.9242 23.0353 51.4407C22.8064 51.4152 22.5776 51.4407 22.2978 51.4407C22.2978 53.1712 22.3995 54.8254 22.7301 56.3779C25.0952 56.836 27.3839 57.2432 29.6473 57.7521C31.8852 58.2611 34.1231 58.8465 36.3101 59.5336C38.5226 60.2207 40.7096 61.0351 42.8712 61.9004C45.0328 62.8166 47.1436 63.7837 49.2797 64.7253ZM53.781 64.8017C56.6292 63.4274 59.452 62.1295 62.3765 61.0606C65.2756 59.9917 68.2002 59.0246 71.201 58.312C74.2272 57.5995 77.2535 57.0396 80.356 56.3779C80.5595 54.8 80.8392 53.1712 80.7375 51.4152C80.1017 51.4916 79.5677 51.517 79.0336 51.6188C76.5668 52.0769 74.0746 52.4841 71.6333 53.044C65.6317 54.3928 59.8335 56.4033 54.2133 58.9992C53.8318 59.1773 53.7047 59.4064 53.7047 59.8135C53.7301 61.2896 53.7047 62.7657 53.7047 64.2418C53.7301 64.369 53.7555 64.5472 53.781 64.8017ZM79.3134 60.857C78.9065 60.8824 78.6776 60.857 78.4487 60.9079C76.694 61.2642 74.9138 61.595 73.1591 62.0022C66.5726 63.5292 60.3167 65.896 54.315 69.0008C53.8827 69.2299 53.6792 69.4589 53.6792 69.9934C53.7047 71.4694 53.6792 72.9455 53.7047 74.4216C53.7047 74.5997 53.7301 74.7779 53.7555 75.0578C54.0353 74.9306 54.2387 74.8288 54.4422 74.727C56.5529 73.6581 58.6637 72.5129 60.7998 71.5203C63.7498 70.1206 66.8015 69.0008 69.9294 68.1101C71.9893 67.5248 74.0492 67.0158 76.1345 66.5068C76.6177 66.3795 76.9483 66.2014 77.1517 65.7433C77.4569 65.0816 77.8384 64.4454 78.1181 63.7582C78.525 62.842 78.881 61.9259 79.3134 60.857ZM23.8491 60.8824C23.8999 61.1115 23.9254 61.2896 24.0017 61.4169C24.6374 62.8166 25.2732 64.2418 25.8835 65.6415C26.1124 66.1759 26.4939 66.4304 27.0533 66.5322C33.055 67.7793 38.8023 69.7898 44.2953 72.462C45.7703 73.1745 47.1944 73.9889 48.644 74.7524C48.8474 74.8542 49.0509 75.0833 49.356 74.9051C49.356 73.3018 49.3306 71.6985 49.3815 70.0952C49.4069 69.4844 49.178 69.2299 48.6694 68.9499C44.3971 66.7358 39.9721 64.9035 35.3946 63.4783C31.8597 62.384 28.2486 61.5441 24.612 60.8824C24.3577 60.8824 24.1288 60.8824 23.8491 60.8824ZM52.128 80.8603C56.0952 80.7076 59.8843 79.9441 63.4955 78.3153C67.1321 76.6866 70.2346 74.3452 72.9557 71.4949C65.5045 73.4799 58.5619 76.5593 52.128 80.8603ZM50.9582 80.8603C47.7539 78.6971 44.4225 76.8393 40.8876 75.2869C36.6407 73.4291 30.9951 71.4694 30.0287 71.5203C33.3347 74.8797 37.0985 77.501 41.5234 79.1043C44.5751 80.2241 47.7285 80.7585 50.9582 80.8603Z" fill="#E47700"/>
</g>
<rect id="8_LandBook" opacity="0.665109" width="103" height="103" rx="15" fill="url(#paint0_linear)"/>
</g>
<defs>
<linearGradient id="paint0_linear" x1="0" y1="0" x2="0" y2="103" gradientUnits="userSpaceOnUse">
<stop stop-color="white" stop-opacity="0.0707769"/>
<stop offset="1" stop-color="#0B1A3F" stop-opacity="0.104731"/>
</linearGradient>
</defs>
</svg>
