<svg width="103" height="103" viewBox="0 0 103 103" fill="none" xmlns="http://www.w3.org/2000/svg">
<g id="7_LapaNinja">
<rect id="Rectangle-Copy-58" width="103" height="103" rx="15" fill="#FFAA51"/>
<g id="Group">
<path id="Vector" d="M83.4597 29.2798C83.4181 29.2382 83.3349 29.2382 83.2933 29.2798C83.0023 29.4879 82.7528 29.6543 82.4618 29.8208C81.9212 30.1953 81.4223 30.5281 80.9233 30.861L80.7986 30.9442C80.0917 31.402 79.4265 31.8181 78.5949 31.9429C78.6365 29.6127 79.5512 27.4906 80.4659 25.4101C80.6323 25.0356 80.7986 24.6611 80.9649 24.245C80.9649 24.2034 80.9649 24.1618 80.9649 24.1202C80.9649 24.0786 80.9233 24.037 80.8817 24.037C80.5491 23.9537 80.2996 23.9537 80.1333 24.1202C78.8028 25.1604 77.2228 25.7846 75.6843 26.4087C75.2269 26.6168 74.728 26.7832 74.2706 26.9913C73.2727 27.4074 73.2727 27.4074 72.5243 26.6584L72.4827 26.6168C71.069 25.1604 69.8216 24.037 68.5743 23.1631C63.751 19.7511 57.8468 18.0867 50.5288 18.0035C47.9093 17.9619 45.2898 18.2948 42.7119 18.8773C33.8139 20.9994 27.4939 26.2423 23.8349 34.4811L23.7517 34.6892C23.5023 35.2717 23.2944 35.771 22.6291 35.9791C22.2549 36.1039 22.0886 36.4784 21.9638 36.7697C21.9222 36.8529 21.9222 36.8945 21.8807 36.9777C20.8828 39.1831 20.3006 41.2636 20.0927 43.3441C19.9264 44.842 19.8849 46.7977 20.8412 48.3789C21.3817 49.2527 21.4649 50.0849 21.5065 51.0003C21.548 51.999 21.6312 52.9144 21.7975 53.7882C22.338 57.1587 22.9617 59.8633 23.7933 62.2767C26.2881 69.4753 29.656 74.6349 34.4376 78.5047C39.2192 82.416 44.4582 84.4133 50.0299 84.4133C53.1899 84.4133 56.4747 83.7892 59.8426 82.5409C62.4205 81.5838 64.9153 80.0026 67.7427 77.5892C69.7801 75.8 71.4848 73.8859 72.8985 71.6806C74.8527 68.6847 76.4328 65.231 77.6386 61.1948C78.5117 58.2821 79.0938 55.1198 79.3433 51.5829C79.3433 51.4581 79.3433 51.3332 79.3433 51.2084C79.3433 50.6675 79.3433 50.2514 79.967 50.0017C80.2996 49.8769 80.3412 49.5024 80.3412 49.2111L80.4244 48.587C80.6323 46.7561 80.8402 44.8837 80.1749 42.9696C80.1333 42.8448 80.0917 42.6367 80.0917 42.4703C80.0502 42.179 80.0502 41.8461 79.8423 41.5548C79.7591 41.3884 79.8007 41.1387 80.0086 40.9307C80.5491 40.4314 80.757 39.8072 81.0065 39.1831C81.0481 39.0998 81.0896 38.975 81.1312 38.8918C81.7549 37.3106 82.0875 35.6046 82.3786 33.9818C82.4618 33.6073 82.5449 33.2328 82.5865 32.8583C82.7528 32.1093 82.9191 31.3604 83.127 30.5698C83.2102 30.1953 83.2933 29.8208 83.4181 29.4047C83.5428 29.4047 83.5012 29.3215 83.4597 29.2798ZM77.3475 32.1093C77.3475 32.2758 77.2643 32.3174 76.9733 32.4006C75.1022 32.7751 73.3975 33.3992 71.859 34.3147C71.5264 34.5227 71.1938 34.4395 70.8611 34.3563C70.1127 34.1482 69.4474 33.9402 68.8237 33.7321C68.5743 33.6489 68.3248 33.5657 68.2832 33.4825C68.2416 33.3992 68.3664 33.1496 68.4911 32.8999C69.3227 31.0691 70.6532 29.6959 72.5243 28.8637C73.9796 28.198 75.4764 27.5738 77.0564 26.9497C77.6386 26.7 78.2622 26.4504 78.8859 26.2007C78.1375 28.1148 77.4722 30.0704 77.3475 32.1093ZM79.3849 46.8393C79.3849 47.3387 79.3849 47.838 79.3849 48.3373C79.3849 48.6702 79.3433 48.8782 79.3017 48.8782C79.2601 48.8782 79.177 48.8782 78.8028 48.7118C77.3891 48.046 76.0585 47.4635 74.728 46.9642C70.279 45.2998 65.6221 44.0515 60.8405 43.3025C56.8905 42.6783 53.3146 42.387 49.8636 42.387C49.4893 42.387 49.1151 42.387 48.7409 42.387C39.8014 42.5535 31.1529 44.3011 22.9617 47.5883C22.9201 47.5883 22.8786 47.6299 22.837 47.6299C22.7122 47.6715 22.5875 47.7131 22.5044 47.7964C22.338 47.8796 22.1717 47.9212 22.0886 47.9212C22.0054 47.8796 21.9222 47.7548 21.7975 47.5051C21.3817 46.2568 21.257 44.8837 21.4233 43.1776C21.6312 41.43 22.1301 39.6824 22.9617 37.7683C23.2112 37.2274 23.5438 36.9361 24.1259 36.7697C28.866 35.3965 33.7308 34.3563 38.5124 33.7321C41.3814 33.3576 44.3751 33.0664 47.4104 32.9415L47.9509 32.8999C49.7804 32.8167 51.6515 32.7335 53.481 32.8167C62.2542 33.1912 69.3643 34.6892 75.7675 37.5187C77.2643 38.1844 78.1375 39.1415 78.5949 40.6394C79.2601 42.8448 79.5096 44.5924 79.3849 46.2984C79.3849 46.4232 79.3849 46.6313 79.3849 46.8393ZM79.2186 38.9334C78.8028 37.8931 78.1375 37.2274 77.0564 36.7697C76.3496 36.4784 75.6843 36.1871 74.9775 35.8959C74.3122 35.6046 73.6054 35.3549 72.8985 35.022C74.1043 34.2315 75.3101 33.7737 76.6822 33.5657C78.3454 33.3576 79.9254 32.7751 81.6302 31.8181C81.4639 34.6476 80.7986 37.269 79.5928 39.932L79.5096 39.724C79.4265 39.4327 79.3017 39.1831 79.2186 38.9334ZM42.6287 65.98C40.8408 66.5209 39.0113 67.0619 37.1403 67.3531C35.2692 67.6444 33.1071 67.7692 31.236 66.2713C30.446 65.6471 29.7807 64.8149 29.3234 63.8579C27.7433 60.6955 26.9533 57.6996 26.9533 54.7037C26.9533 52.2487 28.1591 50.4178 30.5292 49.2943C32.2339 48.4621 34.0218 48.1709 36.2255 47.9212C37.8055 47.7548 39.4271 47.7131 40.9656 47.6715H41.8803C46.9946 48.0044 51.7346 48.046 56.3499 47.838C58.8031 47.7548 61.2563 47.838 63.6263 47.9628H63.7926C66.4537 48.0876 68.699 48.5453 70.7364 49.4192C71.6095 49.7937 74.4785 51.2916 74.3538 54.7869C74.2706 58.0741 73.2727 61.1948 71.3601 64.1076C69.9048 66.3961 67.6595 67.3115 64.7074 66.8122C63.1274 66.5626 61.5058 66.1464 59.9673 65.7303C58.7615 65.3975 57.4726 65.0646 56.2252 64.8149C52.4415 64.0659 48.7409 64.1908 44.9156 65.231C44.1672 65.5223 43.3772 65.7303 42.6287 65.98Z" fill="#E47700" stroke="#E47700"/>
<path id="Vector_2" d="M61.5889 59.4058C62.9195 58.8649 64.1668 58.8649 65.4974 59.4058C66.1626 59.6971 66.5368 59.3226 66.5368 58.6152C66.5368 57.1589 65.04 55.7441 63.5431 55.7441C62.0047 55.7441 60.5079 57.2837 60.5494 58.7401C60.591 59.3642 60.9652 59.6555 61.5889 59.4058Z" fill="#E47700"/>
<path id="Vector_3" d="M37.4314 55.7438C35.5603 55.9103 34.5208 57.2002 34.604 58.6981C34.6456 59.4471 34.8119 59.6136 35.5187 59.4055C36.184 59.2391 36.8077 58.9478 37.5146 58.9894C38.1798 58.9478 38.8035 59.2391 39.4272 59.4471C40.134 59.6552 40.4667 59.3639 40.4251 58.6149C40.4251 57.0753 38.8867 55.619 37.4314 55.7438Z" fill="#E47700"/>
</g>
<rect id="Rectangle Copy 49" opacity="0.665109" width="103" height="103" rx="15" fill="url(#paint0_linear)"/>
</g>
<defs>
<linearGradient id="paint0_linear" x1="0" y1="0" x2="0" y2="103" gradientUnits="userSpaceOnUse">
<stop stop-color="white" stop-opacity="0.0707769"/>
<stop offset="1" stop-color="#0B1A3F" stop-opacity="0.104731"/>
</linearGradient>
</defs>
</svg>
