<svg width="103" height="103" viewBox="0 0 103 103" fill="none" xmlns="http://www.w3.org/2000/svg">
<g id="8_Miro">
<g id="8_Mobbin">
<rect id="Rectangle-Copy-58" width="103" height="103" rx="15" fill="#FFD564"/>
</g>
<g id="Group">
<path id="Vector" d="M48.6326 83.0409C45.5953 83.0409 42.6985 83.0409 39.6049 83.0409C42.0798 69.1092 44.639 55.3183 47.0014 41.4711C41.6579 55.3464 36.3144 69.2218 30.9427 83.1253C28.2428 83.1253 25.6835 83.1253 23.0961 83.1253C22.7868 83.1253 22.4774 83.0972 21.9712 83.069C22.1962 81.7744 22.3931 80.5923 22.618 79.3821C23.968 72.374 25.3179 65.366 26.6679 58.3298C27.596 53.4326 28.5241 48.5636 29.4803 43.6664C29.6209 42.9909 29.5646 42.3999 29.3115 41.8088C27.0335 35.7577 24.7836 29.7347 22.5055 23.6836C22.3368 23.2052 22.1681 22.7267 21.9712 22.1357C22.393 22.0794 22.7587 22.0231 23.0961 22.0231C25.3179 22.0231 27.5397 22.0512 29.7334 21.9949C30.6052 21.9668 31.1958 22.2482 31.8145 22.8393C36.5394 27.4269 41.3204 32.0145 46.0734 36.5739C46.2702 36.7709 46.4671 36.9398 46.7765 37.0805C45.764 34.5194 44.4422 32.0989 43.261 29.6222C42.0798 27.1454 40.8423 24.6687 39.5767 22.0794C40.1392 22.0512 40.5048 21.9949 40.8704 21.9949C43.0922 21.9949 45.314 22.0231 47.5077 21.9668C48.2389 21.9668 48.8295 22.1638 49.4201 22.586C54.0605 26.0196 58.7291 29.4252 63.3695 32.8307C63.6227 32.9995 63.8758 33.1684 64.2414 33.281C62.0758 29.5096 59.6291 25.9071 57.2667 22.1075C57.6885 22.0512 57.9979 21.9949 58.2791 21.9949C60.6415 21.9949 62.9758 21.9668 65.3382 21.9949C65.8726 21.9949 66.4632 22.1357 66.9132 22.3608C71.9755 25.1471 77.0096 27.9616 82.0438 30.748C82.3532 30.9168 82.6344 31.142 83 31.3953C77.4034 48.6199 71.8348 65.7881 66.2382 82.9846C63.2008 82.9846 60.2759 82.9846 57.1823 82.9846C59.6853 68.0397 62.1602 53.2075 64.6632 38.347C64.5789 38.3189 64.4945 38.2907 64.4382 38.2907C59.1791 53.2074 53.9199 68.096 48.6326 83.0409Z" fill="#E1A70A"/>
</g>
<rect id="Rectangle Copy 49" opacity="0.665109" width="103" height="103" rx="15" fill="url(#paint0_linear)"/>
</g>
<defs>
<linearGradient id="paint0_linear" x1="0" y1="0" x2="0" y2="103" gradientUnits="userSpaceOnUse">
<stop stop-color="white" stop-opacity="0.0707769"/>
<stop offset="1" stop-color="#0B1A3F" stop-opacity="0.104731"/>
</linearGradient>
</defs>
</svg>
