<?xml version="1.0" encoding="UTF-8"?>
<svg width="103px" height="103px" viewBox="0 0 103 103" version="1.1" xmlns="http://www.w3.org/2000/svg" xmlns:xlink="http://www.w3.org/1999/xlink">
    <!-- Generator: Sketch 57.1 (83088) - https://sketch.com -->
    <title>8_Notion</title>
    <desc>Created with Sketch.</desc>
    <defs>
        <polygon id="path-1" points="0 0 67.9998764 0 67.9998764 70.999969 0 70.999969"></polygon>
        <linearGradient x1="50%" y1="0%" x2="50%" y2="100%" id="linearGradient-3">
            <stop stop-color="#FFFFFF" stop-opacity="0.0707768794" offset="0%"></stop>
            <stop stop-color="#0B1A3F" stop-opacity="0.104731206" offset="100%"></stop>
        </linearGradient>
    </defs>
    <g id="Page-1" stroke="none" stroke-width="1" fill="none" fill-rule="evenodd">
        <g id="Home-Copy-5" transform="translate(-909.000000, -1891.000000)">
            <g id="8_Notion" transform="translate(909.000000, 1891.000000)">
                <g id="8_Mobbin">
                    <rect id="Rectangle-Copy-58" fill="#FFD564" fill-rule="nonzero" x="0" y="0" width="103" height="103" rx="15"></rect>
                    <g id="Group-3" transform="translate(18.000000, 16.000000)">
                        <mask id="mask-2" fill="white">
                            <use xlink:href="#path-1"></use>
                        </mask>
                        <g id="Clip-2"></g>
                        <path d="M58.1395673,11.3764013 C58.16584,11.2154886 58.1918036,11.054576 58.2180764,10.8936633 C57.8128582,10.5228511 57.4370036,10.1120432 56.9974764,9.78773755 C55.0897673,8.37920917 53.1496036,7.0140869 51.2474582,5.59842751 C49.3799309,4.20850175 47.3294218,3.66375502 45.0075309,3.91799083 C43.0148218,4.13626157 41.0051127,4.19423974 39.0040582,4.33251921 C35.6173491,4.56629214 32.2300218,4.79479432 28.8448582,5.04841004 C25.3570764,5.30977686 21.8730036,5.61578996 18.3849127,5.87002576 C14.9991309,6.11682052 11.6099491,6.31586856 8.22385818,6.55460218 C7.81864,6.5831262 7.40229455,6.67892969 7.02489455,6.82961092 C5.93534909,7.26429214 5.82284,7.8760083 6.74084,8.62817424 C8.57560364,10.1306459 10.4261309,11.615755 12.3137491,13.050017 C13.5569127,13.9947201 15.0238582,14.2334537 16.5609673,14.1311393 C20.5636945,13.8648118 24.5658036,13.5870127 28.5703855,13.3551 C32.83244,13.1083052 37.0978945,12.9263096 41.3602582,12.6850956 C46.3919491,12.4001655 51.4224036,12.0919821 56.4516218,11.7655061 C57.0203491,11.7286109 57.5773309,11.5106502 58.1395673,11.3764013 M63.3771127,39.5342572 C63.3771127,32.8193314 63.3851491,26.1040956 63.3734036,19.3891699 C63.3684582,16.6021873 62.8689673,16.0351175 60.1551491,16.131231 C56.9195855,16.2462572 53.6905127,16.5414188 50.4568036,16.7153533 C45.9378945,16.9581175 41.4168218,17.1540651 36.8976036,17.3841175 C34.9979309,17.4808511 33.0994945,17.607969 31.2010582,17.7310563 C26.8404036,18.0135061 22.4834582,18.3716066 18.1187855,18.5669341 C14.4739855,18.7303271 13.9024764,19.2087245 13.90124,22.8343751 C13.8966036,35.6962266 13.8990764,48.5580782 13.9003127,61.4202397 C13.9006218,61.8849952 13.89104,62.3516109 13.9281309,62.813886 C14.0792764,64.695541 14.98244,65.5847463 16.8842764,65.7152747 C17.4486764,65.7537201 18.0183309,65.7611611 18.5827309,65.7301568 C22.4333855,65.5177769 26.28404,65.3069472 30.1331491,65.0666633 C36.2389309,64.6865498 42.3425491,64.269541 48.44864,63.8953183 C52.4006764,63.6534843 56.3558036,63.4705585 60.3084582,63.2414362 C62.4390218,63.1177288 63.2500764,62.2793707 63.3607309,60.14379 C63.3873127,59.6284974 63.3774218,59.1110345 63.3774218,58.5945017 C63.3783491,52.2410869 63.37804,45.8876721 63.3771127,39.5342572 M16.6907855,70.999969 L16.0726036,70.999969 C15.8809673,70.9261786 15.6921127,70.7975105 15.4970764,70.787279 C13.6366582,70.687445 12.38824,69.6407376 11.3119855,68.2216677 C8.38489455,64.3641044 5.42565818,60.5313445 2.46116727,56.7019952 C0.919421818,54.7105847 0.255803636,52.5278773 0.272185455,49.9582354 C0.354403636,36.8548598 0.315458182,23.7511742 0.296294545,10.6471786 C0.295058182,9.78525721 0.103112727,8.92302576 -0.000123636364,8.06110437 L-0.000123636364,7.7510607 C0.0610763636,7.60937074 0.156894545,7.47264148 0.178221818,7.3250607 C0.642476364,4.10618734 2.28529455,3.22132271 5.57865818,3.09234454 C8.80618545,2.96584672 12.0284582,2.68959782 15.2504218,2.44249301 C20.1084036,2.07013057 24.9617491,1.63327904 29.8212764,1.28416987 C34.8857309,0.920488646 39.95544,0.633698253 45.0220582,0.295130568 C45.4733309,0.265056332 45.9165673,0.101663319 46.3635127,-3.10043668e-05 L46.6726036,-3.10043668e-05 C48.80904,0.38070262 50.8202945,0.980947162 52.6324945,2.3110345 C56.8234582,5.38728777 61.0481127,8.42478559 65.37384,11.3044712 C67.14524,12.4835672 67.7322036,13.8654319 67.72324,15.9266022 C67.6598764,30.6313533 67.6849127,45.3370345 67.7034582,60.0420956 C67.7046945,60.9046371 67.89664,61.7665585 67.9998764,62.62879 L67.9998764,63.2488773 C67.9148764,63.4913314 67.8008218,63.7278948 67.7488945,63.9774799 C67.1375127,66.924445 66.6553309,67.5091873 63.6852764,67.946659 C61.4567309,68.2749952 59.18924,68.3614974 56.9353491,68.4904755 C52.6300218,68.7372703 48.3209855,68.9304275 44.0147309,69.1604799 C42.0665309,69.2643445 40.1201855,69.4010738 38.1735309,69.5269515 C33.8706764,69.8059908 29.5690582,70.1039428 25.2649673,70.361279 C22.8049127,70.5079297 20.3405309,70.5795498 17.8798582,70.7125585 C17.4795855,70.7345716 17.08704,70.900755 16.6907855,70.999969" id="Fill-1" fill="#E1A70A" mask="url(#mask-2)"></path>
                    </g>
                    <path d="M48.4572792,51.3342409 C48.4275883,51.8379157 48.3727977,52.3412805 48.3721855,52.8449553 C48.3660636,58.3205977 48.3636149,63.7959302 48.370655,69.2715727 C48.373716,71.3761584 48.4242212,71.4229614 50.5313629,71.9024598 C50.5809499,71.9139281 50.6381892,71.9108286 50.6801239,71.9353149 C51.1781366,72.2266714 52.0027501,72.4377499 52.1019241,72.8338708 C52.3155768,73.6853136 51.4551504,73.9980569 50.8148046,74.3005718 C50.4976927,74.4502794 50.1349729,74.5596931 49.7875578,74.5770505 C46.6840847,74.734507 43.578775,74.8702667 40.4737714,75 C40.3406211,75.0050966 40.2022673,74.888554 40.0287128,74.8126153 C39.8716873,73.984109 40.3822497,73.5662914 40.9867827,73.254168 C41.3914371,73.0449493 41.8401689,72.9119791 42.2812484,72.7895474 C43.0878024,72.5651409 43.4575623,72.0292309 43.4701121,71.2053739 C43.4756218,70.8439679 43.4890899,70.4825618 43.4890899,70.1208458 C43.4900081,62.5793619 43.4900081,55.0375679 43.4887838,47.495774 C43.4884777,47.1343679 43.4780705,46.7729619 43.4649086,46.4115559 C43.4315445,45.4767354 42.9240429,45.0087053 42.0284159,44.9287373 C41.8759817,44.9154093 41.7217111,44.9147893 41.5708074,44.8921627 C40.9950472,44.8063055 40.1171735,45.0251329 40.0666683,44.2304115 C40.0317737,43.6765242 40.4446926,42.9208571 40.8946488,42.5541818 C41.4067418,42.137294 42.1704429,41.909788 42.8466015,41.8487271 C45.5344008,41.6057234 48.2326073,41.4820519 50.9231614,41.2657042 C51.7988924,41.1953447 52.3841415,41.5235857 52.8454231,42.2367892 C54.1031577,44.1814388 55.3850736,46.1096609 56.6431143,48.0540006 C59.494061,52.4603027 62.3336822,56.8743537 65.1873837,61.279106 C65.4022608,61.6107565 65.6896817,61.8937442 66.1745325,62.477697 C66.2981939,61.7607741 66.430732,61.346366 66.4316503,60.9319578 C66.4460366,55.6630545 66.4530767,50.3941512 66.4334868,45.1252479 C66.4279771,43.691712 66.2636054,43.5454138 64.9235319,43.2875323 C64.6229489,43.229571 64.2932872,43.2326705 64.0285171,43.1012501 C63.6459013,42.9112485 62.9936179,42.5854871 63.016881,42.385257 C63.0750386,41.8880913 63.360623,41.3298646 63.7279341,40.9867458 C64.0251501,40.7090273 64.5690766,40.6368081 65.0138292,40.5986838 C67.551031,40.3810963 70.0912937,40.1963638 72.6312502,40.0122513 C73.211908,39.9697877 73.8127678,40.0004731 73.9664263,40.7279345 C74.1164117,41.4383484 73.7512432,41.9110278 73.1231411,42.1964952 C73.076615,42.2175721 73.0267219,42.2302802 72.9801958,42.251357 C72.3009763,42.5579012 71.3441308,42.6883918 71.0153873,43.2184126 C70.6315471,43.8373902 70.7337821,44.8047558 70.7322516,45.6208639 C70.7163348,54.0404468 70.7242932,62.4603396 70.7215384,70.8805424 C70.7209262,73.3387854 70.5825723,73.5197984 68.2562684,74.2419905 C65.4077704,75.1265984 63.7282402,74.5612429 61.9975925,71.8869622 C58.7830078,66.9196438 55.6470889,61.9005632 52.4781119,56.9028694 C51.2733314,55.0019232 50.0685508,53.1009771 48.8637702,51.2003409 C48.7281712,51.2449742 48.5925722,51.2896075 48.4572792,51.3342409" id="Fill-4" fill="#E1A70A"></path>
                </g>
                <rect id="Rectangle-Copy-49" fill="url(#linearGradient-3)" opacity="0.665108817" x="0" y="0" width="103" height="103" rx="15"></rect>
            </g>
        </g>
    </g>
</svg>