<?xml version="1.0" encoding="UTF-8"?>
<svg width="103px" height="103px" viewBox="0 0 103 103" version="1.1" xmlns="http://www.w3.org/2000/svg" xmlns:xlink="http://www.w3.org/1999/xlink">
    <!-- Generator: Sketch 57.1 (83088) - https://sketch.com -->
    <title>8_Numi</title>
    <desc>Created with Sketch.</desc>
    <defs>
        <polygon id="path-1" points="7.01201457e-05 0.0682060451 50.8853524 0.0682060451 50.8853524 14 7.01201457e-05 14"></polygon>
        <polygon id="path-3" points="0.153110818 0.388266667 50.9340177 0.388266667 50.9340177 13.7039777 0.153110818 13.7039777"></polygon>
        <linearGradient x1="50%" y1="0%" x2="50%" y2="100%" id="linearGradient-5">
            <stop stop-color="#FFFFFF" stop-opacity="0.0707768794" offset="0%"></stop>
            <stop stop-color="#0B1A3F" stop-opacity="0.104731206" offset="100%"></stop>
        </linearGradient>
    </defs>
    <g id="Page-1" stroke="none" stroke-width="1" fill="none" fill-rule="evenodd">
        <g id="Home-Copy-5" transform="translate(-1017.000000, -1891.000000)">
            <g id="8_Numi" transform="translate(1017.000000, 1891.000000)">
                <g id="8_Mobbin" fill="#FFD564" fill-rule="nonzero">
                    <rect id="Rectangle-Copy-58" x="0" y="0" width="103" height="103" rx="15"></rect>
                </g>
                <g id="Group-7" transform="translate(26.000000, 31.000000)">
                    <g id="Group-3" transform="translate(0.000000, 27.000000)">
                        <mask id="mask-2" fill="white">
                            <use xlink:href="#path-1"></use>
                        </mask>
                        <g id="Clip-2"></g>
                        <path d="M25.5023355,0.0719310345 C32.7972421,0.0719310345 40.091672,0.0646896552 47.3865785,0.0753103448 C50.2544944,0.0796551724 50.8464757,0.686482759 50.8698308,3.61103448 C50.887943,5.93986207 50.8936626,8.26917241 50.8679243,10.598 C50.8374196,13.3082069 50.1772794,13.9797241 47.455214,13.9826207 C35.0855692,13.9961379 22.7159243,13.9888966 10.3467561,13.9888966 C7.88874673,13.9888966 5.43026075,14.0207586 2.97272804,13.9768276 C0.682971028,13.9362759 0.0538121495,13.2744138 0.0242607477,10.9093793 C-0.00815046729,8.33965517 -0.00719719626,5.76944828 0.0223542056,3.19972414 C0.051428972,0.69662069 0.649606542,0.0849655172 3.14241028,0.0791724138 C10.5955598,0.059862069 18.0487093,0.0719310345 25.5023355,0.0719310345" id="Fill-1" fill="#E1A70A" mask="url(#mask-2)"></path>
                    </g>
                    <mask id="mask-4" fill="white">
                        <use xlink:href="#path-3"></use>
                    </mask>
                    <g id="Clip-5"></g>
                    <path d="M25.6954682,0.392653333 C32.9236458,0.39312 40.1518234,0.385186667 47.3800009,0.396386667 C50.5219822,0.40152 50.9023374,0.79352 50.9156832,3.94025333 C50.9256925,6.27312 50.9585804,8.60738667 50.9004308,10.93932 C50.8503841,12.9445867 50.1997766,13.61192 48.1669262,13.6646533 C45.4677393,13.73512 42.7656925,13.6893867 40.0650757,13.6893867 C28.2297393,13.69032 16.3948794,13.69032 4.55954299,13.68892 C3.92418785,13.68892 3.28501963,13.7159867 2.65443084,13.6585867 C1.01623458,13.50972 0.275542991,12.91192 0.225019626,11.3574533 C0.132552336,8.48278667 0.127785981,5.60158667 0.2193,2.72692 C0.275066355,0.969453333 1.00479533,0.415986667 3.05766449,0.40572 C9.17337477,0.37632 15.2895617,0.39312 21.4057486,0.392186667 C22.8356551,0.392186667 24.2655617,0.392186667 25.6954682,0.392653333" id="Fill-4" fill="#E1A70A" mask="url(#mask-4)"></path>
                </g>
                <rect id="Rectangle-Copy-49" fill="url(#linearGradient-5)" opacity="0.665108817" x="0" y="0" width="103" height="103" rx="15"></rect>
            </g>
        </g>
    </g>
</svg>