<?xml version="1.0" encoding="UTF-8"?>
<svg width="103px" height="103px" viewBox="0 0 103 103" version="1.1" xmlns="http://www.w3.org/2000/svg" xmlns:xlink="http://www.w3.org/1999/xlink">
    <!-- Generator: Sketch 57.1 (83088) - https://sketch.com -->
    <title>8_Sketch</title>
    <desc>Created with Sketch.</desc>
    <defs>
        <linearGradient x1="50%" y1="0%" x2="50%" y2="100%" id="linearGradient-1">
            <stop stop-color="#FFFFFF" stop-opacity="0.0707768794" offset="0%"></stop>
            <stop stop-color="#0B1A3F" stop-opacity="0.104731206" offset="100%"></stop>
        </linearGradient>
        <polygon id="path-2" points="0 0 78 0 78 70 0 70"></polygon>
    </defs>
    <g id="Page-1" stroke="none" stroke-width="1" fill="none" fill-rule="evenodd">
        <g id="Home-Copy-5" transform="translate(-776.000000, -1772.000000)">
            <g id="8_Sketch" transform="translate(776.000000, 1772.000000)">
                <g id="8_Dotgrid-Copy">
                    <g id="8_Mobbin" fill="#FFD564" fill-rule="nonzero">
                        <rect id="Rectangle-Copy-58" x="0" y="0" width="103" height="103" rx="15"></rect>
                    </g>
                    <rect id="Rectangle-Copy-49" fill="url(#linearGradient-1)" opacity="0.665108817" x="0" y="0" width="103" height="103" rx="15"></rect>
                </g>
                <g id="Group-3" transform="translate(12.000000, 18.000000)">
                    <mask id="mask-3" fill="white">
                        <use xlink:href="#path-2"></use>
                    </mask>
                    <g id="Clip-2"></g>
                    <path d="M13.1490938,22.2906677 C13.4981133,17.8604202 13.8410391,13.5050242 14.1839648,9.14962819 L14.0139492,9.09416064 C10.9241133,13.4628271 7.83427734,17.8316427 4.68060938,22.2906677 L13.1490938,22.2906677 Z M63.9849844,9.0958008 C63.9272461,9.11965782 63.8695078,9.14351483 63.8117695,9.16737185 C64.1577422,13.5336526 64.5034102,17.8997843 64.8512109,22.2902203 L73.3164961,22.2902203 C70.1652656,17.8344757 67.075125,13.4652128 63.9849844,9.0958008 L63.9849844,9.0958008 Z M48.555457,54.2463917 C49.6634531,53.3935035 72.5818945,25.9746379 72.7899961,25.4637996 L64.3085625,25.4637996 C59.0551406,35.0625198 53.805375,44.6545303 48.555457,54.2463917 L48.555457,54.2463917 Z M29.2917422,54.3735794 C29.3415586,54.330935 29.3912227,54.2881415 29.4408867,54.2454971 C24.1914258,44.654083 18.9418125,35.0626689 13.6969219,25.4797539 L5.04181641,25.4797539 C13.1746875,35.1701746 21.2332148,44.771877 29.2917422,54.3735794 L29.2917422,54.3735794 Z M43.6594336,3.48984995 C43.6438945,3.55322014 43.6285078,3.61659034 43.6129687,3.68010963 C49.5022734,9.05926975 55.3917305,14.4382808 61.2808828,19.8174409 C61.3370977,19.7888125 61.3933125,19.7600349 61.4495273,19.7312574 C61.0561758,14.7238194 60.6628242,9.71623226 60.2649023,4.65049366 C54.6709922,4.25953685 49.1652891,3.8746934 43.6594336,3.48984995 L43.6594336,3.48984995 Z M17.7309844,4.65034455 C17.331082,9.75112314 16.9398633,14.7411157 16.5484922,19.7311083 C16.6044023,19.7601841 16.6603125,19.7892598 16.7162227,19.8183355 C22.6169531,14.4278433 28.5176836,9.03735112 34.4185664,3.64685892 L34.339043,3.48999906 C28.8334922,3.8746934 23.3279414,4.25938774 17.7309844,4.65034455 L17.7309844,4.65034455 Z M59.1695508,22.300956 C58.6497539,21.599858 39.4251914,4.08866099 38.9355586,3.84785426 C37.13775,5.26376801 19.1634727,21.7923543 18.8802656,22.300956 L59.1695508,22.300956 Z M38.9990859,65.0943248 C46.2812695,51.788672 53.4642773,38.6641833 60.6801914,25.4796048 L17.3163047,25.4796048 C24.5433398,38.6835672 31.7286328,51.8110379 38.9990859,65.0943248 L38.9990859,65.0943248 Z M78,24.4152838 C70.1571914,33.751726 62.3113359,43.0859317 54.4723359,52.4256543 C49.7530312,58.0486032 45.0448477,63.6806477 40.3314844,69.3085172 C39.561082,70.2288015 38.4372422,70.2305908 37.6682109,69.3132886 C25.5306797,54.8370019 13.3929961,40.3605661 1.25455078,25.8848758 C0.840785156,25.391483 0.418335937,24.904949 0,24.4152838 L0,23.3715395 C0.113648437,23.2112502 0.227296875,23.0508117 0.340945312,22.8905224 C3.3076875,18.7119665 6.27823828,14.5357963 9.23980078,10.3536618 C11.1032695,7.72208415 12.9539414,5.08185828 14.8090313,2.44461455 C15.1233164,1.99774286 15.5049375,1.66001702 16.0938984,1.62527524 C16.9799297,1.57293892 17.8658086,1.51970796 18.7512305,1.45991631 C20.3957812,1.34913031 22.0401797,1.23506396 23.6844258,1.11905923 C26.2389258,0.938789676 28.7934258,0.756134417 31.3477734,0.57377737 C33.1688906,0.443905753 34.9901602,0.317314475 36.8105156,0.180136647 C37.4908828,0.128844068 38.1692695,-0.00117665561 38.848418,8.04217179e-06 C39.604043,0.00135815208 40.3590586,0.118406625 41.115293,0.172979543 C43.7200664,0.360853524 46.3252969,0.544850741 48.9306797,0.727506 C50.6002148,0.844405367 52.270207,0.953402097 53.9397422,1.07104699 C56.4943945,1.25116745 59.0473711,1.45887257 61.6040039,1.60335661 C62.3413477,1.64495728 62.8568789,1.91961114 63.2369766,2.50544993 C63.3590039,2.69377123 63.4750898,2.88641662 63.6048867,3.0696683 C68.4024961,9.83745571 73.2013242,16.6044976 78,23.3715395 L78,24.4152838 Z" id="Fill-1" fill="#E1A70A" mask="url(#mask-3)"></path>
                </g>
            </g>
        </g>
    </g>
</svg>