<?xml version="1.0" encoding="UTF-8"?>
<svg width="103px" height="103px" viewBox="0 0 103 103" version="1.1" xmlns="http://www.w3.org/2000/svg" xmlns:xlink="http://www.w3.org/1999/xlink">
    <!-- Generator: Sketch 57.1 (83088) - https://sketch.com -->
    <title>8_Spark</title>
    <desc>Created with Sketch.</desc>
    <defs>
        <linearGradient x1="50%" y1="0%" x2="50%" y2="100%" id="linearGradient-1">
            <stop stop-color="#FFFFFF" stop-opacity="0.0707768794" offset="0%"></stop>
            <stop stop-color="#0B1A3F" stop-opacity="0.104731206" offset="100%"></stop>
        </linearGradient>
        <polygon id="path-2" points="0 0 63 0 63 71 0 71"></polygon>
    </defs>
    <g id="Page-1" stroke="none" stroke-width="1" fill="none" fill-rule="evenodd">
        <g id="Home-Copy-5" transform="translate(-776.000000, -1891.000000)">
            <g id="8_Spark" transform="translate(776.000000, 1891.000000)">
                <g id="8_Dotgrid-Copy">
                    <g id="8_Mobbin" fill="#FFD564" fill-rule="nonzero">
                        <rect id="Rectangle-Copy-58" x="0" y="0" width="103" height="103" rx="15"></rect>
                    </g>
                    <rect id="Rectangle-Copy-49" fill="url(#linearGradient-1)" opacity="0.665108817" x="0" y="0" width="103" height="103" rx="15"></rect>
                </g>
                <g id="Group-3" transform="translate(20.000000, 17.000000)">
                    <mask id="mask-3" fill="white">
                        <use xlink:href="#path-2"></use>
                    </mask>
                    <g id="Clip-2"></g>
                    <path d="M58.861633,61.2834184 C58.0630561,61.6304288 57.4411572,61.1879708 56.8282686,60.9020231 C53.9426579,59.555678 51.0729129,58.1741576 48.1972918,56.806075 C44.9218925,55.2478876 41.6478643,53.6873287 38.3693311,52.1368483 C37.8994302,51.91473 37.4062203,51.7439914 36.7373118,51.4742481 C36.4278314,52.1479147 36.0944544,52.7101269 35.9023024,53.3177903 C34.6547831,57.2643422 33.4403664,61.2215652 32.2083211,65.173255 C32.0167567,65.7876373 31.7903267,66.3913485 31.5799584,67 C31.4804546,66.9980239 31.3807549,66.9962453 31.2812511,66.9944668 C31.0800888,66.4292904 30.8622773,65.8694495 30.6805066,65.2977519 C29.427111,61.3523857 28.1882102,57.4020792 26.925021,53.4598749 C26.7269927,52.8423307 26.4290689,52.2573929 26.1240936,51.5305681 C25.4497006,51.7961615 24.9171201,51.9708524 24.4145083,52.2093727 C18.4194033,55.0514591 12.430958,57.9075762 6.43448191,60.7466984 C5.73677994,61.0769116 5.05122215,61.5450595 4.17507928,61.3023893 C3.77334241,60.5911761 4.15549192,59.9708653 4.40072573,59.3914607 C5.49330899,56.8106201 6.55396484,54.2114014 7.76838151,51.6886594 C14.8100394,37.0616566 21.8918515,22.4542175 28.9595606,7.83986199 C29.4045856,6.91917774 29.8533321,5.9998768 30.2838624,5.07207845 C30.5347766,4.53061573 30.7937215,3.9960695 31.4888772,4 C32.1699299,4.00377645 32.4725547,4.52666344 32.7336542,5.05271226 C33.7621868,7.12370837 34.7991419,9.19114742 35.7996646,11.2759765 C42.7261488,25.7114913 49.6506743,40.1477965 56.5560042,54.5935872 C57.3228496,56.1972258 57.9811809,57.8546156 58.6555739,59.5013341 C58.8825915,60.056037 59.1785566,60.640382 58.861633,61.2834184" id="Fill-1" fill="#E1A70A" mask="url(#mask-3)"></path>
                </g>
            </g>
        </g>
    </g>
</svg>