<?xml version="1.0" encoding="UTF-8"?>
<svg width="103px" height="103px" viewBox="0 0 103 103" version="1.1" xmlns="http://www.w3.org/2000/svg" xmlns:xlink="http://www.w3.org/1999/xlink">
    <!-- Generator: Sketch 57.1 (83088) - https://sketch.com -->
    <title>9_Briefbox</title>
    <desc>Created with Sketch.</desc>
    <defs>
        <polygon id="path-1" points="0 0.410789474 53.8522819 0.410789474 53.8522819 70 0 70"></polygon>
        <linearGradient x1="50%" y1="0%" x2="50%" y2="100%" id="linearGradient-3">
            <stop stop-color="#FFFFFF" stop-opacity="0.0707768794" offset="0%"></stop>
            <stop stop-color="#0B1A3F" stop-opacity="0.104731206" offset="100%"></stop>
        </linearGradient>
    </defs>
    <g id="Page-1" stroke="none" stroke-width="1" fill="none" fill-rule="evenodd">
        <g id="Home-Copy-5" transform="translate(-969.000000, -1829.000000)">
            <g id="9_Briefbox" transform="translate(969.000000, 1829.000000)">
                <g>
                    <rect id="Rectangle-Copy-70" fill="#92E58D" fill-rule="nonzero" x="0" y="0" width="103" height="103" rx="15"></rect>
                    <g id="Group-8" transform="translate(26.000000, 16.000000)">
                        <g id="Group-3">
                            <g id="Fill-1-Clipped">
                                <mask id="mask-2" fill="white">
                                    <use xlink:href="#path-1"></use>
                                </mask>
                                <g id="path-1"></g>
                                <path d="M42.8760931,31.2951118 C43.4896448,30.4376118 43.9556276,29.5810329 44.6101448,28.9026776 C51.2698345,21.9970855 48.9766966,12.8339934 43.1498172,8.20201974 C39.3972828,5.21965132 35.0549379,4.13649342 30.3695069,4.09919079 C25.6389207,4.06096711 20.9074034,4.08491447 16.1768172,4.094125 C11.7055241,4.10241447 10.960231,4.86320395 10.9439379,9.35563816 C10.9108862,18.5620197 10.8629379,27.7684013 10.8401276,36.9743224 C10.8238345,43.1122171 10.7954379,49.2505724 10.8610759,55.3880066 C10.8969207,58.7434013 11.835869,59.5714276 15.2253,59.5972171 C20.7305069,59.639125 26.2357138,59.6994539 31.7409207,59.6964691 C35.1959897,59.6943882 38.4993,58.9911645 41.5968517,57.4023487 C51.3601448,52.3964276 53.2701621,39.4247829 44.5403172,32.9723487 C43.9993862,32.5721513 43.5799552,32.0126118 42.8760931,31.2951118 M48.0740586,30.8903092 C48.4357655,31.3273487 48.744869,31.7630066 49.1154207,32.1392566 C56.0274207,39.164125 55.0349379,50.5317566 48.3449897,57.0472829 C45.587731,59.7326118 42.7434207,62.3373487 39.8292828,64.8550461 C35.8803,68.2661645 31.1706621,69.9199145 25.9652483,69.9724145 C19.1440241,70.0414934 12.3200069,69.9691908 5.49831724,69.8899803 C1.8765931,69.8480724 0.251937931,68.2435987 0.0741103448,64.7201118 C0.0121965517,63.4955724 -0.00130344828,62.2673487 -8.50634903e-05,61.0409671 C0.0215068966,45.4701118 0.0736448276,29.9001776 0.0513,14.3297829 C0.0475758621,12.0101118 0.814282759,10.1657039 2.51155862,8.62155921 C4.7925931,6.54596711 7.06804138,4.46300658 9.30531724,2.34090132 C10.8801621,0.846953947 12.8595414,0.403927632 14.8747655,0.412217105 C21.4581103,0.441690789 28.0698517,0.277282895 34.6168862,0.821625 C43.0771966,1.52484868 50.2820069,7.71524342 51.9499552,15.5382039 C52.9778172,20.3608355 52.1170759,24.8173487 49.3905414,28.9298487 C49.1782655,29.250375 48.9306103,29.5469539 48.7160069,29.8656382 C48.5032655,30.1806382 48.3114724,30.5094539 48.0740586,30.8903092" id="Fill-1" fill="#32BB5F" fill-rule="nonzero" mask="url(#mask-2)"></path>
                            </g>
                        </g>
                        <path d="M22.0200954,42.8883286 C22.0200954,41.3435355 21.97782,39.7964158 22.0314598,38.2530186 C22.0882817,36.604929 22.502854,36.1238097 24.0293167,36.083794 C26.3671957,36.0233051 28.7209848,35.9167516 31.0456811,36.1126425 C35.5100617,36.4895348 39.623965,40.420382 37.3569997,45.9067241 C36.3287511,48.3965398 34.3404403,49.7635887 31.7157246,49.9045744 C29.2314724,50.0376499 26.7349468,50.0125238 24.246149,49.9441248 C22.4096662,49.8938725 22.0560069,49.4476506 22.0160043,47.524104 C21.984184,45.9797761 22.0096402,44.4335871 22.0096402,42.8883286 L22.0200954,42.8883286 Z" id="Fill-4" fill="#32BB5F" fill-rule="nonzero"></path>
                        <path d="M22.0182313,21.985511 C22.0182313,20.4131707 21.9703276,18.8394135 22.0312537,17.2694348 C22.0935751,15.6635601 22.5967968,15.046243 24.0901841,15.0273503 C26.5607146,14.9952328 29.0572898,14.9338317 31.4985199,15.2446157 C35.179201,15.7131533 37.1130236,18.3118364 36.9948921,22.1451539 C36.8828066,25.7838771 34.5606382,28.562985 31.1008724,28.8685735 C28.795447,29.072614 26.4583959,28.9989327 24.1399482,28.9148605 C22.6047033,28.8591272 22.0921798,28.261175 22.0312537,26.7011149 C21.9698625,25.1316085 22.0177662,23.557379 22.0182313,21.985511" id="Fill-6" fill="#32BB5F" fill-rule="nonzero"></path>
                    </g>
                </g>
                <rect id="Rectangle-Copy-52" fill="url(#linearGradient-3)" opacity="0.665108817" x="0" y="0" width="103" height="103" rx="15"></rect>
            </g>
        </g>
    </g>
</svg>