<svg width="103" height="103" viewBox="0 0 103 103" fill="none" xmlns="http://www.w3.org/2000/svg">
<g id="9_ConvertKit">
<g id="8_Sketchsheets">
<rect id="Rectangle-Copy-62" width="103" height="103" rx="15" fill="#92E58D"/>
</g>
<g id="Group">
<path id="Vector" d="M83.9939 48.9034C84.0421 51.0902 83.8013 53.1808 83.3678 55.2474C83.0066 57.0016 82.4527 58.6837 81.7784 60.3418C80.3817 63.8022 78.3588 66.8781 75.8303 69.6175C74.4095 71.1555 72.8201 72.5252 71.1344 73.7507C69.0634 75.2406 66.8238 76.4662 64.4638 77.4514C62.6336 78.2204 60.7312 78.7971 58.8046 79.2056C56.2761 79.7343 53.6994 80.0226 51.0985 79.9986C47.6308 79.9746 44.2594 79.3979 40.9843 78.3405C37.7574 77.3072 34.7231 75.7933 31.9056 73.8949C29.4974 72.2849 27.3301 70.3625 25.4035 68.1997C23.1399 65.6765 21.3578 62.8169 20.0815 59.669C19.9852 59.4287 19.9611 59.1884 20.0815 58.9721C20.6836 57.8186 20.6595 56.5931 20.5632 55.3435C20.4668 54.118 21.1411 53.4692 22.1285 53.0606C22.9713 52.7242 23.6215 52.1715 23.7901 51.2343C24.1513 49.408 25.7166 48.615 27.4264 49.0716C29.0639 49.5042 30.1717 50.5375 30.7496 52.1475C31.7611 54.935 32.8929 57.6504 34.6268 60.0535C37.2035 63.658 40.6231 65.9649 44.9578 66.9502C47.703 67.5749 50.4724 67.7672 53.2659 67.4548C56.5891 67.0703 59.6716 65.9889 62.4409 64.0906C65.3789 62.072 67.5944 59.4767 69.0393 56.2326C69.9062 54.2862 70.3879 52.2436 70.5323 50.1049C70.725 47.2213 70.2193 44.4818 68.967 41.8866C67.8111 39.5076 66.1495 37.5371 64.0062 35.9751C62.0797 34.5573 59.9365 33.5721 57.5283 33.4279C55.8667 33.3318 54.2532 33.5961 52.6638 34.0767C49.8222 34.9658 47.5104 36.5999 45.7284 38.9549C44.2353 40.9494 43.3443 43.2082 42.9831 45.6593C42.8627 46.4283 42.7904 47.1972 42.2606 47.8461C41.7067 48.5429 40.9843 48.9034 40.1174 48.9034C37.5647 48.9274 34.988 48.9034 32.4354 48.9034C32.1223 48.9034 31.7852 48.8794 31.4721 48.7832C30.7015 48.5429 30.3162 47.8461 30.3643 46.981C30.5329 44.0252 31.0868 41.1176 32.05 38.3301C32.8207 36.0952 33.8802 34.0046 35.2047 32.0582C36.8182 29.6792 38.7929 27.6366 41.1047 25.9545C43.85 23.9599 46.9084 22.5902 50.2316 21.7972C52.8083 21.1724 55.4332 20.9081 58.0822 21.0283C61.5018 21.1724 64.7528 22.0375 67.8352 23.5034C71.0862 25.0413 73.9038 27.156 76.3601 29.7993C78.407 32.0101 80.0927 34.4852 81.369 37.2247C82.236 39.075 82.9103 40.9734 83.3437 42.9679C83.7772 44.9384 84.0421 46.9329 83.9939 48.9034Z" fill="#32BB5F"/>
</g>
<rect id="Rectangle Copy 51" opacity="0.610166" width="103" height="103" rx="15" fill="url(#paint0_linear)"/>
</g>
<defs>
<linearGradient id="paint0_linear" x1="0" y1="0" x2="0" y2="103" gradientUnits="userSpaceOnUse">
<stop stop-color="white" stop-opacity="0.0707769"/>
<stop offset="1" stop-color="#0B1A3F" stop-opacity="0.104731"/>
</linearGradient>
</defs>
</svg>
