<?xml version="1.0" encoding="UTF-8"?>
<svg width="103px" height="103px" viewBox="0 0 103 103" version="1.1" xmlns="http://www.w3.org/2000/svg" xmlns:xlink="http://www.w3.org/1999/xlink">
    <!-- Generator: Sketch 61 (89581) - https://sketch.com -->
    <title>9_Briefbox Copy 2</title>
    <desc>Created with Sketch.</desc>
    <defs>
        <linearGradient x1="50%" y1="0%" x2="50%" y2="100%" id="linearGradient-1">
            <stop stop-color="#FFFFFF" stop-opacity="0.0707768794" offset="0%"></stop>
            <stop stop-color="#0B1A3F" stop-opacity="0.104731206" offset="100%"></stop>
        </linearGradient>
    </defs>
    <g id="Page-1" stroke="none" stroke-width="1" fill="none" fill-rule="evenodd">
        <g id="Home-Copy-5" transform="translate(-726.000000, -1232.000000)">
            <g id="9_Briefbox-Copy-2" transform="translate(726.000000, 1232.000000)">
                <g id="9_Briefbox-Copy">
                    <g id="9_Briefbox">
                        <rect id="Rectangle-Copy-70" fill="#92E58D" fill-rule="nonzero" x="0" y="0" width="103" height="103" rx="15"></rect>
                        <g id="Group-8" transform="translate(23.000000, 15.000000)" fill="#32BB5F">
                            <path d="M38,17.55662 C38.6516787,14.7033108 39.2631894,12.5137142 39.830036,11 C40.4229616,12.0275533 41.0830336,13.4929011 41.7173261,15.5121228 C42.2736811,17.2845196 42.7119305,19.1801729 43,21 C41.4601319,19.7190689 39.7835731,18.5610822 38,17.55662 M60.0158563,41.8261065 L53.5221399,36.8057797 C53.5085584,36.7953932 53.494977,36.7850068 53.4811002,36.7749258 C53.2218712,36.5824708 53.0373403,36.2995924 52.9735664,35.9944137 C52.3151602,32.8659504 50.8787716,29.7707847 48.8445029,26.9255052 C48.94164,26.6520969 49.0003946,26.359443 49.0086616,26.0524314 C49.168982,20.0502785 46.5501194,7.31586535 40.9728573,4.3777186 C40.0330783,3.88283425 38.8993205,4.00961018 38.0835462,4.70092085 C35.8195735,6.61905596 34.5281524,10.845124 33.4761786,15.2877802 C28.5360648,8.08507449 23.9030104,2.05878827 18.1001778,0.131794125 C16.8362149,-0.287330156 15.4668479,0.321194311 14.8922925,1.55962714 C12.9823238,5.67663729 12.3835579,12.8738443 12.6835314,17.2480722 C9.18571116,19.1552098 5.55916218,21.4860541 3.28662717,24.7718418 C2.33179045,26.1523247 2.25945434,27.9870627 3.10239152,29.4463606 C3.78884648,30.6349995 4.96954903,31.3941276 6.26510361,31.5322065 C1.84610511,36.4172038 0.400268558,41.4005671 0.0241207602,45.0306355 C-0.156571903,46.7764775 0.689317769,48.4410608 2.17914649,49.2716722 C3.02621716,49.7439507 3.97662513,49.8872228 4.8792027,49.7185956 C3.11036325,54.8458419 1.25708246,62.1979294 1.79679845,69.461732 C1.90426925,70.9036173 3.06843783,72 4.44341451,72 C4.51191238,72 4.58070551,71.9975561 4.65008913,71.9920573 C6.1133454,71.8756679 7.20813035,70.5538379 7.09593556,69.0398583 C6.3504307,59.0150898 11.0933179,48.2079763 12.0511071,46.1444308 C12.5539169,45.0617949 12.4000919,43.7647091 11.659311,42.839092 C10.9161682,41.9107257 9.70889319,41.5114578 8.58399279,41.8224407 C7.55386746,42.106541 6.66516662,42.445323 5.83344892,42.8833873 C6.72155926,39.7289577 8.80041063,35.8920765 13.3971493,32.2754495 L13.5102298,32.1862481 C14.3189181,31.5468697 14.7369913,30.5018084 14.6020623,29.4582744 C14.4671333,28.4162679 13.7986886,27.5233377 12.8562523,27.1268193 L12.7275236,27.0721376 C12.086537,26.7984238 10.880443,26.2827665 9.30233469,26.0713714 C11.6073471,23.9531442 14.8010604,22.2845897 16.7119149,21.2865729 C17.6599608,20.7913831 18.1940671,19.788173 18.1680851,18.7583859 C18.1754664,18.5601267 18.1639517,18.3585071 18.1279312,18.1553601 C17.7012958,15.7508942 17.9236186,10.3875087 18.8321012,6.5506275 C22.4864036,8.97861569 26.0893326,13.9833628 29.7492448,19.3580513 C29.764893,19.3812681 29.7831985,19.4023465 29.7994372,19.4246469 C29.8094757,19.4386991 29.8201047,19.451835 29.8304384,19.4652763 C29.9969591,19.6861413 30.1903475,19.8743196 30.4026318,20.0276726 C30.4111941,20.0337823 30.4197563,20.0401975 30.4283185,20.0460017 C30.4791014,20.0814378 30.5304748,20.1156521 30.5830292,20.1474224 C30.5963155,20.1550595 30.6098969,20.1626966 30.6234784,20.1706392 C30.6745566,20.2002712 30.7262252,20.2295977 30.7790749,20.2555638 C30.7914753,20.2616735 30.8044663,20.2668667 30.817162,20.2726709 C30.9010129,20.3123839 30.9869305,20.3469036 31.0743243,20.377452 C31.1100495,20.3899769 31.1451842,20.4037236 31.1817951,20.4147211 C32.6196599,20.889138 34.0595915,21.5123257 35.4632074,22.267788 C41.8509292,25.7050959 46.5707869,31.4130676 47.7795381,37.1595304 C48.1199608,38.7902049 49.0355293,40.2330066 50.3591326,41.2246082 L56.6562128,46.0931094 C56.5971629,46.2690683 56.4557384,46.4951266 56.2921702,46.5840225 C54.8853066,47.3489548 52.790807,48.0103281 47.9029524,47.1128156 L47.4872412,47.0382774 C47.176934,46.9829848 46.8704651,46.9279977 46.5663582,46.8757599 C46.528271,46.8693447 46.4901838,46.8635405 46.4523919,46.8589582 C42.51465,46.2125537 30.9857495,44.3921736 28.4873486,52.8745525 C26.4456987,59.8145419 28.6334971,64.5471026 30.3911171,68.3494641 C30.6414886,68.8904766 30.8776882,69.4015516 31.0991253,69.9104882 C31.5419994,70.9289724 32.5101224,71.5316927 33.5237137,71.5316927 C33.8883468,71.5316927 34.2588849,71.4534888 34.612889,71.2888328 C35.9509595,70.6653396 36.5473633,69.0377199 35.9450545,67.6529602 C35.6985212,67.0859816 35.4378159,66.5223633 35.1856729,65.977074 C33.5467432,62.4319303 32.1316126,59.3706734 33.5709537,54.4765115 C34.1050599,52.6643794 36.6456814,50.8174221 45.713973,52.30513 C45.7381834,52.3087958 45.7623939,52.3127671 45.7866044,52.3161274 C46.0496716,52.3613391 46.3145104,52.4089946 46.5820064,52.4569557 L46.9891554,52.5293554 C52.0520929,53.4595547 55.6833659,53.1268824 58.7645891,51.4516072 C60.578897,50.4648934 61.8437456,48.4560295 61.9863511,46.33322 C62.1097654,44.5024534 61.3917187,42.8613924 60.0158563,41.8261065" id="Fill-1"></path>
                        </g>
                    </g>
                    <rect id="Rectangle-Copy-38" fill="url(#linearGradient-1)" opacity="0.610165551" x="0" y="0" width="103" height="103" rx="15"></rect>
                </g>
            </g>
        </g>
    </g>
</svg>