<svg width="103" height="103" viewBox="0 0 103 103" fill="none" xmlns="http://www.w3.org/2000/svg">
<g id="9_Milanote">
<g id="8_Sketchsheets">
<rect id="Rectangle-Copy-62" width="103" height="103" rx="15" fill="#92E58D"/>
</g>
<g id="Group">
<path id="Vector" d="M51.6004 46.2828C51.9873 45.7504 52.2049 45.3632 52.5192 45.0487C58.9994 38.5637 65.4796 32.0787 71.9597 25.5938C72.2741 25.2792 72.5884 24.9646 72.9269 24.6985C75.0547 23.1256 77.9563 24.3597 78.319 26.9972C78.3674 27.4328 78.3674 27.8683 78.3674 28.3281C78.3674 43.3306 78.3674 58.3332 78.3674 73.3357C78.3674 73.4083 78.3674 73.5051 78.3674 73.5777C78.585 76.4088 76.6506 77.8123 74.1843 77.8123C60.6436 77.7639 47.0788 77.7881 33.5382 77.7881C31.8939 77.7881 30.2497 77.7881 28.6055 77.7881C25.9941 77.7639 24.6158 76.4572 24.6158 73.8681C24.6158 58.551 24.6158 43.2097 24.6158 27.8925C24.6158 27.336 24.6642 26.7553 24.8576 26.2229C25.583 24.1419 28.0977 23.3434 29.9112 24.6017C30.3464 24.892 30.7091 25.2792 31.0718 25.6422C37.552 32.1271 44.0322 38.6121 50.5123 45.0971C50.8025 45.3632 51.0443 45.6778 51.6004 46.2828ZM31.4587 65.7861C36.4881 60.753 41.4691 55.7682 46.2809 50.9529C41.3482 46.0166 36.3672 41.0319 31.4587 36.1197C31.4587 45.8714 31.4587 55.8408 31.4587 65.7861ZM56.6298 50.8561C61.5383 55.7924 66.5193 60.7771 71.4761 65.7377C71.4761 55.865 71.4761 45.8714 71.4761 35.9988C66.5193 40.9351 61.5383 45.944 56.6298 50.8561ZM36.609 70.8434C46.5227 70.8434 56.4847 70.8434 66.3984 70.8434C61.3932 65.8345 56.4122 60.8497 51.5037 55.9376C46.571 60.8739 41.59 65.8587 36.609 70.8434Z" fill="#32BB5F"/>
</g>
<rect id="Rectangle Copy 51" opacity="0.610166" width="103" height="103" rx="15" fill="url(#paint0_linear)"/>
</g>
<defs>
<linearGradient id="paint0_linear" x1="0" y1="0" x2="0" y2="103" gradientUnits="userSpaceOnUse">
<stop stop-color="white" stop-opacity="0.0707769"/>
<stop offset="1" stop-color="#0B1A3F" stop-opacity="0.104731"/>
</linearGradient>
</defs>
</svg>
