<?xml version="1.0" encoding="UTF-8"?>
<svg width="103px" height="103px" viewBox="0 0 103 103" version="1.1" xmlns="http://www.w3.org/2000/svg" xmlns:xlink="http://www.w3.org/1999/xlink">
    <!-- Generator: Sketch 58 (84663) - https://sketch.com -->
    <title>9_Sharpen</title>
    <desc>Created with Sketch.</desc>
    <defs>
        <polygon id="path-1" points="0.235659574 0.268152748 70.9268851 0.268152748 70.9268851 22.9999845 0.235659574 22.9999845"></polygon>
        <polygon id="path-3" points="0 0.015 35.94843 0.015 35.94843 23.96433 0 23.96433"></polygon>
        <linearGradient x1="50%" y1="0%" x2="50%" y2="100%" id="linearGradient-5">
            <stop stop-color="#FFFFFF" stop-opacity="0.0707768794" offset="0%"></stop>
            <stop stop-color="#0B1A3F" stop-opacity="0.104731206" offset="100%"></stop>
        </linearGradient>
    </defs>
    <g id="Page-1" stroke="none" stroke-width="1" fill="none" fill-rule="evenodd">
        <g id="Home-Copy-5" transform="translate(-844.000000, -1355.000000)">
            <g id="9_Sharpen" transform="translate(844.000000, 1355.000000)">
                <g id="8_Mobbin" fill="#92E58D" fill-rule="nonzero">
                    <rect id="Rectangle-Copy-58" x="0" y="0" width="103" height="103" rx="15"></rect>
                </g>
                <g id="Group-11" transform="translate(16.000000, 27.000000)">
                    <g id="Group-3" transform="translate(0.000000, 27.000000)">
                        <mask id="mask-2" fill="white">
                            <use xlink:href="#path-1"></use>
                        </mask>
                        <g id="Clip-2"></g>
                        <path d="M0.288229787,0.314681818 C15.8955404,0.3105 31.5037574,0.197590909 47.1101617,0.339474026 C57.976183,0.438642857 67.0554213,7.77235714 69.9975404,17.5814091 C70.5081362,19.2837078 71.0120851,20.9961623 70.9148,22.7761234 C70.4326043,23.0927468 69.9661191,22.9699805 69.528034,22.9702792 C54.5751319,22.9756558 39.6213234,23.0506299 24.6693277,22.939513 C15.7130553,22.8729026 8.71396596,18.9817208 3.78294043,11.5736299 C1.81880851,8.62216234 0.696102128,5.33674675 0.235659574,1.83268182 C0.253182979,1.32668182 0.270706383,0.820681818 0.288229787,0.314681818" id="Fill-1" fill="#32BB5F" mask="url(#mask-2)"></path>
                    </g>
                    <g id="Group-6">
                        <mask id="mask-4" fill="white">
                            <use xlink:href="#path-3"></use>
                        </mask>
                        <g id="Clip-5"></g>
                        <path d="M14.95893,23.86443 C14.47203,23.88513 4.30803,23.96433 0.22623,23.96433 C-0.09237,23.52753 0.01893,23.11533 0.01833,22.73043 C0.01023,16.89003 0.00333,11.04993 0.01563,5.20953 C0.02283,1.95843 1.98813,0.01923 5.25273,0.01773 C14.98683,0.01323 24.72033,0.0148899136 34.45413,0.01773 C34.95243,0.01803 35.45043,0.05313 35.94843,0.07233 C35.87373,0.30813 35.73123,0.54513 35.73453,0.78003 C35.76633,3.17013 35.02203,5.38773 34.20933,7.57983 C33.00363,10.83243 31.21623,13.76043 28.82523,16.26033 C25.22763,20.02203 20.92023,22.57143 15.71523,23.43903 C15.41103,23.48943 15.14313,23.60193 14.95893,23.86443" id="Fill-4" fill="#32BB5F" mask="url(#mask-4)"></path>
                    </g>
                    <path d="M46.5591635,0 L59.7986618,0 C60.2175985,1.0934307 59.8809856,2.05802818 59.7010928,3.02052348 C59.0595769,6.44886868 57.8957621,9.71174277 55.9145024,12.5926218 C54.5299378,14.6056034 52.8926087,16.4371975 51.0022101,18.0819983 C47.7809098,20.8847967 44.0513363,22.5277957 39.9458173,23.4740742 C38.8664607,23.7227313 37.7483814,23.9218372 36.6449374,23.9374534 C32.4305681,23.9975155 28.2146742,24.0515714 24,23.9122273 C24.1826369,23.8392518 24.3649689,23.7041121 24.5485205,23.7023102 C27.5127875,23.6728798 30.1441004,22.5139814 32.7540702,21.3253522 C35.9323791,19.8775551 38.5987559,17.6921952 40.7562495,15.0467596 C42.8061124,12.5331604 44.5745498,9.77450768 45.4907834,6.59812302 C46.1133953,4.43949081 46.5454429,2.25323003 46.5591635,0" id="Fill-7" fill="#32BB5F" opacity="0.36500186"></path>
                    <path d="M47,0 C46.9863814,2.25430438 46.5575466,4.44160758 45.9395646,6.60126904 C45.0301443,9.77916821 43.2748574,12.5391362 41.2402377,15.053934 C39.0987876,17.700631 36.4522386,19.8870328 33.2975642,21.3355203 C30.7070028,22.5247162 28.0952569,23.6841671 25.1530328,23.7136116 C24.9708461,23.7154143 24.78987,23.8506185 24.6085912,23.9236288 C21.0719906,23.9810154 17.5350874,24.0882774 14,23.8629371 C14.1858183,23.5997396 14.456072,23.4873699 14.7629446,23.4365933 C20.0136736,22.5679815 24.3589167,20.0147256 27.9881238,16.2473362 C30.4001302,13.7436553 32.2032336,10.8109263 33.4195264,7.55370739 C34.2393665,5.35799148 34.9902056,3.13703746 34.9581262,0.743622997 C34.9547972,0.508367722 35.0985492,0.27100927 35.1739055,0.0348526334 C39.1157352,0.0231349377 43.0578676,0.0117176957 47,0" id="Fill-9" fill="#32BB5F" opacity="0.739769345"></path>
                </g>
                <rect id="Rectangle-Copy-49" fill="url(#linearGradient-5)" opacity="0.665108817" x="0" y="0" width="103" height="103" rx="15"></rect>
            </g>
        </g>
    </g>
</svg>