<?xml version="1.0" encoding="UTF-8"?>
<svg width="103px" height="103px" viewBox="0 0 103 103" version="1.1" xmlns="http://www.w3.org/2000/svg" xmlns:xlink="http://www.w3.org/1999/xlink">
    <!-- Generator: Sketch 57.1 (83088) - https://sketch.com -->
    <title>9_Sketchsheets</title>
    <desc>Created with Sketch.</desc>
    <defs>
        <polygon id="path-1" points="0 0.338512821 14.8803325 0.338512821 14.8803325 22.6973856 0 22.6973856"></polygon>
        <polygon id="path-3" points="0.5349085 0.52444004 14.4796154 0.52444004 14.4796154 17 0.5349085 17"></polygon>
        <polygon id="path-5" points="0.5349085 0.52444004 14.4796154 0.52444004 14.4796154 17 0.5349085 17"></polygon>
        <linearGradient x1="50%" y1="0%" x2="50%" y2="100%" id="linearGradient-7">
            <stop stop-color="#FFFFFF" stop-opacity="0.0707768794" offset="0%"></stop>
            <stop stop-color="#0B1A3F" stop-opacity="0.104731206" offset="100%"></stop>
        </linearGradient>
    </defs>
    <g id="Page-1" stroke="none" stroke-width="1" fill="none" fill-rule="evenodd">
        <g id="Home-Copy-5" transform="translate(-724.000000, -1655.000000)">
            <g id="9_Sketchsheets" transform="translate(724.000000, 1655.000000)">
                <g id="8_Sketchsheets">
                    <rect id="Rectangle-Copy-62" fill="#92E58D" fill-rule="nonzero" x="0" y="0" width="103" height="103" rx="15"></rect>
                    <g id="Group-27" transform="translate(10.000000, 26.000000)">
                        <g id="Fill-1-Clipped">
                            <mask id="mask-2" fill="white">
                                <use xlink:href="#path-1"></use>
                            </mask>
                            <g id="path-1"></g>
                            <path d="M14.6033654,5.96779231 L12.3377885,5.96779231 C12.0377885,5.39868974 11.8133654,4.85199744 11.4879808,4.37784359 C9.72144231,1.80243333 5.34375,2.0265359 3.60201923,4.1696641 C2.57105769,5.43879231 2.58432692,7.59784359 4.21067308,8.6641 C5.57798077,9.5611 7.14836538,9.8276641 8.62182692,10.3926385 C9.74048077,10.8213821 10.9133654,11.1463308 11.9650962,11.7071769 C13.7904808,12.6814333 14.9224038,14.2584077 14.8791346,16.4221769 C14.8341346,18.6749974 13.9214423,20.5798692 11.8647115,21.5771256 C8.84278846,23.0420487 5.74586538,23.1470231 2.75740385,21.4344077 C1.13048077,20.5014333 0.147403846,19.0618692 -0.000288461538,16.9665103 L2.18394231,16.9665103 C2.29759615,17.1322282 2.44817308,17.2755359 2.50875,17.4506897 C3.27317308,19.6639974 5.91375,20.7078436 8.11067308,20.3634333 C8.99451923,20.2242538 9.89278846,19.9128692 10.6854808,19.4888436 C12.1958654,18.6808949 13.2124038,16.3974077 12.0475962,14.8599462 C11.6818269,14.3763564 11.1689423,13.9081 10.6249038,13.6834077 C9.02682692,13.0258436 7.36586538,12.5316385 5.75740385,11.9006128 C4.68951923,11.4813051 3.60605769,11.0419462 2.64144231,10.4274333 C0.127788462,8.82686923 -0.244326923,5.12504872 1.69009615,2.8221 C4.17432692,-0.134874359 9.75490385,-0.594874359 12.8079808,2.21938205 C13.8510577,3.18125385 14.4424038,4.35779231 14.6033654,5.96779231" id="Fill-1" fill="#32BB5F" fill-rule="nonzero" mask="url(#mask-2)"></path>
                        </g>
                        <path d="M42.3853729,13.6131501 C42.5937937,11.8846345 41.8643209,10.6705513 40.5581782,9.80092897 C39.0605929,8.80255732 37.4061065,8.77714627 35.8780776,9.704367 C34.4712373,10.558178 33.6369687,11.8202599 33.6346269,13.6131501 L42.3853729,13.6131501 Z M45,15.6759621 C42.8753959,15.6759621 40.9808743,15.6714446 39.0851818,15.6776562 C37.2503763,15.6833031 35.4143999,15.7002438 33.6252596,15.712667 C33.2253961,17.6495532 34.2920891,19.6722722 36.0542986,20.5385064 C37.1924166,21.0975494 38.4078143,21.1048903 39.6202847,20.8744969 C40.433477,20.7203366 41.0165869,20.2228448 42.5059759,18.6716418 C43.0914276,18.8173318 43.7342535,18.9777037 44.3969848,19.1425931 C44.4192319,20.2330092 43.7793333,20.9371775 43.110162,21.4922676 C42.1113815,22.3212323 40.9229146,22.9147213 39.5512014,22.9638493 C37.8996422,23.0231418 36.255694,23.119139 34.7259088,22.2365288 C33.8254841,21.7175788 33.0708369,21.1207017 32.4836289,20.2793138 C30.2963815,17.141897 30.5891073,11.8264715 32.9560884,9.29383748 C35.685464,6.37326159 40.3421466,6.19820774 43.0609841,9.01826884 C43.8402203,9.82634001 44.2517928,10.8151119 44.5550567,11.8761642 C44.8940332,13.0625775 44.861248,14.2591553 45,15.6759621 L45,15.6759621 Z" id="Fill-4" fill="#32BB5F" fill-rule="nonzero"></path>
                        <g id="Fill-6-Clipped" transform="translate(45.000000, 33.000000)">
                            <mask id="mask-4" fill="white">
                                <use xlink:href="#path-3"></use>
                            </mask>
                            <g id="path-3"></g>
                            <path d="M3.03282692,7.39114667 C6.11648077,7.32484667 9.06859615,7.50674667 11.9866731,7.28971333 C12.30975,4.89044667 9.85205769,2.74561333 8.04398077,2.65324667 C5.38494231,2.51724667 3.46378846,4.18948 3.03282692,7.39114667 M12.0524423,12.4543133 C12.75225,12.6260133 13.4024423,12.78638 14.0826346,12.95298 C14.1114808,14.2699133 13.2218654,14.9969467 12.4320577,15.63558 C10.2368654,17.4115133 4.90955769,17.6971133 2.64398077,15.0213133 C1.40648077,13.55988 0.614365385,11.9403467 0.55725,10.0250133 C0.51225,8.52731333 0.491480769,7.03528 0.942634615,5.56591333 C2.41609615,0.77248 8.20955769,-1.05162 12.1124423,2.07354667 C13.5316731,3.21028 14.1674423,4.77541333 14.4155192,6.48334667 C14.54475,7.37074667 14.4385962,8.29044667 14.4385962,9.37618 C10.6095577,9.38864667 6.89532692,9.40168 3.23301923,9.41358 C2.76686538,11.38558 3.83648077,13.4913133 5.62609615,14.39458 C6.77878846,14.9765467 8.01225,14.99638 9.23301923,14.74478 C10.5091731,14.4818467 11.3560962,13.5950133 12.0524423,12.4543133" id="Fill-6" fill="#32BB5F" fill-rule="nonzero" mask="url(#mask-4)"></path>
                        </g>
                        <g id="Fill-6-Clipped" transform="translate(29.000000, 33.000000)">
                            <mask id="mask-6" fill="white">
                                <use xlink:href="#path-5"></use>
                            </mask>
                            <g id="path-3"></g>
                            <path d="M3.03282692,7.39114667 C6.11648077,7.32484667 9.06859615,7.50674667 11.9866731,7.28971333 C12.30975,4.89044667 9.85205769,2.74561333 8.04398077,2.65324667 C5.38494231,2.51724667 3.46378846,4.18948 3.03282692,7.39114667 M12.0524423,12.4543133 C12.75225,12.6260133 13.4024423,12.78638 14.0826346,12.95298 C14.1114808,14.2699133 13.2218654,14.9969467 12.4320577,15.63558 C10.2368654,17.4115133 4.90955769,17.6971133 2.64398077,15.0213133 C1.40648077,13.55988 0.614365385,11.9403467 0.55725,10.0250133 C0.51225,8.52731333 0.491480769,7.03528 0.942634615,5.56591333 C2.41609615,0.77248 8.20955769,-1.05162 12.1124423,2.07354667 C13.5316731,3.21028 14.1674423,4.77541333 14.4155192,6.48334667 C14.54475,7.37074667 14.4385962,8.29044667 14.4385962,9.37618 C10.6095577,9.38864667 6.89532692,9.40168 3.23301923,9.41358 C2.76686538,11.38558 3.83648077,13.4913133 5.62609615,14.39458 C6.77878846,14.9765467 8.01225,14.99638 9.23301923,14.74478 C10.5091731,14.4818467 11.3560962,13.5950133 12.0524423,12.4543133" id="Fill-6" fill="#32BB5F" fill-rule="nonzero" mask="url(#mask-6)"></path>
                        </g>
                        <path d="M70.2578915,22.9222585 C69.9519434,21.8119944 69.9009521,3.61587188 70.198495,2 L72.2353473,2 L72.2353473,9.27603038 C72.7290108,8.92590561 73.0108641,8.78885019 73.2125881,8.57232566 C73.9163808,7.81794499 74.7877165,7.40735459 75.7464659,7.12287822 C78.2097404,6.3926838 80.9033164,7.9083555 81.5314626,10.4623084 C81.7701694,11.4303343 81.9455572,12.4398223 81.9662899,13.433762 C82.0245658,16.2134533 81.9915054,18.9948721 81.9825399,21.775715 C81.9814192,22.1005018 81.9052124,22.4252886 81.8458159,22.8980722 C81.1364197,22.9308964 80.4673684,22.9614172 79.647024,23 C79.6139637,22.4201058 79.5657741,21.9594154 79.5652137,21.4987249 C79.5573689,18.8140511 79.5612913,16.1293772 79.5590499,13.4447034 C79.5584896,13.013382 79.5741792,12.5786053 79.5321534,12.1513149 C79.3859035,10.6511915 78.5509902,9.70101736 77.1187496,9.36932021 C74.627458,8.79172951 72.3827179,10.5147119 72.303149,13.1821099 C72.2230197,15.8644802 72.2756921,18.5508816 72.2700886,21.2355554 C72.2689679,21.7521046 72.2700886,22.2675021 72.2700886,22.9222585 L70.2578915,22.9222585 Z" id="Fill-11" fill="#32BB5F" fill-rule="nonzero"></path>
                        <path d="M24.6456401,50 C24.6101364,49.4542672 24.5463501,48.9256624 24.5445448,48.396467 C24.534315,45.5721227 24.5463501,42.7471878 24.5319079,39.9228436 C24.5288991,39.3717952 24.5072359,38.8059814 24.3790615,38.2738329 C24.0017594,36.7021933 22.6736803,35.5894655 21.042917,35.6367151 C18.5552508,35.7087707 16.4779834,37.018175 16.4779834,39.8944938 C16.4785851,42.6686354 16.4809922,45.442777 16.4821957,48.216328 C16.4827974,48.7608795 16.4821957,49.3048404 16.4821957,49.9663347 L14.2839749,49.9663347 C13.9325485,48.805176 13.8922307,29.5350211 14.2478695,28 L16.4840009,28 L16.4840009,35.7566109 C17.1657924,35.1902064 17.5334663,34.8689092 17.9179895,34.5688743 C19.3074479,33.4892212 20.8335053,32.9133668 22.6381766,33.3214851 C25.0542336,33.8672179 26.8041449,35.4713415 26.9088507,37.8716207 C27.0815551,41.8417676 26.9557878,45.8243174 26.9557878,50 L24.6456401,50 Z" id="Fill-13" fill="#32BB5F" fill-rule="nonzero"></path>
                        <path d="M31,23 L28.3799611,23 C27.4476076,21.8115473 26.4709987,20.5596418 25.4866153,19.3134527 C24.5088103,18.0741235 23.5220346,16.839939 22.4904055,15.5405869 C21.1884597,16.3597561 20.3105284,17.1983613 20.3846861,18.6909299 C20.449275,20.0074314 20.3978431,21.3290777 20.3978431,22.7501905 L18.231721,22.7501905 C17.9297078,21.554878 17.918345,3.31478659 18.2245444,2 L20.2722534,2 C20.3033518,2.51791159 20.3589701,3.01867378 20.3601662,3.51943598 C20.3685388,6.51886433 20.3595681,9.51829268 20.3679408,12.517721 C20.3691369,13.0224848 20.423559,13.5266768 20.4714027,14.3258384 C20.9899085,13.9199695 21.3026864,13.7318979 21.5431009,13.4798018 C23.1817465,11.7545732 24.8000586,10.0116235 26.435116,8.28410823 C27.6599139,6.98932927 27.8752104,6.9367378 29.9031839,7.3511814 C29.6872893,8.36528201 28.7316121,8.8277439 28.1371545,9.53372713 C27.5139907,10.2734375 26.8370028,10.9731326 26.1689856,11.6762576 C25.5057527,12.3742378 24.8239804,13.0556402 24.127257,13.7684832 C24.349132,14.1760671 24.465751,14.4870427 24.6643022,14.7408537 C26.3322521,16.8725229 28.0223297,18.9899009 29.6902796,21.1227134 C30.0963527,21.6417683 30.4462095,22.2019817 31,23" id="Fill-15" fill="#32BB5F" fill-rule="nonzero"></path>
                        <path d="M1.82818007,45.2362221 C2.36172618,45.863852 2.82129321,46.4909002 3.36492738,47.0260434 C4.72905683,48.3697181 7.54530601,48.2952634 8.88085264,46.9201781 C9.90254861,45.8690871 9.81680013,44.3927899 8.58101317,43.6651116 C7.8524313,43.2364153 6.98766065,43.0526053 6.17781387,42.7774719 C5.22729475,42.454641 4.22465399,42.2533806 3.32625649,41.8194493 C1.401119,40.8893472 0.538029694,39.0954542 0.864770644,36.9391762 C1.085587,35.4797477 2.05179866,34.5321953 3.1956722,33.9045654 C4.89214708,32.9744633 6.72705252,32.6714094 8.59838705,33.4252632 C10.1026284,34.0319527 11.1063901,35.1138726 11.6292877,36.894387 C10.9858938,37.0985558 10.460194,37.2654972 9.86331728,37.4545423 C9.60831362,37.1357831 9.32640848,36.8682115 9.14370256,36.5413089 C7.96452082,34.4240033 4.65619865,35.0010272 3.58966687,36.2510519 C2.72825891,37.2608438 2.98382301,39.0041308 4.23306071,39.6910918 C5.10287538,40.1692306 6.09823031,40.4350572 7.06388153,40.6875051 C8.46107739,41.0527985 9.79830536,41.4285621 10.9040685,42.5221155 C12.3416166,43.943735 12.2687584,46.2529942 11.2431393,47.6815938 C10.2309709,49.090998 8.86067653,49.9344302 7.09918973,49.9815461 C5.51424392,50.0234268 3.93490259,50.0734511 2.51472837,49.1567276 C1.36300856,48.4121805 0.408005851,47.5012738 0,46.008108 C0.659646823,45.7294845 1.22401755,45.4909968 1.82818007,45.2362221 Z" id="Fill-17" fill="#32BB5F" fill-rule="nonzero"></path>
                        <path d="M71,45.9018391 C71.6934326,45.6829532 72.2353542,45.512187 72.801109,45.3337921 C73.0621392,45.6841269 73.2828801,45.9435037 73.4650338,46.2298745 C74.7594035,48.2679193 77.1518028,48.3406857 78.9080827,47.620064 C79.3393501,47.4428427 79.7507565,47.1054181 80.0605881,46.7404127 C80.8703495,45.7874081 80.7869333,44.6477931 79.8222561,43.8502973 C79.3847467,43.4893997 78.8280712,43.2370648 78.2867171,43.0651249 C77.1784733,42.7124428 76.0242655,42.509988 74.925101,42.1314856 C73.4934067,41.6385522 72.3465758,40.7641823 71.8443762,39.1897297 C71.204852,37.1827866 71.8472135,35.1911011 73.5751205,34.0861088 C75.5152565,32.8461466 77.6159828,32.7111768 79.7269233,33.4611397 C81.2193356,33.9898694 82.0988942,35.2122268 82.7287716,36.8101525 C82.0120732,37.0214096 81.4650446,37.1833735 80.8345997,37.3688103 C80.5934304,37.0460563 80.3528286,36.7491226 80.1394647,36.4322369 C78.8059404,34.4499405 75.5856211,34.8624788 74.4768099,36.2385845 C73.7527346,37.1376011 73.6664811,38.1017553 74.4529767,38.9274187 C74.9143193,39.4127233 75.5039073,39.8346508 76.1122214,40.0881594 C77.0036965,40.4602068 77.9785879,40.6116077 78.8904915,40.9384695 C79.7025227,41.2289481 80.5548433,41.5123848 81.2539505,42.0035577 C83.3501372,43.4759027 83.5827946,46.396533 81.8225426,48.2708534 C80.8016872,49.3588278 79.578817,49.973234 78.083,49.9890783 C76.5321396,50.0055094 74.9937633,50.0917728 73.542208,49.3019057 C72.4629045,48.7144935 71.7064841,47.8477523 71.1401619,46.7738617 C71.0351823,46.5743411 71.0590155,46.3020541 71,45.9018391" id="Fill-19" fill="#32BB5F" fill-rule="nonzero"></path>
                        <path d="M65.955643,18.5101883 L67.9141791,18.5101883 C67.395275,21.1524826 65.41571,22.9147682 62.8916651,22.981676 C61.8601088,23.0088928 60.7785377,23.0434808 59.8004063,22.7781173 C58.0203324,22.2955868 56.7381335,21.0271721 55.9998461,19.38963 C54.600567,16.2835167 54.6284162,13.1269389 56.3471083,10.1398989 C58.7512312,5.9592904 64.5813713,6.35846962 66.7337149,8.97241312 C67.3429867,9.71236893 67.8357467,10.4908818 68,11.4996032 C67.3463968,12.1170835 66.6029943,11.8398128 65.8601601,11.7740389 C65.6959068,11.5200158 65.539042,11.2881062 65.3929759,11.0488255 C64.0965683,8.9253508 61.4844291,8.37874743 59.5150944,9.86489622 C58.3738464,10.7261934 57.6526095,11.8908442 57.557695,13.3350338 C57.4832411,14.4628285 57.4661906,15.6053656 57.5582633,16.7303253 C57.7696898,19.3227222 59.8674717,21.1037192 62.4494883,21.0050585 C63.2474525,20.9755736 63.9448187,20.7430971 64.4944137,20.1738131 C64.9831952,19.6669008 65.4265086,19.1163284 65.955643,18.5101883" id="Fill-21" fill="#32BB5F" fill-rule="nonzero"></path>
                        <path d="M53.681376,20.7750712 C53.7868321,21.3218152 53.8866488,21.8385118 54,22.4241406 C53.7761173,22.5926414 53.5793035,22.8365552 53.3379388,22.9066657 C51.8209502,23.3467711 48.6392218,22.2143983 48.4429719,19.8489057 C48.3905259,19.2179113 48.2517975,18.5910411 48.2455942,17.961225 C48.2219089,15.511482 48.2360073,13.061739 48.2360073,10.611996 L48.2360073,9.00711388 C47.5271394,8.91049102 46.9006062,8.82565144 46.088538,8.71429948 C46.0603412,8.08271591 46.0327083,7.44818652 46,6.72115842 C46.7895108,6.6092173 47.4177358,6.51966441 48.1649514,6.41302576 C48.2111941,5.35312013 48.2546172,4.34623923 48.3053715,3.17910579 C48.9877344,3.12077857 49.6086282,3.06716467 50.4009587,3 C50.4641196,4.22428233 50.5210771,5.31600281 50.5870577,6.57975911 L53.6937826,6.57975911 L53.6937826,8.7384552 C52.7040744,8.8262406 51.7098548,8.914026 50.6034118,9.01182719 C50.5645002,9.57212194 50.504159,10.0458096 50.5019033,10.5194973 C50.4928803,12.9203397 50.4911885,15.3211821 50.5007754,17.7214353 C50.5097984,19.9461177 51.0720429,20.5388165 53.2415057,20.6601842 C53.3328634,20.6648976 53.4219653,20.706139 53.681376,20.7750712" id="Fill-23" fill="#32BB5F" fill-rule="nonzero"></path>
                        <path d="M63.1846453,35.836982 C62.3066778,35.75358 61.7052617,35.6968203 61,35.6302145 L61,33.5358975 C61.6724976,33.4524955 62.2705817,33.3783604 63.0341524,33.2833748 C63.1246703,32.2240535 63.2135221,31.1745782 63.3134805,30 L65.3781758,30 C65.4320422,31.1062349 65.4820214,32.1250136 65.5397751,33.3216007 C66.5226989,33.3928399 67.4845203,33.4629207 68.5535194,33.5405309 L68.5535194,35.686395 C67.5672636,35.7356254 66.6398723,35.7813806 65.5886436,35.8340861 C65.5442177,36.3234937 65.4742468,36.7468747 65.4725809,37.171414 C65.4620297,39.643936 65.4603637,42.1176163 65.4703596,44.5901382 C65.4798001,46.8952769 65.9929196,47.4640323 68.170901,47.645895 C68.2597529,47.6528451 68.3441622,47.710184 68.5479661,47.7895317 C68.6723587,48.2708308 68.8150771,48.8245275 69,49.5432906 C68.5346383,49.7118321 68.1653478,49.9272873 67.7777315,49.9718842 C65.3692906,50.253366 63.262946,48.3884045 63.2074136,45.853331 C63.1474386,43.0848478 63.1879772,40.3140479 63.1846453,37.5444063 C63.18409,37.0144561 63.1846453,36.4845059 63.1846453,35.836982" id="Fill-25" fill="#32BB5F" fill-rule="nonzero"></path>
                    </g>
                </g>
                <rect id="Rectangle-Copy-51" fill="url(#linearGradient-7)" opacity="0.610165551" x="0" y="0" width="103" height="103" rx="15"></rect>
            </g>
        </g>
    </g>
</svg>