<?xml version="1.0" encoding="UTF-8"?>
<svg width="103px" height="103px" viewBox="0 0 103 103" version="1.1" xmlns="http://www.w3.org/2000/svg" xmlns:xlink="http://www.w3.org/1999/xlink">
    <!-- Generator: Sketch 57.1 (83088) - https://sketch.com -->
    <title>9_Smallpdf</title>
    <desc>Created with Sketch.</desc>
    <defs>
        <linearGradient x1="50%" y1="0%" x2="50%" y2="100%" id="linearGradient-1">
            <stop stop-color="#FFFFFF" stop-opacity="0.0707768794" offset="0%"></stop>
            <stop stop-color="#0B1A3F" stop-opacity="0.104731206" offset="100%"></stop>
        </linearGradient>
    </defs>
    <g id="Page-1" stroke="none" stroke-width="1" fill="none" fill-rule="evenodd">
        <g id="Home-Copy-5" transform="translate(-969.000000, -1997.000000)">
            <g id="9_Smallpdf" transform="translate(969.000000, 1997.000000)">
                <g>
                    <rect id="Rectangle-Copy-72" fill="#92E58D" fill-rule="nonzero" x="0" y="0" width="103" height="103" rx="15"></rect>
                    <g id="Group-14" transform="translate(22.000000, 21.000000)" stroke="#32BB5F">
                        <polygon id="Fill-1" fill="#32BB5F" fill-rule="nonzero" points="0 20 20 20 20 0 0 0"></polygon>
                        <polygon id="Stroke-2" points="20 20 40 20 40 0 20 0"></polygon>
                        <polygon id="Fill-4" fill="#32BB5F" fill-rule="nonzero" points="39 20 59 20 59 0 39 0"></polygon>
                        <polygon id="Stroke-5" points="0 40 20 40 20 20 0 20"></polygon>
                        <polygon id="Fill-7" fill="#32BB5F" fill-rule="nonzero" points="21 39 39 39 39 21 21 21"></polygon>
                        <polygon id="Stroke-8" points="39 40 59 40 59 20 39 20"></polygon>
                        <polygon id="Fill-10" fill="#32BB5F" fill-rule="nonzero" points="0 59 20 59 20 39 0 39"></polygon>
                        <polygon id="Stroke-11" points="20 59 40 59 40 39 20 39"></polygon>
                        <polygon id="Fill-13" fill="#32BB5F" fill-rule="nonzero" points="39 59 59 59 59 39 39 39"></polygon>
                    </g>
                </g>
                <rect id="Rectangle-Copy-56" fill="url(#linearGradient-1)" opacity="0.665108817" x="0" y="0" width="103" height="103" rx="15"></rect>
            </g>
        </g>
    </g>
</svg>