<?xml version="1.0" encoding="UTF-8"?>
<svg width="103px" height="103px" viewBox="0 0 103 103" version="1.1" xmlns="http://www.w3.org/2000/svg" xmlns:xlink="http://www.w3.org/1999/xlink">
    <!-- Generator: Sketch 57.1 (83088) - https://sketch.com -->
    <title>9_Snazzymaps</title>
    <desc>Created with Sketch.</desc>
    <defs>
        <polygon id="path-1" points="0.000206508799 0.295592133 28.6608933 0.295592133 28.6608933 43 0.000206508799 43"></polygon>
        <linearGradient x1="50%" y1="0%" x2="50%" y2="100%" id="linearGradient-3">
            <stop stop-color="#FFFFFF" stop-opacity="0.0707768794" offset="0%"></stop>
            <stop stop-color="#0B1A3F" stop-opacity="0.104731206" offset="100%"></stop>
        </linearGradient>
    </defs>
    <g id="Page-1" stroke="none" stroke-width="1" fill="none" fill-rule="evenodd">
        <g id="Home-Copy-5" transform="translate(-549.000000, -2140.000000)">
            <g id="9_Snazzymaps" transform="translate(549.000000, 2140.000000)">
                <g>
                    <rect id="Rectangle-Copy-71" fill="#92E58D" fill-rule="nonzero" x="0" y="0" width="103" height="103" rx="15"></rect>
                    <g id="Group-6" transform="translate(37.000000, 14.000000)">
                        <g id="Group-3" transform="translate(0.000000, 31.000000)">
                            <g id="Fill-1-Clipped">
                                <mask id="mask-2" fill="white">
                                    <use xlink:href="#path-1"></use>
                                </mask>
                                <g id="path-1"></g>
                                <path d="M14.402212,7.05496552 C11.2083453,7.03568966 8.84387867,9.27131897 8.81526533,12.3369224 C8.786652,15.3791724 11.197132,17.7886552 14.267652,17.7868039 C17.297572,17.7849483 19.825212,15.3346897 19.8424162,12.384 C19.8596253,9.37659483 17.508692,7.07387069 14.402212,7.05496552 M11.4925453,42.8276293 C11.5389453,42.596319 11.5551853,42.3546293 11.6359987,42.135181 C12.5319053,39.7090172 12.2867587,37.3251121 10.9589453,35.1628793 C9.624172,32.9895259 8.065132,30.9359052 6.51575867,28.8919224 C4.58242533,26.3426897 2.61815867,23.8305259 1.32475867,20.8924397 C-1.28601467,14.9628879 0.0174386667,8.39686207 4.75139867,3.98268966 C9.99382533,-0.905224138 18.5476653,-0.944146552 23.8252787,3.9307931 C28.2058253,7.97761207 29.4419987,12.9433707 28.2093053,18.5285517 C26.8830387,24.536319 23.8430653,29.7812069 20.109412,34.6895086 C18.0345587,37.4170431 15.725772,39.9458879 12.9959053,42.0977414 C12.5871987,42.4198707 12.1421453,42.7001121 11.7141053,43 C11.6398653,42.9425431 11.5663987,42.8850862 11.4925453,42.8276293" id="Fill-1" fill="#32BB5F" fill-rule="nonzero" mask="url(#mask-2)"></path>
                            </g>
                        </g>
                        <path d="M23.9239732,32 C17.5896884,28.3877608 11.3837416,28.4058502 5.00680557,31.9928396 C5.00680557,31.5568082 4.99028302,31.230821 5.0087268,30.9070951 C5.25733354,26.6511725 5.51285671,22.39525 5.76146346,18.1393274 C6.0930672,12.4739343 6.42582369,6.80891814 6.74244186,1.14314822 C6.78739857,0.338544071 7.09095241,-0.00741687038 7.9777907,-0.000116630367 C12.3286009,0.0370530545 16.6801796,0.0295157791 21.0313741,0.0053964978 C21.7852635,0.00125099633 22.1380007,0.228876714 22.1787307,1.00031685 C22.3209015,3.66097507 22.508029,6.31899524 22.670949,8.97852287 C22.9818035,14.0473406 23.2884313,19.1165352 23.5939064,24.1857297 C23.7333875,26.5011807 23.8697946,28.8170086 23.9977483,31.1332133 C24.0115811,31.3744061 23.9585553,31.6189907 23.9239732,32" id="Fill-4" fill="#32BB5F" fill-rule="nonzero"></path>
                    </g>
                </g>
                <rect id="Rectangle-Copy-57" fill="url(#linearGradient-3)" opacity="0.610165551" x="0" y="0" width="103" height="103" rx="15"></rect>
            </g>
        </g>
    </g>
</svg>