<?xml version="1.0" encoding="utf-8"?>
<!-- Generator: Adobe Illustrator 21.0.2, SVG Export Plug-In . SVG Version: 6.00 Build 0)  -->
<svg version="1.1" id="Layer_1" xmlns="http://www.w3.org/2000/svg" xmlns:xlink="http://www.w3.org/1999/xlink" x="0px" y="0px"
	 viewBox="0 0 309 28" style="enable-background:new 0 0 309 28;" xml:space="preserve">
<style type="text/css">
	.st0{fill:#F5F7FA;}
	.st1{fill:#323F4A;}
	.st2{fill:#CBD2D9;}
	.st3{enable-background:new    ;}
</style>
<g>
	<path class="st0" d="M8.6,13c-1.6,0-3,1.3-3,3s1.4,3,3,3c1.7,0,3-1.3,3-3S10.3,13,8.6,13z M8.6,13c-1.6,0-3,1.3-3,3s1.4,3,3,3
		c1.7,0,3-1.3,3-3S10.3,13,8.6,13z M8.6,13c-1.6,0-3,1.3-3,3s1.4,3,3,3c1.7,0,3-1.3,3-3S10.3,13,8.6,13z M8.6,13c-1.6,0-3,1.3-3,3
		s1.4,3,3,3c1.7,0,3-1.3,3-3S10.3,13,8.6,13z M8.6,13c-1.6,0-3,1.3-3,3s1.4,3,3,3c1.7,0,3-1.3,3-3S10.3,13,8.6,13z M8.6,13
		c-1.6,0-3,1.3-3,3s1.4,3,3,3c1.7,0,3-1.3,3-3S10.3,13,8.6,13z M-0.6-4.5V28h32.5V-4.5H-0.6z M8.6,23c-3.9,0-7-3.1-7-7s3.1-7,7-7
		s7,3.1,7,7S12.5,23,8.6,23z M29.6,22.5h-10v-4h10V22.5z M29.6,13.5h-10v-4h10V13.5z M29.6,4.5h-28v-4h28V4.5z M8.6,13
		c-1.6,0-3,1.3-3,3s1.4,3,3,3c1.7,0,3-1.3,3-3S10.3,13,8.6,13z M8.6,13c-1.6,0-3,1.3-3,3s1.4,3,3,3c1.7,0,3-1.3,3-3S10.3,13,8.6,13z
		 M8.6,13c-1.6,0-3,1.3-3,3s1.4,3,3,3c1.7,0,3-1.3,3-3S10.3,13,8.6,13z M8.6,13c-1.6,0-3,1.3-3,3s1.4,3,3,3c1.7,0,3-1.3,3-3
		S10.3,13,8.6,13z M8.6,13c-1.6,0-3,1.3-3,3s1.4,3,3,3c1.7,0,3-1.3,3-3S10.3,13,8.6,13z M8.6,13c-1.6,0-3,1.3-3,3s1.4,3,3,3
		c1.7,0,3-1.3,3-3S10.3,13,8.6,13z M8.6,13c-1.6,0-3,1.3-3,3s1.4,3,3,3c1.7,0,3-1.3,3-3S10.3,13,8.6,13z"/>
</g>
<g>
	<rect x="19.6" y="18.5" class="st1" width="10" height="4"/>
</g>
<g>
	<rect x="19.6" y="9.5" class="st1" width="10" height="4"/>
</g>
<g>
	<path class="st1" d="M8.6,9c-3.9,0-7,3.1-7,7s3.1,7,7,7s7-3.1,7-7S12.5,9,8.6,9z M8.6,19c-1.6,0-3-1.3-3-3s1.4-3,3-3
		c1.7,0,3,1.3,3,3C11.6,17.6,10.3,19,8.6,19z"/>
</g>
<g>
	<rect x="1.6" y="0.5" class="st1" width="28" height="4"/>
</g>
<g>
	<rect x="-0.9" y="26.1" class="st0" width="36" height="5"/>
</g>
<g>
	<rect x="31" y="-4.1" class="st0" width="285.8" height="32.6"/>
</g>
<title>Group 5</title>
<desc>Created with Sketch.</desc>
<g id="Line">
	<rect x="45.5" y="3" class="st2" width="2" height="16.5"/>
</g>
<g class="st3">
	<path class="st1" d="M61.4,4.5v-4h17.5v4h-6.4V22h-4.7V4.5H61.4z"/>
</g>
<g class="st3">
</g>
<g class="st3">
	<path class="st1" d="M85.2,0.6v8.1h0.1c0.5-0.9,1.2-1.6,2.1-2c0.8-0.4,1.7-0.6,2.5-0.6c1.1,0,2.1,0.2,2.8,0.5
		c0.7,0.3,1.3,0.7,1.7,1.3c0.4,0.5,0.7,1.2,0.9,2c0.2,0.8,0.3,1.7,0.3,2.6V22h-4.3v-8.8c0-1.3-0.2-2.2-0.6-2.9
		c-0.4-0.6-1.1-0.9-2.1-0.9c-1.2,0-2,0.3-2.5,1c-0.5,0.7-0.8,1.8-0.8,3.4V22h-4.3V0.6H85.2z"/>
</g>
<g class="st3">
</g>
<g class="st3">
	<path class="st1" d="M103.3,18.3c0.6,0.6,1.6,0.9,2.8,0.9c0.9,0,1.6-0.2,2.2-0.6c0.6-0.4,1-0.9,1.1-1.4h3.8c-0.6,1.9-1.5,3.2-2.8,4
		c-1.2,0.8-2.7,1.2-4.5,1.2c-1.2,0-2.3-0.2-3.3-0.6c-1-0.4-1.8-0.9-2.5-1.7c-0.7-0.7-1.2-1.6-1.6-2.6c-0.4-1-0.6-2.1-0.6-3.3
		c0-1.2,0.2-2.2,0.6-3.2c0.4-1,0.9-1.9,1.6-2.6c0.7-0.7,1.5-1.3,2.5-1.7c1-0.4,2-0.6,3.2-0.6c1.3,0,2.5,0.3,3.5,0.8
		c1,0.5,1.8,1.2,2.4,2.1c0.6,0.9,1.1,1.8,1.4,2.9c0.3,1.1,0.4,2.2,0.3,3.5h-11.2C102.3,16.7,102.7,17.7,103.3,18.3z M108.1,10.1
		c-0.5-0.6-1.3-0.8-2.3-0.8c-0.7,0-1.2,0.1-1.7,0.3c-0.5,0.2-0.8,0.5-1.1,0.9s-0.5,0.7-0.6,1.1c-0.1,0.4-0.2,0.7-0.2,1h6.9
		C109,11.5,108.7,10.7,108.1,10.1z"/>
	<path class="st1" d="M134,0.6c1.4,0,2.7,0.2,3.9,0.7c1.2,0.4,2.2,1.1,3.1,2c0.9,0.9,1.5,2,2,3.3c0.5,1.3,0.7,2.9,0.7,4.7
		c0,1.6-0.2,3-0.6,4.3c-0.4,1.3-1,2.5-1.8,3.4c-0.8,1-1.8,1.7-3,2.3c-1.2,0.6-2.6,0.8-4.3,0.8h-9.2V0.6H134z M133.7,18
		c0.7,0,1.3-0.1,2-0.3c0.6-0.2,1.2-0.6,1.7-1.1s0.9-1.2,1.2-2c0.3-0.8,0.4-1.8,0.4-3c0-1.1-0.1-2.1-0.3-2.9s-0.6-1.6-1-2.2
		s-1.1-1.1-1.9-1.4s-1.8-0.5-2.9-0.5h-3.4V18H133.7z"/>
	<path class="st1" d="M151.1,18.3c0.6,0.6,1.6,0.9,2.8,0.9c0.9,0,1.6-0.2,2.2-0.6c0.6-0.4,1-0.9,1.1-1.4h3.8c-0.6,1.9-1.5,3.2-2.8,4
		s-2.7,1.2-4.5,1.2c-1.2,0-2.3-0.2-3.3-0.6c-1-0.4-1.8-0.9-2.5-1.7c-0.7-0.7-1.2-1.6-1.6-2.6c-0.4-1-0.6-2.1-0.6-3.3
		c0-1.2,0.2-2.2,0.6-3.2c0.4-1,0.9-1.9,1.6-2.6c0.7-0.7,1.5-1.3,2.5-1.7c1-0.4,2-0.6,3.2-0.6c1.3,0,2.5,0.3,3.4,0.8
		c1,0.5,1.8,1.2,2.4,2.1c0.6,0.9,1.1,1.8,1.4,2.9c0.3,1.1,0.4,2.2,0.3,3.5h-11.2C150.1,16.7,150.5,17.7,151.1,18.3z M155.9,10.1
		c-0.5-0.6-1.3-0.8-2.3-0.8c-0.7,0-1.2,0.1-1.7,0.3c-0.5,0.2-0.8,0.5-1.1,0.9s-0.5,0.7-0.6,1.1c-0.1,0.4-0.2,0.7-0.2,1h6.9
		C156.8,11.5,156.4,10.7,155.9,10.1z"/>
	<path class="st1" d="M167.4,18.1c0.2,0.3,0.4,0.6,0.7,0.8s0.6,0.4,1,0.5c0.4,0.1,0.8,0.2,1.2,0.2c0.3,0,0.6,0,0.9-0.1
		c0.3-0.1,0.6-0.2,0.9-0.3c0.3-0.1,0.5-0.3,0.7-0.6c0.2-0.2,0.3-0.6,0.3-0.9c0-0.6-0.4-1.1-1.3-1.4c-0.9-0.3-2-0.6-3.6-1
		c-0.6-0.1-1.2-0.3-1.8-0.5s-1.1-0.4-1.6-0.8c-0.5-0.3-0.8-0.7-1.1-1.2c-0.3-0.5-0.4-1-0.4-1.7c0-1,0.2-1.8,0.6-2.5
		c0.4-0.6,0.9-1.1,1.5-1.5c0.6-0.4,1.4-0.6,2.2-0.8c0.8-0.2,1.6-0.2,2.5-0.2s1.7,0.1,2.4,0.2c0.8,0.2,1.5,0.4,2.1,0.8
		s1.1,0.9,1.5,1.5s0.7,1.4,0.7,2.4h-4c-0.1-0.8-0.4-1.4-0.9-1.7c-0.6-0.3-1.2-0.4-2-0.4c-0.2,0-0.5,0-0.8,0s-0.5,0.1-0.8,0.2
		c-0.2,0.1-0.4,0.2-0.6,0.4c-0.2,0.2-0.2,0.4-0.2,0.8c0,0.4,0.1,0.7,0.4,0.9s0.6,0.4,1.1,0.6c0.5,0.2,1,0.3,1.5,0.4s1.2,0.2,1.8,0.4
		c0.6,0.1,1.2,0.3,1.8,0.5c0.6,0.2,1.1,0.5,1.6,0.8s0.8,0.7,1.1,1.2c0.3,0.5,0.4,1.1,0.4,1.8c0,1-0.2,1.9-0.6,2.6s-0.9,1.2-1.6,1.7
		s-1.4,0.7-2.3,0.9c-0.8,0.2-1.7,0.3-2.6,0.3c-0.9,0-1.8-0.1-2.6-0.3c-0.9-0.2-1.6-0.5-2.3-0.9c-0.7-0.4-1.2-1-1.7-1.7
		c-0.4-0.7-0.7-1.6-0.7-2.6h4C167.1,17.4,167.2,17.8,167.4,18.1z"/>
	<path class="st1" d="M180,4.1V0.6h4.3v3.5H180z M184.3,6.5V22H180V6.5H184.3z"/>
	<path class="st1" d="M202.3,23.1c-0.2,0.8-0.5,1.5-1.1,2.2c-0.6,0.7-1.4,1.3-2.4,1.8c-1.1,0.5-2.5,0.7-4.3,0.7
		c-0.8,0-1.5-0.1-2.3-0.3c-0.8-0.2-1.5-0.5-2.2-0.9c-0.6-0.4-1.2-0.9-1.6-1.5c-0.4-0.6-0.7-1.4-0.7-2.3h4.2c0.2,0.8,0.6,1.4,1.2,1.7
		c0.6,0.3,1.2,0.5,2,0.5c1.2,0,2.1-0.4,2.6-1.1c0.5-0.7,0.8-1.6,0.8-2.7v-2h-0.1c-0.5,0.8-1.1,1.4-2,1.8c-0.9,0.4-1.7,0.6-2.7,0.6
		c-1.2,0-2.2-0.2-3-0.6c-0.8-0.4-1.5-1-2.1-1.7s-0.9-1.5-1.2-2.5c-0.3-0.9-0.4-2-0.4-3c0-1,0.1-2,0.4-2.9c0.3-0.9,0.7-1.8,1.3-2.5
		c0.6-0.7,1.3-1.3,2.1-1.7c0.8-0.4,1.8-0.6,2.9-0.6c1,0,1.9,0.2,2.7,0.6c0.8,0.4,1.4,1,1.9,1.9h0.1V6.5h4V21
		C202.5,21.6,202.5,22.3,202.3,23.1z M196.4,18c0.5-0.2,0.8-0.6,1.1-1c0.3-0.4,0.5-0.9,0.7-1.4c0.2-0.5,0.2-1,0.2-1.6
		c0-0.6-0.1-1.2-0.2-1.8c-0.1-0.6-0.3-1.1-0.6-1.5c-0.3-0.4-0.7-0.8-1.1-1s-1-0.4-1.7-0.4c-0.6,0-1.1,0.1-1.5,0.4
		c-0.4,0.2-0.8,0.6-1.1,1c-0.3,0.4-0.5,0.9-0.6,1.4c-0.1,0.5-0.2,1.1-0.2,1.7c0,0.6,0.1,1.1,0.2,1.7c0.1,0.5,0.3,1,0.6,1.5
		c0.3,0.4,0.6,0.8,1.1,1.1c0.4,0.3,1,0.4,1.7,0.4C195.5,18.3,196,18.2,196.4,18z"/>
	<path class="st1" d="M210,6.5v2.2h0.1c0.5-0.9,1.2-1.6,2.1-2c0.9-0.4,1.7-0.6,2.6-0.6c1.1,0,2.1,0.2,2.8,0.5
		c0.7,0.3,1.3,0.7,1.7,1.3c0.4,0.5,0.7,1.2,0.9,2c0.2,0.8,0.3,1.7,0.3,2.6V22h-4.3v-8.8c0-1.3-0.2-2.2-0.6-2.9s-1.1-0.9-2.1-0.9
		c-1.2,0-2,0.3-2.5,1c-0.5,0.7-0.8,1.8-0.8,3.4V22H206V6.5H210z"/>
	<path class="st1" d="M237.2,0.6V22h-4.7V0.6H237.2z"/>
	<path class="st1" d="M245,6.5v2.2h0.1c0.5-0.9,1.2-1.6,2.1-2c0.9-0.4,1.7-0.6,2.6-0.6c1.1,0,2.1,0.2,2.8,0.5
		c0.7,0.3,1.3,0.7,1.7,1.3c0.4,0.5,0.7,1.2,0.9,2c0.2,0.8,0.3,1.7,0.3,2.6V22h-4.3v-8.8c0-1.3-0.2-2.2-0.6-2.9s-1.1-0.9-2.1-0.9
		c-1.2,0-2,0.3-2.5,1c-0.5,0.7-0.8,1.8-0.8,3.4V22h-4.3V6.5H245z"/>
	<path class="st1" d="M269.7,20c-0.5,0.8-1.2,1.4-2,1.8c-0.8,0.4-1.7,0.6-2.7,0.6c-1.2,0-2.2-0.2-3.1-0.7c-0.9-0.5-1.6-1.1-2.2-1.8
		c-0.6-0.8-1-1.7-1.3-2.7c-0.3-1-0.4-2-0.4-3.1c0-1,0.1-2,0.4-3c0.3-1,0.7-1.8,1.3-2.6c0.6-0.7,1.3-1.3,2.1-1.8
		c0.9-0.5,1.9-0.7,3-0.7c0.9,0,1.8,0.2,2.6,0.6c0.8,0.4,1.5,1,2,1.7h0.1V0.6h4.3V22h-4L269.7,20L269.7,20z M269.6,12.4
		c-0.1-0.6-0.3-1.1-0.6-1.6s-0.7-0.8-1.1-1.1s-1-0.4-1.7-0.4c-0.7,0-1.3,0.1-1.8,0.4c-0.5,0.3-0.9,0.7-1.2,1.1
		c-0.3,0.5-0.5,1-0.6,1.6c-0.1,0.6-0.2,1.2-0.2,1.8c0,0.6,0.1,1.2,0.2,1.8c0.1,0.6,0.4,1.1,0.7,1.6c0.3,0.5,0.7,0.9,1.2,1.1
		c0.5,0.3,1,0.4,1.7,0.4c0.7,0,1.3-0.1,1.8-0.4c0.5-0.3,0.8-0.7,1.1-1.1c0.3-0.5,0.5-1,0.6-1.6c0.1-0.6,0.2-1.2,0.2-1.9
		S269.7,12.9,269.6,12.4z"/>
	<path class="st1" d="M281.6,18.3c0.6,0.6,1.6,0.9,2.8,0.9c0.9,0,1.6-0.2,2.2-0.6c0.6-0.4,1-0.9,1.1-1.4h3.8c-0.6,1.9-1.5,3.2-2.8,4
		s-2.7,1.2-4.5,1.2c-1.2,0-2.3-0.2-3.3-0.6c-1-0.4-1.8-0.9-2.5-1.7c-0.7-0.7-1.2-1.6-1.6-2.6c-0.4-1-0.6-2.1-0.6-3.3
		c0-1.2,0.2-2.2,0.6-3.2c0.4-1,0.9-1.9,1.6-2.6c0.7-0.7,1.5-1.3,2.5-1.7c1-0.4,2-0.6,3.2-0.6c1.3,0,2.5,0.3,3.5,0.8
		c1,0.5,1.8,1.2,2.4,2.1c0.6,0.9,1.1,1.8,1.4,2.9c0.3,1.1,0.4,2.2,0.3,3.5h-11.2C280.6,16.7,281,17.7,281.6,18.3z M286.4,10.1
		c-0.5-0.6-1.3-0.8-2.3-0.8c-0.7,0-1.2,0.1-1.7,0.3c-0.5,0.2-0.8,0.5-1.1,0.9c-0.3,0.3-0.5,0.7-0.6,1.1c-0.1,0.4-0.2,0.7-0.2,1h6.9
		C287.3,11.5,286.9,10.7,286.4,10.1z"/>
	<path class="st1" d="M293.1,6.5h4.9l2.7,4l2.7-4h4.7l-5.1,7.3l5.7,8.2h-4.9l-3.2-4.9l-3.2,4.9h-4.8l5.6-8.2L293.1,6.5z"/>
</g>
</svg>
