<?xml version="1.0" encoding="utf-8"?>
<!-- Generator: Adobe Illustrator 21.0.2, SVG Export Plug-In . SVG Version: 6.00 Build 0)  -->
<svg version="1.1" id="Layer_1" xmlns="http://www.w3.org/2000/svg" xmlns:xlink="http://www.w3.org/1999/xlink" x="0px" y="0px"
	 viewBox="0 0 309 28" style="enable-background:new 0 0 309 28;" xml:space="preserve">
<style type="text/css">
	.st0{fill:#F5F7FA;}
	.st1{fill:#323F4A;}
	.st2{fill:none;stroke:#CBD2D9;stroke-width:2;stroke-linecap:square;}
	.st3{font-family:'HelveticaNeue-Bold';}
	.st4{font-size:30px;}
</style>
<path class="st0" d="M8.6,13c-1.6,0-3,1.3-3,3c0,1.7,1.4,3,3,3c1.7,0,3-1.3,3-3C11.6,14.3,10.3,13,8.6,13z M8.6,13c-1.6,0-3,1.3-3,3
	c0,1.7,1.4,3,3,3c1.7,0,3-1.3,3-3C11.6,14.3,10.3,13,8.6,13z M8.6,13c-1.6,0-3,1.3-3,3c0,1.7,1.4,3,3,3c1.7,0,3-1.3,3-3
	C11.6,14.3,10.3,13,8.6,13z M8.6,13c-1.6,0-3,1.3-3,3c0,1.7,1.4,3,3,3c1.7,0,3-1.3,3-3C11.6,14.3,10.3,13,8.6,13z M8.6,13
	c-1.6,0-3,1.3-3,3c0,1.7,1.4,3,3,3c1.7,0,3-1.3,3-3C11.6,14.3,10.3,13,8.6,13z M8.6,13c-1.6,0-3,1.3-3,3c0,1.7,1.4,3,3,3
	c1.7,0,3-1.3,3-3C11.6,14.3,10.3,13,8.6,13z M-0.6-4.5V28h32.5V-4.5H-0.6z M8.6,23c-3.9,0-7-3.1-7-7s3.1-7,7-7s7,3.1,7,7
	S12.5,23,8.6,23z M29.6,22.5h-10v-4h10V22.5z M29.6,13.5h-10v-4h10V13.5z M29.6,4.5h-28v-4h28V4.5z M8.6,13c-1.6,0-3,1.3-3,3
	c0,1.7,1.4,3,3,3c1.7,0,3-1.3,3-3C11.6,14.3,10.3,13,8.6,13z M8.6,13c-1.6,0-3,1.3-3,3c0,1.7,1.4,3,3,3c1.7,0,3-1.3,3-3
	C11.6,14.3,10.3,13,8.6,13z M8.6,13c-1.6,0-3,1.3-3,3c0,1.7,1.4,3,3,3c1.7,0,3-1.3,3-3C11.6,14.3,10.3,13,8.6,13z M8.6,13
	c-1.6,0-3,1.3-3,3c0,1.7,1.4,3,3,3c1.7,0,3-1.3,3-3C11.6,14.3,10.3,13,8.6,13z M8.6,13c-1.6,0-3,1.3-3,3c0,1.7,1.4,3,3,3
	c1.7,0,3-1.3,3-3C11.6,14.3,10.3,13,8.6,13z M8.6,13c-1.6,0-3,1.3-3,3c0,1.7,1.4,3,3,3c1.7,0,3-1.3,3-3C11.6,14.3,10.3,13,8.6,13z
	 M8.6,13c-1.6,0-3,1.3-3,3c0,1.7,1.4,3,3,3c1.7,0,3-1.3,3-3C11.6,14.3,10.3,13,8.6,13z"/>
<rect x="19.6" y="18.5" class="st1" width="10" height="4"/>
<rect x="19.6" y="9.5" class="st1" width="10" height="4"/>
<path class="st1" d="M8.6,9c-3.9,0-7,3.1-7,7s3.1,7,7,7s7-3.1,7-7S12.5,9,8.6,9z M8.6,19c-1.6,0-3-1.3-3-3c0-1.7,1.4-3,3-3
	c1.7,0,3,1.3,3,3C11.6,17.6,10.3,19,8.6,19z"/>
<rect x="1.6" y="0.5" class="st1" width="28" height="4"/>
<rect x="-0.9" y="26.1" class="st0" width="36" height="5"/>
<rect x="31" y="-4.1" class="st0" width="285.8" height="32.6"/>
<title>Group 5</title>
<desc>Created with Sketch.</desc>
<path id="Line" class="st2" d="M46.5,18.5V4"/>
<text transform="matrix(1 0 0 1 61 22)" class="st1 st3 st4">T</text>
<text transform="matrix(1 0 0 1 79.3219 22)" class="st1 st3 st4"> </text>
<text transform="matrix(1 0 0 1 79.3221 22)" class="st1 st3 st4">h</text>
<text transform="matrix(1 0 0 1 97.1489 22)" class="st1 st3 st4"> </text>
<text transform="matrix(1 0 0 1 97.1493 22)" class="st1 st3 st4">e Design Index</text>
</svg>
