<svg xmlns="http://www.w3.org/2000/svg" xmlns:xlink="http://www.w3.org/1999/xlink" viewBox="0 0 110.89 110.89"><defs><style>.cls-1{isolation:isolate;}.cls-2{fill:#3cd5ae;}.cls-12,.cls-2,.cls-3,.cls-4,.cls-5,.cls-6,.cls-7,.cls-8,.cls-9{mix-blend-mode:soft-light;}.cls-3{fill:#fd756d;}.cls-4{fill:#fdcc52;}.cls-5{fill:#9b74ff;}.cls-6{fill:#91e48e;}.cls-7{fill:#fb82ce;}.cls-8{fill:#feaa51;}.cls-9{fill:#76bafd;}.cls-10{fill:#293b42;}.cls-11{fill:none;stroke:#323f4a;stroke-linecap:round;stroke-linejoin:round;stroke-width:2px;}.cls-12{opacity:0.3;fill:url(#linear-gradient);}</style><linearGradient id="linear-gradient" x1="55.45" x2="55.45" y2="110.89" gradientUnits="userSpaceOnUse"><stop offset="0" stop-color="#fff"/><stop offset="1"/></linearGradient></defs><title>Asset 1</title><g class="cls-1"><g id="Layer_2" data-name="Layer 2"><g id="Layer_1-2" data-name="Layer 1"><circle class="cls-2" cx="55.45" cy="29.32" r="29.32"/><circle class="cls-3" cx="55.45" cy="81.58" r="29.32"/><circle class="cls-4" cx="81.58" cy="55.45" r="29.32"/><circle class="cls-5" cx="29.32" cy="55.45" r="29.32"/><circle class="cls-6" cx="73.92" cy="36.97" r="29.32" transform="translate(-4.49 63.1) rotate(-45)"/><circle class="cls-7" cx="36.97" cy="73.92" r="29.32" transform="translate(-41.44 47.79) rotate(-45)"/><circle class="cls-8" cx="73.92" cy="73.92" r="29.32" transform="translate(-30.62 73.92) rotate(-45)"/><circle class="cls-9" cx="36.97" cy="36.97" r="29.32" transform="translate(-15.31 36.97) rotate(-45)"/><path class="cls-10" d="M68.19,64.16a1.36,1.36,0,0,1-.8,1.37,1.44,1.44,0,0,1-1.61-.06,13.43,13.43,0,0,0-8.61-2.41,21.84,21.84,0,0,0-7.91,1.74,30.78,30.78,0,0,0-5.56,3l1.65,1.67a1.71,1.71,0,0,1,.19,2.61L44.9,73a3.45,3.45,0,0,0,.21.3c1.29,1.6,2.58,3.2,3.89,4.8a1.5,1.5,0,0,1-.41,2.56c-.65.4-1.3.81-2,1.21a1.43,1.43,0,0,1-2.07-.34q-3.47-4.29-6.92-8.6A1.1,1.1,0,0,0,36,72.54l0,0c-1.84,1.44-3.74,1.1-5.64.19a7.68,7.68,0,0,1-3.59-10A3.39,3.39,0,0,1,28,61.3c3.73-2.31,7.5-4.54,11.14-7a21.92,21.92,0,0,0,8.17-9.6,14.39,14.39,0,0,0,1.19-5.83,9.87,9.87,0,0,0-.15-1.2,1.59,1.59,0,0,1,3-1.15l5,8.06.2.35A10.93,10.93,0,0,1,58,44.65a2.62,2.62,0,0,1,2.52,1.24c1,1.62,2,3.25,3,4.9.78,1.31.46,2.63-.9,3.84l1.53,2.49c1.22,2,2.45,3.91,3.64,5.89A2.68,2.68,0,0,1,68.19,64.16Z"/><line class="cls-11" x1="60.64" y1="37.01" x2="62.89" y2="23.76"/><line class="cls-11" x1="71.43" y1="54.44" x2="84.68" y2="56.69"/><line class="cls-11" x1="67.48" y1="44.67" x2="75.51" y2="40.18"/><path class="cls-12" d="M103.21,75.23a29.31,29.31,0,0,0,0-39.57,29.31,29.31,0,0,0-28-28,29.31,29.31,0,0,0-39.57,0,29.31,29.31,0,0,0-28,28,29.31,29.31,0,0,0,0,39.57,29.31,29.31,0,0,0,28,28,29.31,29.31,0,0,0,39.57,0,29.31,29.31,0,0,0,28-28Z"/></g></g></g></svg>