<?xml version="1.0" encoding="utf-8"?>
<!-- Generator: Adobe Illustrator 21.0.2, SVG Export Plug-In . SVG Version: 6.00 Build 0)  -->
<svg version="1.1" id="Layer_1" xmlns="http://www.w3.org/2000/svg" xmlns:xlink="http://www.w3.org/1999/xlink" x="0px" y="0px"
	 viewBox="0 0 115 119.8" style="enable-background:new 0 0 115 119.8;" xml:space="preserve">
<style type="text/css">
	.st0{fill:#93E2F4;}
	.st1{fill:#76BAFD;}
	.st2{fill:#4BDCBE;}
	.st3{fill:#FFFFFF;}
	.st4{fill:none;stroke:#323F4A;stroke-width:4;}
</style>
<g transform="translate(300,300)">
	<path class="st0" d="M-242-263c9.9,6.6,21.7,17.3,21.1,27.1c-0.7,9.8-13.9,18.7-28,25.3c-14.1,6.6-29,10.8-37.7,5.4
		c-8.6-5.5-11-20.6-10.6-32.5c0.4-11.9,3.6-20.4,9-26c5.4-5.6,13.1-8.1,20.8-8.2C-259.7-272.1-251.8-269.6-242-263z"/>
</g>
<g transform="translate(300,300)">
	<path class="st1" d="M-194.7-232c4.8,5.7,7.8,13.2,6.6,20.5c-1.2,7.2-6.5,14.1-14.7,19.9c-8.2,5.8-19.2,10.6-29.3,7.8
		c-10.1-2.7-19.3-12.9-21.4-24.2c-2.1-11.3,2.7-23.6,10.6-30c7.9-6.4,18.9-6.7,27.7-5C-206.3-241.4-199.5-237.6-194.7-232z"/>
</g>
<g transform="translate(300,300)">
	<path class="st2" d="M-192.1-284.7c3.4,7.9-1.5,18.7-4,30.1c-2.5,11.4-2.7,23.5-8.6,27.9c-5.9,4.4-17.4,1.1-27.6-4.1
		c-10.2-5.2-19.2-12.4-22.4-22c-3.1-9.7-0.5-21.8,6.5-30.5c7-8.7,18.2-13.9,29.7-14C-207.1-297.5-195.4-292.5-192.1-284.7z"/>
</g>
<g>
	<polygon id="path-1" class="st3" points="44,51 72,51 72,52 44,52 	"/>
</g>
<title>Group 5</title>
<desc>Created with Sketch.</desc>
<g id="Group-2" transform="translate(0.000000, 9.000000)">
	<g id="Clip-2">
	</g>
	<path id="Stroke-1" class="st4" d="M72,41.5H44"/>
	<path id="Stroke-4" class="st4" d="M72,50.5H62"/>
	<path id="Stroke-6" class="st4" d="M72,59.5H62"/>
	<path id="Stroke-8" class="st4" d="M56,55c0-2.8-2.2-5-5-5s-5,2.2-5,5s2.2,5,5,5S56,57.8,56,55z"/>
</g>
<image style="overflow:visible;" width="1000" height="793" xlink:href="preview.jpg"  transform="matrix(0.3285 0 0 0.3285 122.1667 -96.9016)">
</image>
</svg>
