<?xml version="1.0" encoding="utf-8"?>
<!-- Generator: Adobe Illustrator 21.0.2, SVG Export Plug-In . SVG Version: 6.00 Build 0)  -->
<svg version="1.1" id="Layer_1" xmlns="http://www.w3.org/2000/svg" xmlns:xlink="http://www.w3.org/1999/xlink" x="0px" y="0px"
	 viewBox="0 0 19 19" style="enable-background:new 0 0 19 19;" xml:space="preserve">
<style type="text/css">
	.st0{fill:#DFE4E8;}
</style>
<title>Group</title>
<desc>Created with Sketch.</desc>
<path class="st0" d="M17.6,6.7c0,1.1-0.4,2.3-1.3,3.2l-6.5,6.4c-0.2,0.2-0.5,0.2-0.7,0L2.7,9.7C1,8,1,5.2,2.7,3.5
	c0.9-0.9,2-1.3,3.2-1.3c1.1,0,2.3,0.4,3.2,1.3l0.6,0.6L10,3.5c1.7-1.7,4.6-1.7,6.2,0C17.1,4.4,17.6,5.5,17.6,6.7z"/>
<text transform="matrix(1 0 0 1 -45 9.5003)" style="font-family:'MyriadPro-Regular'; font-size:12px;">C5CCD2</text>
</svg>
