<svg width="98" height="91" viewBox="0 0 98 91" fill="none" xmlns="http://www.w3.org/2000/svg">
<path d="M6.81 4.54V22H11.52V4.54H17.94V0.579999H0.39V4.54H6.81ZM19.952 0.579999V22H24.212V13.87C24.212 12.29 24.472 11.16 24.992 10.48C25.512 9.78 26.352 9.43 27.512 9.43C28.532 9.43 29.242 9.75 29.642 10.39C30.042 11.01 30.242 11.96 30.242 13.24V22H34.502V12.46C34.502 11.5 34.412 10.63 34.232 9.85C34.072 9.05 33.782 8.38 33.362 7.84C32.942 7.28 32.362 6.85 31.622 6.55C30.902 6.23 29.972 6.07 28.832 6.07C28.032 6.07 27.212 6.28 26.372 6.7C25.532 7.1 24.842 7.75 24.302 8.65H24.212V0.579999H19.952ZM48.2123 12.58H41.2823C41.3023 12.28 41.3623 11.94 41.4623 11.56C41.5823 11.18 41.7723 10.82 42.0323 10.48C42.3123 10.14 42.6723 9.86 43.1123 9.64C43.5723 9.4 44.1423 9.28 44.8223 9.28C45.8623 9.28 46.6323 9.56 47.1323 10.12C47.6523 10.68 48.0123 11.5 48.2123 12.58ZM41.2823 15.28H52.4723C52.5523 14.08 52.4523 12.93 52.1723 11.83C51.8923 10.73 51.4323 9.75 50.7923 8.89C50.1723 8.03 49.3723 7.35 48.3923 6.85C47.4123 6.33 46.2623 6.07 44.9423 6.07C43.7623 6.07 42.6823 6.28 41.7023 6.7C40.7423 7.12 39.9123 7.7 39.2123 8.44C38.5123 9.16 37.9723 10.02 37.5923 11.02C37.2123 12.02 37.0223 13.1 37.0223 14.26C37.0223 15.46 37.2023 16.56 37.5623 17.56C37.9423 18.56 38.4723 19.42 39.1523 20.14C39.8323 20.86 40.6623 21.42 41.6423 21.82C42.6223 22.2 43.7223 22.39 44.9423 22.39C46.7023 22.39 48.2023 21.99 49.4423 21.19C50.6823 20.39 51.6023 19.06 52.2023 17.2H48.4523C48.3123 17.68 47.9323 18.14 47.3123 18.58C46.6923 19 45.9523 19.21 45.0923 19.21C43.8923 19.21 42.9723 18.9 42.3323 18.28C41.6923 17.66 41.3423 16.66 41.2823 15.28ZM6.78 52.04V38.54H10.14C11.3 38.54 12.27 38.71 13.05 39.05C13.85 39.37 14.49 39.84 14.97 40.46C15.45 41.08 15.79 41.83 15.99 42.71C16.21 43.57 16.32 44.54 16.32 45.62C16.32 46.8 16.17 47.8 15.87 48.62C15.57 49.44 15.17 50.11 14.67 50.63C14.17 51.13 13.6 51.49 12.96 51.71C12.32 51.93 11.66 52.04 10.98 52.04H6.78ZM2.07 34.58V56H11.31C12.95 56 14.37 55.73 15.57 55.19C16.79 54.63 17.8 53.87 18.6 52.91C19.42 51.95 20.03 50.81 20.43 49.49C20.83 48.17 21.03 46.73 21.03 45.17C21.03 43.39 20.78 41.84 20.28 40.52C19.8 39.2 19.12 38.1 18.24 37.22C17.38 36.34 16.35 35.68 15.15 35.24C13.97 34.8 12.69 34.58 11.31 34.58H2.07ZM34.2885 46.58H27.3585C27.3785 46.28 27.4385 45.94 27.5385 45.56C27.6585 45.18 27.8485 44.82 28.1085 44.48C28.3885 44.14 28.7485 43.86 29.1885 43.64C29.6485 43.4 30.2185 43.28 30.8985 43.28C31.9385 43.28 32.7085 43.56 33.2085 44.12C33.7285 44.68 34.0885 45.5 34.2885 46.58ZM27.3585 49.28H38.5485C38.6285 48.08 38.5285 46.93 38.2485 45.83C37.9685 44.73 37.5085 43.75 36.8685 42.89C36.2485 42.03 35.4485 41.35 34.4685 40.85C33.4885 40.33 32.3385 40.07 31.0185 40.07C29.8385 40.07 28.7585 40.28 27.7785 40.7C26.8185 41.12 25.9885 41.7 25.2885 42.44C24.5885 43.16 24.0485 44.02 23.6685 45.02C23.2885 46.02 23.0985 47.1 23.0985 48.26C23.0985 49.46 23.2785 50.56 23.6385 51.56C24.0185 52.56 24.5485 53.42 25.2285 54.14C25.9085 54.86 26.7385 55.42 27.7185 55.82C28.6985 56.2 29.7985 56.39 31.0185 56.39C32.7785 56.39 34.2785 55.99 35.5185 55.19C36.7585 54.39 37.6785 53.06 38.2785 51.2H34.5285C34.3885 51.68 34.0085 52.14 33.3885 52.58C32.7685 53 32.0285 53.21 31.1685 53.21C29.9685 53.21 29.0485 52.9 28.4085 52.28C27.7685 51.66 27.4185 50.66 27.3585 49.28ZM44.3672 50.96H40.3172C40.3572 52 40.5872 52.87 41.0072 53.57C41.4472 54.25 41.9972 54.8 42.6572 55.22C43.3372 55.64 44.1072 55.94 44.9672 56.12C45.8272 56.3 46.7072 56.39 47.6072 56.39C48.4872 56.39 49.3472 56.3 50.1872 56.12C51.0472 55.96 51.8072 55.67 52.4672 55.25C53.1272 54.83 53.6572 54.28 54.0572 53.6C54.4772 52.9 54.6872 52.04 54.6872 51.02C54.6872 50.3 54.5472 49.7 54.2672 49.22C53.9872 48.72 53.6172 48.31 53.1572 47.99C52.6972 47.65 52.1672 47.38 51.5672 47.18C50.9872 46.98 50.3872 46.81 49.7672 46.67C49.1672 46.53 48.5772 46.4 47.9972 46.28C47.4172 46.16 46.8972 46.03 46.4372 45.89C45.9972 45.73 45.6372 45.53 45.3572 45.29C45.0772 45.05 44.9372 44.74 44.9372 44.36C44.9372 44.04 45.0172 43.79 45.1772 43.61C45.3372 43.41 45.5272 43.26 45.7472 43.16C45.9872 43.06 46.2472 43 46.5272 42.98C46.8072 42.94 47.0672 42.92 47.3072 42.92C48.0672 42.92 48.7272 43.07 49.2872 43.37C49.8472 43.65 50.1572 44.2 50.2172 45.02H54.2672C54.1872 44.06 53.9372 43.27 53.5172 42.65C53.1172 42.01 52.6072 41.5 51.9872 41.12C51.3672 40.74 50.6572 40.47 49.8572 40.31C49.0772 40.15 48.2672 40.07 47.4272 40.07C46.5872 40.07 45.7672 40.15 44.9672 40.31C44.1672 40.45 43.4472 40.71 42.8072 41.09C42.1672 41.45 41.6472 41.95 41.2472 42.59C40.8672 43.23 40.6772 44.05 40.6772 45.05C40.6772 45.73 40.8172 46.31 41.0972 46.79C41.3772 47.25 41.7472 47.64 42.2072 47.96C42.6672 48.26 43.1872 48.51 43.7672 48.71C44.3672 48.89 44.9772 49.05 45.5972 49.19C47.1172 49.51 48.2972 49.83 49.1372 50.15C49.9972 50.47 50.4272 50.95 50.4272 51.59C50.4272 51.97 50.3372 52.29 50.1572 52.55C49.9772 52.79 49.7472 52.99 49.4672 53.15C49.2072 53.29 48.9072 53.4 48.5672 53.48C48.2472 53.54 47.9372 53.57 47.6372 53.57C47.2172 53.57 46.8072 53.52 46.4072 53.42C46.0272 53.32 45.6872 53.17 45.3872 52.97C45.0872 52.75 44.8372 52.48 44.6372 52.16C44.4572 51.82 44.3672 51.42 44.3672 50.96ZM61.5526 38.09V34.58H57.2926V38.09H61.5526ZM57.2926 40.49V56H61.5526V40.49H57.2926ZM72.1291 52.34C71.4691 52.34 70.9191 52.2 70.4791 51.92C70.0391 51.64 69.6791 51.28 69.3991 50.84C69.1391 50.4 68.9491 49.91 68.8291 49.37C68.7291 48.81 68.6791 48.25 68.6791 47.69C68.6791 47.11 68.7391 46.56 68.8591 46.04C68.9991 45.5 69.2091 45.03 69.4891 44.63C69.7891 44.21 70.1491 43.88 70.5691 43.64C71.0091 43.4 71.5291 43.28 72.1291 43.28C72.8291 43.28 73.4091 43.41 73.8691 43.67C74.3291 43.93 74.6991 44.28 74.9791 44.72C75.2591 45.16 75.4591 45.67 75.5791 46.25C75.6991 46.81 75.7591 47.41 75.7591 48.05C75.7591 48.61 75.6791 49.15 75.5191 49.67C75.3791 50.17 75.1591 50.62 74.8591 51.02C74.5591 51.42 74.1791 51.74 73.7191 51.98C73.2591 52.22 72.7291 52.34 72.1291 52.34ZM79.8091 55.01V40.49H75.7591V42.56H75.6991C75.1791 41.66 74.5291 41.02 73.7491 40.64C72.9891 40.26 72.0991 40.07 71.0791 40.07C69.9991 40.07 69.0391 40.28 68.1991 40.7C67.3791 41.12 66.6891 41.69 66.1291 42.41C65.5691 43.11 65.1391 43.93 64.8391 44.87C64.5591 45.79 64.4191 46.75 64.4191 47.75C64.4191 48.81 64.5391 49.82 64.7791 50.78C65.0391 51.72 65.4391 52.55 65.9791 53.27C66.5191 53.97 67.2091 54.53 68.0491 54.95C68.8891 55.35 69.8891 55.55 71.0491 55.55C71.9891 55.55 72.8791 55.36 73.7191 54.98C74.5791 54.58 75.2391 53.97 75.6991 53.15H75.7591V55.19C75.7791 56.29 75.5091 57.2 74.9491 57.92C74.4091 58.64 73.5391 59 72.3391 59C71.5791 59 70.9091 58.84 70.3291 58.52C69.7491 58.22 69.3591 57.67 69.1591 56.87H64.9291C64.9891 57.75 65.2291 58.5 65.6491 59.12C66.0891 59.76 66.6291 60.28 67.2691 60.68C67.9291 61.08 68.6491 61.37 69.4291 61.55C70.2291 61.75 71.0091 61.85 71.7691 61.85C73.5491 61.85 74.9691 61.61 76.0291 61.13C77.0891 60.65 77.8991 60.06 78.4591 59.36C79.0191 58.68 79.3791 57.94 79.5391 57.14C79.7191 56.34 79.8091 55.63 79.8091 55.01ZM83.231 40.49V56H87.491V47.87C87.491 46.29 87.751 45.16 88.271 44.48C88.791 43.78 89.631 43.43 90.791 43.43C91.811 43.43 92.521 43.75 92.921 44.39C93.321 45.01 93.521 45.96 93.521 47.24V56H97.781V46.46C97.781 45.5 97.691 44.63 97.511 43.85C97.351 43.05 97.061 42.38 96.641 41.84C96.221 41.28 95.641 40.85 94.901 40.55C94.181 40.23 93.251 40.07 92.111 40.07C91.211 40.07 90.331 40.28 89.471 40.7C88.611 41.1 87.911 41.75 87.371 42.65H87.281V40.49H83.231ZM2.07 68.58V90H6.78V68.58H2.07ZM10.4598 74.49V90H14.7198V81.87C14.7198 80.29 14.9798 79.16 15.4998 78.48C16.0198 77.78 16.8598 77.43 18.0198 77.43C19.0398 77.43 19.7498 77.75 20.1498 78.39C20.5498 79.01 20.7498 79.96 20.7498 81.24V90H25.0098V80.46C25.0098 79.5 24.9198 78.63 24.7398 77.85C24.5798 77.05 24.2898 76.38 23.8698 75.84C23.4498 75.28 22.8698 74.85 22.1298 74.55C21.4098 74.23 20.4798 74.07 19.3398 74.07C18.4398 74.07 17.5598 74.28 16.6998 74.7C15.8398 75.1 15.1398 75.75 14.5998 76.65H14.5098V74.49H10.4598ZM39.2451 82.2C39.2451 82.84 39.1851 83.46 39.0651 84.06C38.9451 84.66 38.7451 85.2 38.4651 85.68C38.1851 86.14 37.8051 86.51 37.3251 86.79C36.8651 87.07 36.2851 87.21 35.5851 87.21C34.9251 87.21 34.3551 87.07 33.8751 86.79C33.4151 86.49 33.0251 86.11 32.7051 85.65C32.4051 85.17 32.1851 84.63 32.0451 84.03C31.9051 83.43 31.8351 82.83 31.8351 82.23C31.8351 81.59 31.8951 80.98 32.0151 80.4C32.1551 79.8 32.3651 79.27 32.6451 78.81C32.9451 78.35 33.3351 77.98 33.8151 77.7C34.2951 77.42 34.8851 77.28 35.5851 77.28C36.2851 77.28 36.8651 77.42 37.3251 77.7C37.7851 77.98 38.1551 78.35 38.4351 78.81C38.7351 79.25 38.9451 79.77 39.0651 80.37C39.1851 80.95 39.2451 81.56 39.2451 82.2ZM39.3051 88.02V90H43.3551V68.58H39.0951V76.38H39.0351C38.5551 75.62 37.8951 75.05 37.0551 74.67C36.2351 74.27 35.3651 74.07 34.4451 74.07C33.3051 74.07 32.3051 74.3 31.4451 74.76C30.5851 75.2 29.8651 75.79 29.2851 76.53C28.7251 77.27 28.2951 78.13 27.9951 79.11C27.7151 80.07 27.5751 81.07 27.5751 82.11C27.5751 83.19 27.7151 84.23 27.9951 85.23C28.2951 86.23 28.7251 87.12 29.2851 87.9C29.8651 88.66 30.5951 89.27 31.4751 89.73C32.3551 90.17 33.3751 90.39 34.5351 90.39C35.5551 90.39 36.4651 90.21 37.2651 89.85C38.0851 89.47 38.7451 88.86 39.2451 88.02H39.3051ZM57.0071 80.58H50.0771C50.0971 80.28 50.1571 79.94 50.2571 79.56C50.3771 79.18 50.5671 78.82 50.8271 78.48C51.1071 78.14 51.4671 77.86 51.9071 77.64C52.3671 77.4 52.9371 77.28 53.6171 77.28C54.6571 77.28 55.4271 77.56 55.9271 78.12C56.4471 78.68 56.8071 79.5 57.0071 80.58ZM50.0771 83.28H61.2671C61.3471 82.08 61.2471 80.93 60.9671 79.83C60.6871 78.73 60.2271 77.75 59.5871 76.89C58.9671 76.03 58.1671 75.35 57.1871 74.85C56.2071 74.33 55.0571 74.07 53.7371 74.07C52.5571 74.07 51.4771 74.28 50.4971 74.7C49.5371 75.12 48.7071 75.7 48.0071 76.44C47.3071 77.16 46.7671 78.02 46.3871 79.02C46.0071 80.02 45.8171 81.1 45.8171 82.26C45.8171 83.46 45.9971 84.56 46.3571 85.56C46.7371 86.56 47.2671 87.42 47.9471 88.14C48.6271 88.86 49.4571 89.42 50.4371 89.82C51.4171 90.2 52.5171 90.39 53.7371 90.39C55.4971 90.39 56.9971 89.99 58.2371 89.19C59.4771 88.39 60.3971 87.06 60.9971 85.2H57.2471C57.1071 85.68 56.7271 86.14 56.1071 86.58C55.4871 87 54.7471 87.21 53.8871 87.21C52.6871 87.21 51.7671 86.9 51.1271 86.28C50.4871 85.66 50.1371 84.66 50.0771 83.28ZM67.7458 81.84L62.1658 90H66.9358L70.1758 85.11L73.4158 90H78.2758L72.5458 81.75L77.6458 74.49H72.9358L70.2358 78.54L67.5058 74.49H62.6458L67.7458 81.84Z" fill="#323F4A"/>
</svg>
