<?xml version="1.0" encoding="utf-8"?>
<!-- Generator: Adobe Illustrator 21.0.2, SVG Export Plug-In . SVG Version: 6.00 Build 0)  -->
<svg version="1.1" id="Layer_1" xmlns="http://www.w3.org/2000/svg" xmlns:xlink="http://www.w3.org/1999/xlink" x="0px" y="0px"
	 viewBox="0 0 176 91" style="enable-background:new 0 0 176 91;" xml:space="preserve">
<style type="text/css">
	.st0{fill:none;stroke:#323F4A;stroke-width:4.8;stroke-miterlimit:10;}
	.st1{fill:#323F4A;}
	.st2{fill:url(#SVGID_1_);}
	.st3{fill:url(#SVGID_2_);}
	.st4{fill:url(#SVGID_3_);}
	.st5{fill:url(#SVGID_4_);}
	.st6{fill:url(#SVGID_5_);}
	.st7{fill:url(#SVGID_6_);}
	.st8{fill:none;stroke:#323F4A;stroke-width:5;stroke-miterlimit:10;}
	.st9{fill:url(#SVGID_7_);}
	.st10{fill:url(#SVGID_8_);}
	.st11{fill:none;stroke:#323F4A;stroke-width:2;stroke-linecap:round;stroke-linejoin:round;stroke-miterlimit:10;}
	.st12{fill:#FFFFFF;}
</style>
<path class="st0" d="M-8.5-75.1h-33.3c-2.8,0-5-2.3-5-5v-52.4c0-2.8,2.3-5,5-5h33.3c2.8,0,5,2.3,5,5v52.4
	C-3.5-77.3-5.8-75.1-8.5-75.1z"/>
<path class="st1" d="M-243.3-20.5v51.9c0,2.4-2,4.4-4.4,4.6l0,0c-10.6,0-27.4,0-35.9,0c-2.1,0-3.8-1.7-3.8-3.8
	c0-5.9-0.1-17.2-0.1-20.7c0-9.8,0-31.1-0.1-41c0-2.4,1.9-4.3,4.3-4.3h38.3c1.1,0,2,0.9,2,2l0,0c0,1.1-0.9,2-2,2
	c-5.8,0-28.6,0.1-36.1,0.1c-1.2,0-2.1,0.9-2.1,2.1v3.1c0,1.2,0.9,2.1,2.1,2.1c7.5,0,30.1-0.1,35.9-0.1
	C-244.3-22.6-243.3-21.8-243.3-20.5z"/>
<path class="st1" d="M-160.8,1.1c-13.6-0.1-27.3-0.3-40.9-0.4c-8.5-0.1-10.4-1.9-11-10.3c0-0.7-0.1-1.3-0.1-2
	c-0.3-18.6-0.5-37.1-0.8-55.7c-0.1-6,1-7.1,7.1-7.2c15.1-0.2,30.2-0.4,45.4-0.6c1.4,0,2.8,0.3,4.5,0.4c0,3.4,0,6.5,0,9.3
	c0.9,0.8,1.7,1.4,2.2,1.8c-0.3,21.5-0.6,42.7-0.9,64.4C-157.3,0.9-159,1.1-160.8,1.1z M-203.7-64.3c11.7,0,23.3-0.1,35-0.2
	c2.8,0,5.5-0.1,8.7-0.2c-0.5-2.1-0.9-3.8-1.4-5.9c-16,0.2-32,0.2-48.6,0.6C-208.1-64.5-208-64.3-203.7-64.3z"/>
<path class="st1" d="M83.1,114.8v17.5h4.7v-17.5h6.4v-4H76.6v4H83.1z M96.2,110.8v21.4h4.3v-8.1c0-1.6,0.3-2.7,0.8-3.4
	c0.5-0.7,1.4-1.1,2.5-1.1c1,0,1.7,0.3,2.1,1c0.4,0.6,0.6,1.6,0.6,2.8v8.8h4.3v-9.5c0-1-0.1-1.8-0.3-2.6c-0.2-0.8-0.4-1.5-0.9-2
	c-0.4-0.6-1-1-1.7-1.3s-1.7-0.5-2.8-0.5c-0.8,0-1.6,0.2-2.5,0.6c-0.8,0.4-1.5,1-2.1,1.9h-0.1v-8.1h-4.2
	C96.2,110.7,96.2,110.8,96.2,110.8z M124.5,122.8h-6.9c0-0.3,0.1-0.6,0.2-1s0.3-0.7,0.6-1.1c0.3-0.3,0.6-0.6,1.1-0.8
	c0.5-0.2,1-0.4,1.7-0.4c1,0,1.8,0.3,2.3,0.8C123.9,120.9,124.3,121.7,124.5,122.8z M117.5,125.5h11.2c0.1-1.2,0-2.3-0.3-3.4
	s-0.7-2.1-1.4-2.9c-0.6-0.9-1.4-1.5-2.4-2s-2.1-0.8-3.5-0.8c-1.2,0-2.3,0.2-3.2,0.6c-1,0.4-1.8,1-2.5,1.7s-1.2,1.6-1.6,2.6
	s-0.6,2.1-0.6,3.2c0,1.2,0.2,2.3,0.5,3.3c0.4,1,0.9,1.9,1.6,2.6c0.7,0.7,1.5,1.3,2.5,1.7s2.1,0.6,3.3,0.6c1.8,0,3.3-0.4,4.5-1.2
	s2.2-2.1,2.8-4h-3.8c-0.1,0.5-0.5,0.9-1.1,1.4c-0.6,0.4-1.4,0.6-2.2,0.6c-1.2,0-2.1-0.3-2.8-0.9
	C117.9,127.9,117.6,126.9,117.5,125.5z M83,158.9v-13.5h3.4c1.2,0,2.1,0.2,2.9,0.5s1.4,0.8,1.9,1.4c0.5,0.6,0.8,1.4,1,2.2
	c0.2,0.9,0.3,1.8,0.3,2.9c0,1.2-0.2,2.2-0.4,3c-0.3,0.8-0.7,1.5-1.2,2s-1.1,0.9-1.7,1.1s-1.3,0.3-2,0.3H83V158.9z M78.3,141.4v21.4
	h9.2c1.6,0,3.1-0.3,4.3-0.8c1.2-0.6,2.2-1.3,3-2.3s1.4-2.1,1.8-3.4c0.4-1.3,0.6-2.8,0.6-4.3c0-1.8-0.2-3.3-0.8-4.7
	c-0.5-1.3-1.2-2.4-2-3.3c-0.9-0.9-1.9-1.5-3.1-2c-1.2-0.4-2.5-0.7-3.8-0.7h-9.2V141.4z M110.5,153.4h-6.9c0-0.3,0.1-0.6,0.2-1
	s0.3-0.7,0.6-1.1c0.3-0.3,0.6-0.6,1.1-0.8s1-0.4,1.7-0.4c1,0,1.8,0.3,2.3,0.8C110,151.5,110.3,152.3,110.5,153.4z M103.6,156.1h11.2
	c0.1-1.2,0-2.4-0.3-3.4c-0.3-1.1-0.7-2.1-1.4-2.9c-0.6-0.9-1.4-1.5-2.4-2s-2.1-0.8-3.4-0.8c-1.2,0-2.3,0.2-3.2,0.6
	c-1,0.4-1.8,1-2.5,1.7s-1.2,1.6-1.6,2.6s-0.6,2.1-0.6,3.2c0,1.2,0.2,2.3,0.5,3.3c0.4,1,0.9,1.9,1.6,2.6s1.5,1.3,2.5,1.7
	s2.1,0.6,3.3,0.6c1.8,0,3.3-0.4,4.5-1.2s2.2-2.1,2.8-4h-3.8c-0.1,0.5-0.5,0.9-1.1,1.4c-0.6,0.4-1.4,0.6-2.2,0.6
	c-1.2,0-2.1-0.3-2.8-0.9C104,158.5,103.7,157.5,103.6,156.1z M120.6,157.8h-4.1c0,1,0.3,1.9,0.7,2.6c0.4,0.7,1,1.2,1.7,1.7
	c0.7,0.4,1.4,0.7,2.3,0.9s1.7,0.3,2.6,0.3s1.7-0.1,2.6-0.3s1.6-0.4,2.3-0.9c0.7-0.5,1.2-1,1.6-1.7c0.4-0.7,0.6-1.6,0.6-2.6
	c0-0.7-0.1-1.3-0.4-1.8c-0.3-0.5-0.7-0.9-1.1-1.2c-0.5-0.3-1-0.6-1.6-0.8s-1.2-0.4-1.8-0.5c-0.6-0.1-1.2-0.3-1.8-0.4
	c-0.6-0.1-1.1-0.2-1.6-0.4c-0.4-0.2-0.8-0.4-1.1-0.6s-0.4-0.6-0.4-0.9c0-0.3,0.1-0.6,0.2-0.8c0.2-0.2,0.3-0.4,0.6-0.5
	c0.2-0.1,0.5-0.2,0.8-0.2s0.5-0.1,0.8-0.1c0.8,0,1.4,0.1,2,0.4c0.6,0.3,0.9,0.8,0.9,1.6h4.1c-0.1-1-0.3-1.8-0.8-2.4
	c-0.4-0.6-0.9-1.1-1.5-1.5c-0.6-0.4-1.3-0.6-2.1-0.8c-0.8-0.2-1.6-0.2-2.4-0.2s-1.7,0.1-2.5,0.2c-0.8,0.1-1.5,0.4-2.2,0.8
	c-0.6,0.4-1.2,0.9-1.6,1.5s-0.6,1.5-0.6,2.5c0,0.7,0.1,1.3,0.4,1.7c0.3,0.5,0.7,0.9,1.1,1.2c0.5,0.3,1,0.6,1.6,0.8s1.2,0.3,1.8,0.5
	c1.5,0.3,2.7,0.6,3.5,1c0.9,0.3,1.3,0.8,1.3,1.4c0,0.4-0.1,0.7-0.3,1c-0.2,0.2-0.4,0.4-0.7,0.6c-0.3,0.1-0.6,0.2-0.9,0.3
	s-0.6,0.1-0.9,0.1c-0.4,0-0.8-0.1-1.2-0.1c-0.4-0.1-0.7-0.2-1-0.4s-0.5-0.5-0.8-0.8C120.7,158.7,120.6,158.3,120.6,157.8z
	 M137.8,145.3v-3.5h-4.3v3.5H137.8z M133.5,147.3v15.5h4.3v-15.5H133.5z M148.4,159.2c-0.7,0-1.2-0.1-1.6-0.4s-0.8-0.6-1.1-1.1
	c-0.3-0.4-0.4-0.9-0.6-1.5c-0.1-0.6-0.2-1.1-0.2-1.7c0-0.6,0.1-1.1,0.2-1.6c0.1-0.5,0.3-1,0.6-1.4s0.7-0.8,1.1-1
	c0.4-0.2,1-0.4,1.6-0.4c0.7,0,1.3,0.1,1.7,0.4c0.5,0.3,0.8,0.6,1.1,1.1c0.3,0.4,0.5,0.9,0.6,1.5s0.2,1.2,0.2,1.8s-0.1,1.1-0.2,1.6
	c-0.1,0.5-0.4,0.9-0.7,1.3c-0.3,0.4-0.7,0.7-1.1,1C149.5,159.1,149,159.2,148.4,159.2z M156.1,161.9v-14.5H152v2.1l0,0
	c-0.5-0.9-1.2-1.5-1.9-1.9c-0.8-0.4-1.7-0.6-2.7-0.6c-1.1,0-2,0.2-2.9,0.6c-0.8,0.4-1.5,1-2.1,1.7s-1,1.5-1.3,2.5
	c-0.3,0.9-0.4,1.9-0.4,2.9c0,1.1,0.1,2.1,0.4,3c0.3,0.9,0.7,1.8,1.2,2.5s1.2,1.3,2.1,1.7c0.8,0.4,1.8,0.6,3,0.6
	c0.9,0,1.8-0.2,2.7-0.6c0.9-0.4,1.5-1,2-1.8h0.1v2c0,1.1-0.2,2-0.8,2.7c-0.5,0.7-1.4,1.1-2.6,1.1c-0.8,0-1.4-0.2-2-0.5
	s-1-0.8-1.2-1.6h-4.2c0.1,0.9,0.3,1.6,0.7,2.2c0.4,0.6,1,1.2,1.6,1.6c0.7,0.4,1.4,0.7,2.2,0.9s1.6,0.3,2.3,0.3
	c1.8,0,3.2-0.2,4.3-0.7s1.9-1.1,2.4-1.8c0.6-0.7,0.9-1.4,1.1-2.2C156,163.2,156.1,162.5,156.1,161.9z M159.5,147.3v15.5h4.3v-8.1
	c0-1.6,0.3-2.7,0.8-3.4s1.4-1.1,2.5-1.1c1,0,1.7,0.3,2.1,1c0.4,0.6,0.6,1.6,0.6,2.8v8.8h4.3v-9.5c0-1-0.1-1.8-0.3-2.6
	s-0.5-1.5-0.9-2c-0.4-0.6-1-1-1.7-1.3s-1.7-0.5-2.8-0.5c-0.9,0-1.8,0.2-2.6,0.6c-0.9,0.4-1.6,1.1-2.1,1.9h-0.1v-2.2h-4.1V147.3z
	 M78.3,173.6V195H83v-21.4H78.3z M86.7,179.5V195H91v-8.1c0-1.6,0.3-2.7,0.8-3.4s1.4-1.1,2.5-1.1c1,0,1.7,0.3,2.1,1
	c0.4,0.6,0.6,1.6,0.6,2.8v8.8h4.3v-9.5c0-1-0.1-1.8-0.3-2.6c-0.2-0.8-0.4-1.5-0.9-2c-0.4-0.6-1-1-1.7-1.3s-1.7-0.5-2.8-0.5
	c-0.9,0-1.8,0.2-2.6,0.6c-0.9,0.4-1.6,1.1-2.1,1.9h-0.1v-2.2h-4.1C86.7,179.4,86.7,179.5,86.7,179.5z M115.5,187.2
	c0,0.6-0.1,1.3-0.2,1.9s-0.3,1.1-0.6,1.6c-0.3,0.5-0.7,0.8-1.1,1.1c-0.5,0.3-1,0.4-1.7,0.4s-1.2-0.1-1.7-0.4
	c-0.5-0.3-0.8-0.7-1.2-1.1c-0.3-0.5-0.5-1-0.7-1.6c-0.1-0.6-0.2-1.2-0.2-1.8s0.1-1.2,0.2-1.8s0.4-1.1,0.6-1.6
	c0.3-0.5,0.7-0.8,1.2-1.1s1.1-0.4,1.8-0.4c0.7,0,1.3,0.1,1.7,0.4c0.5,0.3,0.8,0.7,1.1,1.1c0.3,0.4,0.5,1,0.6,1.6
	C115.4,185.9,115.5,186.6,115.5,187.2z M115.6,193v2h4.1v-21.4h-4.3v7.8h-0.1c-0.5-0.8-1.1-1.3-2-1.7c-0.8-0.4-1.7-0.6-2.6-0.6
	c-1.1,0-2.1,0.2-3,0.7c-0.9,0.4-1.6,1-2.2,1.8c-0.6,0.7-1,1.6-1.3,2.6s-0.4,2-0.4,3c0,1.1,0.1,2.1,0.4,3.1s0.7,1.9,1.3,2.7
	c0.6,0.8,1.3,1.4,2.2,1.8c0.9,0.4,1.9,0.7,3.1,0.7c1,0,1.9-0.2,2.7-0.5C114.3,194.5,115,193.9,115.6,193L115.6,193z M133.3,185.6
	h-6.9c0-0.3,0.1-0.6,0.2-1s0.3-0.7,0.6-1.1c0.3-0.3,0.6-0.6,1.1-0.8c0.5-0.2,1-0.4,1.7-0.4c1,0,1.8,0.3,2.3,0.8
	C132.7,183.7,133.1,184.5,133.3,185.6z M126.3,188.3h11.2c0.1-1.2,0-2.4-0.3-3.4c-0.3-1.1-0.7-2.1-1.4-2.9c-0.6-0.9-1.4-1.5-2.4-2
	s-2.1-0.8-3.4-0.8c-1.2,0-2.3,0.2-3.2,0.6c-1,0.4-1.8,1-2.5,1.7s-1.2,1.6-1.6,2.6s-0.6,2.1-0.6,3.2c0,1.2,0.2,2.3,0.5,3.3
	c0.4,1,0.9,1.9,1.6,2.6s1.5,1.3,2.5,1.7s2.1,0.6,3.3,0.6c1.8,0,3.3-0.4,4.5-1.2s2.2-2.1,2.8-4h-3.8c-0.1,0.5-0.5,0.9-1.1,1.4
	c-0.6,0.4-1.4,0.6-2.2,0.6c-1.2,0-2.1-0.3-2.8-0.9C126.7,190.7,126.4,189.7,126.3,188.3z M144,186.8l-5.6,8.2h4.8l3.2-4.9l3.2,4.9
	h4.9l-5.7-8.2l5.1-7.3h-4.7l-2.7,4.1l-2.7-4.1h-4.9L144,186.8z"/>
<polygon points="-65,204 -36.5,204 -36.5,264.8 -50.8,255.2 -65,264.8 "/>
<g>
	<g>
		<path class="st1" d="M54.3,130.7c-1,0-1.9,0-2.9,0h-2.8l-0.1-0.7c0-0.2,0-0.4,0-0.5v-4.4c0-1.4-0.6-2.2-2-2.3
			c-2.5-0.3-5.1-0.3-7.8-0.1c-0.3,0-0.6,0.1-0.9,0.1c-3.1,0.4-5.9,1.1-8.5,2.2c-0.5,0.2-0.9,0.4-1.4,0.6c-3,1.4-5.4,3.3-7.4,5.6
			c-0.1,0.2-0.3,0.3-0.5,0.5l-0.6,0.6l-0.4-0.4c-0.3-0.3-0.6-0.6-0.8-0.9c-2.3-2.6-5.1-4.6-8.5-6c-4.8-2-10-2.8-15.8-2.4h-0.4
			c-0.5,0-1,0.1-1.5,0.1c-1.1,0.2-1.8,0.9-1.8,2.1c0,1.1,0,2.3,0,3.4v1.4c0,0.1,0,0.2,0,0.3v0.6l-0.4,0.1c-0.2,0-0.5,0.1-0.7,0.1
			h-1.2c-1,0-2,0-2.9,0c-1.3,0-2,0.4-2.4,1.5l-0.1,0.1v48.1l0.1,0.1c0.1,0.1,0.1,0.2,0.1,0.3c0.4,0.9,1.3,1.3,2.3,1.1
			c0.8-0.2,1.6-0.4,2.5-0.6c1.4-0.4,2.8-0.7,4.3-1.1c3.1-0.7,5.9-1,8.6-1.1c2.2-0.1,4.6-0.1,7,0c3.9,0.2,7.4,1,10.6,2.4
			c1.1,0.5,2,0.5,3,0c2.6-1.1,5.6-1.9,9.1-2.3c3.8-0.4,7.7-0.4,12.1,0.2c3.6,0.5,7.3,1.2,11,2.3c0.5,0.1,0.9,0.3,1.3,0.2
			c1-0.1,1.7-0.8,1.8-1.8c0-0.3,0-0.5,0-0.7v-46.8C56.3,131.5,55.5,130.7,54.3,130.7z M11.4,175.5c-7.6-1.1-15.5-0.5-24.2,1.7
			l-0.6,0.2v-42.6h3.7V168c0,0.3,0,0.5,0,0.8c0.1,1.2,0.9,1.9,2.1,1.9c0.7,0,1.4,0,2.1-0.1c1.2-0.1,2.5-0.1,3.8-0.1
			c4.5,0.2,8.4,1.2,11.8,3c0.6,0.3,1.2,0.7,1.6,1.1l1.7,1.2L11.4,175.5z M17.5,173.9l-0.8-0.7c-5.5-4.8-12.5-6.9-21.8-6.8h-0.5
			v-39.8h0.5c0.3,0,0.5,0,0.8,0c0.4,0,0.9,0,1.3,0c3.3,0.1,6,0.5,8.5,1.2c3.9,1.1,7,2.9,9.4,5.4c0.8,0.8,1.5,1.8,2.1,2.7l0.4,0.5
			c0.3,0.3,0.3,0.8,0.3,1.2v36.3L17.5,173.9L17.5,173.9z M21.6,173.8l-0.1-1.3c0-0.2,0-0.4,0-0.5v-34.6c0-0.5,0.1-1,0.4-1.4
			c1.4-2.3,3.3-4.1,5.6-5.6c1.7-1.1,3.6-1.9,5.8-2.6c1.4-0.4,2.9-0.7,4.4-0.9c1.7-0.2,3.6-0.4,5.7-0.3c0.1,0,0.3,0,0.4,0
			c0.1,0,0.2,0,0.3,0h0.5v39.8h-0.5c-9.3-0.1-16.2,2-21.7,6.8L21.6,173.8z M52.3,177.3l-0.6-0.2c-8.8-2.2-16.7-2.7-24.3-1.6
			l-1.9,0.3l1.5-1.2c1.2-0.9,2.4-1.5,3.5-2c3.5-1.5,7.5-2.3,12.2-2.3c1.1,0,2.3,0.1,3.5,0.2c0.7,0.1,1.3-0.1,1.7-0.5
			c0.5-0.4,0.7-1.1,0.7-1.9c0-8.5,0-17.1,0-25.6v-8h3.7C52.3,134.5,52.3,177.3,52.3,177.3z"/>
	</g>
</g>
<g id="Saghr9_2_">
	<g>
		<path d="M-94.2,83.5c0-11.3,0-22.6,0-33.9c0,0,0.1,0,0.1-0.1c0.3-0.9,1-1.3,2-1.3s1.9,0,2.9,0c0.1,0,0.3,0,0.4,0
			c0-0.1,0-0.2,0-0.3c0-1.1,0-2.3,0-3.4c0-1,0.6-1.7,1.6-1.8c0.5-0.1,0.9-0.1,1.4-0.1c3.9-0.3,7.6,0.2,11.2,1.7
			c2.3,1,4.4,2.4,6.1,4.3c0.2,0.2,0.3,0.4,0.5,0.6c0.2-0.2,0.3-0.4,0.5-0.5c1.7-2,3.9-3.4,6.3-4.5c2.2-0.9,4.4-1.4,6.7-1.6
			c1.9-0.2,3.7-0.2,5.6,0c1.2,0.1,1.7,0.8,1.7,2c0,1,0,2.1,0,3.1c0,0.2,0,0.3,0,0.5c0.2,0,0.4,0,0.6,0c1,0,2,0,3,0s1.7,0.7,1.8,1.7
			c0,0.1,0,0.3,0,0.4c0,10.8,0,21.6,0,32.4c0,0.2,0,0.4,0,0.6c-0.1,0.9-0.7,1.5-1.6,1.6c-0.3,0-0.7-0.1-1-0.2
			c-2.5-0.7-5.1-1.3-7.7-1.6c-2.8-0.3-5.6-0.4-8.4-0.1c-2.2,0.3-4.3,0.7-6.3,1.6c-0.8,0.4-1.6,0.4-2.4,0c-2.3-1-4.8-1.5-7.3-1.7
			c-1.6-0.1-3.2-0.1-4.9,0c-2,0.1-4,0.4-6,0.8c-1.6,0.4-3.1,0.8-4.7,1.2c-0.9,0.2-1.7-0.2-2-1C-94.1,83.8-94.1,83.7-94.2,83.5z
			 M-85.2,73.3c5.7-0.1,11,1,15.5,4.9c0-0.3,0-0.5,0-0.7c0-2.8,0-5.5,0-8.3c0-5.3,0-10.6,0-15.9c0-0.2,0-0.5-0.1-0.6
			c-0.5-0.8-1.1-1.5-1.7-2.2c-1.8-1.9-4-3-6.4-3.7c-1.9-0.6-3.9-0.8-5.9-0.8c-0.5,0-0.9,0-1.4,0C-85.2,55.2-85.2,64.2-85.2,73.3z
			 M-50.7,73.3c0-9.1,0-18.1,0-27.2c-0.2,0-0.3,0-0.5,0c-2.4,0-4.7,0.2-7,0.9c-3.2,1-6,2.7-7.8,5.6c-0.2,0.3-0.2,0.5-0.2,0.8
			c0,8.1,0,16.2,0,24.3c0,0.1,0,0.3,0,0.5C-61.7,74.3-56.3,73.2-50.7,73.3z M-47.1,51.8c0,0.2,0,0.5,0,0.7c0,7.5,0,15,0,22.5
			c0,1.1-0.8,2.1-2.1,2c-0.8-0.1-1.6-0.1-2.5-0.1c-2.9,0-5.7,0.4-8.4,1.6c-0.8,0.3-1.6,0.7-2.4,1.3c5.9-0.9,11.5-0.3,17.2,1.1
			c0-9.7,0-19.4,0-29.1C-45.9,51.8-46.5,51.8-47.1,51.8z M-90.7,51.8c0,9.7,0,19.4,0,29.1c5.6-1.4,11.3-2,17.1-1.2
			c-0.4-0.3-0.7-0.5-1.1-0.7c-2.5-1.4-5.3-1.9-8.1-2.1c-1.4-0.1-2.7,0.1-4.1,0.1c-1,0-1.8-0.7-1.8-1.7c0-0.2,0-0.4,0-0.6
			c0-7.4,0-14.9,0-22.3c0-0.2,0-0.4,0-0.7C-89.4,51.8-90,51.8-90.7,51.8z"/>
	</g>
</g>
<linearGradient id="SVGID_1_" gradientUnits="userSpaceOnUse" x1="28.2555" y1="-562.9384" x2="37.2308" y2="-538.2791" gradientTransform="matrix(1 0 0 -1 0 -416)">
	<stop  offset="0" style="stop-color:#4FD6B9"/>
	<stop  offset="1" style="stop-color:#29A3CF"/>
</linearGradient>
<path class="st2" d="M37.8,122.9v20.4c0,0.8-0.8,1.4-1.5,1.2c-0.9-0.3-2-0.7-2.6-1c-0.5-0.2-1.1-0.1-1.5,0.4
	c-0.5,0.7-1.4,1.9-2.3,2.9c-0.7,0.9-2.1,0.3-2.1-0.8v-15.2c0-2,0-3.8,0-5.3c0-0.2,0.1-0.4,0.3-0.5c0.3-0.2,0.7-0.3,1-0.5
	c2.6-1.1,5.2-1.7,8-2.1C37.5,122.3,37.8,122.5,37.8,122.9z"/>
<path class="st1" d="M77.4,7.5V25h4.7V7.5h6.4v-4H71v4H77.4z M90.6,3.6V25h4.3v-8.1c0-1.6,0.3-2.7,0.8-3.4s1.4-1,2.5-1
	c1,0,1.7,0.3,2.1,1c0.4,0.6,0.6,1.6,0.6,2.8V25h4.3v-9.5c0-1-0.1-1.8-0.3-2.6c-0.2-0.8-0.4-1.5-0.9-2c-0.4-0.6-1-1-1.7-1.3
	s-1.7-0.5-2.8-0.5c-0.8,0-1.6,0.2-2.5,0.6c-0.8,0.4-1.5,1.1-2.1,1.9h-0.1v-8C94.8,3.6,90.6,3.6,90.6,3.6z M118.8,15.6h-6.9
	c0-0.3,0.1-0.6,0.2-1s0.3-0.7,0.6-1.1c0.3-0.3,0.6-0.6,1.1-0.8s1-0.4,1.7-0.4c1,0,1.8,0.3,2.3,0.8C118.3,13.7,118.6,14.5,118.8,15.6
	z M111.9,18.3h11.2c0.1-1.2,0-2.4-0.3-3.5s-0.7-2.1-1.4-2.9c-0.6-0.9-1.4-1.5-2.4-2s-2.1-0.8-3.5-0.8c-1.2,0-2.3,0.2-3.2,0.6
	c-1,0.4-1.8,1-2.5,1.7s-1.2,1.6-1.6,2.6s-0.6,2.1-0.6,3.2c0,1.2,0.2,2.3,0.5,3.3c0.4,1,0.9,1.9,1.6,2.6s1.5,1.3,2.5,1.7
	c1,0.4,2.1,0.6,3.3,0.6c1.8,0,3.3-0.4,4.5-1.2c1.2-0.8,2.2-2.1,2.8-4H119c-0.1,0.5-0.5,0.9-1.1,1.4c-0.6,0.4-1.4,0.6-2.2,0.6
	c-1.2,0-2.1-0.3-2.8-0.9C112.3,20.6,112,19.6,111.9,18.3z M77.4,51.6V38.1h3.4c1.2,0,2.1,0.2,2.9,0.5s1.4,0.8,1.9,1.4
	c0.5,0.6,0.8,1.4,1,2.2c0.2,0.9,0.3,1.8,0.3,2.9c0,1.2-0.2,2.2-0.4,3c-0.3,0.8-0.7,1.5-1.2,2s-1.1,0.9-1.7,1.1
	c-0.6,0.2-1.3,0.3-2,0.3L77.4,51.6L77.4,51.6z M72.7,34.2v21.4h9.2c1.6,0,3.1-0.3,4.3-0.8c1.2-0.6,2.2-1.3,3-2.3s1.4-2.1,1.8-3.4
	c0.4-1.3,0.6-2.8,0.6-4.3c0-1.8-0.2-3.3-0.8-4.6c-0.5-1.3-1.2-2.4-2-3.3c-0.9-0.9-1.9-1.5-3.1-2c-1.2-0.4-2.5-0.7-3.8-0.7H72.7z
	 M104.9,46.2H98c0-0.3,0.1-0.6,0.2-1s0.3-0.7,0.6-1.1c0.3-0.3,0.6-0.6,1.1-0.8s1-0.4,1.7-0.4c1,0,1.8,0.3,2.3,0.8
	C104.4,44.3,104.7,45.1,104.9,46.2z M98,48.9h11.2c0.1-1.2,0-2.3-0.3-3.4c-0.3-1.1-0.7-2.1-1.4-2.9c-0.6-0.9-1.4-1.5-2.4-2
	s-2.1-0.8-3.4-0.8c-1.2,0-2.3,0.2-3.2,0.6c-1,0.4-1.8,1-2.5,1.7s-1.2,1.6-1.6,2.6s-0.6,2.1-0.6,3.2c0,1.2,0.2,2.3,0.5,3.3
	c0.4,1,0.9,1.9,1.6,2.6s1.5,1.3,2.5,1.7s2.1,0.6,3.3,0.6c1.8,0,3.3-0.4,4.5-1.2s2.2-2.1,2.8-4h-3.8c-0.1,0.5-0.5,0.9-1.1,1.4
	c-0.6,0.4-1.4,0.6-2.2,0.6c-1.2,0-2.1-0.3-2.8-0.9C98.4,51.3,98.1,50.3,98,48.9z M115,50.6h-4.1c0,1,0.3,1.9,0.7,2.6
	c0.4,0.7,1,1.2,1.7,1.7c0.7,0.4,1.4,0.7,2.3,0.9s1.7,0.3,2.6,0.3s1.7-0.1,2.6-0.3s1.6-0.5,2.3-0.9c0.7-0.4,1.2-1,1.6-1.7
	s0.6-1.6,0.6-2.6c0-0.7-0.1-1.3-0.4-1.8s-0.7-0.9-1.1-1.2c-0.5-0.3-1-0.6-1.6-0.8s-1.2-0.4-1.8-0.5c-0.6-0.1-1.2-0.3-1.8-0.4
	c-0.6-0.1-1.1-0.2-1.6-0.4c-0.4-0.2-0.8-0.4-1.1-0.6c-0.3-0.2-0.4-0.5-0.4-0.9c0-0.3,0.1-0.6,0.2-0.8c0.2-0.2,0.3-0.4,0.6-0.5
	c0.2-0.1,0.5-0.2,0.8-0.2s0.5-0.1,0.8-0.1c0.8,0,1.4,0.2,2,0.5s0.9,0.8,0.9,1.7h4.1c-0.1-1-0.3-1.8-0.8-2.4
	c-0.4-0.6-0.9-1.2-1.5-1.5c-0.6-0.4-1.3-0.6-2.1-0.8c-0.8-0.2-1.6-0.2-2.4-0.2s-1.7,0.1-2.5,0.2c-0.8,0.1-1.5,0.4-2.2,0.8
	c-0.6,0.4-1.2,0.9-1.6,1.5s-0.6,1.5-0.6,2.5c0,0.7,0.1,1.3,0.4,1.7c0.3,0.5,0.7,0.8,1.1,1.2c0.5,0.3,1,0.5,1.6,0.8
	c0.6,0.2,1.2,0.3,1.8,0.5c1.5,0.3,2.7,0.6,3.5,1c0.9,0.3,1.3,0.8,1.3,1.4c0,0.4-0.1,0.7-0.3,1c-0.2,0.2-0.4,0.4-0.7,0.6
	c-0.3,0.1-0.6,0.2-0.9,0.3s-0.6,0.1-0.9,0.1c-0.4,0-0.8,0-1.2-0.2c-0.4-0.1-0.7-0.2-1-0.4s-0.5-0.5-0.8-0.8
	C115.1,51.4,115,51,115,50.6z M132.2,38.1v-3.5h-4.3v3.5H132.2z M127.9,40.1v15.5h4.3V40.1H127.9z M142.8,51.9
	c-0.7,0-1.2-0.1-1.6-0.4c-0.4-0.3-0.8-0.6-1.1-1.1c-0.3-0.4-0.5-0.9-0.6-1.5s-0.1-1.1-0.1-1.7c0-0.6,0.1-1.1,0.2-1.6
	c0.1-0.5,0.4-1,0.6-1.4c0.3-0.4,0.7-0.8,1.1-1c0.4-0.2,1-0.4,1.6-0.4c0.7,0,1.3,0.1,1.7,0.4c0.5,0.3,0.8,0.6,1.1,1.1
	c0.3,0.4,0.5,0.9,0.6,1.5s0.2,1.2,0.2,1.8s-0.1,1.1-0.2,1.6c-0.1,0.5-0.4,1-0.7,1.4s-0.7,0.7-1.1,1
	C143.9,51.8,143.4,51.9,142.8,51.9z M150.4,54.6V40.1h-4v2.1h-0.1c-0.5-0.9-1.2-1.5-1.9-1.9c-0.8-0.4-1.6-0.6-2.7-0.6
	c-1.1,0-2,0.2-2.9,0.6c-0.8,0.4-1.5,1-2.1,1.7s-1,1.5-1.3,2.5c-0.3,0.9-0.4,1.9-0.4,2.9c0,1.1,0.1,2.1,0.4,3
	c0.3,0.9,0.7,1.8,1.2,2.5s1.2,1.3,2.1,1.7c0.8,0.4,1.8,0.6,3,0.6c0.9,0,1.8-0.2,2.7-0.6c0.9-0.4,1.5-1,2-1.8h0.1v2
	c0,1.1-0.2,2-0.8,2.7c-0.5,0.7-1.4,1.1-2.6,1.1c-0.8,0-1.4-0.2-2-0.5s-1-0.9-1.2-1.7h-4.2c0.1,0.9,0.3,1.6,0.7,2.2
	c0.4,0.6,1,1.2,1.6,1.6c0.7,0.4,1.4,0.7,2.2,0.9s1.6,0.3,2.3,0.3c1.8,0,3.2-0.2,4.3-0.7s1.9-1.1,2.4-1.8c0.6-0.7,0.9-1.4,1.1-2.2
	C150.4,55.9,150.4,55.2,150.4,54.6z M153.9,40.1v15.5h4.3v-8.1c0-1.6,0.3-2.7,0.8-3.4s1.4-1,2.5-1c1,0,1.7,0.3,2.1,1
	c0.4,0.6,0.6,1.6,0.6,2.9v8.8h4.3v-9.5c0-1-0.1-1.8-0.3-2.6s-0.4-1.5-0.9-2c-0.4-0.6-1-1-1.7-1.3s-1.6-0.5-2.8-0.5
	c-0.9,0-1.8,0.2-2.6,0.6c-0.9,0.4-1.6,1-2.1,2H158v-2.2h-4.1V40.1z M72.7,66.3v21.4h4.7V66.3H72.7z M81.1,72.2v15.5h4.3v-8.1
	c0-1.6,0.3-2.7,0.8-3.4c0.5-0.7,1.4-1.1,2.5-1.1c1,0,1.7,0.3,2.1,1c0.4,0.6,0.6,1.6,0.6,2.8v8.8h4.3v-9.5c0-1-0.1-1.8-0.3-2.6
	c-0.2-0.8-0.4-1.5-0.9-2c-0.4-0.6-1-1-1.7-1.3s-1.7-0.5-2.8-0.5c-0.9,0-1.8,0.2-2.6,0.6c-0.9,0.4-1.6,1.1-2.1,2h-0.1v-2.2
	C85.2,72.2,81.1,72.2,81.1,72.2z M109.9,79.9c0,0.6-0.1,1.3-0.2,1.9s-0.3,1.1-0.6,1.6c-0.3,0.5-0.7,0.8-1.1,1.1
	c-0.5,0.3-1,0.4-1.7,0.4s-1.2-0.1-1.7-0.4s-0.8-0.7-1.2-1.1c-0.3-0.5-0.5-1-0.7-1.6c-0.1-0.6-0.2-1.2-0.2-1.8c0-0.6,0.1-1.2,0.2-1.8
	c0.1-0.6,0.4-1.1,0.6-1.6c0.3-0.5,0.7-0.8,1.2-1.1c0.5-0.3,1.1-0.4,1.8-0.4c0.7,0,1.3,0.1,1.7,0.4c0.5,0.3,0.8,0.7,1.1,1.1
	c0.3,0.4,0.5,1,0.6,1.6C109.8,78.7,109.9,79.3,109.9,79.9z M109.9,85.8v2h4.1V66.3h-4.3v7.8l0,0c-0.5-0.8-1.1-1.3-2-1.7
	c-0.8-0.4-1.7-0.6-2.6-0.6c-1.1,0-2.1,0.2-3,0.7c-0.9,0.4-1.6,1-2.2,1.8c-0.6,0.7-1,1.6-1.3,2.6s-0.4,2-0.4,3c0,1.1,0.1,2.1,0.4,3.1
	s0.7,1.9,1.3,2.7c0.6,0.8,1.3,1.4,2.2,1.8c0.9,0.4,1.9,0.7,3.1,0.7c1,0,1.9-0.2,2.7-0.5C108.7,87.2,109.4,86.6,109.9,85.8
	L109.9,85.8z M127.6,78.3h-6.9c0-0.3,0.1-0.6,0.2-1s0.3-0.7,0.6-1.1c0.3-0.3,0.6-0.6,1.1-0.8c0.5-0.2,1-0.4,1.7-0.4
	c1,0,1.8,0.3,2.3,0.8C127.1,76.4,127.4,77.2,127.6,78.3z M120.7,81h11.2c0.1-1.2,0-2.3-0.3-3.4s-0.7-2.1-1.4-2.9
	c-0.6-0.9-1.4-1.5-2.4-2s-2.1-0.8-3.5-0.8c-1.2,0-2.3,0.2-3.2,0.6c-1,0.4-1.8,1-2.5,1.7s-1.2,1.6-1.6,2.6s-0.6,2.1-0.6,3.2
	c0,1.2,0.2,2.3,0.5,3.3c0.4,1,0.9,1.9,1.6,2.6s1.5,1.3,2.5,1.7c1,0.4,2.1,0.6,3.3,0.6c1.8,0,3.3-0.4,4.5-1.2c1.2-0.8,2.2-2.1,2.8-4
	h-3.8c-0.1,0.5-0.5,0.9-1.1,1.4c-0.6,0.4-1.4,0.6-2.2,0.6c-1.2,0-2.1-0.3-2.8-0.9C121.1,83.4,120.8,82.4,120.7,81z M138.4,79.6
	l-5.6,8.2h4.8l3.2-4.9l3.2,4.9h4.9l-5.7-8.2l5.1-7.3h-4.7l-2.7,4.1l-2.7-4.1h-4.9L138.4,79.6z"/>
<g>
	<g>
		<path class="st1" d="M-97.9-141c-1,0-1.9,0-2.9,0h-2.8l-0.1-0.7c0-0.2,0-0.4,0-0.5v-4.4c0-1.4-0.6-2.2-2-2.3
			c-2.5-0.3-5.1-0.3-7.8-0.1c-0.3,0-0.6,0.1-0.9,0.1c-3.1,0.4-5.9,1.1-8.5,2.2c-0.5,0.2-0.9,0.4-1.4,0.6c-3,1.4-5.4,3.3-7.4,5.6
			c-0.1,0.2-0.3,0.3-0.5,0.5l-0.6,0.6l-0.4-0.4c-0.3-0.3-0.6-0.6-0.8-0.9c-2.3-2.6-5.1-4.6-8.5-6c-4.8-2-10-2.8-15.8-2.4h-0.4
			c-0.5,0-1,0.1-1.5,0.1c-1.1,0.2-1.8,0.9-1.8,2.1c0,1.1,0,2.3,0,3.4v1.4c0,0.1,0,0.2,0,0.3v0.6l-0.4,0.1c-0.2,0-0.5,0.1-0.7,0.1
			h-1.2c-1,0-2,0-2.9,0c-1.3,0-2,0.4-2.4,1.5l-0.1,0.1v48.1l0.1,0.1c0.1,0.1,0.1,0.2,0.1,0.3c0.4,0.9,1.3,1.3,2.3,1.1
			c0.8-0.2,1.6-0.4,2.5-0.6c1.4-0.4,2.8-0.7,4.3-1.1c3.1-0.7,5.9-1,8.6-1.1c2.2-0.1,4.6-0.1,7,0c3.9,0.2,7.4,1,10.6,2.4
			c1.1,0.5,2,0.5,3,0c2.6-1.1,5.6-1.9,9.1-2.3c3.8-0.4,7.7-0.4,12.1,0.2c3.6,0.5,7.3,1.2,11,2.3c0.5,0.1,0.9,0.3,1.3,0.2
			c1-0.1,1.7-0.8,1.8-1.8c0-0.3,0-0.5,0-0.7v-46.8C-95.9-140.2-96.7-141-97.9-141z M-140.8-96.3c-7.6-1.1-15.5-0.5-24.2,1.7
			l-0.6,0.2V-137h3.7v33.2c0,0.3,0,0.5,0,0.8c0.1,1.2,0.9,1.9,2.1,1.9c0.7,0,1.4,0,2.1-0.1c1.2-0.1,2.5-0.1,3.8-0.1
			c4.5,0.2,8.4,1.2,11.8,3c0.6,0.3,1.2,0.7,1.6,1.1l1.7,1.2L-140.8-96.3z M-134.7-97.8l-0.9-0.7c-5.5-4.8-12.4-7-21.8-6.8h-0.5
			v-39.8h0.5c0.3,0,0.5,0,0.8,0c0.4,0,0.9,0,1.3,0c3.3,0.1,6,0.5,8.5,1.2c3.9,1.1,7,2.9,9.4,5.4c0.8,0.8,1.5,1.8,2.1,2.7l0.4,0.5
			c0.3,0.3,0.3,0.8,0.3,1.2v36.3L-134.7-97.8L-134.7-97.8z M-130.6-97.9l-0.1-1.3c0-0.2,0-0.4,0-0.5v-34.6c0-0.5,0.1-1,0.4-1.4
			c1.4-2.3,3.3-4.1,5.6-5.6c1.7-1.1,3.6-1.9,5.8-2.6c1.4-0.4,2.9-0.7,4.4-0.9c1.7-0.2,3.6-0.4,5.7-0.3c0.1,0,0.3,0,0.4,0
			s0.2,0,0.3,0h0.5v39.8h-0.5c-9.3-0.1-16.2,2-21.7,6.8L-130.6-97.9z M-99.9-94.4l-0.6-0.2c-8.7-2.2-16.7-2.7-24.3-1.6l-1.9,0.3
			l1.5-1.2c1.2-0.9,2.4-1.5,3.5-2c3.5-1.5,7.5-2.3,12.2-2.3c1.1,0,2.3,0.1,3.5,0.2c0.7,0.1,1.3-0.1,1.7-0.5c0.5-0.4,0.7-1.1,0.7-1.9
			c0-8.5,0-17.1,0-25.6v-8h3.7C-99.9-137.2-99.9-94.4-99.9-94.4z"/>
	</g>
</g>
<linearGradient id="SVGID_2_" gradientUnits="userSpaceOnUse" x1="-123.9171" y1="-291.1631" x2="-114.9418" y2="-266.5038" gradientTransform="matrix(1 0 0 -1 0 -416)">
	<stop  offset="0" style="stop-color:#4FD6B9"/>
	<stop  offset="1" style="stop-color:#29A3CF"/>
</linearGradient>
<path class="st3" d="M-114.4-148.8v20.4c0,0.8-0.8,1.4-1.5,1.2c-0.9-0.3-2-0.7-2.6-1c-0.5-0.2-1.1-0.1-1.5,0.4
	c-0.5,0.7-1.4,1.9-2.3,2.9c-0.7,0.9-2.1,0.3-2.1-0.8v-15.2c0-2,0-3.8,0-5.3c0-0.2,0.1-0.4,0.3-0.5c0.3-0.2,0.7-0.3,1-0.5
	c2.6-1.1,5.2-1.7,8-2.1C-114.7-149.5-114.4-149.2-114.4-148.8z"/>
<g>
	<g>
		<path class="st1" d="M-73,117.3c-0.5,0-0.9,0-1.4,0h-1.3V117c0-0.1,0-0.2,0-0.3v-2.1c0-0.7-0.3-1-1-1.1c-1.2-0.1-2.5-0.2-3.8,0
			c-0.2,0-0.3,0-0.5,0.1c-1.5,0.2-2.9,0.5-4.1,1c-0.2,0.1-0.4,0.2-0.7,0.3c-1.4,0.7-2.6,1.6-3.6,2.7c-0.1,0.1-0.1,0.2-0.2,0.3
			l-0.3,0.3l-0.2-0.2c-0.1-0.2-0.3-0.3-0.4-0.4c-1.1-1.3-2.5-2.2-4.1-2.9c-2.3-1-4.8-1.4-7.6-1.2h-0.2c-0.2,0-0.5,0-0.7,0.1
			c-0.6,0.1-0.9,0.4-0.9,1s0,1.1,0,1.7v0.7v0.1v0.3h-0.2c-0.1,0-0.2,0-0.3,0h-0.6c-0.5,0-0.9,0-1.4,0c-0.6,0-1,0.2-1.1,0.7v0.1v23.3
			v0.1c0,0.1,0,0.1,0.1,0.2c0.2,0.4,0.6,0.7,1.1,0.5c0.4-0.1,0.8-0.2,1.2-0.3c0.7-0.2,1.4-0.4,2.1-0.5c1.5-0.3,2.8-0.5,4.2-0.6
			c1.1,0,2.2-0.1,3.4,0c1.9,0.1,3.6,0.5,5.1,1.2c0.5,0.2,1,0.2,1.5,0c1.3-0.6,2.7-0.9,4.4-1.1c1.8-0.2,3.7-0.2,5.9,0.1
			c1.7,0.2,3.5,0.6,5.3,1.1c0.2,0.1,0.4,0.1,0.6,0.1c0.5,0,0.8-0.4,0.9-0.9c0-0.1,0-0.2,0-0.4v-22.6
			C-72.1,117.7-72.5,117.3-73,117.3z M-93.8,139c-3.7-0.5-7.5-0.3-11.7,0.8l-0.3,0.1v-20.6h1.8v16.1c0,0.1,0,0.3,0,0.4
			c0,0.6,0.4,0.9,1,0.9c0.3,0,0.7,0,1,0c0.6,0,1.2,0,1.8,0c2.2,0.1,4.1,0.6,5.7,1.5c0.3,0.2,0.6,0.4,0.8,0.5l0.8,0.6L-93.8,139z
			 M-90.9,138.2l-0.4-0.3c-2.7-2.3-6.1-3.4-10.6-3.3h-0.2v-19.3h0.2c0.1,0,0.2,0,0.4,0c0.2,0,0.4,0,0.6,0c1.6,0.1,2.9,0.2,4.1,0.6
			c1.9,0.5,3.4,1.4,4.5,2.6c0.4,0.4,0.7,0.9,1,1.3l0.2,0.3c0.1,0.2,0.1,0.4,0.1,0.6v17.5L-90.9,138.2L-90.9,138.2z M-88.9,138.2
			v-0.6c0-0.1,0-0.2,0-0.2v-16.8c0-0.3,0.1-0.5,0.2-0.7c0.7-1.1,1.6-2,2.7-2.7c0.8-0.5,1.7-0.9,2.8-1.3c0.7-0.2,1.4-0.4,2.1-0.5
			c0.8-0.1,1.7-0.2,2.8-0.2c0.1,0,0.1,0,0.2,0h0.1h0.2v19.3H-78c-4.5-0.1-7.9,1-10.5,3.3L-88.9,138.2z M-74,139.8l-0.3-0.1
			c-4.2-1.1-8.1-1.3-11.8-0.8L-87,139l0.7-0.6c0.6-0.4,1.1-0.7,1.7-1c1.7-0.7,3.6-1.1,5.9-1.1c0.5,0,1.1,0,1.7,0.1
			c0.3,0,0.6,0,0.8-0.2c0.2-0.2,0.4-0.5,0.4-0.9c0-4.1,0-8.3,0-12.4V119h1.8V139.8z"/>
	</g>
</g>
<linearGradient id="SVGID_3_" gradientUnits="userSpaceOnUse" x1="-85.6062" y1="-541.1496" x2="-81.2595" y2="-529.2072" gradientTransform="matrix(1 0 0 -1 0 -416)">
	<stop  offset="0" style="stop-color:#4FD6B9"/>
	<stop  offset="1" style="stop-color:#29A3CF"/>
</linearGradient>
<path class="st4" d="M-81,113.5v9.9c0,0.4-0.4,0.7-0.7,0.6c-0.5-0.1-0.9-0.3-1.3-0.5c-0.2-0.1-0.5,0-0.7,0.2
	c-0.3,0.4-0.7,0.9-1.1,1.4c-0.4,0.4-1,0.2-1-0.4v-7.4c0-1,0-1.9,0-2.6c0-0.1,0.1-0.2,0.2-0.3c0.2-0.1,0.3-0.2,0.5-0.2
	c1.2-0.5,2.5-0.8,3.9-1C-81.2,113.2-81,113.3-81,113.5z"/>
<linearGradient id="SVGID_4_" gradientUnits="userSpaceOnUse" x1="-169.014" y1="-385.988" x2="-169.014" y2="-350.3954" gradientTransform="matrix(1 0 0 -1 0 -416)">
	<stop  offset="0" style="stop-color:#4FD6B9"/>
	<stop  offset="1" style="stop-color:#29A3CF"/>
</linearGradient>
<path class="st5" d="M-175.8-65.7h13.5c1.1,0,2,0.9,2,2v31.6c0,1.6-1.8,2.6-3.1,1.7l-4.5-3c-0.7-0.5-1.6-0.5-2.2,0l-4.5,3
	c-1.3,0.9-3.1-0.1-3.1-1.7v-31.6C-177.9-64.8-177-65.7-175.8-65.7z"/>
<linearGradient id="SVGID_5_" gradientUnits="userSpaceOnUse" x1="-257.551" y1="-423.995" x2="-257.551" y2="-391.8947" gradientTransform="matrix(1 0 0 -1 0 -416)">
	<stop  offset="0" style="stop-color:#4FD6B9"/>
	<stop  offset="1" style="stop-color:#29A3CF"/>
</linearGradient>
<path class="st6" d="M-263.6-24.2h12.2c1,0,1.8,0.8,1.8,1.8V6.1c0,1.4-1.6,2.3-2.8,1.5l-4.1-2.7c-0.6-0.5-1.4-0.5-2,0l-4.1,2.7
	c-1.2,0.8-2.8-0.1-2.8-1.5v-28.5C-265.5-23.4-264.7-24.2-263.6-24.2z"/>
<g id="Ywh08n_1_">
	<g>
		<path d="M-234.3,102.7c0-3.7,0-7.3,0-10.9c1.9-0.8,4.5-0.2,8.2,1.9c3.4-2,6.2-2.7,8.2-2c0,0.3,0.1,0.6,0.1,0.9c0,3,0,6,0,9
			c0,0.1,0,0.2,0,0.3c-0.1,0.7-0.2,0.8-0.9,0.9c-1,0.1-2.1,0.2-3.1,0.4c-1.2,0.2-2.3,0.7-3.4,1.3c-0.3,0.2-0.5,0.3-0.7,0.4
			c-1.4-0.6-2.7-1.3-4.1-1.6C-231.4,103-232.8,102.9-234.3,102.7z"/>
		<path d="M-140,60.6c1.4,4.1,2.7,8.1,4.1,12.2c-0.1,0.1-0.2,0.3-0.3,0.5c0.2,0.5,0.4,1.1,0.6,1.8c-0.3,0.1-0.6,0.3-0.8,0.3
			c-2.9,0.9-5.8,1.8-8.7,2.6c-1.2,0.4-1.5,0.2-1.8-0.9c-1.1-3.6-2.2-7.1-3.2-10.7c0-0.1-0.1-0.3-0.1-0.4c-0.4-1.6-0.1-2.1,1.5-2.6
			c2.6-0.9,5.2-1.7,7.8-2.6C-140.8,60.7-140.4,60.7-140,60.6z M-146.2,77.4c3.2-0.9,6.2-1.9,9.3-2.8c0-0.4-0.1-0.8-0.1-1.2
			c-0.6,0.2-1.1,0.3-1.7,0.5c-2.2,0.7-4.5,1.4-6.7,2.1C-146.2,76.2-146.2,76.3-146.2,77.4z"/>
		<path d="M-164.6,65.4c0,4,0,8,0,12c-0.3,0-0.6,0-0.9,0c-2.8,0-5.6,0-8.4,0c-0.1,0-0.3,0-0.4,0c-1.2-0.1-1.9-0.8-1.9-2
			c0-1,0-2,0-3.1c0-2.6,0.1-5.2,0-7.7c0-1.3,0.8-2.3,2.2-2.3c2.9,0.1,5.9,0,8.8,0c0.2,0,0.4,0,0.6,0c0,0.2,0,0.4,0,0.7
			c-0.4,0-0.7,0-1.1,0c-2.6,0-5.2,0-7.7,0c-0.4,0-0.9,0.1-1.2,0.3c-0.7,0.4-0.7,1.3,0,1.7c0.4,0.2,0.9,0.2,1.3,0.3
			c2.5,0,5.1,0,7.6,0C-165.3,65.4-164.9,65.4-164.6,65.4z"/>
		<path d="M-206.5,92.2c1.6-0.8,3.3-1.4,5.1-1.2c1.4,0.1,2.4,0.9,3,2.3c0.1-0.2,0.3-0.4,0.3-0.5c0.7-1.2,1.8-1.7,3.1-1.8
			c1.7,0,3.2,0.5,4.7,1.2c0.3,2.7,0.5,5.4,0.8,8.1c-1.2-0.4-2.3-0.8-3.4-1.1c-1.3-0.4-2.7-0.4-3.9,0.3c-0.6,0.3-1.1,0.8-1.6,1.2
			c-0.1,0-0.2-0.1-0.2-0.1c-1.5-1.5-3.3-1.9-5.3-1.4c-0.9,0.2-1.7,0.6-2.6,0.9c-0.2,0.1-0.5,0.2-0.8,0.3
			C-207,97.6-206.7,94.9-206.5,92.2z M-199.3,94.2c-1.5-1.6-3.1-1.4-4.7-0.9c-1.5,0.5-1.6,0.6-1.7,1.3c0.4-0.2,0.7-0.3,1.1-0.4
			c1.5-0.5,3.1-1.1,4.6,0.1C-199.9,94.4-199.7,94.3-199.3,94.2z M-206.1,95.8c0.2,0.5,0.5,0.3,0.8,0.2c0.9-0.3,1.7-0.6,2.6-0.9
			c0.1,0,0.2-0.2,0.5-0.4c-0.4-0.1-0.7-0.2-0.9-0.1C-204.2,94.8-205.2,95.1-206.1,95.8z"/>
		<path d="M-216.7,76.8c-0.5,0-0.8,0-1.1,0c-1.7-0.2-3.4-0.5-5.1-0.1c-0.7,0.1-1.5,0.4-2.2,0.6c-0.6,0.2-1.2,0.3-1.7,0
			c-1.3-0.8-2.7-0.8-4.1-0.8c-1.1,0-2.3,0.2-3.4,0.3c-0.3,0-0.5,0-0.8,0c-0.5-1.2-0.3-2.4-0.2-3.5c0.1-1.8,0.3-3.7,0.5-5.5
			c0.1-0.9,0.2-1.7,0.3-2.6c0.5-0.2,0.9-0.3,1.4-0.5c0.1-0.3,0.1-0.7,0.2-1.1c1.3-0.4,2.5-0.3,3.8-0.2c1.3,0.2,2.4,0.8,3.1,1.9
			c2.1-2,3.9-2.4,7-1.8c0.1,0.4,0.2,0.8,0.3,1.2c0.4,0.1,0.8,0.3,1.3,0.4c0.1,0.3,0.2,0.5,0.2,0.8c0.3,2.9,0.6,5.8,0.8,8.7
			C-216.5,75.3-216.7,76-216.7,76.8z M-233.1,72.9c2.4,0.2,4.6,0.6,6.5,2.2c0.1-0.3,0.1-0.4,0.1-0.5c0-2.5,0-5,0-7.5
			c0-1.3-0.9-2.3-2.1-2.7c-1.2-0.3-2.5-0.4-3.8-0.1C-232.6,67.1-232.8,69.9-233.1,72.9z M-219.7,64.2c-1.4-0.3-2.7-0.2-3.9,0.2
			c-1.2,0.4-2,1.4-2,2.7c0,2.4,0,4.9,0,7.3c0,0.2,0,0.4,0.1,0.7c1.9-1.7,4.1-2,6.5-2.2C-219.3,70-219.5,67.1-219.7,64.2z
			 M-233.8,73.6c-0.1-2.6,0.5-5.2,0.5-7.9c-0.3,0.1-0.5,0.2-0.5,0.2c-0.4,2.9-0.6,5.8-0.9,8.8c2.4-0.3,4.7-0.2,6.9,0.6
			C-229.6,73.9-231.7,73.9-233.8,73.6z M-223.9,75.1c1-0.2,2.1-0.4,3.1-0.5c1.1-0.1,2.2,0,3.4,0c-0.2-2.9-0.5-5.8-0.8-8.8
			c-0.3,0.1-0.4,0.1-0.5,0.2c0.1,1.3,0.3,2.6,0.3,3.9s0.4,2.5,0.1,3.9C-220.3,73.9-222.3,73.8-223.9,75.1z"/>
		<path d="M-235.5,130.2c-0.1-0.4-0.2-0.7-0.2-1c0.3-2.8,0.6-5.5,0.9-8.3c0.1-0.7,0.6-1,1.3-1.1c0.1-0.4,0.1-0.7,0.2-1.1
			c1.8-0.7,3.6-1.2,5.5-1c0.3,0,0.6,0.2,0.8,0.3c0.3,0.1,0.5,0.3,0.8,0.6c1.3-1.3,2.9-1.1,4.5-0.8c0.9,0.2,1.8,0.5,2.6,0.7
			c0.1,0.5,0.2,0.8,0.2,1.2c1,0,1.3,0.6,1.4,1.5c0.3,2.5,0.6,4.9,0.8,7.4c0,0.4,0,0.7,0,1c-0.4,0.5-0.9,0.4-1.3,0.4
			c-5,0-10.1,0-15.1,0C-233.7,130.2-234.5,130.2-235.5,130.2z M-226.5,127.4c0-0.4,0.1-0.7,0.1-1c0-1.9,0-3.8,0-5.8
			c0-1.5-0.6-2.1-2.2-2.2c-1.3,0-2.6,0.4-4,0.8c-0.2,2.5-0.5,5-0.7,7.6C-231,126.6-228.8,126.1-226.5,127.4z M-219.6,119.3
			c-1.4-0.5-2.7-0.8-4-0.8c-1.6,0-2.1,0.6-2.2,2.2c0,1.9,0,3.8,0,5.6c0,0.3,0,0.6,0,1.1c2.3-1.3,4.5-0.8,6.9-0.5
			C-219.1,124.3-219.4,121.8-219.6,119.3z M-218.9,127.7c-1.1-0.1-2.2-0.3-3.3-0.4c-1-0.1-2,0.1-2.9,0.6c-0.2,0.1-0.3,0.3-0.6,0.6
			c2.3,0,4.5,0,6.7,0C-218.9,128.2-218.9,128-218.9,127.7z M-233.4,128.4c1.3,0.2,6,0.2,6.7-0.1c-2.2-1.6-4.4-0.9-6.7-0.6
			C-233.3,128-233.3,128.2-233.4,128.4z"/>
		<path d="M-170.4,146.7c1.1-0.8,2.2-1.4,3.5-1.6c1.1-0.2,2.2-0.4,3.3,0.1c0.2,0.1,0.5,0.1,0.8,0.1c1.1,0.1,1.5,0.5,1.5,1.5
			c0,3.1,0,6.3,0,9.4c0,0.9-0.4,1.2-1.4,1.3c-1.1,0.1-2.2,0.2-3.3,0.4s-2.2,0.5-3.1,1.2c-0.8,0.6-1.6,0.6-2.5,0
			c-1.8-1.1-3.8-1.4-5.9-1.6c-0.2,0-0.3,0-0.5,0c-1.1,0-1.5-0.5-1.5-1.5c0-3.1,0-6.1,0-9.2c0-1.1,0.5-1.5,1.5-1.6
			c0.4,0,0.8-0.3,1.2-0.3c0.9,0,1.8-0.1,2.6,0c1.1,0.1,2.1,0.6,3,1.2C-170.9,146.4-170.6,146.6-170.4,146.7z M-164.3,145.8
			c-1.9-0.2-3.5,0.3-5,1.2c-0.6,0.4-1,0.9-0.9,1.7c0.1,1.9,0,3.9,0,5.8c0,0.3-0.1,0.5-0.1,0.8c-0.1,0-0.2,0-0.3,0c0-0.8,0-1.7,0-2.5
			c0-0.9,0-1.7,0-2.6c0-0.9,0-1.7,0-2.5c-1.7-1.6-4-2.3-5.8-1.8c0,3,0,6,0,9c2.2,0.1,4.3,0.6,6.1,2c1.8-1.5,3.9-1.8,6.1-2.1
			C-164.3,151.8-164.3,148.8-164.3,145.8z M-163.5,146.6c0,0.5,0,0.8,0,1.2c0,2.2,0,4.4,0,6.5c0,1.2-0.1,1.2-1.2,1.3
			c-1.8,0.1-3.5,0.5-4.9,1.6c-0.5,0.4-1,0.4-1.5,0c-1.4-1.1-3.1-1.4-4.8-1.6c-1.2-0.1-1.3-0.2-1.3-1.4c0-2.2,0-4.4,0-6.5
			c0-0.4,0-0.7,0-1.1c-0.3,0-0.5-0.1-0.7-0.1c-0.1,0-0.2,0.1-0.2,0.1c-0.2,1.7-0.1,9,0.1,9.7c2.7,0.1,5.3,0.6,7.7,2.1
			c2.4-1.6,5.1-2,7.8-2.1c0-3.3,0-6.5,0-9.8C-162.9,146.6-163.1,146.6-163.5,146.6z"/>
		<path d="M-179,92.5c0.4-0.1,0.7-0.2,1.2-0.4c0-0.3,0-0.7,0-1.1c0-1,0.3-1.3,1.3-1.4c1.9-0.1,3.6,0.3,5.2,1.3
			c0.3,0.2,0.6,0.3,0.8,0.5c0.5-0.3,0.9-0.5,1.3-0.8c1.4-0.8,3-1.2,4.7-1.1c1,0,1.3,0.4,1.4,1.4c0,0.4,0,0.7,0,1.1
			c0.3,0.1,0.5,0.1,0.7,0.1c0.2,0.1,0.4,0.2,0.6,0.3c0,0.3,0.1,0.6,0.1,1c0,2.5,0,5,0,7.4c0,1.1-0.1,1.2-1.2,1.2c-0.7,0-1.4,0-2.1,0
			c-1.4-0.1-2.7,0.3-4,1c-1,0.5-2,0.5-2.9,0c-1.2-0.6-2.4-1-3.8-1c-0.7,0-1.5,0-2.2,0c-0.3,0-0.6-0.1-1-0.1c-0.1-0.4-0.2-0.7-0.2-1
			c0-2.5,0-5.1,0-7.6C-179.1,93.1-179,92.8-179,92.5z M-176.8,90.6c0,3.2,0,6.4,0,9.5c2.3,0.2,4.5,0.6,6.3,2.1
			c1.9-1.6,4.1-1.9,6.2-2.1c0.2-1.2,0.2-8.8-0.1-9.5c-1.8-0.2-3.5,0.3-5.1,1.3c-0.6,0.4-0.9,0.9-0.9,1.7c0.1,2.1,0,4.2,0,6.3
			c0,0.3,0.1,0.7-0.4,0.9c0-2.8,0-5.5,0-8.2C-172.4,91-174.4,90.5-176.8,90.6z"/>
		<path d="M-200,77.7c-2-1.5-4.2-1.5-6.5-1.7c-0.1-0.3-0.1-0.6-0.1-0.9c0-3.3,0-6.7,0-10c0-0.2,0-0.4,0.1-0.7
			c2.3-0.4,4.5,0.1,6.6,1.2C-200,69.7-200,73.6-200,77.7z"/>
		<path d="M-190,64.4c0,0.4,0.1,0.6,0.1,0.9c0,3.2,0,6.4,0,9.6c0,1.1-0.1,1.1-1.1,1.2c-1.1,0.1-2.2,0.2-3.3,0.5
			c-0.8,0.2-1.4,0.6-2.2,1c0-3.9,0-7.8,0-11.9C-194.6,64.5-192.5,64-190,64.4z"/>
		<path d="M-134.8,96.1c0-0.4,0.1-0.7,0.1-0.9c-2.2-0.9-5.1-0.4-6.4,1.2c0.2,0,0.4,0,0.5,0c0.7-0.1,1.4-0.2,2.2-0.1
			c1.5,0.1,3,0.2,4.6,0.3c0,0.4,0.1,0.8,0.2,1.3c0.1,0.3,0.1,0.6,0.4,0.8c0.2,0.2,0.3,0.7,0.4,1.2c-0.5,0-0.9,0.1-1.3,0.1
			c-1.1,0-2.2-0.1-3.4-0.1c-0.3,0-0.5,0-0.8,0c-1.5,0-1.9,0.4-2,1.9c0,0.1,0,0.1-0.1,0.2c-1.4,0-2.9,0-4.4,0c0-0.1-0.1-0.1-0.1-0.2
			c-0.1-1.5-0.5-2-2.1-2c-1.3,0-2.6,0.1-3.9,0.1c-0.5,0-0.9-0.1-1.4-0.1c0-0.6-0.1-1.1,0.5-1.4c0.2-0.1,0.2-0.5,0.2-0.7
			c0.1-0.4,0.1-0.8,0.1-1.2c1.6-0.1,3.1-0.3,4.7-0.3c0.8,0,1.7,0.1,2.5,0.1c-0.8-1.4-3.6-2-6.2-1.2c0,0.3,0,0.6,0,1
			c-0.2,0-0.4,0-0.5,0c-0.2-0.4-0.4-0.9-0.6-1.4c1.5-0.6,3-0.7,4.5-0.5s2.9,0.8,3.8,2.2c-0.3-2.3-2.7-4-5.4-4.1c0,0.2,0,0.4-0.1,0.7
			c0,0.2,0,0.5,0,0.7c-0.3,0.1-0.5,0.1-0.5-0.2c-0.1-0.6-0.2-1.2-0.3-1.8c3,0,5.4,1,6.9,3.7c1.5-2.7,3.9-3.8,6.9-3.7
			c-0.1,0.7-0.2,1.4-0.3,2.1c-0.4,0.2-0.5-0.1-0.5-0.4s0-0.5,0-0.8c-2.2-0.5-5.1,1.5-5.5,3.7c2.5-2.2,4.9-2.7,8.2-1.5
			C-134.1,95.8-134.1,95.9-134.8,96.1z M-150.9,98.6c1.3-0.1,2.5-0.1,3.7-0.2c1.2,0,2.3,0.1,3.1,1.1c0.3,0.3,0.5,0.7,0.7,1.1
			c0.6,0,1.2,0,1.8,0c0.6-1.9,2.1-2.3,3.9-2.2c0.9,0.1,1.8,0.1,2.7,0.1c0.2,0,0.5-0.1,0.8-0.1c0-0.5-0.1-0.9-0.1-1.3
			c-1.7-0.1-3.3-0.4-4.9-0.4c-1.4,0-2.5,0.6-3,2.1c-0.1,0.2-0.1,0.3-0.3,0.6c-0.1-0.3-0.2-0.5-0.3-0.7c-0.6-1.3-1.8-2.1-3.2-2
			c-0.5,0-1,0.1-1.5,0.1c-1,0.1-2.1,0.2-3.2,0.3C-150.8,97.7-150.8,98.1-150.9,98.6z"/>
		<path d="M-205.7,145.1c0.1-0.5,0.5-0.6,0.9-0.6c0.7,0,1.3,0,2,0c3,0,6.1,0,9.1,0c1.4,0,2.5,0.6,3.2,1.8c1.1,2-0.1,4.6-2.4,4.9
			c-0.3,0-0.6,0.1-0.9,0.1c-3.6,0-7.2,0-10.8,0c-0.4,0-0.9,0-1.1-0.5c0.1-0.6,0.5-0.7,1-0.7c1.1,0,2.2,0,3.3,0c0.5,0,1-0.2,1.4-0.4
			c0.8-0.5,1.2-1.5,0.9-2.3c-0.3-1-1.1-1.6-2.1-1.7c-1.2,0-2.3,0-3.5,0C-205.3,145.7-205.3,145.7-205.7,145.1z"/>
		<path d="M-134.4,119.2c0,3.7,0,7.2,0,10.9c-0.4,0.1-0.7,0.1-1,0.2c-1.1,0.2-2.2,0.3-3.3,0.5c-0.5,0.1-1.1,0.4-1.5,0.7
			c-0.6,0.4-1.2,0.6-1.9,0.5c-0.4,0-0.9,0-1.3,0c-0.3,0-0.7-0.1-0.9-0.3c-1.5-1.1-3.3-1.2-5-1.4c-0.4,0-0.8,0-1.3,0
			c-0.1-0.4-0.1-0.7-0.1-1c0-3.1,0-6.2,0-9.3c0-0.8,0.1-0.9,1-1c1.8-0.1,3.6,0.3,5.3,1.1c1.3,0.7,2.6,0.7,3.9,0
			c1.6-0.8,3.3-1.2,5.2-1.1C-135.1,119-134.8,119.1-134.4,119.2z M-140.9,130.6c1.8-1,3.6-1.1,5.5-1.3c0-3.1,0-6.2,0-9.3
			c-2-0.1-3.8,0.3-5.5,1.4C-140.9,124.3-140.9,127.3-140.9,130.6z M-144.4,130.5c0.2-0.7,0.3-8.1,0.1-9.2c-1.7-1-3.4-1.4-5.4-1.3
			c0,3.2,0,6.2,0,9.3C-147.9,129.4-146.1,129.6-144.4,130.5z M-143.3,130.9c0.5,0,1,0,1.5,0c0-3.2,0-6.3,0-9.3c-0.6,0-1,0-1.5,0
			C-143.3,124.8-143.3,127.8-143.3,130.9z"/>
		<path d="M-191.3,159.2c-0.3,0-0.6,0-0.8,0c-3.6,0-7.1,0-10.7,0c-1.1,0-2-0.3-2.8-1.1c-0.9-1-1.3-2.2-0.8-3.5s1.5-2,2.9-2.3
			c0.3-0.1,0.7,0,1,0c3.4,0,6.7,0,10.1,0c0.3,0,0.6-0.1,0.9,0.1c0.2,0.1,0.4,0.4,0.5,0.6c0,0.1-0.3,0.4-0.5,0.5s-0.5,0-0.8,0
			c-1.1,0-2.2,0-3.4,0.1c-1.1,0.1-1.9,1-2,2s0.7,2,1.7,2.2c0.4,0.1,0.8,0.1,1.2,0.1c1,0,2,0,3,0
			C-190.9,158.1-190.8,158.3-191.3,159.2z M-202.8,153.6c0-0.1-0.1-0.1-0.1-0.2c-0.3,0.1-0.6,0.1-0.7,0.3c-0.9,0.9-0.9,3-0.1,4
			c0.2,0.3,0.5,0.4,0.9,0.1C-204,156.4-204,155-202.8,153.6z M-199.9,153.6c-0.5-0.2-0.8-0.1-1.1,0.3c-0.7,1-0.7,2.7,0,3.8
			c0.2,0.3,0.5,0.4,0.9,0.3C-201.1,156.4-201.2,155-199.9,153.6z"/>
		<path d="M-207,130.7c-0.4-1-0.6-1.9-0.5-2.9c0.3-2.7,0.5-5.4,0.8-8.2c0.6-0.3,1.2-0.6,1.8-0.9c1.1-0.5,2.1-0.9,3.3-1
			s2.3,0.1,3.3,1c1.1-0.9,2.3-1.2,3.7-1c1.2,0.2,3.6,1.1,4.7,1.9c0.1,0.9,0.2,1.8,0.3,2.8c0.2,1.9,0.3,3.7,0.5,5.6
			c0.1,0.9-0.2,1.7-0.6,2.6c-0.4-0.1-0.7-0.3-1-0.4c-1.1-0.3-2.1-0.7-3.2-1c-0.4-0.1-0.8-0.1-1.2-0.1c-0.8,0.1-1.5,0.3-1.7,1.3
			c-1,0-1.9,0-2.9,0c-0.6-1.4-1.8-1.5-3.1-1.2c-1.1,0.3-2.2,0.7-3.3,1C-206.4,130.5-206.6,130.6-207,130.7z M-198.7,127.6
			c0-2.6,0-5.1,0-7.6c0-0.5-0.3-0.9-0.7-1.1s-0.9-0.4-1.4-0.4c-1.9,0-3.5,0.8-5.1,1.6c-0.2,2.6-0.5,5.1-0.7,7.7
			C-204,127-201.4,126-198.7,127.6z M-190.7,120.2c-1.3-0.8-2.7-1.3-4.1-1.5c-0.7-0.1-1.4,0-2,0.2c-0.9,0.2-1.1,0.6-1.1,1.6
			c0,2.1,0,4.2,0,6.3c0,0.3,0,0.5,0.1,0.9c2.7-1.6,5.2-0.5,7.9,0.2C-190.2,125.2-190.4,122.7-190.7,120.2z M-198.4,128.9
			c-1.3-1.2-2.9-1.6-4.7-1.2c-1.2,0.3-2.4,0.5-3.6,1.2c0.1,0.3,0.2,0.5,0.2,0.7c1.1-0.3,2-0.7,3-0.9c1.7-0.4,3.2-0.4,4.3,1.2
			c0.6,0,1.1,0,1.6,0c0.6-0.8,1.3-1.3,2.2-1.3c0.6,0,1.3,0,1.9,0.1c1,0.2,2,0.6,2.9,0.9c0.1,0,0.2,0,0.3,0c0-0.3,0.1-0.5,0.1-0.8
			c-1.2-0.6-2.5-0.9-3.7-1.1c-0.9-0.2-1.8-0.2-2.6,0.2C-197,128.1-197.6,128.5-198.4,128.9z"/>
		<path d="M-140.7,159.9c-1,0-2.2,0-3.3,0c-0.6,0-0.8-0.3-0.8-0.9c0-0.7,0-1.5,0-2.2c0-3.7,0-7.3,0-11c0-0.2,0-0.5,0-0.7
			c0.1-0.6,0.3-0.9,0.8-0.9c1,0,2,0,3,0c0.5,0,0.8,0.3,0.8,0.8c0,0.3,0,0.5,0,0.8c0,4.2,0,8.4,0,12.6
			C-140.2,158.9-140.1,159.4-140.7,159.9z M-143.9,158.4c1,0,1.9,0,2.8,0c0-0.3,0-0.6,0-0.9c-1,0-1.9,0-2.8,0
			C-143.9,157.8-143.9,158.1-143.9,158.4z M-143.9,147.1c0.9,0,1.8,0,2.8,0c0-0.4,0-0.6-0.1-0.9c-0.9,0-1.8,0-2.7,0
			C-143.9,146.6-143.9,146.8-143.9,147.1z M-143.9,148.1c0.8,0.5,2.3,0.4,2.9-0.1C-142,147.9-142.9,147.8-143.9,148.1z"/>
		<path d="M-135.6,159.8c-0.6,0-0.8-0.2-1-0.9c-0.3-1.1-0.5-2.3-0.7-3.4c-0.7-3.3-1.4-6.5-2.2-9.8c-0.2-1-0.1-1.2,0.9-1.5
			c0.7-0.2,1.4-0.3,2.1-0.5c1-0.2,1.2-0.1,1.5,0.9c0.3,1.5,0.7,3,1,4.5c0.6,2.7,1.2,5.3,1.8,8c0.3,1.5,0.2,1.7-1.3,2
			c-0.6,0.1-1.3,0.3-1.9,0.4C-135.5,159.8-135.6,159.8-135.6,159.8z M-138.2,147.5c0.9-0.2,1.8-0.4,2.8-0.6c-0.1-0.4-0.2-0.7-0.3-1
			c-1,0.3-1.9,0.3-2.8,0.8C-138.4,146.9-138.3,147.2-138.2,147.5z M-135.8,158.4c0.9-0.2,1.8-0.4,2.8-0.6c-0.1-0.4-0.2-0.6-0.2-1
			c-1,0.2-1.8,0.4-2.8,0.6C-136,157.8-135.9,158.1-135.8,158.4z M-138.3,148.2c0.3,0.2,0.5,0.4,0.6,0.4c0.8-0.1,1.5-0.3,2.3-0.5
			c0.1,0,0.1-0.3,0.2-0.6C-136.3,147.7-137.2,147.9-138.3,148.2z"/>
		<path d="M-145.7,152.1c0,2.2,0,4.4,0,6.5c0,1.1-0.2,1.3-1.3,1.3c-0.8,0-1.5,0-2.3,0s-1-0.2-1.1-1.1c0-0.9,0-1.8,0-2.7
			c0-3.5,0-7,0-10.5c0-0.2,0-0.3,0-0.5c0.1-0.7,0.2-0.9,1-1c0.9,0,1.7,0,2.6,0c0.8,0,1.1,0.2,1.1,1.1
			C-145.7,147.5-145.7,149.8-145.7,152.1L-145.7,152.1z M-149.4,158.4c1,0,1.8,0,2.8,0c0-0.3,0-0.6,0-0.9c-1,0-1.8,0-2.8,0
			C-149.4,157.8-149.4,158-149.4,158.4z M-149.4,146.2c0,0.3,0,0.6,0,0.9c1,0,1.8,0,2.8,0c0-0.4-0.1-0.6-0.1-0.9
			C-147.6,146.2-148.5,146.2-149.4,146.2z M-149.6,147.9c0.7,0.6,2.4,0.6,3.1,0.1C-147.5,147.8-148.5,147.9-149.6,147.9z"/>
		<path d="M-163.8,118.5c0.2,2.7,0.4,5.4,0.7,8.2c-4.5-0.7-5.2-0.1-6.8,0.9c0-0.3,0-0.5,0-0.8c0-2.2,0-4.4,0-6.6
			c0-1.4,0.8-2.3,2.2-2.5c0.5-0.1,1.1-0.1,1.6,0C-165.4,117.7-164.5,117.9-163.8,118.5z"/>
		<path d="M-177.7,126.7c0.2-2.8,0.4-5.5,0.7-8.3c1.3-0.7,2.7-1,4.1-0.8c0.7,0.1,1.3,0.5,1.7,1c0.2,0.2,0.3,0.5,0.3,0.8
			c0,2.6,0,5.2,0,7.7c0,0.1,0,0.1-0.1,0.3C-173,125.9-175.2,126.3-177.7,126.7z"/>
		<path d="M-224.8,152.3c1.9,0,3.8,0,5.7,0c0.2,0,0.5,0,0.7,0c0.5,0,0.8,0.3,0.8,0.7s-0.3,0.7-0.8,0.8c-0.3,0-0.6,0-0.9,0
			c-3.6,0-7.2,0-10.8,0c-0.3,0-0.7,0-1,0c-1,0.1-1.7,0.9-1.7,1.9c0,0.9,0.7,1.8,1.7,1.9c0.3,0,0.5,0,0.8,0c3.8,0,7.5,0,11.3,0
			c0.3,0,0.5,0,0.8,0c0.4,0.1,0.6,0.4,0.6,0.8c0,0.4-0.2,0.7-0.7,0.7c-0.2,0-0.4,0-0.6,0c-4,0-8,0-12,0c-1.8,0-3.1-1.1-3.4-2.9
			c-0.4-2.1,1.2-4,3.3-4c0.1,0,0.1,0,0.2,0C-228.9,152.3-226.8,152.3-224.8,152.3L-224.8,152.3z"/>
		<path d="M-225,151.3c-2,0-4.1,0-6.1,0c-1.5,0-2.6-0.9-3.1-2.2c-0.5-1.4-0.1-2.9,1-3.8c0.5-0.4,1.1-0.6,1.7-0.8
			c0.5-0.1,1-0.1,1.5-0.1c3.7,0,7.5,0,11.2,0c0.1,0,0.3,0,0.4,0c0.4,0.1,0.8,0.3,0.8,0.7s-0.3,0.7-0.8,0.8c-0.3,0-0.5,0-0.8,0
			c-3.5,0-7.1,0-10.6,0c-0.5,0-1,0-1.5,0.1c-0.9,0.1-1.6,1-1.6,1.9s0.7,1.7,1.5,1.8c0.5,0.1,0.9,0.1,1.4,0.1c3.6,0,7.1,0,10.7,0
			c0.3,0,0.7,0,1,0.1s0.6,0.3,0.6,0.7s-0.2,0.7-0.7,0.7c-0.2,0-0.5,0-0.7,0C-221.1,151.4-223,151.4-225,151.3
			C-225,151.4-225,151.3-225,151.3z"/>
		<path d="M-199.2,66c0.6,0,1.2,0,1.9,0c0,3.9,0,7.8,0,11.7c-0.2,0-0.3,0.1-0.4,0.1c-0.5,0-0.9,0-1.4,0
			C-199.4,77.1-199.5,67.2-199.2,66z"/>
		<path d="M-200,102.5c-1.2-1.6-2.8-1.3-4.3-0.9c-0.8,0.2-1.6,0.5-2.4,0.8c-0.1-0.3-0.2-0.6-0.4-1c1.9-0.8,3.8-1.5,5.8-1.2
			c0.3,0.1,0.7,0.1,0.9,0.3c0.9,0.8,2,0.4,3,0.5c0.1,0,0.3-0.1,0.5-0.1c1.2-0.9,2.6-0.9,4-0.7c1.2,0.2,2.3,0.6,3.4,1.2
			c-0.1,0.3-0.2,0.6-0.3,0.9c-1.2-0.3-2.4-0.7-3.6-1c-1.2-0.3-2.4,0-3.2,1.1C-197.7,102.1-198.8,102-200,102.5z"/>
		<path d="M-141.1,119c1.6-0.6,3.1-1.3,4.8-1.2c0.3,0,0.7,0.1,1,0.1c0.1,0,0.1,0.1,0.2,0.3c-0.2,0.1-0.4,0.2-0.5,0.2
			c-2-0.1-3.8,0.5-5.4,1.5c-0.6,0.4-2.5,0.3-3.2,0c-1.6-1-3.4-1.6-5.3-1.5c-0.1,0-0.3-0.1-0.4-0.1c0-0.5,0.3-0.5,0.6-0.5
			c1.4-0.1,2.8,0.2,4,0.8c0.3,0.1,0.6,0.3,1.1,0.3c-0.2-0.1-0.3-0.3-0.5-0.4c-1-0.6-2.1-1-3.3-1.1c-0.7-0.1-0.7-0.1-1.1-0.4
			c1.3-0.9,4.4,0.3,6.6,2.6c2.4-2.3,5.2-3.4,6.7-2.6c-0.2,0.5-0.7,0.4-1.1,0.4c-1.3,0.1-2.5,0.6-3.6,1.3
			C-140.8,118.7-141,118.9-141.1,119z"/>
		<path d="M-170.4,130c3-2,5.9-1.2,8.9,0.3c-0.1,0.3-0.2,0.5-0.3,0.7c-0.1,0-0.2,0-0.3,0c-1-0.3-1.9-0.7-2.9-1
			c-1.6-0.5-3.1-0.4-4.6,0.5c-0.2,0.1-0.5,0.2-0.7,0.4c-0.4-0.2-0.7-0.3-1.1-0.5c-1.3-0.6-2.6-0.8-3.9-0.4c-1.2,0.4-2.3,0.7-3.5,1.1
			c-0.1-0.2-0.2-0.4-0.3-0.7C-176.3,128.8-173.4,127.9-170.4,130z"/>
		<path d="M-178.5,127.5c0.4,0,0.7,0,1,0c1.1-0.1,2.3-0.2,3.4-0.2c1,0,1.9,0.3,2.8,1.2c-1.5-0.5-2.9-0.8-4.3-0.4
			c-1.3,0.3-2.6,0.8-3.9,1.2c0.1-1.1,0.2-2.3,0.3-3.4c0.1-1.5,0.3-3,0.4-4.4c0.1-0.5,0.1-1,0.9-1
			C-178.1,122.8-178.3,125-178.5,127.5z"/>
		<path d="M-162.5,127.6c0-0.3,0.1-0.7,0.1-1c-0.1-1.8-0.3-3.7-0.5-5.5c0-0.2,0-0.3,0-0.6c0.3,0.1,0.5,0.1,0.7,0.2
			c0.3,2.9,0.6,5.7,0.8,8.7c-2.7-1.1-5.2-2.1-8-1c0.9-1,2-1.2,3.2-1.1C-165,127.4-163.8,127.5-162.5,127.6z"/>
		<path d="M-205.6,63.6c0.2-0.4,0.3-0.7,0.5-1.2c2.5-0.2,4.7,0.5,6.8,1.8c2.1-1.2,4.3-2,6.8-1.7c0.2,0.4,0.3,0.8,0.5,1.2
			c-0.7,0.4-0.8-0.2-1-0.5c-1.7-0.2-3.8,0.5-6.2,1.9c-1.1-0.5-2-1-3.1-1.3c-1-0.3-2.1-0.5-3.2-0.6
			C-204.9,63.2-204.8,64.1-205.6,63.6z"/>
		<path d="M-233.4,90.9c0.1-0.5,0.1-0.8,0.1-1.2c1.5-0.3,4.7,1.1,6.4,2.8C-228.9,91.4-231,90.9-233.4,90.9z"/>
		<path d="M-218.9,90.9c-2.1,0-4.1,0.4-6,1.4c0.9-1.2,4.3-2.7,5.8-2.7C-218.7,90-218.7,90.4-218.9,90.9z"/>
		<path d="M-230.7,156.6c0.7-0.4,11.3-0.4,12.1-0.1v0.1c0,0,0,0-0.1,0c-3.8,0-7.7,0-11.5,0.1C-230.3,156.6-230.5,156.6-230.7,156.6z
			"/>
		<path d="M-218.6,155.4c-4,0-8.1,0-12.2,0c0.3-0.5,0.7-0.3,1-0.3c3.1,0,6.1,0,9.2,0c0.5,0,1,0,1.5,0c0.2,0,0.4,0.1,0.5,0.1
			C-218.6,155.2-218.6,155.3-218.6,155.4z"/>
		<path d="M-218.6,148.4c-0.7,0.4-11.3,0.4-12.1,0.2v-0.1c0,0,0-0.1,0.1-0.1c3.8,0,7.6-0.1,11.4-0.1
			C-219,148.4-218.8,148.4-218.6,148.4z"/>
		<path d="M-218.6,147.3c-0.6,0.2-11.1,0.3-12.1,0.1v-0.1c0,0,0-0.1,0.1-0.1c0.2,0,0.4-0.1,0.6-0.1c3.8,0,7.6,0,11.4,0
			C-218.6,147.2-218.6,147.3-218.6,147.3z"/>
		<path d="M-225.7,92.2c0.8-1.8,3-3.5,4.4-3.5c0,0.1,0.1,0.3,0.1,0.4s0,0.3,0,0.4c-0.8,0.4-1.5,0.7-2.3,1.1
			C-224.3,91.2-225,91.7-225.7,92.2z"/>
		<path d="M-230.9,89.5c0.1-0.2,0.1-0.5,0.2-0.8c1.6,0.2,3.5,1.8,4.2,3.3C-227.9,91.2-229.3,90.4-230.9,89.5z"/>
		<path d="M-192.4,155.3c-1.3,0-2.7,0-4,0c0.4-0.4,0.4-0.4,2-0.4c0.7,0,1.4-0.2,2.1,0.2C-192.4,155.2-192.4,155.3-192.4,155.3z"/>
		<path d="M-204.3,148.7c1.1-0.3,3.5-0.2,4.1,0C-200.8,148.9-203.3,149-204.3,148.7z"/>
		<path d="M-192.2,156.4c-1,0.3-3.4,0.3-4.2,0.1C-195.8,156.2-193.5,156.2-192.2,156.4z"/>
		<path d="M-200.1,147.3c-0.6,0.3-2.9,0.3-4,0.1C-203.6,147.1-201.1,147-200.1,147.3z"/>
		<path d="M-165.1,149.2c-0.9,0.2-1.7,0.3-2.4,0.6c-0.7,0.2-1.3,0.6-2.1,1C-168.8,149.6-166.5,148.8-165.1,149.2z"/>
		<path d="M-165.2,150.7c-1.6,0-3,0.7-4.3,1.4C-168.8,151.1-166.6,150.3-165.2,150.7z"/>
		<path d="M-165.2,152.2c-0.8,0.2-1.5,0.3-2.3,0.5c-0.7,0.2-1.4,0.6-2.1,0.8c1.3-1,2.7-1.6,4.3-1.6
			C-165.2,152-165.2,152.1-165.2,152.2z"/>
		<path d="M-165.2,147.7c-0.8,0.2-1.5,0.3-2.3,0.5c-0.7,0.2-1.3,0.6-2,0.8c1.3-1,2.6-1.6,4.3-1.5
			C-165.3,147.6-165.2,147.7-165.2,147.7z"/>
		<path d="M-171.4,149c-1.4-0.7-2.8-1.2-4.3-1.4C-174,147.4-172.6,148-171.4,149z"/>
		<path d="M-172.7,149.9c-1.1-0.3-2-0.5-3-0.7C-175,148.8-173.8,149.1-172.7,149.9z"/>
	</g>
</g>
<path class="st1" d="M-75.1-57.5c0.6,0.2,0.7,1.1,0.1,1.4l-1.6,0.7c-2.4,1.1-4.9,2.1-7.3,3.2c-3.4,1.5-6.8,2.9-10.2,4.4
	c-1.8,0.8-3.6,1.6-5.5,2.4c-0.9,0.4-1.4,1.1-1.4,2.1c0,19.1,0,38.2,0,57.3c0,0.2,0,1.1,0,2.1c0,0.7,0.8,1.2,1.4,0.9
	c3.5-1.7,12.4-5.9,15.9-7.6c2.7-1.3,5.5-2.7,8.2-4s5.4-2.6,8.1-3.9c0.4-0.2,0.6-0.5,0.6-0.9c0-0.3,0-0.6,0-0.9c0-18.8,0-37.7,0-56.5
	c0-0.2,0-0.5,0-0.7c0-1.2-0.6-2-1.6-2.4c-1.5-0.6-3.1-1.1-4.7-1.7c-2.1-0.7-4.2-1.5-6.3-2.2c-2.1-0.8-4.1-0.7-6.2,0.3
	c-4.1,1.8-8.2,3.6-12.2,5.4c-3.9,1.7-7.7,3.4-11.6,5.1c-0.6,0.3-1.3,0.6-1.9,0.9c-0.8,0.3-1.1,1-1.2,1.8c0,0.3,0,0.6,0,0.9V3.8
	c0,0.5,0.4,0.8,0.8,0.8h2.8c0.5,0,0.8-0.4,0.8-0.8v-50.6c0-1.5,0.6-2.4,1.9-2.9c4-1.7,7.9-3.4,11.9-5.1c3.4-1.5,6.9-3,10.3-4.5
	c1.1-0.5,2.3-0.6,3.4-0.2C-79.4-59.1-76.8-58.2-75.1-57.5z"/>
<g>
	<path class="st1" d="M-43.7,42.2c0.1,0.2,0.2,0.3,0.3,0.5l3.9,3.8l14.9,15c0.3,0.3,0.7,0.4,1,0.4h5.8c0.8,0,1.4-0.6,1.4-1.4v-5.8
		c0-0.4-0.1-0.7-0.4-1l-15-15l-3.9-3.9c-0.3-0.3-0.6-0.4-1-0.4s-0.7,0.1-1,0.4l-5.8,5.8c-0.3,0.3-0.4,0.6-0.4,1
		C-43.8,41.6-43.7,42.1-43.7,42.2z M-36.6,45.5l3.9-3.9l13.6,13.6v3.9H-23L-36.6,45.5z M-40.5,41.6l3.9-3.9l1.9,1.9l-3.9,3.9
		L-40.5,41.6z"/>
</g>
<linearGradient id="SVGID_6_" gradientUnits="userSpaceOnUse" x1="-25.15" y1="-314.6805" x2="-25.15" y2="-274.3" gradientTransform="matrix(1 0 0 -1 0 -416)">
	<stop  offset="0" style="stop-color:#4FD6B9"/>
	<stop  offset="1" style="stop-color:#29A3CF"/>
</linearGradient>
<path class="st7" d="M-34.9-141.7h19.5c1.2,0,2.2,1,2.2,2.2v36c0,1.7-1.9,2.7-3.4,1.8l-7.3-4.9c-0.7-0.5-1.7-0.5-2.4,0l-7.4,4.9
	c-1.4,1-3.4-0.1-3.4-1.8v-36.1C-37-140.8-36.1-141.7-34.9-141.7z"/>
<path class="st8" d="M46,76.8H14.4c-2.7,0-4.8-2.3-4.8-5V19.6c0-2.8,2.2-5,4.8-5H46c2.7,0,4.8,2.3,4.8,5v52.1
	C50.8,74.6,48.6,76.8,46,76.8z"/>
<path class="st1" d="M79.7-111.8v17.5h4.7v-17.5h6.4v-4H73.3v4H79.7z M92.9-115.7v21.4h4.3v-8.1c0-1.6,0.3-2.7,0.8-3.4
	c0.5-0.7,1.4-1,2.5-1c1,0,1.7,0.3,2.1,1c0.4,0.6,0.6,1.6,0.6,2.8v8.7h4.3v-9.5c0-1-0.1-1.8-0.3-2.6c-0.2-0.8-0.4-1.5-0.9-2
	c-0.4-0.6-1-1-1.7-1.3s-1.7-0.5-2.8-0.5c-0.8,0-1.6,0.2-2.5,0.6c-0.8,0.4-1.5,1.1-2.1,1.9h-0.1v-8H92.9z M121.1-103.7h-6.9
	c0-0.3,0.1-0.6,0.2-1s0.3-0.7,0.6-1.1c0.3-0.3,0.6-0.6,1.1-0.8s1-0.4,1.7-0.4c1,0,1.8,0.3,2.3,0.8
	C120.6-105.6,120.9-104.8,121.1-103.7z M114.2-101h11.2c0.1-1.2,0-2.4-0.3-3.5s-0.7-2.1-1.4-2.9c-0.6-0.9-1.4-1.5-2.4-2
	s-2.1-0.8-3.5-0.8c-1.2,0-2.3,0.2-3.2,0.6c-1,0.4-1.8,1-2.5,1.7s-1.2,1.6-1.6,2.6s-0.6,2.1-0.6,3.2c0,1.2,0.2,2.3,0.5,3.3
	c0.4,1,0.9,1.9,1.6,2.6s1.5,1.3,2.5,1.7s2.1,0.6,3.3,0.6c1.8,0,3.3-0.4,4.5-1.2c1.2-0.8,2.2-2.1,2.8-4h-3.8
	c-0.1,0.5-0.5,0.9-1.1,1.4c-0.6,0.4-1.4,0.6-2.2,0.6c-1.2,0-2.1-0.3-2.8-0.9C114.6-98.7,114.3-99.7,114.2-101z M79.7-67.7v-13.5h3.4
	c1.2,0,2.1,0.2,2.9,0.5s1.4,0.8,1.9,1.4s0.8,1.4,1,2.2c0.2,0.9,0.3,1.8,0.3,2.9c0,1.2-0.2,2.2-0.4,3c-0.3,0.8-0.7,1.5-1.2,2
	s-1.1,0.9-1.7,1.1s-1.3,0.3-2,0.3L79.7-67.7L79.7-67.7z M75-85.1v21.4h9.2c1.6,0,3.1-0.3,4.3-0.8c1.2-0.6,2.2-1.3,3-2.3
	s1.4-2.1,1.8-3.4s0.6-2.8,0.6-4.3c0-1.8-0.2-3.3-0.8-4.6c-0.5-1.3-1.2-2.4-2-3.3c-0.9-0.9-1.9-1.5-3.1-2c-1.2-0.4-2.5-0.7-3.8-0.7
	C84.2-85.1,75-85.1,75-85.1z M107.2-73.1h-6.9c0-0.3,0.1-0.6,0.2-1s0.3-0.7,0.6-1.1c0.3-0.3,0.6-0.6,1.1-0.8c0.5-0.2,1-0.4,1.7-0.4
	c1,0,1.8,0.3,2.3,0.8C106.7-75,107-74.2,107.2-73.1z M100.3-70.4h11.2c0.1-1.2,0-2.3-0.3-3.4s-0.7-2.1-1.4-2.9
	c-0.6-0.9-1.4-1.5-2.4-2s-2.1-0.8-3.4-0.8c-1.2,0-2.3,0.2-3.2,0.6c-1,0.4-1.8,1-2.5,1.7s-1.2,1.6-1.6,2.6s-0.6,2.1-0.6,3.2
	c0,1.2,0.2,2.3,0.5,3.3c0.4,1,0.9,1.9,1.6,2.6s1.5,1.3,2.5,1.7s2.1,0.6,3.3,0.6c1.8,0,3.3-0.4,4.5-1.2c1.2-0.8,2.2-2.1,2.8-4h-3.8
	c-0.1,0.5-0.5,0.9-1.1,1.4c-0.6,0.4-1.4,0.6-2.2,0.6c-1.2,0-2.1-0.3-2.8-0.9C100.7-68,100.4-69,100.3-70.4z M117.3-68.7h-4.1
	c0,1,0.3,1.9,0.7,2.6c0.4,0.7,1,1.2,1.7,1.7c0.7,0.4,1.4,0.7,2.3,0.9s1.7,0.3,2.6,0.3s1.7-0.1,2.6-0.3s1.6-0.5,2.3-0.9
	c0.7-0.4,1.2-1,1.6-1.7s0.6-1.6,0.6-2.6c0-0.7-0.1-1.3-0.4-1.8s-0.7-0.9-1.1-1.2c-0.5-0.3-1-0.6-1.6-0.8c-0.6-0.2-1.2-0.4-1.8-0.5
	c-0.6-0.1-1.2-0.3-1.8-0.4c-0.6-0.1-1.1-0.2-1.6-0.4c-0.4-0.2-0.8-0.4-1.1-0.6c-0.3-0.2-0.4-0.5-0.4-0.9c0-0.3,0.1-0.6,0.2-0.8
	c0.2-0.2,0.3-0.4,0.6-0.5c0.2-0.1,0.5-0.2,0.8-0.2s0.5-0.1,0.8-0.1c0.8,0,1.4,0.2,2,0.5s0.9,0.8,0.9,1.7h4.1c-0.1-1-0.3-1.8-0.8-2.4
	c-0.4-0.6-0.9-1.2-1.5-1.5c-0.6-0.4-1.3-0.6-2.1-0.8c-0.8-0.2-1.6-0.2-2.4-0.2s-1.7,0.1-2.5,0.2s-1.5,0.4-2.2,0.8
	c-0.6,0.4-1.2,0.9-1.6,1.5s-0.6,1.5-0.6,2.5c0,0.7,0.1,1.3,0.4,1.7c0.3,0.5,0.7,0.8,1.1,1.2c0.5,0.3,1,0.5,1.6,0.8
	c0.6,0.2,1.2,0.3,1.8,0.5c1.5,0.3,2.7,0.6,3.5,1c0.9,0.3,1.3,0.8,1.3,1.4c0,0.4-0.1,0.7-0.3,1c-0.2,0.2-0.4,0.4-0.7,0.6
	c-0.3,0.1-0.6,0.2-0.9,0.3s-0.6,0.1-0.9,0.1c-0.4,0-0.8,0-1.2-0.2c-0.4-0.1-0.7-0.2-1-0.4c-0.3-0.2-0.5-0.5-0.8-0.8
	C117.4-67.9,117.3-68.3,117.3-68.7z M134.5-81.2v-3.5h-4.3v3.5H134.5z M130.2-79.2v15.5h4.3v-15.5H130.2z M145.1-67.4
	c-0.7,0-1.2-0.1-1.6-0.4c-0.4-0.3-0.8-0.6-1.1-1.1c-0.3-0.4-0.5-0.9-0.6-1.5s-0.1-1.1-0.1-1.7s0.1-1.1,0.2-1.6
	c0.1-0.5,0.4-1,0.6-1.4c0.3-0.4,0.7-0.8,1.1-1c0.4-0.2,1-0.4,1.6-0.4c0.7,0,1.3,0.1,1.7,0.4c0.5,0.3,0.8,0.6,1.1,1.1
	c0.3,0.4,0.5,0.9,0.6,1.5s0.2,1.2,0.2,1.8s-0.1,1.1-0.2,1.6c-0.1,0.5-0.4,1-0.7,1.4s-0.7,0.7-1.1,1
	C146.2-67.5,145.7-67.4,145.1-67.4z M152.7-64.7v-14.5h-4v2.1h-0.1c-0.5-0.9-1.2-1.5-1.9-1.9c-0.8-0.4-1.6-0.6-2.7-0.6
	c-1.1,0-2,0.2-2.9,0.6c-0.8,0.4-1.5,1-2.1,1.7s-1,1.5-1.3,2.5c-0.3,0.9-0.4,1.9-0.4,2.9c0,1.1,0.1,2.1,0.4,3
	c0.3,0.9,0.7,1.8,1.2,2.5s1.2,1.3,2.1,1.7c0.8,0.4,1.8,0.6,3,0.6c0.9,0,1.8-0.2,2.7-0.6s1.5-1,2-1.8h0.1v2c0,1.1-0.2,2-0.8,2.7
	c-0.5,0.7-1.4,1.1-2.6,1.1c-0.8,0-1.4-0.2-2-0.5s-1-0.9-1.2-1.7H138c0.1,0.9,0.3,1.6,0.7,2.2c0.4,0.6,1,1.2,1.6,1.6
	c0.7,0.4,1.4,0.7,2.2,0.9s1.6,0.3,2.3,0.3c1.8,0,3.2-0.2,4.3-0.7s1.9-1.1,2.4-1.8c0.6-0.7,0.9-1.4,1.1-2.2
	C152.7-63.4,152.7-64.1,152.7-64.7z M156.2-79.2v15.5h4.3v-8.1c0-1.6,0.3-2.7,0.8-3.4c0.5-0.7,1.4-1,2.5-1c1,0,1.7,0.3,2.1,1
	c0.4,0.6,0.6,1.6,0.6,2.9v8.8h4.3V-73c0-1-0.1-1.8-0.3-2.6c-0.2-0.8-0.4-1.5-0.9-2c-0.4-0.6-1-1-1.7-1.3s-1.6-0.5-2.8-0.5
	c-0.9,0-1.8,0.2-2.6,0.6c-0.9,0.4-1.6,1-2.1,2h-0.1V-79h-4.1V-79.2z M183.6-84.7v21.4h4.7v-21.4H183.6z M192-78.8v15.5h4.3v-8.1
	c0-1.6,0.3-2.7,0.8-3.4c0.5-0.7,1.4-1.1,2.5-1.1c1,0,1.7,0.3,2.1,1c0.4,0.6,0.6,1.6,0.6,2.8v8.8h4.3v-9.5c0-1-0.1-1.8-0.3-2.6
	c-0.2-0.8-0.4-1.5-0.9-2c-0.4-0.6-1-1-1.7-1.3s-1.7-0.5-2.8-0.5c-0.9,0-1.8,0.2-2.6,0.6c-0.9,0.4-1.6,1.1-2.1,2h-0.1v-2.2H192z
	 M220.8-71.1c0,0.6-0.1,1.3-0.2,1.9s-0.3,1.1-0.6,1.6s-0.7,0.8-1.1,1.1c-0.5,0.3-1,0.4-1.7,0.4s-1.2-0.1-1.7-0.4s-0.8-0.7-1.2-1.1
	c-0.3-0.5-0.5-1-0.7-1.6c-0.1-0.6-0.2-1.2-0.2-1.8c0-0.6,0.1-1.2,0.2-1.8c0.1-0.6,0.4-1.1,0.6-1.6c0.3-0.5,0.7-0.8,1.2-1.1
	c0.5-0.3,1.1-0.4,1.8-0.4s1.3,0.1,1.7,0.4c0.5,0.3,0.8,0.7,1.1,1.1s0.5,1,0.6,1.6C220.7-72.3,220.8-71.7,220.8-71.1z M220.8-65.2v2
	h4.1v-21.5h-4.3v7.8l0,0c-0.5-0.8-1.1-1.3-2-1.7c-0.8-0.4-1.7-0.6-2.6-0.6c-1.1,0-2.1,0.2-3,0.7c-0.9,0.4-1.6,1-2.2,1.8
	c-0.6,0.7-1,1.6-1.3,2.6s-0.4,2-0.4,3c0,1.1,0.1,2.1,0.4,3.1c0.3,1,0.7,1.9,1.3,2.7c0.6,0.8,1.3,1.4,2.2,1.8
	c0.9,0.4,1.9,0.7,3.1,0.7c1,0,1.9-0.2,2.7-0.5C219.6-63.8,220.3-64.4,220.8-65.2L220.8-65.2z M238.5-72.7h-6.9c0-0.3,0.1-0.6,0.2-1
	s0.3-0.7,0.6-1.1c0.3-0.3,0.6-0.6,1.1-0.8c0.5-0.2,1-0.4,1.7-0.4c1,0,1.8,0.3,2.3,0.8C238-74.6,238.3-73.8,238.5-72.7z M231.6-70
	h11.2c0.1-1.2,0-2.3-0.3-3.4s-0.7-2.1-1.4-2.9c-0.6-0.9-1.4-1.5-2.4-2s-2.1-0.8-3.5-0.8c-1.2,0-2.3,0.2-3.2,0.6
	c-1,0.4-1.8,1-2.5,1.7s-1.2,1.6-1.6,2.6c-0.4,1-0.6,2.1-0.6,3.2c0,1.2,0.2,2.3,0.5,3.3c0.4,1,0.9,1.9,1.6,2.6
	c0.7,0.7,1.5,1.3,2.5,1.7s2.1,0.6,3.3,0.6c1.8,0,3.3-0.4,4.5-1.2c1.2-0.8,2.2-2.1,2.8-4h-3.8c-0.1,0.5-0.5,0.9-1.1,1.4
	c-0.6,0.4-1.4,0.6-2.2,0.6c-1.2,0-2.1-0.3-2.8-0.9C232-67.6,231.7-68.6,231.6-70z M249.3-71.4l-5.6,8.2h4.8l3.2-4.9l3.2,4.9h4.9
	l-5.7-8.2l5.1-7.3h-4.7l-2.7,4.1l-2.7-4.1h-4.9L249.3-71.4z"/>
<linearGradient id="SVGID_7_" gradientUnits="userSpaceOnUse" x1="30.2617" y1="-465.1582" x2="30.2617" y2="-426.7617" gradientTransform="matrix(1 0 0 -1 0 -416)">
	<stop  offset="0" style="stop-color:#4FD6B9"/>
	<stop  offset="1" style="stop-color:#29A3CF"/>
</linearGradient>
<path class="st9" d="M20.9,10.8h18.5c1.1,0,2.1,1,2.1,2.1v34.2c0,1.6-1.9,2.6-3.2,1.7l-6.9-4.7c-0.6-0.5-1.6-0.5-2.2,0l-7,4.7
	c-1.4,1-3.2-0.1-3.2-1.7V12.8C19,11.7,19.8,10.8,20.9,10.8z"/>
<linearGradient id="SVGID_8_" gradientUnits="userSpaceOnUse" x1="-86.6906" y1="-398.7691" x2="-86.6906" y2="-362.9088" gradientTransform="matrix(1 0 0 -1 0 -416)">
	<stop  offset="0" style="stop-color:#4FD6B9"/>
	<stop  offset="1" style="stop-color:#29A3CF"/>
</linearGradient>
<path class="st10" d="M-78.4-50.8v27.7c0,0.5-0.4,0.8-0.9,0.7l-5.5-1.3c-0.2-0.1-0.5,0-0.7,0.2l-5.5,6c-0.4,0.4-1.1,0.1-1.1-0.4V-45
	c0-0.2-0.1-0.4-0.3-0.6l-2.4-1.7c-0.3-0.2-0.2-0.7,0.1-0.8l11.7-5c0.2-0.1,0.4-0.1,0.6,0l3.6,1.6C-78.6-51.3-78.4-51.1-78.4-50.8z"
	/>
<path class="st1" d="M284.2,7.8v57.6c0,2.7-2.2,4.9-4.9,5.1l0,0c-11.7,0-30.4,0-39.8,0c-2.4,0-4.2-1.9-4.2-4.2
	c0-6.5-0.1-19-0.1-22.9c0-10.9,0-34.5-0.1-45.5c0-2.7,2.1-4.8,4.8-4.8h42.4c1.2,0,2.2,1,2.2,2.2l0,0c0,1.2-1,2.2-2.2,2.2
	c-6.4,0-31.7,0.1-40.1,0.1c-1.3,0-2.4,1-2.4,2.4v3.4c0,1.3,1,2.4,2.4,2.4c8.3,0,33.4-0.1,39.8-0.1C283.2,5.5,284.2,6.4,284.2,7.8z"
	/>
<line class="st11" x1="240.1" y1="1.5" x2="282.4" y2="1.5"/>
<circle class="st12" cx="259.8" cy="28.9" r="12.5"/>
</svg>
