<?xml version="1.0" encoding="UTF-8"?>
<svg width="19px" height="19px" viewBox="0 0 19 19" version="1.1" xmlns="http://www.w3.org/2000/svg" xmlns:xlink="http://www.w3.org/1999/xlink">
    <!-- Generator: Sketch 56.2 (81672) - https://sketch.com -->
    <title>Group</title>
    <desc>Created with Sketch.</desc>
    <g id="Page-1" stroke="none" stroke-width="1" fill="none" fill-rule="evenodd">
        <g id="Home-Copy" transform="translate(-450.000000, -291.000000)" fill="#CBD2D9" fill-rule="nonzero" stroke="#F9FAFC" stroke-width="0.5">
            <g id="icon-external-window-copy-6" transform="translate(451.000000, 292.000000)">
                <g id="Group">
                    <path d="M7.28571429,1.21428571 C7.28571429,1.8849172 6.74206005,2.42857143 6.07142857,2.42857143 L2.42857143,2.42857143 L2.42857143,14.5714286 L14.5714286,14.5714286 L14.5714286,10.9602923 C14.5714286,10.2896608 15.1150828,9.74600656 15.7857143,9.74600656 C16.4563458,9.74600656 17,10.2896608 17,10.9602923 L17,14.5714286 C17,15.9126915 15.9126915,17 14.5714286,17 L2.42857143,17 C1.08730846,17 0,15.9126915 0,14.5714286 L0,2.42857143 C0,1.09285714 1.09285714,0 2.42857143,0 L6.07142857,0 C6.74206005,0 7.28571429,0.543654232 7.28571429,1.21428571 Z" id="Path"></path>
                    <path d="M14.4667407,4.39822464 L7.22259244,11.5563609 C6.91043314,11.9220153 6.42336755,12.0786866 5.96157649,11.9619839 C5.49978543,11.8452812 5.14117412,11.4748925 5.03312951,11.0030453 C4.9250849,10.531198 5.08583436,10.0374939 5.4493109,9.72484216 L12.6681265,2.57960389 L10.0766795,2.57960389 C9.37713929,2.57960389 8.81004988,2.00213989 8.81004988,1.28980195 C8.81004988,0.577464001 9.37713929,0 10.0766795,0 L15.7333703,0 C16.4329106,0 17,0.577464001 17,1.28980195 L17,7.21341262 C17,7.92575056 16.4329106,8.50321456 15.7333703,8.50321456 C15.0338301,8.50321456 14.4667407,7.92575056 14.4667407,7.21341262 L14.4667407,4.39822464 Z" id="Path"></path>
                </g>
            </g>
        </g>
    </g>
</svg>