<?xml version="1.0" encoding="UTF-8"?>
<svg width="103px" height="103px" viewBox="0 0 103 103" version="1.1" xmlns="http://www.w3.org/2000/svg" xmlns:xlink="http://www.w3.org/1999/xlink">
    <!-- Generator: Sketch 56.2 (81672) - https://sketch.com -->
    <title>1_Pexels</title>
    <desc>Created with Sketch.</desc>
    <defs>
        <polygon id="path-1" points="0 0 52 0 52 58 0 58"></polygon>
    </defs>
    <g id="Page-1" stroke="none" stroke-width="1" fill="none" fill-rule="evenodd">
        <g id="Home-Copy-5" transform="translate(-984.000000, -226.000000)">
            <g id="1_Pexels" transform="translate(984.000000, 226.000000)">
                <rect id="Rectangle-Copy-5" fill="#C6F1E8" x="0" y="0" width="103" height="103" rx="15"></rect>
                <g id="Group-3" transform="translate(28.000000, 22.000000)">
                    <mask id="mask-2" fill="white">
                        <use xlink:href="#path-1"></use>
                    </mask>
                    <g id="Clip-2"></g>
                    <path d="M24.374109,48.6736736 C24.5443781,48.2075909 24.6389088,48.0674869 24.6400477,47.927383 C24.666243,44.0256839 24.673646,40.1239849 24.7043969,36.222844 C24.7237586,33.7852589 24.9788776,33.5402166 27.4782459,33.4994692 C29.9126956,33.4598382 32.292477,33.4888637 34.6825086,32.5940964 C39.3110951,30.8598219 42.460789,26.1833648 42.5017902,21.6023571 C42.5610143,14.9962615 37.6140986,9.40382613 30.0533527,9.21739302 C24.0848223,9.07003271 18.1105974,9.17552929 12.1392197,9.19004205 C11.4068917,9.1917166 10.6745636,9.32679688 10.0174046,9.39266247 C9.37562101,12.5709564 9.58233569,47.073363 10.2320917,48.6736736 L24.374109,48.6736736 Z M33.9450554,42.6888357 L33.9450554,57.8496437 C32.8203682,57.9132766 32.0703868,57.9914222 31.319836,57.9919804 C21.8952413,58.0009113 12.471216,58.0031441 3.04662126,57.9947713 C0.242021315,57.9925386 0.0096808526,57.78322 0.00797246685,55.0643106 C-0.00284730959,37.7154253 -0.00227784767,20.36654 0.00740300493,3.01765461 C0.00854192876,0.238461527 0.231201539,0.0207701631 2.97714691,0.0190956141 C12.4774801,0.0140719673 21.9795216,-0.0356063184 31.4798548,0.0486793123 C40.3856697,0.127383113 48.7681492,7.21128337 51.1997516,15.6180773 C54.6085506,27.4018783 46.6896132,39.4848654 35.7422773,42.0882308 C35.3049305,42.1920528 34.886376,42.3712296 33.9450554,42.6888357 L33.9450554,42.6888357 Z" id="Fill-1" fill="#1BC7A4" mask="url(#mask-2)"></path>
                </g>
            </g>
        </g>
    </g>
</svg>