<?xml version="1.0" encoding="UTF-8"?>
<svg width="103px" height="103px" viewBox="0 0 103 103" version="1.1" xmlns="http://www.w3.org/2000/svg" xmlns:xlink="http://www.w3.org/1999/xlink">
    <!-- Generator: Sketch 56.2 (81672) - https://sketch.com -->
    <title>1_Pixabay</title>
    <desc>Created with Sketch.</desc>
    <defs>
        <polygon id="path-1" points="0.373314286 0.426204082 46.9251837 0.426204082 46.9251837 45.8394694 0.373314286 45.8394694"></polygon>
        <polygon id="path-3" points="0 0.229543077 47.9212515 0.229543077 47.9212515 31 0 31"></polygon>
    </defs>
    <g id="Page-1" stroke="none" stroke-width="1" fill="none" fill-rule="evenodd">
        <g id="Home-Copy-5" transform="translate(-543.000000, -226.000000)">
            <g id="1_Pixabay" transform="translate(543.000000, 226.000000)">
                <rect id="Rectangle-Copy-3" fill="#C6F1E8" x="0" y="0" width="103" height="103" rx="15"></rect>
                <g id="Group-9" transform="translate(16.000000, 24.000000)">
                    <g id="Group-3" transform="translate(27.000000, 0.000000)">
                        <mask id="mask-2" fill="white">
                            <use xlink:href="#path-1"></use>
                        </mask>
                        <g id="Clip-2"></g>
                        <path d="M46.9253755,16.0159796 C46.5958959,16.7252245 46.2333245,17.4208571 45.9422122,18.1451224 C42.3750082,27.0278163 38.8188347,35.9152041 35.2573857,44.8002449 C35.125498,45.1278776 34.9749061,45.4489388 34.8041714,45.8394694 C34.6032224,45.8000408 34.4089878,45.7915918 34.2387327,45.7244694 C31.6201612,44.6993265 29.0121408,43.6474286 26.3825388,42.650449 C25.8022327,42.4303061 25.5586,42.152898 25.5758653,41.538 C25.6137531,40.1993061 25.5878551,38.8587347 25.5878551,37.2984898 C27.7843857,38.1626327 29.8413551,38.9713878 32.0047939,39.8223878 C34.8612429,32.6952041 37.6798041,25.6633061 40.5482429,18.5060816 C29.8413551,14.4975102 19.2490898,10.5316531 8.54939592,6.52636735 C7.54465102,9.56612245 6.58115102,12.480551 5.59415102,15.4635102 L0.373314286,15.4635102 C2.16554898,10.4457551 3.93668163,5.48573469 5.74474286,0.426204082 C7.57054898,1.10212245 9.29420204,1.73297959 11.0135388,2.37697959 C22.8680898,6.81832653 34.7221612,11.2620204 46.5767122,15.702898 C46.6865388,15.7442041 46.8088347,15.7540612 46.9253755,15.7789388 L46.9253755,16.0159796 Z" id="Fill-1" fill="#1BC7A4" mask="url(#mask-2)"></path>
                    </g>
                    <g id="Group-6" transform="translate(0.000000, 16.000000)">
                        <mask id="mask-4" fill="white">
                            <use xlink:href="#path-3"></use>
                        </mask>
                        <g id="Clip-5"></g>
                        <path d="M5.65083564,11.7763277 C8.49424158,11.7763277 11.2017267,11.8006508 13.9073109,11.7591585 C14.567905,11.7491431 15.1957069,11.3971738 15.2669941,10.6574662 C15.3544396,9.75655846 15.287905,8.84038923 15.287905,7.90323538 L5.65083564,7.90323538 L5.65083564,11.7763277 Z M30.5737663,26.8194819 C36.1284594,26.8361277 40.678004,22.3535277 40.6515063,16.88942 C40.626202,11.5397738 36.2410931,7.27226615 30.7377267,7.24013417 C25.0879842,7.20835846 20.6064,11.4792046 20.5964063,16.9046815 C20.5873901,22.3215738 25.0965386,26.80322 30.5737663,26.8194819 L30.5737663,26.8194819 Z M47.9212515,31.0001431 L-0.000332673267,31.0001431 L-0.000332673267,4.01058923 C0.551429703,4.01058923 1.13028119,4.01535846 1.70960792,4.01011231 C3.76030099,3.99103538 4.6993901,3.16262 4.97931089,1.13426615 C5.01685545,0.860989231 5.05867723,0.588666154 5.11095446,0.229543077 L14.1634693,0.229543077 C14.2732515,0.536204615 14.3454891,0.936343077 14.5431921,1.26112769 C15.5046178,2.84212769 16.5748752,4.06877385 18.7491327,4.04826615 C27.9831921,3.96051231 37.2191525,4.01106615 46.4541624,4.01106615 L47.9212515,4.01106615 L47.9212515,31.0001431 Z" id="Fill-4" fill="#1BC7A4" mask="url(#mask-4)"></path>
                    </g>
                    <path d="M36,33.002729 C35.9991013,35.7692091 33.7907343,37.988185 31.0243222,38 C28.2597073,38.0121666 26.0180912,35.8045028 26.0001187,33.0515972 C25.9812477,30.2253894 28.2138775,27.9846943 31.0324098,28 C33.8001699,28.0154632 36.0004492,30.2312716 36,33.002729" id="Fill-7" fill="#1BC7A4"></path>
                </g>
            </g>
        </g>
    </g>
</svg>