<?xml version="1.0" encoding="UTF-8"?>
<svg width="103px" height="104px" viewBox="0 0 103 104" version="1.1" xmlns="http://www.w3.org/2000/svg" xmlns:xlink="http://www.w3.org/1999/xlink">
    <!-- Generator: Sketch 57.1 (83088) - https://sketch.com -->
    <title>1_Stocksnap</title>
    <desc>Created with Sketch.</desc>
    <defs>
        <polygon id="path-1" points="2.69466576e-05 0.123448598 62.8028543 0.123448598 62.8028543 50.9997799 2.69466576e-05 50.9997799"></polygon>
        <linearGradient x1="50%" y1="0%" x2="50%" y2="100%" id="linearGradient-3">
            <stop stop-color="#FFFFFF" stop-opacity="0.0707768794" offset="0%"></stop>
            <stop stop-color="#000000" stop-opacity="0.104731206" offset="100%"></stop>
        </linearGradient>
    </defs>
    <g id="Page-1" stroke="none" stroke-width="1" fill="none" fill-rule="evenodd">
        <g id="Home-Copy-5" transform="translate(-97.000000, -479.000000)">
            <g id="1_Stocksnap" transform="translate(97.000000, 479.000000)">
                <rect id="Rectangle-Copy-10" fill="#44DBBD" x="0" y="0" width="103" height="104" rx="15"></rect>
                <g id="Group-6" opacity="0.779134115" transform="translate(20.000000, 26.000000)">
                    <g id="Group-3">
                        <mask id="mask-2" fill="white">
                            <use xlink:href="#path-1"></use>
                        </mask>
                        <g id="Clip-2"></g>
                        <path d="M31.186575,47.0538393 C39.3856432,47.0538393 47.5847114,46.9995028 55.7823477,47.0960431 C57.604575,47.1172318 58.9094386,45.8088673 58.8924245,43.9871664 C58.7987114,34.2757178 58.854075,24.5623626 58.8440523,14.8504374 C58.8411886,12.571643 58.0780295,11.8304748 55.7799614,11.8204654 C52.953075,11.8080729 50.1247568,11.7651757 47.2997795,11.8414374 C46.1428705,11.8724187 45.3925977,11.4968299 44.8442114,10.4997084 C43.9025523,8.78715701 42.8616205,7.12751215 41.9481205,5.40113832 C41.4422114,4.44596075 40.8227114,4.02366168 39.6930068,4.03487489 C34.2086659,4.08991402 28.7238477,4.08228785 23.2395068,4.03986729 C22.2124159,4.03176449 21.5647568,4.38161495 21.0688705,5.25385794 C20.0475068,7.04839065 18.9421432,8.79573645 17.930325,10.5959888 C17.4301432,11.4858673 16.7853477,11.8562131 15.746325,11.8361944 C12.8635977,11.7799514 9.97896136,11.806643 7.09527955,11.8214187 C4.73039318,11.8333346 3.99348409,12.5063439 3.98918864,14.8032505 C3.96914318,24.5156523 3.96771136,34.2280542 3.98871136,43.9404561 C3.99396136,46.3994187 4.68743864,47.0519327 7.09909773,47.0533626 C15.1282568,47.0576523 23.1574159,47.0547925 31.186575,47.0538393 M31.2109159,50.9336523 C23.0065977,50.9346056 14.7994159,50.805914 6.59987045,50.9979981 C3.34868864,51.0747364 -0.00987954545,48.6682037 0.0311659091,44.6535028 C0.0483477273,42.9585869 0.0287795455,41.263671 0.0287795455,39.5682785 C0.0283022727,31.318671 0.0846204545,23.0685869 2.69466576e-05,14.8199327 C-0.0332659091,11.5158953 1.38327955,9.35768972 4.41109773,8.21328785 C5.02343864,7.98164299 5.72073409,7.89537196 6.380325,7.88488598 C8.81298409,7.84675514 11.247075,7.83769907 13.6787795,7.88440935 C14.5583932,7.90109159 15.1258705,7.65753084 15.5778477,6.8544 C16.6526659,4.94547477 17.872575,3.11757757 18.9364159,1.20293271 C19.3941205,0.379783178 19.9921432,0.135269159 20.8540977,0.136699065 C27.8700068,0.148138318 34.8859159,0.162437383 41.9013477,0.123295144 C42.9690068,0.117157009 43.550325,0.606661682 44.0404841,1.43934393 C45.0923932,3.22815701 46.2368932,4.96549346 47.225325,6.78767103 C47.7121432,7.68422243 48.3397568,7.90109159 49.272825,7.88393271 C51.6482114,7.83960561 54.0355295,8.01024112 56.3989841,7.83674579 C59.783325,7.58841869 62.8168705,11.2585121 62.7910977,14.0997364 C62.697075,24.3259514 62.6751205,34.5545495 62.8028543,44.7802879 C62.8402568,47.8421944 59.3404159,51.041372 56.5006432,50.9889421 C48.0734386,50.832129 39.6409841,50.9326991 31.2109159,50.9336523" id="Fill-1" fill="#008070" mask="url(#mask-2)"></path>
                    </g>
                    <path d="M21.8761053,26.9486926 C21.9661438,32.8463053 26.1083864,36.923571 31.428672,36.9688847 C36.6985172,37.0137113 41.0142371,33.0299967 41.1033328,27.0427309 C41.1858289,21.5334524 36.8328679,16.9908678 31.5281386,17.0117472 C25.9693217,17.0337454 21.9076895,21.6552636 21.8761053,26.9486926 M18.0011498,27.0388329 C17.9026259,19.1610568 24.1496954,12.9477093 31.4885405,13.0003318 C39.0465894,13.054416 45.010344,18.9700568 44.9999865,27.0334732 C44.9896021,34.9214815 39.1248428,40.9009514 31.5729222,40.9988876 C23.9422768,41.0982856 17.9059258,34.5219407 18.0011498,27.0388329" id="Fill-4" fill="#008070"></path>
                </g>
                <rect id="Rectangle-Copy-26" fill="url(#linearGradient-3)" opacity="0.504278274" x="0" y="1" width="103" height="103" rx="15"></rect>
            </g>
        </g>
    </g>
</svg>