<?xml version="1.0" encoding="UTF-8"?>
<svg width="103px" height="104px" viewBox="0 0 103 104" version="1.1" xmlns="http://www.w3.org/2000/svg" xmlns:xlink="http://www.w3.org/1999/xlink">
    <!-- Generator: Sketch 56.2 (81672) - https://sketch.com -->
    <title>2_Graphicburger</title>
    <desc>Created with Sketch.</desc>
    <g id="Page-1" stroke="none" stroke-width="1" fill="none" fill-rule="evenodd">
        <g id="Home-Copy-5" transform="translate(-984.000000, -408.000000)">
            <g id="2_Graphicburger" transform="translate(984.000000, 408.000000)">
                <rect id="Rectangle-Copy-11" fill="#BFE4FB" x="0" y="0" width="103" height="104" rx="15"></rect>
                <path d="M72.9291982,53.919367 C74.4105122,53.919367 75.8773771,53.930326 77.3439531,53.9130224 C77.8097896,53.9075429 77.9799991,53.6990342 78.0320156,53.2479862 C78.0736288,52.8854752 77.9727746,52.5794894 77.6970872,52.3421413 C77.2587038,51.9646338 77.1399329,51.4870536 77.1462904,50.9232437 C77.167386,49.1452958 77.1618954,47.3667712 77.1486023,45.5888233 C77.1434006,44.9102327 77.1202822,44.2688448 77.6895737,43.730702 C77.9901135,43.4463457 78.0042735,42.9713611 77.8239497,42.5748196 C77.6482495,42.1872183 77.2688182,42.1745289 76.8942995,42.1693379 C76.100759,42.1580905 75.3069296,42.1021421 74.5139672,42.1177154 C73.9718398,42.1283859 73.4317353,42.2284586 72.9118594,42.2864257 C72.7500303,42.907626 72.6621802,43.441443 73.0733995,43.8777828 C73.5080261,44.3395013 73.5802712,44.8744718 73.5727578,45.4694283 C73.5507952,47.2231511 73.5438597,48.9774506 73.5554189,50.7311734 C73.5591757,51.3359352 73.420465,51.851295 73.005778,52.3158974 C72.6043841,52.7655034 72.5165341,53.2909569 72.9291982,53.919367 L72.9291982,53.919367 Z M83.1608413,50.3314596 C82.5461798,49.632393 82.3083489,48.8586324 82.1557672,48.0499761 C81.9794891,47.1170221 82.1424741,46.2307879 82.5635186,45.3921387 C83.0342678,44.4539937 84.0225811,44.2033794 84.8632253,44.8167931 C85.1501829,45.026167 85.3888808,45.3021599 85.6469404,45.5504669 C85.9399666,45.8322277 86.1974482,46.1644574 86.5274639,46.3920001 C87.3649294,46.9690761 88.3061388,46.5448488 88.4691238,45.5467178 C88.5988761,44.7507509 88.5012007,43.9746831 88.2783967,43.2032297 C88.1659833,42.813898 87.9284413,42.6766226 87.5449642,42.6500903 C87.0675685,42.6172135 86.571678,42.6036589 86.1228913,42.4597504 C85.1574075,42.1503039 84.1777636,42.1304047 83.1934961,42.2120201 C80.9697912,42.3968806 79.2000747,43.8601908 78.4750227,46.0932241 C78.0765186,47.3209166 78.1013709,48.5907145 78.367233,49.8671455 C78.6541906,51.2433608 79.4156542,52.2910956 80.5227384,53.0758151 C81.0403025,53.4426521 81.6746146,53.7769005 82.2884092,53.8487105 C83.5214889,53.9926191 84.7765312,54.0577961 85.9856255,53.5435899 C87.1675557,53.0409195 87.9639859,52.2126524 88.3535316,51.0077431 C88.4509181,50.7069483 88.4084379,50.3614525 88.4266437,50.0932463 C87.6417727,49.5331855 87.2785242,49.5435677 86.4557968,50.1137223 C85.3903257,50.851722 84.305204,51.2148098 83.1608413,50.3314596 L83.1608413,50.3314596 Z M54.3517987,49.6811315 C54.5665112,49.6511386 54.7488579,49.6087447 54.9323605,49.6032652 C55.3409789,49.5908643 55.7504643,49.5885571 56.1596606,49.5966322 C57.8678243,49.6300858 59.9349017,48.2296455 59.8326026,45.9175923 C59.7366611,43.7557922 58.2692182,42.189237 56.0914612,42.1748173 C54.3830086,42.16357 52.673978,42.1627048 50.9658144,42.1817388 C50.5678882,42.1860647 50.171407,42.2901749 49.830988,42.3403554 C49.3469457,43.4002027 49.4070536,43.6767723 50.2268913,44.3086432 C50.542169,44.5514708 50.6664306,44.8724531 50.6675865,45.2490954 C50.6724992,46.8557373 50.6805906,48.4623793 50.6667196,50.0684444 C50.6618069,50.665708 50.5996761,51.2623948 50.5687552,51.7742938 C50.2583901,52.1875622 50.0014865,52.5298856 49.7809944,52.8240473 C49.876069,53.819006 49.9873264,53.9265769 50.8875007,53.9277305 C52.0908154,53.9294608 53.2941301,53.931768 54.4974449,53.9167715 C54.7959617,53.9133108 55.0939006,53.8440962 55.3510932,53.8106426 C55.6351611,53.062549 55.4632177,52.5665116 54.8774542,52.1647791 C54.6575401,52.0139491 54.4046821,51.7515107 54.3754951,51.514451 C54.30325,50.9287232 54.3517987,50.3282873 54.3517987,49.6811315 L54.3517987,49.6811315 Z M26.8619521,48.1935962 C26.6836511,48.1220746 26.5307804,48.0116197 26.374442,48.0061403 C25.1534994,47.9628812 23.931401,47.9383677 22.7098805,47.9147194 C22.6176957,47.9129891 22.524355,47.9628812 22.4321702,47.9908554 C21.6412306,48.2310874 21.4386553,48.9347683 22.0013003,49.5363578 C22.1631294,49.7093941 22.3873782,49.8227329 22.5633673,49.9842334 C22.8520588,50.2492674 22.909277,50.8664301 22.6910967,51.1799142 C22.4841867,51.477825 22.0342441,51.6038531 21.6565466,51.4403338 C21.0233903,51.1660713 20.4991797,50.760878 20.1607836,50.1411197 C19.4490247,48.8381564 19.3065573,47.4630947 19.6328162,46.0297775 C19.9446262,44.6587533 21.6010623,43.9516116 22.8006203,45.0126125 C23.0323827,45.2176605 23.2023032,45.4907694 23.4227953,45.7105255 C23.6924141,45.9793085 23.9519186,46.2826988 24.2749988,46.4690012 C25.0592918,46.9209143 26.0005012,46.4554467 26.1296755,45.5611375 C26.2666523,44.6137638 26.1582846,43.6914804 25.6863795,42.835816 C25.3919083,42.3014222 24.9619054,42.1355958 24.3614039,42.2275934 C23.8941225,42.2991151 23.413259,42.3074785 22.939042,42.2999803 C22.1232501,42.2875793 21.3051463,42.1851995 20.4939781,42.228747 C19.9813267,42.2561444 19.4524924,42.4190869 18.9776975,42.6273072 C17.7605117,43.161701 16.8114998,43.9945823 16.1841231,45.2020872 C15.2564958,46.9878217 15.1764482,48.820276 15.9890613,50.6132203 C16.9808423,52.8015526 18.7696315,53.900333 21.1947558,53.9234045 C21.3872168,53.9254233 21.5799668,53.9254233 21.7727167,53.9239813 C23.8056945,53.9086965 25.5785897,52.7372408 26.138056,50.7057948 C26.2241721,50.3934643 26.3695293,50.0517176 26.5943561,49.8328267 C27.0867789,49.3535162 27.1203006,48.8453663 26.8619521,48.1935962 L26.8619521,48.1935962 Z M59.3349782,63.8409794 C59.5288841,63.9825808 59.7109418,64.1005339 59.8765276,64.2380977 C60.2545141,64.5521586 60.3241584,65.0265664 60.0692776,65.4666553 C59.8736378,65.8046529 59.4193605,65.9376024 58.9873347,65.7339964 C58.7090465,65.6030656 58.4423175,65.4257034 58.2093992,65.2246929 C57.6126545,64.7090448 57.2173292,64.067657 57.0621467,63.2820722 C56.850613,62.2101124 56.7523596,61.1381526 57.1135852,60.0834964 C57.4603618,59.0692154 58.9616154,58.2069179 60.1762004,59.3590512 C60.5062161,59.6719584 60.8226497,60.0082256 61.0931355,60.372467 C61.4901947,60.9068608 62.0103595,61.0452898 62.6154847,60.912917 C63.1639696,60.7929452 63.5205716,60.2752783 63.5827024,59.6209127 C63.6575483,58.8370583 63.4957192,58.0895416 63.2113624,57.3705758 C62.9189142,56.6314225 62.284313,56.3539876 61.5196707,56.6268082 C61.1633577,56.7537014 60.8206269,56.7949418 60.462869,56.6810262 C59.6892683,56.4353147 58.8890813,56.4381986 58.1010315,56.5077015 C56.8734424,56.6152724 55.7871648,57.0922758 54.8523129,57.9130446 C53.8969434,58.7516938 53.3201384,59.7945258 53.0221995,61.0207763 C52.748246,62.1475309 52.7369758,63.2777463 53.1250766,64.354032 C53.8472388,66.3580806 55.2198961,67.6598903 57.3728007,68.1317026 C58.5451945,68.3886615 59.6589253,68.3690507 60.7732341,67.9647226 C61.9834844,67.5257872 62.8799018,66.7719258 63.3411147,65.5223154 C63.5249063,65.0245476 63.5673864,64.4520859 64.0644328,64.0740016 C64.4854774,63.7535961 64.5744834,63.2532328 64.3739309,62.7664241 C64.1765573,62.2876903 63.7144775,62.2623117 63.2717594,62.2602929 C62.3331507,62.255967 61.3925193,62.2983609 60.4568005,62.2467384 C59.4361214,62.19079 58.8006533,62.6871158 59.3349782,63.8409794 L59.3349782,63.8409794 Z M75.6496605,64.6334856 C75.2037636,64.3497061 74.8078603,64.5348549 74.4246722,64.7344235 C73.2462098,65.3481255 72.0319138,65.5895111 70.7358363,65.1410587 C70.1165511,64.9267821 69.5966753,64.6199311 69.4487172,63.915385 C69.3403496,63.3985833 69.4839729,63.1831531 69.9946014,63.1358565 C70.1859065,63.1179761 70.3795234,63.1269163 70.5722734,63.1269163 C71.9203673,63.1266279 73.2687503,63.1329726 74.6168442,63.1248976 C75.5135507,63.1194181 75.997015,62.7520044 76.1279232,61.9052801 C76.2542077,61.0897024 76.1949667,60.272106 75.8403876,59.5087275 C75.0537827,57.8158559 73.7545265,56.7695631 71.8793321,56.5469231 C69.5316546,56.268623 67.6449011,57.0942945 66.2572168,59.021342 C65.3333461,60.3046945 65.1784526,61.7573341 65.2700594,63.2797651 C65.3220759,64.1455233 65.6197258,64.9276473 66.0477059,65.6471899 C67.1886009,67.5650087 68.9508039,68.3687623 71.1380972,68.3021433 C71.5649213,68.2891656 71.9882778,68.1539089 72.4130791,68.0740238 C73.3305921,67.9015643 74.1573653,67.5070416 74.8656564,66.9213137 C75.5696129,66.339335 75.9632043,65.5961442 75.6496605,64.6334856 L75.6496605,64.6334856 Z M49.0218426,53.6413554 C49.2102579,53.0409195 49.1917632,52.5985234 48.9154978,52.2403382 C48.3834847,51.5496351 48.2696264,50.7628967 48.2670256,49.9349181 C48.2629799,48.6382995 48.2878322,47.3408157 48.2410174,46.0459275 C48.2196328,45.455297 48.1034627,44.8571682 47.9474132,44.2847065 C47.6494743,43.1905404 46.8781854,42.5379052 45.7843943,42.3302616 C44.1317149,42.0164891 42.4836592,42.0880108 40.8673913,42.5872205 C39.7946957,42.918585 38.901746,44.1128238 38.9713903,45.2721669 C39.0378558,46.3729661 39.7946957,46.9131277 40.8393602,46.5468676 C41.389579,46.3536437 41.7681435,45.9648888 42.1056727,45.5198972 C42.294088,45.2713017 42.4781685,45.0189571 42.6584923,44.7643054 C42.9388034,44.3683407 43.344821,44.333445 43.7566182,44.4277498 C44.1392284,44.5154215 44.3889075,44.8017966 44.4331215,45.1893979 C44.4816702,45.6159323 44.4894727,46.0516954 44.4666432,46.4808254 C44.4484375,46.8202649 44.2516418,47.0726095 43.8915721,47.124232 C43.5364151,47.1749893 43.1760564,47.2269002 42.8188765,47.2199787 C42.0868889,47.2052706 41.3684835,47.280253 40.7070071,47.589988 C40.279894,47.7904217 39.8331301,48.0260394 39.5103389,48.3574039 C38.487059,49.4085994 38.4379324,51.4446597 39.153737,52.6016957 C39.5562868,53.2523121 40.1498528,53.7420048 40.915651,53.8660142 C42.0337165,54.0474139 43.1150815,53.9542627 44.0429979,53.1634868 C44.4637534,52.8050133 44.7348171,52.8577894 45.0743692,53.2915337 C45.4283703,53.7434468 45.8670427,53.9562814 46.4424028,53.9291724 C46.9223994,53.9069661 47.4078866,53.9531091 47.8844154,53.9040822 C48.2780069,53.863707 48.661484,53.7281619 49.0218426,53.6413554 L49.0218426,53.6413554 Z M49.8850274,62.3664218 C50.0656402,62.1737748 50.1297938,62.0641851 50.2254464,62.0096787 C51.7379702,61.1421901 51.6873986,58.0431102 50.0855798,57.0951597 C49.4203467,56.7015022 48.7233258,56.4993381 47.9664859,56.4935702 C46.4496273,56.4814577 44.9324798,56.4889559 43.4156212,56.4892443 C43.078381,56.4892443 42.7394069,56.4716523 42.4047675,56.5002033 C41.6083373,56.5691294 41.2109891,57.1932136 41.4886993,57.9343857 C41.5453395,58.0860809 41.6606427,58.221626 41.7684325,58.3479424 C42.1776288,58.8281181 42.3510171,59.375778 42.3452375,60.0076488 C42.3307885,61.6416882 42.3420587,63.2757275 42.3452375,64.9097669 C42.3466824,65.6324818 42.1770509,66.2637759 41.6028466,66.7805776 C41.0878834,67.2443148 41.1037773,67.6004812 41.5340693,68.2539816 C41.657175,68.2701316 41.7981974,68.3044505 41.9397979,68.3053157 C43.2639065,68.3136791 44.588304,68.3237729 45.9124126,68.3177166 C46.7085539,68.3139675 47.06111,67.6702725 46.6334189,66.9931238 C46.4834381,66.7557757 46.2574553,66.566301 45.9843688,66.2649294 C45.921371,65.4926108 45.7124381,64.5945525 46.0129778,63.7192772 C46.2571663,63.4689514 46.5088683,63.5047122 46.7686618,63.6114179 C47.2402779,63.8052186 47.5731835,64.1371599 47.7118941,64.6288713 C47.9005984,65.2982334 48.0762985,65.9719213 48.2384165,66.6487816 C48.3895533,67.2800757 48.6262284,67.8490766 49.2816361,68.104882 C50.1650494,68.4503778 51.0816955,68.308488 51.9899612,68.2435994 C52.0798341,68.2369663 52.1676842,68.1729429 52.2523555,68.1273767 C52.6485477,67.9142537 52.8181793,67.5817356 52.6540384,67.1727932 C52.5335335,66.873152 52.3107295,66.6141743 52.1335845,66.3370279 C51.9538386,65.7547608 51.8622318,65.1367328 51.7191865,64.5311058 C51.548688,63.8095445 51.2111588,63.1883442 50.5222293,62.8125671 C50.3228328,62.7038426 50.1474216,62.5521475 49.8850274,62.3664218 L49.8850274,62.3664218 Z M81.3232144,63.4626067 C82.1274471,63.672269 82.5473357,64.178977 82.7276595,64.913516 C82.8874657,65.5658628 83.0521846,66.2170561 83.2148806,66.8685377 C83.3923147,67.5788516 83.830698,68.1449687 84.5308978,68.2456181 C85.3013197,68.3566498 86.1162447,68.3035853 86.8915794,68.1879394 C87.5891782,68.0832524 87.8715122,67.2893043 87.400185,66.7601016 C86.8953361,66.1936962 86.8060411,65.5373118 86.6979624,64.8541069 C86.5497154,63.9136547 86.1882008,63.1058636 85.2354322,62.7090337 C84.9808404,62.6026164 84.8299926,62.4552471 84.9470297,62.1308041 C85.10568,62.0258288 85.3143239,61.9384454 85.4544794,61.7876155 C86.7083657,60.4385092 86.5422019,57.7685593 84.5895608,56.8938608 C84.0968491,56.673528 83.5327592,56.5175069 82.9969893,56.5039524 C81.1452024,56.4566558 79.2913926,56.4872256 77.4384497,56.4843416 C76.9688564,56.4837648 76.574687,56.6314225 76.3669101,57.071223 C76.146129,57.5375558 76.2562305,57.9796635 76.6229468,58.321987 C77.1942612,58.8552272 77.2604377,59.5254544 77.226627,60.2395175 C77.2107331,60.5746311 77.2084212,60.9103215 77.2063984,61.2460119 C77.197151,62.7029774 77.1980179,64.159943 77.1780783,65.6166201 C77.1720097,66.0373867 77.019139,66.3745191 76.6304603,66.6424369 C76.0331376,67.0542633 76.012331,67.6336465 76.5073546,68.2632102 C76.6527118,68.2761879 76.8185866,68.3038737 76.9847503,68.3044505 C78.2603102,68.3082699 79.5355811,68.3047389 80.811141,68.3082699 C81.1087909,68.3090648 81.418,68.3067576 81.565091,68.0019254 C81.7300989,67.6607555 81.7269201,67.2936302 81.5009374,66.9746666 C81.3500896,66.7615436 81.1501151,66.5836046 80.9718141,66.3906691 C80.5897819,64.8220952 80.6984386,63.8643393 81.3232144,63.4626067 L81.3232144,63.4626067 Z M32.4141341,53.8729356 C32.8296881,53.2156861 32.5866555,52.7274354 32.2043343,52.2498552 C32.0430832,52.0485564 31.808431,51.830819 31.7893583,51.6050067 C31.735319,50.9621769 31.7384978,50.3083881 31.7908032,49.6646931 C31.8275037,49.2145103 32.178904,49.0397437 32.5762522,49.249406 C32.9536607,49.4489745 33.289167,49.7016075 33.4940542,50.1223741 C33.8347622,50.8225943 33.9338825,51.58107 34.0931108,52.3213769 C34.3234282,53.391318 34.9380897,53.9401314 35.970906,53.9271537 C36.5725633,53.9196554 37.1747987,53.9219626 37.7758781,53.8983143 C38.1411494,53.884183 38.5064207,53.6370295 38.5078833,53.3324856 C38.5090216,53.0146756 38.4535373,52.6331306 38.2720576,52.3923218 C37.9816322,52.0064509 37.8437885,51.5995272 37.7683646,51.1444418 C37.7131693,50.8130773 37.6542173,50.4808476 37.5660782,50.1569813 C37.3658148,49.41927 37.0583395,48.7588481 36.2908073,48.4237345 C36.1107725,48.345003 35.9720619,48.1725435 35.8391309,48.0635306 C35.8804551,47.934907 35.8850787,47.8824193 35.911376,47.8466585 C35.9535671,47.7895565 36.0050056,47.7356269 36.0619348,47.6935214 C37.1568819,46.8808276 37.3218897,45.7644551 37.0603624,44.5358975 C36.9785809,44.1511802 36.8904419,43.7722307 36.6161994,43.4215438 C35.8405758,42.4283155 34.7719259,42.1477083 33.6223615,42.1260788 C31.9636136,42.0946439 30.3034207,42.1520342 28.6438057,42.1756825 C28.4039519,42.1791433 28.1580295,42.1759709 27.9262672,42.2270166 C27.322009,42.3596778 27.0122219,43.0082755 27.277795,43.5732389 C27.3581316,43.7439681 27.4664992,43.9158508 27.603765,44.0424557 C27.9308909,44.3438272 28.0508178,44.7135481 28.0519737,45.1403709 C28.0525517,45.380603 28.0597762,45.620835 28.0638219,45.8607787 C28.0860734,47.2502601 28.1421356,48.6400299 28.1184392,50.0286461 C28.1037012,50.899307 28.1649651,51.8054404 27.3899194,52.4944132 C26.9945941,52.8453885 27.0477665,53.3523848 27.2705705,53.8729356 L32.4141341,53.8729356 Z M40.2475282,56.4987613 C38.9196628,56.4987613 37.5270659,56.4849184 36.1347579,56.5074131 C35.718337,56.5137578 35.3891882,56.9304868 35.451608,57.3622124 C35.4946661,57.6586812 35.5862729,58.0001395 35.778156,58.2109554 C36.0844753,58.5469342 36.1665457,58.8981978 36.1619221,59.3238671 C36.1466061,60.7646826 36.1535416,62.2057865 36.1457391,63.646602 C36.1442942,63.9101939 36.1463171,64.1804189 36.08881,64.4347823 C35.9518332,65.0430048 35.585406,65.447333 34.9603412,65.6102755 C34.4083885,65.7544724 33.9234792,65.5626905 33.5882618,65.1912393 C33.1906247,64.7511503 32.9386337,64.2101235 32.9464362,63.560949 C32.963775,62.0964852 32.9140704,60.6311563 32.9299643,59.1666925 C32.933721,58.8500361 33.0308185,58.4909858 33.2030509,58.2285474 C33.4897195,57.792496 33.600977,57.3688454 33.4414598,56.8653098 C33.1209804,56.5760508 32.7377923,56.4834764 32.3141469,56.4857417 C31.3275675,56.4924166 30.3406992,56.4834764 29.3544088,56.4938586 C29.1420081,56.4961658 28.9119796,56.5126042 28.7232754,56.5968152 C28.566359,56.6666065 28.3808335,56.8263767 28.3426881,56.9795138 C28.2369212,57.4054715 28.2123579,57.8591149 28.6085501,58.1731758 C29.0943263,58.5584699 29.2006711,59.0576796 29.1928687,59.6436958 C29.17264,61.1323847 29.1836213,62.621362 29.1902678,64.1103392 C29.1940246,65.0190681 29.425209,65.8877103 29.928613,66.6306128 C30.6435507,67.6855574 31.705843,68.2398503 32.9733114,68.3145443 C33.956423,68.3725114 34.9499379,68.3990437 35.9301597,68.3252148 C36.9204958,68.2505208 37.8458113,67.9275198 38.5960047,67.207112 C39.4820189,66.3557735 39.8608723,65.2930423 39.8932381,64.1091857 C39.9322504,62.6695237 39.9131777,61.2275547 39.8972838,59.7867392 C39.8903483,59.1727487 39.9562358,58.6377782 40.4018437,58.1273212 C40.9361687,57.5147727 40.857566,57.1597599 40.2475282,56.4987613 L40.2475282,56.4987613 Z M64.7631877,46.6743376 C64.3077544,46.0020917 64.5218889,45.3359019 64.475941,44.7066266 C64.4499328,44.3493067 64.6854519,44.147431 64.9276175,43.9348848 C65.0677731,43.8117406 65.1784526,43.6387043 65.2602341,43.4679752 C65.5419901,42.8822474 65.2605231,42.2267282 64.6712919,42.2094246 C63.3968879,42.1722218 62.1187272,42.1638584 60.8454792,42.2195184 C60.1409448,42.2503765 59.8510974,42.9249297 60.2007637,43.5438228 C60.2594268,43.6479329 60.3264703,43.7526199 60.4108526,43.8356773 C60.8590613,44.2789386 60.9393979,44.8366922 60.937664,45.4287647 C60.9330403,47.1109659 60.9275497,48.793167 60.9388199,50.4750797 C60.9434436,51.1675133 60.8766891,51.8201485 60.3270482,52.3268564 C60.242088,52.4050111 60.1929613,52.5255597 60.1392109,52.6328422 C59.7574677,53.396509 60.0594523,53.9190786 60.8989406,53.9245581 C62.0788479,53.9323448 63.2587552,53.9306144 64.4383736,53.9164831 C64.6920985,53.9135992 64.9446674,53.8412123 65.1593799,53.8071818 C65.4922854,53.1663708 65.3697577,52.6146734 64.9388878,52.224765 C64.5239118,51.8492762 64.447043,51.4391802 64.4684276,50.9431429 C64.4840325,50.5835158 64.4609141,50.2221583 64.4716063,49.8619545 C64.4877892,49.3243884 64.6603106,49.0988644 65.1842322,49.0527214 C65.661339,49.0106159 66.1485601,49.0132115 66.6253779,49.0579125 C67.1464097,49.1066511 67.2848314,49.286032 67.3157523,49.8016802 C67.3302013,50.041047 67.31922,50.2821442 67.3276005,50.5223763 C67.3521638,51.2260572 67.3749933,51.9265658 66.7435709,52.4321201 C66.6909765,52.474514 66.6658352,52.5523804 66.6305795,52.6152502 C66.2190713,53.3483473 66.5291474,53.9182135 67.3605443,53.9242697 C68.5884223,53.9329215 69.8165894,53.9262885 71.0444675,53.9115804 C71.2727621,53.9086965 71.5001897,53.8357328 71.6819584,53.8034327 C72.0038827,53.1424341 71.8117107,52.617269 71.4270776,52.197656 C71.0303074,51.765642 70.9340769,51.2857547 70.9346549,50.7429976 C70.9358108,49.0368598 70.9450582,47.3304336 70.9207838,45.6245841 C70.9109585,44.9284015 70.9907171,44.2979726 71.4946991,43.7557922 C71.6571061,43.5810256 71.747268,43.2848451 71.7611391,43.0385568 C71.7909041,42.5064702 71.5311106,42.2071175 70.992162,42.1967353 C69.7168911,42.1719334 68.4401753,42.1794316 67.1649045,42.2068291 C66.713228,42.2163461 66.5369499,42.4459075 66.4826215,42.8920528 C66.4389855,43.2519682 66.5175882,43.5876586 66.8085915,43.7984745 C67.2819416,44.1416632 67.3660349,44.5999209 67.3270225,45.1297004 C67.3059269,45.4166522 67.3313572,45.7067764 67.3151743,45.994305 C67.2868542,46.4952451 67.1530563,46.6512661 66.668436,46.6688581 C66.045683,46.6916413 65.4217742,46.6743376 64.7631877,46.6743376 L64.7631877,46.6743376 Z M26.2285068,61.7959789 C26.4726954,61.456251 26.6911646,61.1995805 26.8570394,60.9123402 C27.4312436,59.9188235 27.4526282,58.8901228 26.8969187,57.8951642 C26.3677954,56.9477905 25.427164,56.5532677 24.4206449,56.5218328 C22.2073434,56.4534835 19.9905741,56.4875139 17.7752497,56.5085667 C17.5423314,56.5102971 17.2634652,56.653052 17.0880541,56.8174365 C16.6112363,57.2647353 16.5941864,57.8917034 17.0860312,58.3326576 C17.7350814,58.9143479 17.9558625,59.6001484 17.9246526,60.4517753 C17.8789937,61.6999437 17.8529854,62.9547452 17.9315881,64.1994529 C17.9974757,65.2428617 17.6122647,66.0111429 16.8510901,66.6542611 C16.8175683,66.6825237 16.8071651,66.7378953 16.7814458,66.7898062 C16.7721984,66.8518108 16.7623731,66.9230441 16.7508139,66.993989 C16.5889848,67.9774119 17.1400706,68.3407881 17.9529727,68.32608 C20.0711996,68.2871469 22.1917384,68.3505935 24.3099654,68.3076228 C26.0302662,68.2727272 27.5948066,67.3291026 28.0539966,65.593837 C28.4004842,64.2842407 28.1245078,63.0698144 26.8639749,62.2660608 C26.6651564,62.1394559 26.4833876,61.9860304 26.2285068,61.7959789 L26.2285068,61.7959789 Z M86.0893695,70.8633688 C85.8535614,70.8186678 85.6697699,70.7477229 85.489735,70.7557979 C84.7805769,70.7886748 84.1052295,70.6796619 83.446932,70.4048226 C83.0539185,70.2410149 82.647034,70.3061919 82.2493968,70.4573103 C82.0297717,70.5403677 81.7928077,70.6257323 81.5630682,70.6283278 C79.8534596,70.6453431 78.1432731,70.6638003 76.4345315,70.6300582 C76.0204225,70.6219832 75.5482284,70.5129703 75.2144559,70.2865812 C74.8139289,70.0149142 74.4501025,69.9852096 74.0686483,70.1573807 C73.1494013,70.5718026 72.1691795,70.7010031 71.1892467,70.7442621 C68.9323091,70.8431812 66.9259176,70.1775683 65.2558994,68.613897 C64.7998882,68.1870742 64.6487514,68.1931305 64.1979418,68.6678267 C63.661883,69.2325018 63.0330615,69.6740327 62.3273711,69.988382 C60.0360449,71.0087193 57.7210222,71.023139 55.3958852,70.0933573 C55.1077717,69.9782882 54.8202361,69.8603351 54.539925,69.7467079 C53.9226627,70.0166446 53.3516373,70.3552189 52.734086,70.519315 C51.340911,70.8896126 49.9379108,70.8792305 48.543291,70.4330852 C48.217321,70.3286867 47.787029,70.2756222 47.4951587,70.4036691 C47.076426,70.5879527 46.6660737,70.6369796 46.2380936,70.640152 C44.7452204,70.6513993 43.2520583,70.6418823 41.7591851,70.6476502 C41.1179374,70.6499574 40.5151241,70.5495963 39.9998719,70.126811 C39.6120601,69.8087126 39.2491006,69.8603351 38.813896,70.1164288 C38.1550205,70.5043185 37.4406607,70.8203981 36.6676379,70.8973993 C35.8316174,70.9807451 34.9901062,71.0205434 34.1500399,71.040731 C32.4482338,71.0819713 30.8582632,70.6975424 29.4327225,69.7308463 C29.1784196,69.5583868 28.9102457,69.4052497 28.6351363,69.2348089 C28.4299602,69.3400727 28.2282518,69.4225533 28.0487949,69.538776 C26.8408565,70.3209 25.5167479,70.665819 24.0813818,70.6485154 C22.6850281,70.6317886 21.2880965,70.6444779 19.8914538,70.6447663 C19.5276273,70.6447663 19.1580213,70.6340957 18.9485104,71.0496712 C18.9788534,71.2255914 19.0135311,71.4133358 19.043874,71.6019454 C19.4195486,73.9379352 20.5321235,75.8378737 22.4549997,77.2313926 C23.5051547,77.9924639 24.6064594,78.6690358 25.7687389,79.2639922 C27.6540476,80.2292463 29.6555264,80.7907491 31.720292,81.1428779 C32.9701326,81.3562893 34.2205512,81.5737383 35.496978,81.6426644 C37.5360243,81.7528308 39.5675571,82.0236326 41.6071813,82.1055365 C44.6588153,82.2278154 47.7147839,82.2730933 50.7690187,82.2967416 C52.7413105,82.3120264 54.7144692,82.190901 56.686761,82.1995528 C60.4177881,82.2154145 64.1418796,82.0703524 67.8648152,81.8505963 C68.0321349,81.8405025 68.1980097,81.807914 68.3650404,81.7877265 C69.7246936,81.6239188 71.0872366,81.4800103 72.443711,81.2922659 C73.9675051,81.0811616 75.4782951,80.7881535 76.9399584,80.2990376 C78.914562,79.6383274 80.7310934,78.6618259 82.4219182,77.4537442 C83.3452108,76.7941876 84.1662044,76.039461 84.7921361,75.0690158 C85.4281822,74.0829973 85.8443141,73.0225733 86.0801221,71.8877436 C86.141386,71.5930051 86.0893695,71.2754836 86.0893695,70.8633688 L86.0893695,70.8633688 Z M86.1734628,39.7387548 C86.1965813,39.4970808 86.2327038,39.3563446 86.2196997,39.2205111 C86.0766544,37.7384553 85.8402683,36.278029 85.4232695,34.8395207 C84.942117,33.1792375 84.1910567,31.6614208 83.1599743,30.293569 C82.6002191,29.5509549 81.8936619,28.9187957 81.2576158,28.2327068 C79.551764,26.3930427 77.4800629,25.0522998 75.2757198,23.9036272 C73.3074737,22.8780988 71.2117872,22.1773019 69.0773773,21.5901321 C68.3138909,21.3804698 67.5460697,21.1699423 66.7666894,21.0375695 C65.2044609,20.7722472 63.6355858,20.537783 62.0641099,20.3333118 C60.6637105,20.1510469 59.2581094,19.9927187 57.8501965,19.887455 C56.7711433,19.8069931 55.6845767,19.8202592 54.6011889,19.8015136 C53.3507703,19.7801725 52.0983289,19.7164375 50.8502222,19.7654644 C48.424809,19.860346 46.0005517,20.0042545 43.5783172,20.1625827 C42.5498357,20.2297784 41.5164415,20.3281207 40.5032759,20.5109624 C38.8075384,20.8172366 37.1077552,21.0935179 35.4325353,21.5312997 C33.7350639,21.9748494 32.0555094,22.4518528 30.4675616,23.187257 C29.1194676,23.8122064 27.7788871,24.4737818 26.5111298,25.2440817 C24.8442903,26.2560556 23.3959201,27.5567117 22.0226849,28.9447511 C21.2381028,29.7381225 20.5870298,30.618012 19.9986655,31.5529848 C19.1843185,32.8472962 18.6687773,34.2696545 18.3494539,35.7502683 C18.0925503,36.9416232 17.948927,38.1586451 17.7810293,39.367592 C17.7365263,39.6882859 17.6920233,40.0507969 18.1049764,40.316696 C18.289057,40.2506538 18.510705,40.1724991 18.7311971,40.091172 C19.3441247,39.8642061 19.962254,39.7070315 20.6306659,39.738178 C21.5678296,39.7820139 22.50875,39.8140256 23.4459137,39.7817255 C24.4333601,39.7471182 25.4179166,39.6300303 26.1842928,39.9720654 C27.0645274,39.7837442 27.7624153,39.5273621 28.4683946,39.5042906 C30.2961962,39.4445931 32.1289104,39.4515146 33.9575789,39.506021 C34.7658573,39.5302461 35.5903187,39.6617536 36.3202834,40.0701193 C36.8413152,40.361397 37.347898,40.6803606 37.8452334,41.0105715 C38.1136963,41.1887989 38.3584627,41.2660884 38.636462,41.0570029 C39.9446766,40.0738684 41.464136,39.784321 43.0512168,39.7387548 C43.7730901,39.7179904 44.4961193,39.7338521 45.2185705,39.7364476 C45.9762773,39.7393316 46.7045081,39.9311135 47.3700302,40.2544029 C47.8899061,40.5073243 48.3043041,40.5168413 48.7776541,40.1926867 C49.2186384,39.8904499 49.7156848,39.7309682 50.2705273,39.7341405 C52.2694053,39.7456762 54.2679944,39.7352941 56.2668724,39.7350057 C56.9208352,39.7350057 57.5698854,39.7797067 58.1738546,40.0588719 C58.6252421,40.2673807 59.0760517,40.242002 59.4999861,40.0314745 C60.063209,39.7517325 60.656197,39.7306798 61.2604552,39.7312566 C63.5951285,39.7332753 65.9306688,39.7684594 68.2644752,39.7226047 C70.1116385,39.6865555 71.9538891,39.8838169 73.8036532,39.7525977 C74.9300991,39.673001 76.0669483,39.7537513 77.1980179,39.7266423 C77.908332,39.709627 78.544667,39.9014089 79.0755242,40.3432282 C79.5413607,40.7314063 79.9748314,40.7060276 80.4684101,40.4473384 C81.3321728,39.9951369 82.2447731,39.7234699 83.2325084,39.7442343 C83.9786561,39.7598075 84.7248037,39.7649986 85.4709513,39.7693245 C85.681907,39.7704781 85.8925738,39.7517325 86.1734628,39.7387548 L86.1734628,39.7387548 Z M15.7281119,54.4177115 C15.4082105,54.0439532 15.10507,53.7065324 14.8204242,53.3538268 C13.3180147,51.4925331 12.7987167,49.3367893 13.0680465,47.0085861 C13.2347883,45.5648866 13.802057,44.2287581 14.6840254,43.0575908 C14.9351495,42.7242076 15.0276232,42.3914011 15.0227106,41.9931292 C15.0114403,41.1045879 14.9941015,40.214893 15.0247334,39.3275052 C15.0998683,37.1310979 15.5122435,35.0010212 16.2800646,32.9341028 C16.8612044,31.3704315 17.6096639,29.9039489 18.6508605,28.6009857 C20.020917,26.8864845 21.6224469,25.4067358 23.3580637,24.0642626 C25.6805998,22.2675691 28.2684201,20.9686434 31.0163355,19.9748383 C32.4826225,19.4444821 33.9827202,19.0234271 35.5053584,18.6718751 C37.777323,18.1475751 40.0683603,17.7510336 42.3900295,17.5488696 C43.8739443,17.4193807 45.3676844,17.3925601 46.8472645,17.2319248 C49.0521856,16.9922695 51.2611524,16.9818873 53.4709862,17.0121687 C54.6445359,17.0286071 55.8169298,17.1508861 56.9899016,17.2244265 C57.1098285,17.2322131 57.2303333,17.237981 57.3505492,17.237981 C59.5207927,17.2388462 61.6684956,17.4914792 63.8086851,17.8205365 C65.1856771,18.0322176 66.5690267,18.2188084 67.9318587,18.5014343 C69.0785332,18.7393592 70.2087359,19.0704353 71.3302692,19.4133356 C73.0791791,19.9477293 74.7786733,20.6110351 76.4186376,21.4292083 C78.277649,22.3566828 79.9921703,23.4929545 81.5934111,24.8123562 C83.3093773,26.226351 84.8638033,27.7946366 86.1032406,29.638915 C86.8517,30.7526919 87.3935385,31.9841335 87.8495497,33.2542199 C88.421731,34.8481725 88.673433,36.5070137 88.9338044,38.1649898 C89.0080724,38.6362252 89.0008479,39.1238992 88.9927565,39.6032097 C88.985243,40.0421451 89.1358018,40.380431 89.4421211,40.6950687 C90.4734925,41.7540508 90.9641813,43.0495158 90.9939463,44.5119608 C91.0245783,46.0390061 90.9745846,46.1526332 89.9778909,47.9473079 C90.1226702,48.2316642 90.2717841,48.5555305 90.4474842,48.8644003 C90.9266139,49.7053566 91,50.5794783 90.7410884,51.5066644 C90.3659917,52.8471188 89.622156,53.938401 88.5485935,54.8073316 C88.1818772,55.1040888 87.7715249,55.3477816 87.3181145,55.6586701 C87.4556693,55.9147638 87.548721,56.1252913 87.6738495,56.3150544 C88.6702542,57.8207585 88.9739727,59.439513 88.4604544,61.183142 C88.2899559,61.7622368 88.2833094,62.2848064 88.6037887,62.8382341 C88.8245698,63.2194907 88.88121,63.6933218 89.0311909,64.1184143 C89.2135376,64.6355044 89.3502253,65.1846062 89.6253347,65.6492086 C90.183934,66.5922564 90.1769985,67.5771213 89.9544835,68.5784246 C89.8862841,68.8849872 89.6392058,69.1676132 89.4268052,69.4222649 C89.1360908,69.7712214 89.0048936,70.1345976 88.9944903,70.5992001 C88.9314926,73.3957549 87.9223727,75.84393 86.1012177,77.9443021 C85.2478583,78.9280134 84.1679383,79.6691855 83.0666336,80.3619075 C82.4791363,80.7316283 81.8835475,81.0898134 81.2763995,81.4260806 C79.7774578,82.2569432 78.1976014,82.8755479 76.5290281,83.2940074 C73.9308046,83.945489 71.2877891,84.2431114 68.6280127,84.487381 C65.7517899,84.7515497 62.8715214,84.8870948 59.9866292,84.9185297 C55.4380764,84.9684218 50.8886566,85.0197559 46.3401037,84.9923585 C43.7675995,84.9767853 41.1919164,84.8680608 38.6254807,84.6881031 C35.437448,84.4645979 32.2491263,84.1675522 29.1295819,83.4269569 C26.7530064,82.8628586 24.4978027,81.9861414 22.4732054,80.5851243 C21.724457,80.0668806 20.9511452,79.5806486 20.2252262,79.032412 C19.2383579,78.2872024 18.4870086,77.3236786 17.8431601,76.2762323 C16.8178573,74.6075857 16.2875781,72.7863787 16.1922146,70.837125 C16.1754537,70.4945131 16.0572607,70.2349587 15.7581659,70.0627876 C15.7165527,70.0388509 15.6772514,70.0105883 15.637372,69.9834793 C13.9156263,68.8241361 13.9560836,66.3364511 14.9322597,65.185183 C15.4116783,64.6199311 15.5206239,64.0226675 15.4923038,63.3305224 C15.460805,62.562818 15.4553143,61.7919414 15.49057,61.0248138 C15.5119545,60.5619418 15.4174579,60.167419 15.1027581,59.8357661 C14.7423995,59.4565283 14.5693002,58.9815437 14.4407039,58.499926 C14.0783223,57.1427447 14.3485191,55.9395657 15.3963623,54.9512401 C15.4827675,54.8696246 15.5529897,54.7686868 15.6200332,54.6697677 C15.6587566,54.6123774 15.6763844,54.5408557 15.7281119,54.4177115 L15.7281119,54.4177115 Z" id="Fill-1" fill="#0093EE"></path>
                <path d="M22.8703813,66 C22.2800092,65.9988333 22.0200938,65.7260274 22.005935,65.0539933 C21.9960744,64.5980632 21.995063,64.1389508 22.0302072,63.6856243 C22.0643401,63.2482091 22.2615522,63.0355767 22.6405534,63.0037542 C22.8225953,62.9887108 23.0230943,63.0187976 23.1922416,63.0954609 C23.9818485,63.4521626 24.2665419,64.8636367 23.7110611,65.6062589 C23.4933693,65.8972905 23.2713793,66.0011476 22.8703813,66" id="Fill-3" fill="#0093EE"></path>
                <path d="M22.0033541,60.6618137 C22.0033541,59.997943 21.9929981,59.30391 22.00868,58.6107819 C22.0148936,58.3378137 22.1865068,58.154729 22.4430389,58.0669569 C23.074753,57.8512969 23.6721444,58.1710166 23.9020468,58.8185997 C24.0621205,59.2689218 24.0059024,59.7065758 23.8771925,60.1394039 C23.6103044,61.0379368 22.825618,61.2683762 22.0033541,60.6618137" id="Fill-5" fill="#0093EE"></path>
                <path d="M32.1698903,46.852127 C31.8842648,45.9406135 32.0142258,45.0232589 32.1580494,44.1277314 C32.7939921,43.8707245 33.496937,44.0167511 33.7669672,44.4296222 C34.1048659,44.9467102 34.0693432,46.0977074 33.6990987,46.6227884 C33.4192492,47.0196734 32.8150747,47.1155898 32.1698903,46.852127" id="Fill-7" fill="#0093EE"></path>
                <path d="M46.0972301,61.8540794 C45.8889766,60.9420235 46.0862694,60.0666887 46.0462776,59.237927 C46.6346014,58.891913 47.2282574,58.9340079 47.5855174,59.2946506 C48.0834893,59.7968038 48.1406628,60.7882727 47.7140836,61.5086625 C47.4092573,62.0227574 46.9776421,62.125457 46.0972301,61.8540794" id="Fill-11" fill="#0093EE"></path>
                <path d="M43.9998819,49.7653588 C44.0085735,50.5566911 43.5366713,51.0561917 42.8385321,50.9949369 C42.2574737,50.9441402 41.8351647,50.3335842 42.0626798,49.8191435 C42.265654,49.3597325 42.6166409,49.0400123 43.1680456,49.0036579 C43.7268637,48.9665564 43.9937467,49.2110776 43.9998819,49.7653588" id="Fill-13" fill="#0093EE"></path>
                <path d="M71.9288774,60.7753482 C71.7405304,60.8370896 71.5143294,60.9628074 71.2801267,60.9770554 C70.7486313,61.0089039 70.211904,61.0055514 69.6794853,60.9795697 C69.1732259,60.9552643 68.9513334,60.6876252 69.0088839,60.2448193 C69.1341408,59.2846151 70.5058114,58.6780968 71.4146163,59.1809678 C71.9427264,59.4734711 72.1116847,59.9562272 71.9288774,60.7753482" id="Fill-15" fill="#0093EE"></path>
                <path d="M54.1341367,47.9229175 C53.8838253,46.9649167 54.0531024,46.0325552 54.0928739,45.122628 C54.7041109,44.8755829 55.2365509,45.0088537 55.5793308,45.4588764 C56.0836822,46.1204231 56.1304136,46.6633882 55.7416479,47.3385557 C55.3874337,47.9530971 54.9703309,48.1168145 54.1341367,47.9229175" id="Fill-17" fill="#0093EE"></path>
            </g>
        </g>
    </g>
</svg>