<?xml version="1.0" encoding="UTF-8"?>
<svg width="103px" height="104px" viewBox="0 0 103 104" version="1.1" xmlns="http://www.w3.org/2000/svg" xmlns:xlink="http://www.w3.org/1999/xlink">
    <!-- Generator: Sketch 56.2 (81672) - https://sketch.com -->
    <title>Group 4</title>
    <desc>Created with Sketch.</desc>
    <g id="Page-1" stroke="none" stroke-width="1" fill="none" fill-rule="evenodd">
        <g id="Home-Copy" transform="translate(-978.000000, -479.000000)">
            <g id="Group-4" transform="translate(978.000000, 479.000000)">
                <g id="2_Graphicburger" fill="#BFE4FB" fill-rule="nonzero">
                    <rect id="Rectangle-Copy-11" x="0" y="0" width="103" height="104" rx="15"></rect>
                </g>
                <g id="burger" transform="translate(13.000000, 17.000000)" fill="#0093EE">
                    <g id="Group-19">
                        <path d="M64.510733,37.7266167 C64.8761214,37.1281167 64.8643835,36.6003944 64.4346262,36.1811722 C63.9230825,35.6826167 63.8693155,35.0880056 63.8749951,34.4303944 C63.8897621,32.7577833 63.8780243,31.0840056 63.8795388,29.4110056 C63.8806748,28.6826167 63.8723447,28.0242278 64.4073641,27.3572833 C65.0707427,26.5293389 64.6084223,25.7465056 63.5277816,25.6920611 C62.6194223,25.6461722 61.7061408,25.6508389 60.7974029,25.6912833 C60.3911214,25.7095611 59.9905194,25.8705611 59.6535291,25.9510611 C59.4252087,26.6327833 59.4653447,27.1531167 59.8466359,27.6011167 C60.2930534,28.1268944 60.3358398,28.7281167 60.3063058,29.3946722 C60.2404223,30.9160056 60.1760534,32.4427833 60.2328495,33.9625611 C60.2638981,34.7862278 60.2305777,35.4928389 59.6773835,36.15395 C59.280568,36.6276167 59.186665,37.20745 59.6826845,37.7266167 L64.510733,37.7266167 Z M74.8396748,26.4290056 C73.7045097,26.1801167 72.735568,25.8993389 71.7473155,25.7647833 C69.3902767,25.4427833 67.3531893,26.0980611 65.9472961,28.1646167 C64.9768398,29.5910611 64.7807039,31.2166167 64.9529854,32.9530056 C65.3948592,37.4011167 69.9483932,38.8975611 73.1933447,37.1565056 C74.099432,36.6700056 74.7650825,35.8490611 75.0369466,34.80645 C75.124034,34.4716167 75.0717816,33.9847278 74.8832184,33.7148389 C74.6189272,33.3372278 74.1425971,33.3030056 73.7098107,33.5476167 C73.4583932,33.68995 73.217199,33.8525056 72.9597233,33.9820056 C72.5750243,34.1752833 72.1941117,34.3981167 71.7863155,34.51945 C70.8279757,34.8033389 69.970733,34.4455611 69.4807718,33.5526722 C68.7931602,32.2988944 68.5633252,30.9828944 69.0646456,29.5852278 C69.6602476,27.9246722 70.7757233,27.6485611 72.0195583,28.8813389 C72.3966845,29.2550611 72.6886165,29.7326167 73.100199,30.0542278 C73.9578204,30.7250611 75.007034,30.2863944 75.1304709,29.18895 C75.2334612,28.2692278 75.2486068,27.3253944 74.8396748,26.4290056 L74.8396748,26.4290056 Z M41.1701796,33.4227833 C41.5696456,33.4041167 41.847568,33.3862278 42.1262476,33.3800056 C42.4617233,33.3726167 42.7990922,33.3978944 43.1322961,33.3691167 C46.0622184,33.11945 47.3901117,30.4532278 46.2254126,27.8095611 C45.5510534,26.2777278 44.2451214,25.7340611 42.7154126,25.6908944 C41.134966,25.6465611 39.5514903,25.6578389 37.9702864,25.6881722 C37.5102379,25.6971167 37.0528398,25.8561722 36.7082767,25.92345 C35.8317233,27.1682833 36.7313738,27.7240056 37.4220146,28.3796722 C37.4220146,30.3890611 37.4197427,32.4046722 37.4235291,34.4202833 C37.4250437,35.06545 37.4042184,35.6651167 36.9089563,36.1928389 C36.5322087,36.5930056 36.3701505,37.1370611 36.9328107,37.7293389 C37.2190631,37.7530611 37.5939175,37.8086722 37.9687718,37.8117833 C39.3474029,37.8226722 40.7256553,37.8156722 42.0474903,37.8156722 C42.7229854,36.5350611 41.7771408,36.1033944 41.1701796,35.53795 L41.1701796,33.4227833 Z M13.9125874,31.9741722 C12.7459951,31.5845056 10.1511699,31.46745 9.42455825,31.7023389 C8.58662621,31.9730056 8.38481068,32.5796722 8.91907282,33.2582833 C9.03720874,33.4087833 9.20191748,33.5215611 9.34769417,33.6483389 C9.77366505,34.0193389 9.8679466,34.4762833 9.59078155,34.96045 C9.34125728,35.3960056 8.76988835,35.42945 8.19662621,35.0005056 C7.8176068,34.7173944 7.44199515,34.3701167 7.1973932,33.96645 C6.40224757,32.6547278 6.19702427,31.2255611 6.60747087,29.7248389 C7.04896602,28.1125056 8.65856796,27.6578944 9.84977184,28.8140611 C10.1621505,29.1173944 10.4234126,29.47595 10.7214029,29.7960056 C11.1026942,30.2051167 11.5483544,30.5131167 12.1238883,30.3147833 C12.724034,30.1078944 13.0610243,29.6206167 13.1250146,28.9878944 C13.2211893,28.0358944 13.0769272,27.0963389 12.5297913,26.3177833 C12.3166165,26.01445 11.7619078,25.6815611 11.4779272,25.7671167 C10.6434029,26.0175611 9.87476214,25.8056167 9.0693932,25.7278389 C6.68925728,25.4980056 4.67602427,26.25945 3.40151942,28.41195 C2.07741262,30.6480611 2.02137379,32.9852833 3.39583981,35.2490056 C4.78052913,37.5302278 7.57376214,38.3527278 10.2534029,37.5446167 C11.4302184,37.18995 12.2639854,36.4160611 12.7842379,35.3003389 C13.1106262,34.59995 13.2870728,33.84395 13.806568,33.21745 C14.0167136,32.9638944 13.8864612,32.4128389 13.9125874,31.9741722 L13.9125874,31.9741722 Z M46.7471796,49.7638944 C45.669568,49.9031167 45.5749078,49.8786167 45.0024029,49.3431167 C43.8236942,48.2417833 43.2920825,45.6498389 43.9346359,44.1401722 C44.5419757,42.7152833 45.9933058,42.4135056 47.088335,43.5031722 C47.4302476,43.84345 47.6877233,44.2735611 48.0349369,44.6060611 C48.9145194,45.4483944 50.104966,45.0676722 50.3230631,43.8628944 C50.4938301,42.9182833 50.3412379,41.9958389 49.880432,41.1492278 C49.5237524,40.4935611 49.178432,40.2925056 48.4635583,40.5126167 C47.9251311,40.6790611 47.4533447,40.6355056 46.9236262,40.5235056 C46.3674029,40.4060611 45.7786165,40.3955611 45.2072476,40.4188944 C40.6942282,40.6040056 38.6931117,45.3990056 40.0501602,48.8496167 C40.9899466,51.2385611 42.8384709,52.3962833 45.2966068,52.5518389 C47.2723544,52.6766722 49.6214417,51.7938944 50.2920146,49.2307278 C50.3847816,48.8768389 50.6131019,48.5315056 50.8558107,48.2530611 C51.3559951,47.6810056 51.3347913,47.1280056 50.9148786,46.4326722 C49.5120146,46.2312278 48.0781019,46.2973389 46.6544126,46.3782278 C45.9868689,46.4163389 45.7248495,47.0642278 46.0292767,47.70045 C46.1277233,47.90695 46.3056845,48.0932278 46.4870534,48.2340056 C47.0046553,48.6333944 47.0167718,49.1183389 46.7471796,49.7638944 L46.7471796,49.7638944 Z M56.3169466,47.2466167 L57.7819078,47.2466167 C58.9322184,47.2462278 60.0829078,47.26995 61.2324612,47.2400056 C62.4274515,47.2085056 62.8697039,46.7597278 62.9552767,45.5440611 C62.9753447,45.2547278 62.9355874,44.9548944 62.8829563,44.6678944 C62.3237039,41.5948944 59.5077524,39.7857833 56.515733,40.5421722 C52.7910437,41.4836722 51.295034,45.1660611 52.2821505,48.6073389 C52.6138398,49.7627278 53.2370825,50.7197833 54.2045097,51.4610056 C56.5725291,53.27595 59.6012767,52.6156167 61.5823252,51.1670056 C62.4085194,50.5622833 62.5599757,49.8043389 62.194966,48.5731167 C61.6209466,48.7640611 61.0317816,48.9126167 60.4812379,49.1533389 C59.4047621,49.6242833 58.3320728,49.6445056 57.2718786,49.1747278 C56.5876748,48.8721722 55.9996456,48.4420611 56.3169466,47.2466167 L56.3169466,47.2466167 Z M36.020665,37.5092278 C35.9180534,36.9251167 35.958568,36.3896167 35.7332767,36.0287278 C35.2099951,35.19145 35.1104126,34.2997278 35.1107913,33.3570611 C35.1107913,31.9815611 35.1433544,30.6041167 35.0805,29.2313389 C35.0134806,27.7675611 34.4697524,26.5021167 33.0241019,26.0070611 C31.1926165,25.3797833 29.3240243,25.5905611 27.544034,26.2555611 C26.3490437,26.7016167 25.7504126,27.8453389 25.8454515,29.0458389 C25.9211796,30.0060056 26.6356748,30.6037278 27.5145,30.3143944 C27.9847718,30.1596167 28.4069563,29.7870611 28.7916553,29.4432833 C29.0733641,29.1912833 29.2751796,28.8366167 29.483432,28.5080056 C29.7621117,28.0681722 30.1471893,27.9647278 30.600801,28.1058944 C31.0695583,28.25095 31.2868981,28.6207833 31.302801,29.1065056 C31.3183252,29.5848389 31.3062087,30.0643389 31.3062087,30.6873389 C30.6295777,30.7763944 30.0771408,30.8261722 29.5337913,30.9261167 C28.7878689,31.0633944 28.0093835,31.1353389 27.3145777,31.4165056 C25.0075194,32.3502278 25.1445874,36.0516722 26.597432,37.1432833 C26.9703932,37.4240611 27.4236262,37.6706167 27.8711796,37.7515056 C28.825733,37.92495 29.7749854,37.8673944 30.6178398,37.2482833 C30.8756942,37.0585056 31.1869369,36.9445611 31.487199,36.7890056 C32.8097913,38.3146167 34.324733,37.86545 36.020665,37.5092278 L36.020665,37.5092278 Z M32.9343641,47.6378389 C33.837801,47.6992833 34.3186748,48.0726167 34.5295777,48.8185056 C34.6897427,49.3847278 34.8741408,49.9443389 35.0112087,50.5163944 C35.4205194,52.2232278 35.7855291,52.5358944 37.4613932,52.5502833 C37.7968689,52.5533944 38.1349951,52.5736167 38.4670631,52.5382278 C39.3992767,52.4390611 39.8309272,51.7651167 39.3065097,51.02895 C38.8180631,50.3437278 38.7199951,49.6013389 38.5844417,48.8457278 C38.4284417,47.9718944 38.0717621,47.2742278 37.2796456,46.8487833 C37.1191019,46.76245 36.9952864,46.6037833 36.8665485,46.48945 C36.9169078,46.3552833 36.9244806,46.2335611 36.986199,46.1857278 C38.2959175,45.1695611 38.4700922,43.8127278 37.9430243,42.35945 C37.4261796,40.93495 36.2277816,40.4465056 34.8430922,40.4212278 C33.1191408,40.3893389 31.3936748,40.3866167 29.6693447,40.4188944 C28.2585291,40.44495 27.8499757,41.21145 28.6371699,42.4026167 C29.0673058,43.0540056 29.2331505,43.7271722 29.2339078,44.4792833 C29.2354223,45.9061167 29.2460243,47.33295 29.2350437,48.7597833 C29.2289854,49.5577833 29.122966,50.3133944 28.4891214,50.90645 C27.9976456,51.3661167 27.9881796,51.9195056 28.4429272,52.5642833 C29.8454126,52.5642833 31.278568,52.59345 32.7102087,52.5541722 C33.6268981,52.5288944 34.0168981,51.7371167 33.3894903,51.0553944 C32.3906359,49.9707833 32.783665,48.85545 32.9343641,47.6378389 L32.9343641,47.6378389 Z M15.1215874,40.5546167 C15.2700146,41.2518944 15.2226845,41.85195 15.4900049,42.1171722 C16.0981019,42.7195611 16.0931796,43.4090611 16.0912864,44.1491167 C16.0867427,45.5253944 16.0549369,46.9032278 16.0992379,48.27795 C16.1836748,50.9068389 17.6872573,52.4585056 20.2351311,52.5868389 C20.9038107,52.6206722 21.5755194,52.5845056 22.2449563,52.6086167 C24.7932087,52.7003944 26.8393835,50.8337278 26.7920534,47.8855611 C26.7719854,46.6076722 26.8049272,45.3290056 26.7822087,44.0515056 C26.7689563,43.3021167 26.7950825,42.6176722 27.3482767,42.0055611 C27.7999951,41.5058389 27.7454709,40.9283389 27.0544515,40.41695 C25.9579078,40.41695 24.764432,40.3982833 23.5720922,40.4223944 C22.4123155,40.4453389 22.0117136,41.1122833 22.5974709,42.13195 C22.8500243,42.5717833 23.0461602,42.9618389 23.0374515,43.4821722 C23.0132184,44.90745 23.0325291,46.3335056 23.0177621,47.7587833 C23.0143544,48.0990611 22.9723252,48.4451722 22.9003835,48.7772833 C22.7689951,49.3851167 22.3066748,49.6437278 21.7712767,49.7642833 C21.2033155,49.8922278 20.6815485,49.7078944 20.4149854,49.1910611 C20.1563738,48.6886167 19.9344903,48.1142278 19.8928398,47.5557833 C19.8091602,46.4315056 19.8644417,45.2967278 19.8523252,44.1662278 C19.8439951,43.3826167 19.7716748,42.6133944 20.2665583,41.8990056 C20.4524709,41.6310611 20.3775,41.1717833 20.435432,40.6813944 C18.6876262,40.23145 17.0613641,40.3908944 15.1215874,40.5546167 L15.1215874,40.5546167 Z M71.4603058,46.49295 C71.8101699,46.1690056 71.9994903,46.0293944 72.1464029,45.8520611 C73.1217816,44.6748944 73.164568,42.88445 72.2709757,41.6330056 C71.6094903,40.7066722 70.6288107,40.4616722 69.619733,40.4262833 C67.898432,40.3656167 66.1737233,40.4153944 64.4501505,40.4080056 C63.9030146,40.4056722 63.350199,40.4445611 63.078335,40.9987278 C62.8102573,41.5447278 63.058267,42.0071167 63.4153252,42.4722278 C63.6640922,42.7957833 63.8647718,43.2550611 63.8731019,43.6583389 C63.9155097,45.6731722 63.9079369,47.6891722 63.8621214,49.7040056 C63.8545485,50.0481722 63.6568981,50.4833389 63.4043447,50.7061722 C62.8174515,51.2245611 62.8439563,51.7643389 63.0654612,52.3745056 C64.5387524,52.6506167 67.147966,52.6230056 68.2127039,52.33445 C68.4345874,51.4473944 68.4440534,51.4415611 68.0184612,50.8835056 C67.2183932,49.83545 67.3035874,48.7628944 67.8609466,47.6156722 C68.7253835,47.7622833 69.1914903,48.2277833 69.3785388,49.0261722 C69.5352961,49.6938944 69.7333252,50.3526722 69.8756942,51.0235056 C70.0347233,51.7713389 70.4614515,52.33445 71.1611796,52.4491722 C72.1755583,52.6160056 73.2429466,52.8011167 74.3171505,52.0233389 C74.2115097,51.6192833 74.1319951,51.2093944 73.9949272,50.8208944 C73.8362767,50.3701722 73.5064806,49.9505611 73.4629369,49.49595 C73.3372282,48.1861722 72.891568,47.1280056 71.4603058,46.49295 L71.4603058,46.49295 Z M22.7561214,31.8746167 C23.2067039,31.20145 23.6890922,30.7316722 23.8738689,30.1600056 C24.598966,27.9133944 23.4528204,25.9358944 21.1007039,25.7348389 C19.1522184,25.5683944 17.1791214,25.6422833 15.2192767,25.7025611 C14.1852087,25.73445 13.7524223,26.6028389 14.3783155,27.4432278 C14.8981893,28.1412833 14.9750534,28.8525611 14.9750534,29.6423944 C14.9750534,31.1166722 14.9773252,32.59095 14.9830049,34.0652278 C14.986034,34.8566167 14.9898204,35.6192278 14.3446165,36.2395056 C13.9258398,36.6423944 13.9053932,37.1860611 14.2155,37.6865611 C16.131801,37.9451722 18.5959951,37.8666167 19.4627039,37.5282833 C19.6967039,36.93795 19.4142379,36.4798389 19.0920146,36.0396167 C18.3763835,35.0627278 18.6005388,34.0621167 18.8992864,33.0307833 C19.684966,32.9397833 20.0893544,33.3418944 20.3513738,33.8898389 C20.5357718,34.2760056 20.6342184,34.71195 20.7300146,35.1358389 C21.3865777,38.0423944 21.7716553,37.8603944 24.2597039,37.7907833 C25.3240631,37.7612278 25.6156165,37.2463389 25.2119854,36.2717833 C24.9908592,35.7378389 24.7333835,35.1996167 24.6334223,34.6372833 C24.4168398,33.4200611 24.0317621,32.3583944 22.7561214,31.8746167 L22.7561214,31.8746167 Z M51.8690534,25.8332278 C50.4995097,25.5532278 49.0258398,25.6037833 47.5684515,25.7850056 C46.8391893,25.8756167 46.5824709,26.5771722 47.0788689,27.2445056 C47.6918883,28.0685611 47.7176359,28.9497833 47.7077913,29.8897278 C47.6934029,31.2193389 47.7005971,32.5493389 47.7077913,33.87895 C47.712335,34.7216722 47.7085485,35.5352278 47.0853058,36.2266722 C46.697199,36.6571722 46.683568,37.20045 47.1307427,37.7973944 C48.6903641,37.8110056 50.2980728,37.8448389 51.8675388,37.7670611 C52.1189563,36.6875056 52.1859757,36.6210056 51.8603447,36.2737278 C50.9095777,35.2595056 51.2620922,34.1290056 51.377199,33.0195056 C52.7539369,32.6901167 52.9239466,32.6978944 53.9307524,33.1058389 C54.1745971,34.7998389 54.181034,34.80295 53.3961117,36.4230611 C53.181801,36.8648389 53.1439369,37.2611167 53.6225388,37.7826167 C55.1439175,37.8005056 56.7917621,37.8926722 58.3638786,37.72545 C58.8246845,37.0402278 58.612267,36.5253389 58.2658107,36.1107833 C57.7182961,35.4551167 57.6433252,34.6971722 57.6399175,33.9015056 C57.6365097,32.96545 57.6190922,32.0293944 57.6437039,31.0941167 C57.6796748,29.7411722 57.4396165,28.37695 58.3608495,27.1301722 C58.8629272,26.4496167 58.3173058,25.7227833 57.3953155,25.6893389 C56.3896456,25.6527833 55.3809466,25.65045 54.3748981,25.6866167 C53.1961893,25.7286167 52.7887718,26.4982278 53.5630922,27.4218389 C54.3283252,28.3341722 54.0337427,29.2153944 53.9330243,30.2677278 C53.0364029,30.3490056 52.2117233,30.5100056 51.3707621,30.1502833 C51.1973447,29.1173944 51.0564903,28.1731722 51.8406553,27.3495056 C52.2102087,26.9613944 52.1992282,26.4616722 51.8690534,25.8332278 L51.8690534,25.8332278 Z M13.2022573,45.8485611 C13.3779466,45.5918944 13.5453058,45.3601167 13.6997913,45.1193944 C14.8622184,43.3040611 14.0950922,41.1535056 12.061034,40.5662833 C11.6990534,40.4616722 11.3086748,40.4223944 10.9311699,40.4196722 C9.01865534,40.4068389 7.10614078,40.4286167 5.19362621,40.4091722 C4.57000485,40.4033389 4.05050971,40.5215611 3.78546117,41.1678944 C3.53631553,41.77495 3.82597573,42.2171167 4.25043204,42.5838389 C4.78280097,43.0446722 4.87670388,43.6412278 4.8676165,44.3073944 C4.84906311,45.6331167 4.83429612,46.9600056 4.87216019,48.2845611 C4.89715049,49.1646167 4.74493689,49.9455056 4.07928641,50.5513944 C3.61848058,50.9706167 3.58288835,51.5030056 3.7839466,52.0291722 C3.99787864,52.5903389 4.52418932,52.5596167 5.0096068,52.5592278 C7.06562621,52.5588389 9.12316019,52.6070611 11.1769078,52.5378389 C11.8683058,52.5145056 12.5994612,52.3021722 13.2280049,51.9941722 C15.5642184,50.8477278 15.780801,47.8276167 13.6808592,46.2615611 C13.528267,46.1476167 13.391199,46.0126722 13.2022573,45.8485611 L13.2022573,45.8485611 Z M41.261432,53.97595 C39.9857913,54.8808944 38.5265097,55.06795 37.0153544,54.9493389 C36.4958592,54.9088944 35.9831796,54.7793944 35.4659563,54.7000611 C35.1838689,54.6565056 34.8639175,54.5305056 34.6204515,54.6176167 C33.1217913,55.1527278 31.5803447,54.8447278 30.0601019,54.9131722 C29.3910437,54.9435056 28.6981311,54.99445 28.0536845,54.8540611 C27.4285485,54.7171722 26.8515,54.3473389 26.3482864,54.1225611 C22.5747524,55.8803389 18.9894029,55.8227833 15.5096942,53.47895 C15.3324903,53.56295 15.146199,53.6228389 14.9905777,53.7290056 C13.6668495,54.6366722 12.2052961,54.9757833 10.6267427,54.9275611 C9.42910194,54.8913944 8.22918932,54.91045 7.03041262,54.9267833 C6.66540291,54.9318389 6.30115049,55.0111722 5.87669417,55.0640611 C6.08835437,57.8936167 7.27274272,60.0453389 9.34580097,61.6891722 C12.094733,63.8696722 15.2340437,65.2148389 18.6342379,65.7487833 C21.6546553,66.2228389 24.7148301,66.51295 27.7678107,66.6657833 C31.9756456,66.8761722 36.1921893,66.8995056 40.4060825,66.9621167 C41.5507136,66.9792278 42.6983738,66.7960611 43.8445194,66.7948944 C49.0205388,66.7878944 54.1833058,66.6265056 59.319568,65.8732278 C62.9446748,65.3412278 66.2797427,64.1057278 69.235034,61.8692278 C70.526199,60.8923389 71.5916942,59.6817278 72.2016845,58.1425056 C72.5848689,57.1765056 73.0415097,56.1747278 72.7139854,55.1297833 C71.7151311,54.9435056 70.8347913,54.7451722 69.9442282,54.6300611 C69.5826262,54.5833944 69.1994417,54.7568389 68.8253447,54.7642278 C66.7723544,54.8042833 64.7189854,54.8256722 62.6659951,54.8466722 C62.5755,54.84745 62.467966,54.8097278 62.3964029,54.7525611 C61.6531311,54.1665056 60.9060728,54.4103389 60.0931311,54.6215056 C57.0844515,55.4027833 54.2987913,55.0325611 51.9565194,52.7233389 C51.859966,52.6280611 51.713432,52.5872278 51.4987427,52.4717278 C48.5430728,55.4366167 45.1197816,55.5995611 41.261432,53.97595 L41.261432,53.97595 Z M35.0115874,24.1015056 C36.0448981,23.3015611 37.2171699,23.2195056 38.4390437,23.2591722 C39.8752282,23.3062278 41.3159563,23.2288389 42.7521408,23.28445 C43.5048786,23.3136167 44.2492864,23.5313944 45.0020243,23.6270611 C45.3640049,23.6733389 45.7399951,23.6698389 46.102733,23.62745 C46.9505097,23.5275056 47.7922282,23.3101167 48.6400049,23.2856167 C50.0758107,23.2440056 51.5146456,23.3381167 52.951966,23.3342278 C56.495665,23.3245056 60.0389854,23.2996167 63.5830631,23.2615056 C64.3732864,23.25295 65.1214806,23.3431722 65.7420728,23.8856722 C66.1616068,24.2523944 66.6527039,24.3360056 67.0775388,24.0738944 C68.5678689,23.1537833 70.1967816,23.2642278 71.822665,23.2817278 C72.1880534,23.2860056 72.554199,23.2506167 72.9491214,23.2323389 C72.8927039,22.58795 72.8597621,22.05595 72.7972864,21.5270611 C72.4125874,18.2848944 71.393665,15.2935611 69.2770631,12.8062278 C66.5485777,9.59867222 63.1915485,7.31200556 59.314267,5.79222778 C54.5645971,3.93061667 49.5896359,3.24345 44.5779466,2.92767222 C40.1364903,2.64767222 35.6791311,2.71183889 31.2301019,3.12367222 C28.1294126,3.41028333 25.0646942,3.85283889 22.0488204,4.64539444 C17.0356165,5.96333889 12.5911311,8.29356111 8.95012136,12.1653389 C6.0542767,15.24495 5.00619903,19.0346722 4.66655825,23.1366722 C4.64951942,23.3458944 4.80400485,23.5706722 4.87216019,23.7697833 C5.88691748,23.5967278 6.80966505,23.3626167 7.74415049,23.29495 C10.3408689,23.10595 12.9667427,23.7557833 15.5502087,23.0192278 C15.7728495,22.95545 16.0272961,23.00795 16.2669757,23.0075611 C17.3214903,23.0075611 18.3782767,23.0487833 19.4301408,22.9986167 C21.4687427,22.9013944 23.3131019,23.4046167 24.9348204,24.7038944 C24.9991893,24.7556167 25.1177039,24.73695 25.2112282,24.7493944 C27.7848495,22.9235611 32.2895388,22.80145 35.0115874,24.1015056 L35.0115874,24.1015056 Z M2.69459709,38.2990611 C2.45718932,38.0143944 2.24552913,37.7608389 2.03424757,37.5072833 C-0.317868932,34.6831722 -0.801771845,30.4952278 1.4931699,26.9753944 C1.86688835,26.4021722 2.02023786,25.8701722 2.00282039,25.2012833 C1.94299515,22.9352278 2.06037379,20.6862833 2.60675243,18.4696167 C3.42348058,15.1555056 4.92706311,12.2808389 7.35301456,9.89033889 C9.3015,7.97039444 11.3613058,6.24528333 13.7501505,4.93122778 C17.2060049,3.03072778 20.8932087,1.82245 24.7371699,1.19672778 C27.6144612,0.728505556 30.5288592,0.443838889 33.4379563,0.252116667 C36.3466748,0.0603944444 39.2758398,-0.0788277778 42.1834223,0.0502833333 C48.0197913,0.309283333 53.8262476,0.890283333 59.4013544,2.89617222 C64.6921019,4.79939444 69.1293932,7.92217222 72.5038398,12.5518944 C74.1213932,14.7708944 74.8495194,17.3698389 75.3409951,20.0496722 C75.4470146,20.6291167 75.5878689,21.2143944 75.592034,21.7981167 C75.5992282,22.9503944 75.6037718,24.0738944 76.6560146,24.8267833 C77.7105291,26.93845 78.2001117,29.0656722 76.8237524,31.2453944 C76.7461311,31.3675056 76.6927427,31.5055611 76.634432,31.6233944 C76.6662379,31.7330611 76.6791117,31.8306722 76.7200049,31.9131167 C77.2482087,32.9670056 77.7571019,33.9843389 77.3981505,35.2703944 C76.9824029,36.7621722 76.1683252,37.9136722 75.0002184,38.8415611 C74.6673932,39.1056167 74.3194223,39.34945 74.0415,39.55595 C74.4280922,40.4678944 74.806733,41.2542278 75.0982864,42.0740056 C75.4526942,43.06995 75.4489078,44.0950611 75.1452379,45.1178389 C74.9456942,45.7898389 74.9786359,46.4062278 75.2902573,47.0918389 C75.8324709,48.2841722 76.269801,49.5360056 76.6480631,50.7956167 C76.9426456,51.77795 76.7340146,52.7322833 76.1599951,53.6065056 C75.9312961,53.95495 75.6946456,54.3800056 75.6772282,54.7801722 C75.4761699,59.4110611 73.2580922,62.6571167 69.4682767,65.07095 C65.9915971,67.2852833 62.2324515,68.3282833 58.2408204,68.8042833 C49.217432,69.87995 40.1588301,69.7531722 31.1081796,69.5618389 C26.8605874,69.4720056 22.6020146,69.2165056 18.3847136,68.5118389 C14.2264806,67.8172833 10.4627913,66.22595 7.18224757,63.5212278 C4.7858301,61.5456722 3.56547087,58.8615611 3.2258301,55.7656167 C3.14480097,55.0290611 2.94715049,54.4993944 2.40077184,53.9953944 C1.08953883,52.7867278 0.802150485,50.9258944 1.85325728,49.4940056 C2.47195631,48.6512833 2.55563592,47.8245056 2.53783981,46.8876722 C2.5276165,46.34595 2.50982039,45.80345 2.53443204,45.2628944 C2.55790777,44.7515056 2.44204369,44.3346167 2.14064563,43.8978944 C1.03652913,42.2976167 0.774131068,40.5950611 2.4848301,38.7221722 C2.54692718,38.6541167 2.57191748,38.5506722 2.69459709,38.2990611 L2.69459709,38.2990611 Z" id="Fill-1"></path>
                        <path d="M8.56413495,47.6884722 C9.6213,47.3719167 10.1112612,47.4959722 10.4565816,48.0703611 C10.7666883,48.5871944 10.7208728,49.5874167 10.3660864,50.0284167 C10.0128146,50.4674722 9.5451932,50.5164722 9.06204757,50.3694722 C8.65917379,50.2465833 8.42479515,49.9245833 8.4391835,49.4835833 C8.45887282,48.9018056 8.51831942,48.3215833 8.56413495,47.6884722" id="Fill-3"></path>
                        <path d="M8.38776408,45.1307111 C8.46197767,44.2988778 8.53316214,43.5020444 8.60056019,42.7472111 C9.22418155,42.4314333 9.72095825,42.4104333 10.1295117,42.8541556 C10.4831621,43.2391556 10.4623369,44.4594889 10.1204243,44.9292667 C9.71527864,45.4853778 9.19540485,45.5106556 8.38776408,45.1307111" id="Fill-5"></path>
                        <path d="M20.1716709,30.7065111 C19.8028748,30.7889556 19.3659233,30.8869556 18.8933796,30.9931222 C18.4833117,29.9703444 18.7173117,29.0786222 18.7070883,28.2071222 C20.5169913,27.9675667 20.9342534,28.6897333 20.1716709,30.7065111" id="Fill-7"></path>
                        <path d="M67.5975262,45.55565 L67.5975262,42.9602056 C68.2181184,42.6354833 68.8724097,42.6140944 69.1279922,43.2110389 C69.3532835,43.7364278 69.3362447,44.4737611 69.1764583,45.0438722 C68.9931961,45.6987611 68.3771476,45.7932611 67.5975262,45.55565" id="Fill-9"></path>
                        <path d="M34.1176165,45.6050389 L32.8503058,45.6050389 L32.8503058,42.9174278 C33.447801,42.6809833 33.993801,42.62265 34.3921311,43.1989833 C34.959335,44.0187611 34.5735,44.7708722 34.1176165,45.6050389" id="Fill-11"></path>
                        <path d="M31.1174942,32.9739278 C31.4552417,33.54015 31.3408922,34.0480389 31.0872029,34.5314278 C30.7672515,35.1408167 30.0429117,35.28665 29.5268243,34.8709278 C29.0319408,34.4715389 28.9865039,33.8827611 29.418533,33.3534833 C29.9028146,32.7604278 30.4654748,32.57765 31.1174942,32.9739278" id="Fill-13"></path>
                        <path d="M58.7675097,44.7376222 L56.4604515,44.7376222 C56.1560243,43.9264 56.2294806,43.5289556 56.7474612,43.1007889 C57.1916068,42.7344556 57.8966359,42.6586222 58.3555485,42.9285111 C58.8534612,43.2213444 58.9587233,43.6106222 58.7675097,44.7376222" id="Fill-15"></path>
                        <path d="M41.203235,28.1082667 C42.5811087,28.1506556 43.4686427,28.9249333 43.3558078,29.8481556 C43.2274485,30.8911556 42.4247301,31.4324889 41.203235,31.2147111 L41.203235,28.1082667 Z" id="Fill-17"></path>
                    </g>
                </g>
            </g>
        </g>
    </g>
</svg>