<?xml version="1.0" encoding="UTF-8"?>
<svg width="103px" height="103px" viewBox="0 0 103 103" version="1.1" xmlns="http://www.w3.org/2000/svg" xmlns:xlink="http://www.w3.org/1999/xlink">
    <!-- Generator: Sketch 56.2 (81672) - https://sketch.com -->
    <title>2_Medialoot</title>
    <desc>Created with Sketch.</desc>
    <g id="Page-1" stroke="none" stroke-width="1" fill="none" fill-rule="evenodd">
        <g id="Home-Copy-5" transform="translate(-543.000000, -590.000000)">
            <g id="2_Medialoot" transform="translate(543.000000, 590.000000)">
                <rect id="Rectangle-Copy-15" fill="#BFE4FB" x="0" y="0" width="103" height="103" rx="15"></rect>
                <g id="Group-7" transform="translate(24.000000, 20.000000)" fill="#0093EE">
                    <path d="M37.6616517,14.4558787 C37.0475592,13.8228196 36.521361,13.2798192 35.8821558,12.6205666 C32.7673078,15.7643773 29.8708817,18.6877505 26.9747477,21.6111236 C24.1013902,24.511835 21.2280328,27.412252 18.2495525,30.419209 C16.1336634,28.286056 14.1255253,26.2612088 12,24.1180493 C19.9589665,16.0330816 27.8002539,8.06819206 35.742868,0 C36.1680315,0.344636059 36.5841427,0.617754984 36.9231638,0.966805681 C39.6823462,3.80512348 42.4254682,6.65933398 45.1770583,9.50530383 C49.1746461,13.6397593 53.175738,17.770683 57.1736177,21.9048442 C57.4297086,22.1697225 57.6717832,22.448139 58,22.8074905 C57.6498826,23.2177575 57.3508665,23.6138977 57.0060052,23.9644199 C54.9882308,26.0136948 52.9523519,28.0456054 50.9360376,30.0966461 C45.7902749,35.3315236 40.6521044,40.5734646 35.5080937,45.810108 C35.1813369,46.1429716 34.8323875,46.4537621 34.2556719,47 C32.2034406,44.9062844 30.2043547,42.8667218 28.1051101,40.7256224 C31.066654,37.517358 33.9954929,34.6378369 36.8884149,31.7215272 C39.7898051,28.7966824 42.640678,25.8212166 45.6171142,22.7618726 C45.0260903,22.155007 44.4987241,21.6137724 43.8609789,20.9595231 C37.8517489,26.7250401 32.3535327,32.8631525 26.1731861,38.7655232 C24.1019742,36.672102 22.0944201,34.6428401 19.9703549,32.4961489 C25.94688,26.4015943 31.7090713,20.5260057 37.6616517,14.4558787" id="Fill-1"></path>
                    <path d="M32,48.5727665 C25.0795387,50.7324543 18.2727319,52.8566016 11.403608,55 C8.59577799,52.1768863 5.82830567,49.394052 3,46.5510948 C5.00423633,39.6422852 7.07405399,32.8095919 9.28957493,26 C10.0777378,26.3497794 31.0409103,47.2133359 32,48.5727665" id="Fill-3"></path>
                    <path d="M2.7367457,50 C3.36512903,50.2768474 8.34871894,55.1822828 9,56.2017293 C7.59425316,56.909614 6.05169963,57.1772042 4.59957764,57.6808524 C3.14252829,58.1862364 1.68142112,58.718524 0.0637978,59 C0.0411899127,58.6421523 -0.0388072268,58.4008871 0.0229296961,58.2033043 C0.865218418,55.5048375 1.72663689,52.8124458 2.58863505,50.120054 C2.60486636,50.0691395 2.68631272,50.039343 2.7367457,50" id="Fill-5"></path>
                </g>
            </g>
        </g>
    </g>
</svg>