<?xml version="1.0" encoding="UTF-8"?>
<svg width="103px" height="103px" viewBox="0 0 103 103" version="1.1" xmlns="http://www.w3.org/2000/svg" xmlns:xlink="http://www.w3.org/1999/xlink">
    <!-- Generator: Sketch 56.2 (81672) - https://sketch.com -->
    <title>2_Pixaden</title>
    <desc>Created with Sketch.</desc>
    <defs>
        <polygon id="path-1" points="0.00742708322 0.0368905109 41.9178261 0.0368905109 41.9178261 35 0.00742708322 35"></polygon>
        <polygon id="path-3" points="0 0.156894657 26.8106106 0.156894657 26.8106106 48.8354851 0 48.8354851"></polygon>
    </defs>
    <g id="Page-1" stroke="none" stroke-width="1" fill="none" fill-rule="evenodd">
        <g id="Home-Copy-5" transform="translate(-106.000000, -590.000000)">
            <g id="2_Pixaden" transform="translate(106.000000, 590.000000)">
                <rect id="Rectangle-Copy-16" fill="#BFE4FB" x="0" y="0" width="103" height="103" rx="15"></rect>
                <g id="Group-9" transform="translate(22.000000, 20.000000)">
                    <path d="M30.0138304,0 C30.7788695,0.067252689 31.5433872,0.137855129 32.308687,0.200727374 C36.52605,0.547555418 40.4688437,1.77021446 44.1488018,3.82721912 C49.0657558,6.57581848 52.8745242,10.4143752 55.5294759,15.3310364 C58.2287551,20.3293799 57.2107889,26.5916102 52.4852251,30.2961769 C51.8223998,30.8156459 51.1178546,31.2949179 50.3869737,31.7154405 C48.5372165,32.7804036 46.6613843,33.8018199 44.7946784,34.8384389 C44.6987226,34.8917773 44.5902508,34.9237288 44.4035541,35 C44.3829549,34.7144982 44.352708,34.4807886 44.3508827,34.2468214 C44.3185498,30.0104174 44.2804803,25.7740133 44.2703111,21.5373516 C44.2690074,20.9926305 44.0815285,20.6870302 43.6022708,20.414412 C36.5310042,16.3898153 29.4834659,12.3245062 22.400987,8.31975028 C20.2312902,7.09296847 17.8368272,6.62245732 15.3305027,6.69795555 C13.6340662,6.74897483 11.9989059,7.05509052 10.4245002,7.68200926 C10.3076844,7.7286481 10.1780919,7.74359314 10,7.69592361 C10.0915231,7.59311203 10.1720947,7.47793214 10.2756123,7.3890349 C14.5242651,3.7390949 19.3950664,1.36540996 24.9670232,0.47463392 C26.2582549,0.26849541 27.576083,0.224948649 28.8813952,0.101265543 C29.0673096,0.0834860967 29.250095,0.0345282005 29.4344449,0 L30.0138304,0 Z" id="Fill-1" fill="#0093EE"></path>
                    <g id="Group-5" transform="translate(18.000000, 25.000000)">
                        <mask id="mask-2" fill="white">
                            <use xlink:href="#path-1"></use>
                        </mask>
                        <g id="Clip-4"></g>
                        <path d="M0.0575217391,15.5495547 C0.324130435,15.6933869 0.492391304,15.7802482 0.656478261,15.8737518 C4.47613043,18.0506496 8.29995652,20.2206496 12.1076087,22.417219 C12.4908261,22.6384599 12.7378696,22.5314161 13.0506522,22.3548832 C18.969,19.0127664 24.8894348,15.6744818 30.8103913,12.3374745 C31.8142174,11.771854 32.8253478,11.2192628 33.8281304,10.652365 C37.0960435,8.8050292 39.3280435,6.12637956 40.4863043,2.6100292 C40.7163913,1.91207299 40.823087,1.1750292 40.9887391,0.456635036 C41.0205652,0.31740146 41.0620435,0.180722628 41.099087,0.0427664234 C41.142913,0.0407226277 41.187,0.0386788321 41.2308261,0.0368905109 C41.3012609,0.351379562 41.3834348,0.663824818 41.4405652,0.980613139 C41.9456087,3.77269343 42.0614348,6.5770365 41.733,9.3990073 C41.2837826,13.2615255 40.0879565,16.8859416 38.1403043,20.2704672 C35.4405652,24.9625109 31.7007391,28.6444088 26.9111739,31.2952117 C23.5261304,33.1688613 19.9021304,34.3404672 16.0368261,34.7694088 C14.0002174,34.9955036 11.9596957,35.1521095 9.92126087,34.7617445 C3.51091304,33.5339343 0.070826087,28.1692263 0.0369130435,22.9624015 C0.0220434783,20.6730949 0.015,18.3837883 0.00742708322,16.0944818 C0.00691304348,15.9501387 0.033,15.8055401 0.0575217391,15.5495547" id="Fill-3" fill="#0093EE" mask="url(#mask-2)"></path>
                    </g>
                    <g id="Group-8" transform="translate(0.000000, 9.000000)">
                        <mask id="mask-4" fill="white">
                            <use xlink:href="#path-3"></use>
                        </mask>
                        <g id="Clip-7"></g>
                        <path d="M20.5344087,48.8354851 C20.281024,48.7614638 20.0652837,48.7093362 19.8570721,48.6355755 C14.8397452,46.8590649 10.5220817,44.0196713 7.0723125,39.9440702 C3.44652404,35.6607404 1.14217788,30.7378043 0.330100962,25.1499798 C-0.656697115,18.3577457 0.571024038,11.9921766 3.98133173,6.03971915 C4.97877404,4.2991766 6.23764904,2.82422447 7.94384135,1.7655117 C9.37172596,0.879341489 10.9340913,0.407325532 12.6086106,0.237389362 C14.491601,0.0463414894 16.3338317,0.186304255 18.1337452,0.754756383 C18.8445721,0.979165957 19.5572163,1.24710213 20.2078125,1.60652234 C22.3112163,2.76870851 24.3863221,3.98224043 26.4710337,5.17830957 C26.5683894,5.23408617 26.6522452,5.31332021 26.8106106,5.43295319 C26.561899,5.60236809 26.3586202,5.76057553 26.1376875,5.88854894 C22.5427933,7.96844255 18.9497163,10.0514638 15.3441779,12.1128521 C14.9238606,12.3534213 14.764976,12.6250064 14.7660144,13.1118787 C14.7789952,19.6763149 14.771726,26.2404904 14.7699087,32.8044053 C14.7693894,34.19465 14.7634183,35.584634 14.7709471,36.9746181 C14.7958702,41.5550755 16.5776106,45.3095702 20.0525625,48.2644266 C20.1989856,48.3887511 20.3409952,48.5180277 20.4804087,48.6504319 C20.503774,48.6723255 20.502476,48.7208043 20.5344087,48.8354851" id="Fill-6" fill="#0093EE" mask="url(#mask-4)"></path>
                    </g>
                </g>
            </g>
        </g>
    </g>
</svg>