<?xml version="1.0" encoding="UTF-8"?>
<svg width="103px" height="103px" viewBox="0 0 103 103" version="1.1" xmlns="http://www.w3.org/2000/svg" xmlns:xlink="http://www.w3.org/1999/xlink">
    <!-- Generator: Sketch 57.1 (83088) - https://sketch.com -->
    <title>3_Humaaans</title>
    <desc>Created with Sketch.</desc>
    <defs>
        <linearGradient x1="50%" y1="0%" x2="50%" y2="100%" id="linearGradient-1">
            <stop stop-color="#FFFFFF" stop-opacity="0.0707768794" offset="0%"></stop>
            <stop stop-color="#000000" stop-opacity="0.104731206" offset="100%"></stop>
        </linearGradient>
    </defs>
    <g id="Page-1" stroke="none" stroke-width="1" fill="none" fill-rule="evenodd">
        <g id="Home-Copy-5" transform="translate(-97.000000, -841.000000)">
            <g id="3_Humaaans" transform="translate(97.000000, 841.000000)">
                <g fill-rule="nonzero">
                    <rect id="Rectangle-Copy-24" fill="#72BAFF" x="0" y="0" width="103" height="103" rx="15"></rect>
                    <g id="Afro" transform="translate(24.000000, 16.000000)">
                        <path d="M23.4506853,49 C31.9810632,49 35.0834532,38.638564 39.9298158,32.9524892 C43.3972889,28.8842193 49.3151938,30.0973081 51.066898,24.4018186 C55.4717153,10.0799988 43.6822545,0 28.3021821,0 C12.9221098,0 2.55192981,8.84045955 0.312777433,22.1300347 C-1.92637494,35.41961 8.07061298,49 23.4506853,49 Z" id="Hair-Back" fill="#2D67B6"></path>
                        <g id="Head" stroke-linejoin="round" transform="translate(19.000000, 14.000000)" fill="#72BAFF" stroke="#2D67B6" stroke-width="3">
                            <path d="M6.09834501,25.985712 C2.69726893,21.9106257 0.395349491,16.9165512 0.780001577,11.3205475 C1.88829135,-4.80309769 23.8762964,-1.2561012 28.1534187,6.88173028 C32.4305408,15.0195618 31.9223076,35.6618462 26.3945082,37.1163037 C24.1900294,37.6963392 19.4938342,36.2754842 14.7142031,33.3347511 L17.7142857,55 L0,55 L6.09834501,25.985712 Z" id="Path"></path>
                        </g>
                        <path d="M31.9072512,29.5533971 C31.2495207,29.2034495 30.495877,29.0046863 29.6948658,29.0046863 C27.1301484,29.0046863 25.0510342,31.042374 25.0510342,33.555989 C25.0510342,34.5819202 25.3973859,35.5285685 25.9817431,36.2897464 C24.8814306,38.1136509 24.1304621,40.0299753 23.8843063,42 C20.0705021,42 6.15139055,27.4875855 20.0175176,13.8336775 C33.8836447,0.179769616 53.9219148,19.6714512 47.900591,20.8081899 C44.4386381,21.4617564 37.4663701,24.7855592 31.9072531,29.5533956 L31.9072512,29.5533971 Z" id="Hair" fill="#2D67B6"></path>
                    </g>
                </g>
                <rect id="Rectangle-Copy-32" fill="url(#linearGradient-1)" opacity="0.504278274" x="0" y="0" width="103" height="103" rx="15"></rect>
            </g>
        </g>
    </g>
</svg>