<?xml version="1.0" encoding="UTF-8"?>
<svg width="103px" height="103px" viewBox="0 0 103 103" version="1.1" xmlns="http://www.w3.org/2000/svg" xmlns:xlink="http://www.w3.org/1999/xlink">
    <!-- Generator: Sketch 56.2 (81672) - https://sketch.com -->
    <title>3_Ouch</title>
    <desc>Created with Sketch.</desc>
    <defs>
        <polygon id="path-1" points="2.546114 2.50014025 31.1649407 2.37787973 31.0462983 30.8017127 2.42747158 30.9239732"></polygon>
    </defs>
    <g id="Page-1" stroke="none" stroke-width="1" fill="none" fill-rule="evenodd">
        <g id="Home-Copy-5" transform="translate(-106.000000, -771.000000)">
            <g id="3_Ouch" transform="translate(106.000000, 771.000000)">
                <rect id="Rectangle-Copy-25" fill="#D2DEFC" x="0" y="0" width="103" height="103" rx="15"></rect>
                <g id="Group-4" transform="translate(17.072721, 16.707510)">
                    <path d="M47.60994,50.622684 C41.9339139,51.9482787 36.0785545,49.681862 33.8767999,45.3801321 C31.9170579,41.5529881 33.401008,35.5568404 36.7540167,32.9101683 C40.3335945,30.084084 47.9307243,30.4027011 51,33.8073504 C50.6563153,35.0399102 50.2406942,36.5289278 49.7483379,38.2934409 C48.3314807,37.9450096 47.3297288,37.6394065 46.306991,37.457223 C43.644915,36.9838755 41.5903524,38.2989847 41.2514779,40.6374916 C40.9132572,42.9640403 42.4776582,44.880429 45.091992,45.2707657 C45.9071015,45.3928149 46.7422499,45.3721013 47.6218181,45.4203173 C47.7309302,47.5652801 47.8571872,48.4753658 47.60994,50.622684" id="Fill-1" fill="#4D65F3"></path>
                    <g id="Group-5">
                        <mask id="mask-2" fill="white">
                            <use xlink:href="#path-1"></use>
                        </mask>
                        <g id="Clip-4" transform="translate(16.796206, 16.650926) rotate(-10.000000) translate(-16.796206, -16.650926) "></g>
                        <path d="M22.3771404,16.7222598 C22.0647827,15.3558848 21.911368,13.9229264 21.3992949,12.6394264 C20.7642136,11.0506348 19.5735225,9.94705143 17.7975062,9.65167643 C14.1991729,9.05313476 11.7383193,11.2312598 11.1419371,15.5896348 C10.5980754,19.5662181 13.0195388,23.3147181 16.2965306,23.5350098 C16.7477908,23.5654681 17.2163274,23.4833014 17.6648233,23.3898014 C20.6446607,22.7693014 22.142181,20.5585931 22.3771404,16.7222598 M17.0387258,2.46138476 C25.5594575,1.94217643 31.285555,9.40517643 31.0899859,16.6351348 C30.8391323,25.9369681 24.8815306,30.8761764 16.6503518,30.8733443 C7.23055503,30.8683848 2.41388836,23.9231764 2.4981973,16.3964264 C2.59701844,7.64850976 9.08880706,1.94146809 17.0387258,2.46138476" id="Fill-3" fill="#4D65F3" mask="url(#mask-2)" transform="translate(16.795977, 16.650969) rotate(-10.000000) translate(-16.795977, -16.650969) "></path>
                    </g>
                    <path d="M29,64.1058373 L21.815708,65.4263921 C21.412734,63.6965486 21.0170732,62.1494777 20.6961117,60.5843777 C20.3194738,58.7393666 20.0935809,56.8580499 19.639465,55.0351606 C19.2893552,53.6301625 18.5969839,52.3604331 16.9265812,52.2813284 C15.4635709,52.2135348 13.8797068,53.5284137 13.63949,55.3299165 C13.441091,56.8163938 13.5777321,58.3752551 13.7401617,59.8813769 C13.9763124,62.0695799 14.3697476,64.2396182 14.7329515,66.6659562 L7.47527478,68 C6.17406579,65.5275737 2.8790041,47.0567382 3.00342891,42.6007364 C5.1536882,41.8272309 7.46431124,40.9963088 10.2342782,40 L11.9174635,49.9510031 C12.1259,50.0423599 12.334454,50.1344115 12.5434463,50.2249497 C13.7950997,47.5247076 15.911079,46.4172095 18.541,45.9595907 C21.6294387,45.4219895 23.9002225,46.5183631 25.6305022,49.060934 C26.0206224,49.6354253 26.424409,50.2496725 26.6201065,50.9100494 C27.8562758,55.0787053 28.3744039,59.3771962 29,64.1058373" id="Fill-6" fill="#4D65F3"></path>
                    <path d="M59.9643251,7.3564793 L67,11.2476886 C64.6903515,15.6998759 62.7208182,20.0896524 58.8764803,23.330205 C56.7913795,25.088663 54.1563114,25.3049096 51.5773826,24.6842827 C48.3141753,23.898547 45.4048088,22.3331069 43.2490006,19.8041648 C40.7775066,16.9034451 40.1639633,13.7276076 42.3124741,10.3807036 C44.2740014,7.32717266 45.7824087,3.99071046 48.3703887,1 L55.1175443,4.73163847 C53.8293517,6.93649811 52.6563354,8.94322686 51.4829539,10.9505617 C50.8869007,11.9704663 50.2127454,12.9568725 49.71459,14.0196076 C48.9256688,15.6997501 49.2970942,17.0615955 50.65117,17.6407865 C52.1435606,18.2786965 53.2858078,17.7233069 54.0754798,16.479157 C55.3419402,14.4804707 56.5341417,12.4390979 57.7996965,10.4391026 C58.4145346,9.46676098 59.1223316,8.54825631 59.9643251,7.3564793" id="Fill-8" fill="#4D65F3"></path>
                    <path d="M61.3053718,55 L56.22007,53.7366354 C55.3249408,49.8859363 57.311298,38.3459245 59.4581954,35 C62.3629834,34.9852929 65.1006369,35.8151675 68,37.0599419 C67.2174721,43.4751783 63.8540776,48.8859766 61.3053718,55" id="Fill-10" fill="#4D65F3"></path>
                    <path d="M57.1600137,66.999181 C54.1857687,66.9521451 51.8653601,64.5736988 52.0060771,61.7178385 C52.1489262,58.8282692 54.175819,56.9813281 57.1806238,57.0001424 C60.1527367,57.0197407 61.9777931,58.9184213 61.9998246,62.0149483 C62.0211453,65.0636556 60.0973027,67.0462168 57.1600137,66.999181" id="Fill-12" fill="#4D65F3"></path>
                </g>
            </g>
        </g>
    </g>
</svg>