<?xml version="1.0" encoding="UTF-8"?>
<svg width="103px" height="103px" viewBox="0 0 103 103" version="1.1" xmlns="http://www.w3.org/2000/svg" xmlns:xlink="http://www.w3.org/1999/xlink">
    <!-- Generator: Sketch 57.1 (83088) - https://sketch.com -->
    <title>4_Flaticon</title>
    <desc>Created with Sketch.</desc>
    <defs>
        <linearGradient x1="50%" y1="0%" x2="50%" y2="100%" id="linearGradient-1">
            <stop stop-color="#FFFFFF" stop-opacity="0.0707768794" offset="0%"></stop>
            <stop stop-color="#0B1A3F" stop-opacity="0.104731206" offset="100%"></stop>
        </linearGradient>
    </defs>
    <g id="Page-1" stroke="none" stroke-width="1" fill="none" fill-rule="evenodd">
        <g id="Home-Copy-5" transform="translate(-549.000000, -841.000000)">
            <g id="4_Flaticon" transform="translate(549.000000, 841.000000)">
                <g fill-rule="nonzero">
                    <rect id="Rectangle-Copy-39" fill="#AD8FFC" x="0" y="0" width="103" height="103" rx="15"></rect>
                    <g id="Group-8" transform="translate(20.000000, 25.000000)" fill="#644AAC">
                        <path d="M50,0.378427052 C48.1081607,3.62318735 46.296865,6.73187705 44.3628808,10.048003 L13.7000991,10.048003 C15.8897626,13.6933628 17.7497591,16.7887309 19.8373382,20.2628129 L38.2106568,20.2628129 C36.0500265,24.00523 34.250906,27.1234352 32.4780091,30.1950147 C30.2471372,30.302539 28.2831832,30.3976933 25.9249399,30.5118784 C29.837863,37.1669674 33.585016,43.5403998 37.3546463,49.9547485 C36.725282,51.0433132 36.2916574,52.0452876 35.6426254,52.8712266 C33.3724182,55.7563038 29.699253,55.7049205 27.4590156,52.7408653 C26.567416,51.5647586 25.8556349,50.244969 25.0979626,48.9679988 C17.1082195,35.4989132 9.08288728,22.04981 1.16338568,8.53695338 C-1.46739483,4.04757535 0.515290234,0.136735229 5.58111144,0.0834488432 C19.8710541,-0.0649918037 34.1638065,0.0273078293 48.4556223,0.0396778832 C48.8424191,0.0396778832 49.229216,0.202391669 50,0.378427052" id="Fill-1"></path>
                        <path d="M59,15 C52.8205773,25.1056516 46.9199904,34.7543207 40.6543299,45 C38.6363636,41.7121862 36.9183136,38.9125773 35,35.7874984 C39.1470835,28.9072158 43.3133309,21.9957109 47.5294047,15 L59,15 Z" id="Fill-4"></path>
                        <path d="M50,10 C52.0669332,6.57378599 53.9723872,3.41734465 55.8697672,0.269996775 C58.9096123,-0.354420877 61.6406284,-0.0250355138 63.2483553,2.64136932 C64.7672685,5.16126839 63.8276617,7.63468977 61.8273387,10 L50,10 Z" id="Fill-6"></path>
                    </g>
                </g>
                <rect id="Rectangle-Copy-30" fill="url(#linearGradient-1)" opacity="0.610165551" x="0" y="0" width="103" height="103" rx="15"></rect>
            </g>
        </g>
    </g>
</svg>