<?xml version="1.0" encoding="UTF-8"?>
<svg width="103px" height="103px" viewBox="0 0 103 103" version="1.1" xmlns="http://www.w3.org/2000/svg" xmlns:xlink="http://www.w3.org/1999/xlink">
    <!-- Generator: Sketch 56.2 (81672) - https://sketch.com -->
    <title>4_Iconfinder</title>
    <desc>Created with Sketch.</desc>
    <defs>
        <polygon id="path-1" points="7.41573034e-05 0.137471264 65.9624714 0.137471264 65.9624714 65 7.41573034e-05 65"></polygon>
    </defs>
    <g id="Page-1" stroke="none" stroke-width="1" fill="none" fill-rule="evenodd">
        <g id="Home-Copy-5" transform="translate(-984.000000, -954.000000)">
            <g id="4_Iconfinder" transform="translate(984.000000, 954.000000)">
                <rect id="Rectangle-Copy-42" fill="#E0D6FB" x="0" y="0" width="103" height="103" rx="15"></rect>
                <g id="Group-26" transform="translate(20.000000, 18.000000)">
                    <g id="Group-6">
                        <g id="Group-3">
                            <mask id="mask-2" fill="white">
                                <use xlink:href="#path-1"></use>
                            </mask>
                            <g id="Clip-2"></g>
                            <path d="M33.7457258,54.3290172 C34.6471079,54.2176954 36.3264,54.1183276 37.9604562,53.7892184 C43.0168719,52.7716322 47.3784337,50.4488161 50.6980854,46.4012586 C53.8816584,42.5199368 55.2187146,38.074908 54.422636,33.0418908 C54.3596022,32.6447931 54.1868157,32.3691034 53.9109506,32.1102241 C51.8293551,30.1553678 49.4340742,28.6980977 46.8222539,27.5927241 C42.6753775,25.836977 38.3323551,25.0214885 33.8495461,24.9273506 C29.0141191,24.8253678 24.3110629,25.5418621 19.7948831,27.3334713 C16.9554,28.4597644 14.3454337,29.9741897 12.1125573,32.0941609 C11.8926809,32.3029828 11.6724337,32.5939885 11.614591,32.8801379 C11.2074674,34.8981264 11.2478831,36.9224655 11.6679843,38.9348506 C12.538591,43.1075517 14.7503326,46.4531839 17.9980517,49.1140747 C22.3525685,52.681977 27.4212202,54.2206839 33.7457258,54.3290172 M7.41573034e-05,52.5191034 L7.41573034e-05,47.7139598 C0.0360404494,47.5477241 0.0860966292,47.3826092 0.106489888,47.2141322 C0.2904,45.6907414 0.452433708,44.1647356 0.656737079,42.6443333 C0.745725843,41.9820057 0.894411236,41.3245345 1.06089438,40.6771494 C1.19326517,40.1627529 1.64488315,39.8370057 2.09538876,39.8497069 C2.53773708,39.862408 2.87737753,40.1679828 3.02532135,40.6991897 C3.06573708,40.8437586 3.07500674,40.9972931 3.10800674,41.144477 C4.66419775,48.1353391 8.57525393,53.2953678 14.9212652,56.5606839 C15.0336135,56.6182126 15.1663551,56.6357701 15.2894562,56.6720057 C15.3117034,56.6357701 15.3339506,56.5991609 15.3561978,56.5625517 C15.1797034,56.407523 14.9976472,56.2592184 14.827827,56.097092 C12.2056247,53.5916034 10.1929955,50.6591322 8.77622022,47.3108851 C7.01832135,43.1579828 6.52591685,38.8246494 6.90374831,34.3512299 C7.27305169,29.9775517 8.30902921,25.7794483 10.1396022,21.8028678 C14.7837034,11.7132989 22.2965798,4.61746552 32.4238719,0.273672414 C32.8328494,0.0980977011 33.1661865,0.0898793103 33.5744225,0.262091954 C38.0917146,2.16614368 42.1737034,4.76240805 45.8304,8.03967816 C46.0035573,8.19433333 46.1585461,8.38410345 46.2746022,8.58545402 C46.4755685,8.93436207 46.4855798,9.34528161 46.1937708,9.60677586 C45.9642539,9.8126092 45.6049618,9.89441954 45.2890517,9.96950575 C45.142591,10.0046207 44.9579393,9.90301149 44.7966472,9.84622989 C43.1077146,9.24964943 41.3731753,8.87907471 39.5889506,8.71732184 C34.4524449,8.2526092 29.6967371,9.36881609 25.3377708,12.1597069 C25.151636,12.2788736 24.9762539,12.4155977 24.764164,12.5665172 C24.8512989,12.5978966 24.8739169,12.615454 24.890973,12.6105977 C25.055973,12.5653966 25.2206022,12.5168333 25.3852315,12.4682701 C31.2792539,10.7300805 37.1006022,10.9695345 42.8014449,13.2512586 C47.5527034,15.1534425 51.5990966,18.1505402 55.0236809,21.9276379 C63.6237034,31.4116609 67.059782,42.6054828 65.6593213,55.346977 C65.6029618,55.8602529 65.3934674,56.1609713 65.0111865,56.4452529 C61.1082876,59.347092 56.8379393,61.5189885 52.2246135,63.0151092 C52.0614674,63.0681552 51.8953551,63.120454 51.7266472,63.1443621 C51.2709506,63.2089885 50.8245236,62.9908276 50.6287483,62.6251092 C50.4229618,62.2407126 50.5023101,61.8234425 50.8716135,61.4487586 C51.0373551,61.279908 51.2294225,61.1387011 51.4044337,60.9784425 C56.2569169,56.5420057 58.7975461,51.0472644 58.8539056,44.4217471 C58.8587258,43.8442184 58.8005124,43.2659425 58.771591,42.6880402 C58.622164,42.855023 58.5732202,43.0182701 58.5335461,43.1833851 C57.0081303,49.517523 53.6517708,54.6431839 48.361018,58.3829253 C42.8388944,62.2862874 36.5996697,64.2538448 29.9143888,64.8481839 C26.3003326,65.1698218 22.7040742,64.9733276 19.1356247,64.3259425 C12.5882764,63.1383851 6.62602921,60.5708851 1.23182697,56.6395057 C0.567748315,56.1553678 0.288546067,55.6110862 0.247017978,54.8299655 C0.206231461,54.0574368 0.0857258427,53.2893908 7.41573034e-05,52.5191034" id="Fill-1" fill="#845CEE" mask="url(#mask-2)"></path>
                        </g>
                        <path d="M23.7890878,35.2534359 C25.1589392,37.4089084 26.6314661,38.195186 28.5750715,37.8086546 C30.2496958,37.4757163 31.576163,36.0782565 31.8534594,34.3548329 C32.1470248,32.5322986 31.2938052,31.0151719 29.3057312,29.8236419 C31.6538928,28.4863827 36.9221625,28.4393969 40.404817,32.2702061 C43.7602116,35.9611591 43.8777101,41.6431345 40.6651213,45.4309958 C37.2898423,49.4097367 31.4977102,50.1648129 27.2543887,47.1757098 C22.8932072,44.1032805 22.1773704,38.6643096 23.7890878,35.2534359" id="Fill-4" fill="#845CEE"></path>
                    </g>
                </g>
            </g>
        </g>
    </g>
</svg>