<?xml version="1.0" encoding="UTF-8"?>
<svg width="103px" height="103px" viewBox="0 0 103 103" version="1.1" xmlns="http://www.w3.org/2000/svg" xmlns:xlink="http://www.w3.org/1999/xlink">
    <!-- Generator: Sketch 57.1 (83088) - https://sketch.com -->
    <title>4_Icons8</title>
    <desc>Created with Sketch.</desc>
    <defs>
        <polygon id="path-1" points="0 0 52 0 52 52 0 52"></polygon>
        <linearGradient x1="50%" y1="0%" x2="50%" y2="100%" id="linearGradient-3">
            <stop stop-color="#FFFFFF" stop-opacity="0.0707768794" offset="0%"></stop>
            <stop stop-color="#0B1A3F" stop-opacity="0.104731206" offset="100%"></stop>
        </linearGradient>
    </defs>
    <g id="Page-1" stroke="none" stroke-width="1" fill="none" fill-rule="evenodd">
        <g id="Home-Copy-5" transform="translate(-969.000000, -841.000000)">
            <g id="4_Icons8" transform="translate(969.000000, 841.000000)">
                <g>
                    <rect id="Rectangle-Copy-36" fill="#AD8FFC" fill-rule="nonzero" x="0" y="0" width="103" height="103" rx="15"></rect>
                    <g id="Group-3" transform="translate(27.000000, 26.000000)">
                        <g id="Fill-1-Clipped">
                            <mask id="mask-2" fill="white">
                                <use xlink:href="#path-1"></use>
                            </mask>
                            <g id="path-1"></g>
                            <path d="M36.1287889,25.8347665 C33.7505047,25.274025 31.6978323,24.2332465 29.9542247,22.6347984 C28.201362,21.0282519 26.9538846,19.0824121 26.1688825,16.8260422 L26.1688825,34.995684 C27.8042334,30.1590099 31.1736563,27.2148382 36.1287889,25.8347665 L36.1287889,25.8347665 Z M26.1408367,9.29959664 C26.7003505,8.16806066 27.1852625,7.15018094 27.7032685,6.14905644 C28.4004872,4.80249512 29.464545,3.75724854 30.6197516,2.80974075 C31.7227931,1.90523803 32.9666245,1.21073409 34.3108599,0.732931012 C35.4026831,0.345047629 36.5219911,0.019717073 37.7010367,0.0113394621 C38.5185719,0.00603364192 39.336668,0.0199963267 40.1542032,0.00463737344 C41.2457459,-0.0160274 42.2758682,0.309582409 43.2698115,0.66479311 C45.1556114,1.33919079 46.8341528,2.39672453 48.2372843,3.83460181 C49.7018362,5.33475266 50.7504688,7.0792505 51.4221658,9.08373353 C52.0840468,11.0583364 52.0944238,13.0778991 51.8636068,15.0659062 C51.6005371,17.3278611 50.6133248,19.3717189 49.1417615,21.1441421 C48.6520818,21.7339259 48.0998599,22.2720478 47.5891458,22.8456349 C47.4127377,23.0436258 47.2761546,23.2770819 47.196785,23.3879456 C46.8094725,23.5697397 46.4737642,23.6602179 46.2213519,23.8565333 C45.2100202,24.6431909 44.0144276,25.0293988 42.8387475,25.4614043 C42.458166,25.6013104 42.0652442,25.7079853 41.6641893,25.834208 C42.895961,26.2801761 44.2208447,26.5234061 45.2720015,27.1927772 C47.0481422,28.3240339 48.7045274,29.654957 49.8482353,31.5105978 C50.6085571,32.7446199 51.2384658,34.0230433 51.6369967,35.4103757 C52.1421016,37.1671607 51.8995054,38.9677885 51.9166134,40.7530574 C50.8486291,46.1049545 47.2705455,50.4118842 40.9756648,51.6799753 C37.7543237,51.9212505 34.6636761,51.5984332 31.8599371,49.7849597 C29.1195816,48.0125365 27.2943607,45.5662741 26.1430804,42.5176615 C26.1430804,42.7617292 26.1430804,43.0055177 26.1430804,43.2495854 C26.1416781,45.8784797 26.1419586,48.507374 26.1377517,51.1362683 C26.1366299,51.9611837 26.1007312,51.9969282 25.2649663,51.9972075 C17.1807633,51.9991622 9.09656029,52 1.01235729,52 C0.848850249,52 0.685343211,51.9949734 0.522116632,51.9905054 C0.176031411,51.9815693 0.0164507864,51.791956 0.0100002515,51.4596441 C0.00467154869,51.1803904 0,50.901416 0,50.6221623 C0,34.0811281 0,17.5400939 0,0.999059784 C0,0.836254879 0.00326925849,0.673449975 0.00831750321,0.51064507 C0.0186944507,0.168000785 0.207442712,0.00575438823 0.542029153,0.000727821704 C0.752092225,-0.00206471525 0.962435755,0.00407886605 1.17277928,0.00407886605 C9.14003128,0.00296185127 17.1075637,0.0012863291 25.0748157,7.10542736e-15 C26.1383126,7.10542736e-15 26.1394345,0.00156558279 26.1397149,1.09205126 C26.1405563,3.55841991 26.1405563,6.02423004 26.1408367,8.49031943 L26.1408367,9.29959664 Z" id="Fill-1" fill="#644AAC" fill-rule="nonzero" mask="url(#mask-2)"></path>
                        </g>
                    </g>
                </g>
                <rect id="Rectangle-Copy-33" fill="url(#linearGradient-3)" opacity="0.610165551" x="0" y="0" width="103" height="103" rx="15"></rect>
            </g>
        </g>
    </g>
</svg>