<?xml version="1.0" encoding="UTF-8"?>
<svg width="103px" height="103px" viewBox="0 0 103 103" version="1.1" xmlns="http://www.w3.org/2000/svg" xmlns:xlink="http://www.w3.org/1999/xlink">
    <!-- Generator: Sketch 56.2 (81672) - https://sketch.com -->
    <title>4_Thenounproject</title>
    <desc>Created with Sketch.</desc>
    <defs>
        <polygon id="path-1" points="0.0518645833 0.238090909 25.8808333 0.238090909 25.8808333 26.7407193 0.0518645833 26.7407193"></polygon>
    </defs>
    <g id="Page-1" stroke="none" stroke-width="1" fill="none" fill-rule="evenodd">
        <g id="Home-Copy-5" transform="translate(-984.000000, -771.000000)">
            <g id="4_Thenounproject" transform="translate(984.000000, 771.000000)">
                <rect id="Rectangle-Copy-26" fill="#E0D6FB" x="0" y="0" width="103" height="103" rx="15"></rect>
                <g id="Group-8" transform="translate(20.000000, 20.000000)">
                    <g id="Group-3" transform="translate(37.000000, 33.000000)">
                        <mask id="mask-2" fill="white">
                            <use xlink:href="#path-1"></use>
                        </mask>
                        <g id="Clip-2"></g>
                        <path d="M0.0518645833,26.6113364 L0.0518645833,0.384518182 C0.603822917,0.221154545 24.9647396,0.182972727 25.7187396,0.328881818 C25.8877396,0.8097 25.9489479,25.6900636 25.7834688,26.5944273 C25.2927188,26.7703364 0.811010417,26.8014273 0.0518645833,26.6113364" id="Fill-1" fill="#845CEE" mask="url(#mask-2)"></path>
                    </g>
                    <path d="M30.0187787,0.00121179576 C37.1295304,-0.0821680483 43.0839842,5.95405162 42.9991036,13.1778996 C42.9168922,20.1542804 36.9568331,26.1664482 29.7118206,25.9964816 C22.9173693,25.8372048 16.9882729,20.1962376 17,12.9371136 C17.0112281,5.86826659 22.9203054,-0.0976681475 30.0187787,0.00121179576" id="Fill-4" fill="#845CEE"></path>
                    <path d="M8.11024816,46.9421901 C5.37912662,44.2029111 2.71913359,41.5345562 0.0959036046,38.9034031 C1.74464641,37.2510036 3.3230599,35.6695283 4.9726019,34.0163259 C7.59902867,36.5928808 10.2363778,39.3136928 12.9976024,42.0347724 C15.6991537,39.3260042 18.3607451,36.6581846 21.0122134,34 C21.5316912,34.2577358 25.5740282,38.2974698 25.9016988,38.9026002 C23.2624849,41.5573055 20.6048894,44.2302102 17.890551,46.9601219 C20.615279,49.6994009 23.28726,52.3854199 26,55.1126552 C24.3472612,56.7698722 22.7696469,58.3516151 21.1254329,60 C18.392713,57.2668767 15.7287239,54.6025364 12.9984016,51.8720894 C10.2853952,54.5920985 7.62433656,57.2604533 4.89374782,59.9978589 C3.23248427,58.3794495 1.65859956,56.7722809 0,55.1008791 C2.72526076,52.3591913 5.39670895,49.6718341 8.11024816,46.9421901" id="Fill-6" fill="#845CEE"></path>
                </g>
            </g>
        </g>
    </g>
</svg>