<?xml version="1.0" encoding="UTF-8"?>
<svg width="103px" height="104px" viewBox="0 0 103 104" version="1.1" xmlns="http://www.w3.org/2000/svg" xmlns:xlink="http://www.w3.org/1999/xlink">
    <!-- Generator: Sketch 56.2 (81672) - https://sketch.com -->
    <title>Group 5</title>
    <desc>Created with Sketch.</desc>
    <defs>
        <polygon id="path-1" points="0.290983006 0.2 34.8 0.2 34.8 64 0.290983006 64"></polygon>
    </defs>
    <g id="Page-1" stroke="none" stroke-width="1" fill="none" fill-rule="evenodd">
        <g id="Group-5">
            <rect id="Rectangle-Copy-37" fill="#FED4DE" x="0" y="0" width="103" height="104" rx="15"></rect>
            <g id="Group-6" transform="translate(17.000000, 21.000000)">
                <g id="Group-3" transform="translate(34.000000, 0.800000)">
                    <mask id="mask-2" fill="white">
                        <use xlink:href="#path-1"></use>
                    </mask>
                    <g id="Clip-2"></g>
                    <path d="M0.5,64 C0.3,63.3 0.2,54.5 0.4,53.5 C8.1,51.3 15.9,49.1 23.7,46.9 L23.7,41 C16,43.2 8.3,45.4 0.4,47.6 C0.4,47.1 0.3,46.8 0.3,46.5 L0.3,35.4 L0.3,10.7 L0.3,9.8 C11.7,6.6 23.1,3.4 34.6,0.2 C34.7,0.5 34.8,0.6 34.8,0.7 L34.8,54.3 C31,55.4 27.1,56.5 23.4,57.5 C19.6,58.6 15.8,59.7 12,60.7 C8.1,61.9 4.3,63 0.5,64 L0.5,64 Z M11.2,34.9 C15.4,33.7 19.6,32.5 23.8,31.4 L23.8,26.8 L23.8,22.2 L23.8,17.6 C23.8,16.1 23.9,14.6 23.7,13 C19.4,14.2 15.2,15.4 11.1,16.5 L11.1,34.9 L11.2,34.9 Z" id="Fill-1" fill="#FD547E" mask="url(#mask-2)"></path>
                </g>
                <path d="M29.6001,19.5002 C23.4001,17.8002 17.2001,16.2002 11.0001,14.5002 C10.8001,15.1002 10.7001,32.6002 10.9001,33.5002 C17.2001,35.0002 23.5001,36.6002 29.8001,38.1002 C30.0001,39.0002 30.0001,47.1002 29.8001,47.8002 C29.5001,47.8002 29.2001,47.8002 28.9001,47.7002 C26.1001,46.8992 23.3001,46.1002 20.5001,45.3992 C17.1001,44.3992 13.6001,43.5002 10.2001,42.5002 C7.8001,41.8002 5.4001,41.1002 3.0001,40.3992 C2.3001,40.2002 1.7001,40.1002 1.0001,39.8992 C0.7001,39.8002 0.4001,39.6002 0.0001,39.5002 L0.0001,1.8002 C3.5001,2.7002 6.8001,3.6002 10.0001,4.4002 C13.3001,5.3002 16.6001,6.1002 19.9001,7.0002 C23.2001,7.9002 26.5001,8.7002 29.7001,9.7002 C30.0001,11.1002 29.9001,18.9002 29.6001,19.5002" id="Fill-4" fill="#FD547E"></path>
            </g>
        </g>
    </g>
</svg>