<?xml version="1.0" encoding="UTF-8"?>
<svg width="103px" height="104px" viewBox="0 0 103 104" version="1.1" xmlns="http://www.w3.org/2000/svg" xmlns:xlink="http://www.w3.org/1999/xlink">
    <!-- Generator: Sketch 56.2 (81672) - https://sketch.com -->
    <title>5_Fontspace</title>
    <desc>Created with Sketch.</desc>
    <defs>
        <polygon id="path-1" points="0 0 71 0 71 78 0 78"></polygon>
    </defs>
    <g id="Page-1" stroke="none" stroke-width="1" fill="none" fill-rule="evenodd">
        <g id="Home-Copy-5" transform="translate(-106.000000, -1317.000000)">
            <g id="5_Fontspace" transform="translate(106.000000, 1317.000000)">
                <rect id="Rectangle-Copy-41" fill="#FED4DE" x="0" y="0" width="103" height="104" rx="15"></rect>
                <g id="Group-3" transform="translate(16.000000, 12.000000)">
                    <mask id="mask-2" fill="white">
                        <use xlink:href="#path-1"></use>
                    </mask>
                    <g id="Clip-2"></g>
                    <path d="M30.2155335,41.9209457 C30.0576116,42.7715277 30.1838235,43.6708296 30.1379853,44.5456164 C30.0714258,45.824127 29.802676,46.1726143 28.5816855,46.5158261 C26.9798615,46.9667184 25.3651651,47.3723042 23.7598875,47.811094 C23.3451463,47.9243601 22.9385681,47.9305665 22.522885,47.8554695 C22.5096987,44.0571756 22.1612031,40.2616747 22.3376486,36.323117 C25.0766358,35.9603552 27.7201792,35.4455374 30.431224,35.449548 C30.4513174,37.608765 30.6158325,39.7667173 30.2155335,41.9209457 M70.7688075,54.3932517 C70.2815415,51.9879759 68.7374862,50.3724598 66.6474543,49.2000779 C64.3436157,47.9076029 61.7848415,47.3437549 59.2587192,46.6837082 C58.0983229,46.3805274 56.9372988,46.0705196 55.7982518,45.6981379 C55.1383078,45.4824668 54.5530864,45.1063612 54.5703542,44.2784325 C54.5869941,43.4806046 55.1492964,43.1004649 55.7834957,42.8081452 C56.8013541,42.3383236 57.8948768,42.2452281 59.000644,42.2446075 C61.5123242,42.2433662 64.0240044,42.2446075 66.5353706,42.2427456 C67.5403566,42.2421249 68.5133187,42.1297898 69.4555127,41.3726135 C69.3001025,39.2028692 69.7299138,36.9567867 69.2351128,34.8925505 C68.7478468,34.5794395 68.4320031,34.5819221 68.118043,34.5819221 C64.7169141,34.5834736 61.3145294,34.5332021 57.9152842,34.6076785 C55.7555532,34.6548468 53.6598701,35.1625273 51.7152017,36.1148936 C49.545738,37.1774228 47.7533402,38.6210227 47.1147456,41.0861899 C45.1016339,41.914429 42.9576009,42.3172219 40.8773018,42.9245145 C40.0503311,43.165942 39.2516168,43.641039 38.1609197,43.4880522 C36.4915943,41.0042659 34.7654421,38.4444517 33.0562437,35.8734661 C32.9532649,35.718307 32.9856027,35.4753279 32.9551486,35.2733108 C34.4458308,34.9577173 35.9572343,34.9102386 37.4736612,34.9350641 C38.2127231,34.9471665 38.8174101,34.7435978 39.1125325,34.0028684 C39.6895911,32.5533725 38.5775447,30.8835507 36.996756,30.9871969 C34.0800674,31.1786632 31.1555298,31.2798269 28.2513996,31.6590356 C26.245823,31.9209441 24.2305136,32.1099279 21.997002,32.3560101 C21.997002,31.3223405 22.0089325,30.4028679 21.9944903,29.4833953 C21.9624664,27.4163663 22.0136419,25.3421999 21.8563479,23.2838598 C21.5624813,19.4505 21.7028215,15.6425863 22.3464395,11.86136 C22.6833186,9.88059941 23.332274,7.98238345 24.4688092,6.27501313 C25.3560603,6.29549413 25.9519564,6.70014896 26.5161425,7.16283328 C27.5286636,7.99324458 28.3929955,8.95802363 29.1392785,10.0283108 C31.3213007,13.1556969 32.9369389,16.5605073 34.200942,20.1369237 C34.3215026,20.477653 34.3927715,20.8404149 34.5484957,21.1637664 C34.9070381,21.9072886 35.5961803,22.260741 36.3264513,22.1229597 C37.0576642,21.9851785 37.5791518,21.4039526 37.6290714,20.5840921 C37.6507347,20.2306398 37.577268,19.8647747 37.5019176,19.5138049 C36.2677408,13.7453013 33.7595142,8.57757361 29.9750401,4.02055196 C28.8699008,2.68959753 27.5553502,1.58579597 26.0194578,0.767176756 C23.481405,-0.585499945 20.8588969,-0.129642621 18.9161123,1.97834839 C18.2445518,2.70666503 17.6838192,3.51690565 17.1887043,4.37183208 C16.1441593,6.17571133 15.4129464,8.10837261 14.7935033,10.0857197 C13.4987322,14.2188468 13.1345385,18.4819972 12.9885471,22.7746278 C12.8827426,25.876878 13.2177379,28.9685775 13.2230753,32.0683452 C13.2240171,32.5673368 13.390102,33.1004633 12.9637443,33.6134192 C10.8460839,33.9327365 8.68038772,34.2619841 6.51374961,34.5850252 C4.91255351,34.8236599 3.31010156,35.0554675 1.70796357,35.2872751 C0.872515959,35.4079889 0.175838672,35.7108594 0.0461731837,36.6477098 C-0.220064914,38.5726131 0.693244787,39.1138079 2.05928484,38.9136527 C4.27961011,38.5884393 6.51437753,38.3463912 8.74945892,38.1418916 C10.2872351,38.0010071 11.8020922,37.5122561 13.4434752,37.7207899 C13.492139,38.0317286 13.5448843,38.2778109 13.5671754,38.5263757 C13.8996591,42.2294019 14.2258636,45.9330487 14.5577193,49.6360749 C15.0333687,54.9415838 15.2656992,60.2514372 14.7630492,65.5678073 C14.6126623,67.1609806 14.3545872,68.7411205 13.8958916,70.2849531 C12.7285882,74.2138909 9.94784432,75.4408888 6.93853752,74.2232004 C5.90309737,73.804271 5.02212555,74.2675759 4.75839914,75.0865055 C4.43564824,76.088833 4.92668171,77.028166 6.05317026,77.3661024 C6.89929252,77.6199426 7.77681078,77.8160637 8.654643,77.9131932 C11.7754056,78.2585773 14.5831501,77.6149775 16.7940565,75.2289415 C18.196516,73.7152097 19.1183026,71.9327424 19.8002237,70.014666 C21.5163292,65.1876676 22.0984111,60.174168 22.3125318,55.0995357 C22.3731261,53.6562462 22.2626122,52.2033367 22.54706,50.7718392 C24.95011,51.2689688 27.1399811,52.3547719 29.3970397,53.0461607 C29.9502373,56.9291714 28.8287721,60.6678842 29.3471201,64.3225007 C30.3784787,65.017303 30.9451766,64.459351 31.4468847,63.8312671 C32.3178098,62.7411195 33.1447805,61.6165267 34.0053449,60.5180005 C35.1782995,59.0210259 36.3656963,57.5349124 37.5496396,56.0407306 C37.8438201,56.1387911 38.0384753,56.2014754 38.2318747,56.2685041 C41.0364795,57.2413514 43.8404565,58.21544 46.6453753,59.1873564 C47.3499016,59.4315768 48.053486,59.6472478 48.6126488,58.9040359 C48.7297559,58.3156728 48.407319,57.8933298 48.1115686,57.475021 C47.0965359,56.0394893 46.0475954,54.6269212 45.0526561,53.1777356 C44.2442091,52.0000783 43.2436185,50.9363078 42.6411292,49.559116 C43.7767226,48.116447 44.8542334,46.7336695 45.9549772,45.369511 C46.0658051,45.2320401 46.317915,45.2059733 46.5040933,45.1280835 C46.6940391,45.2559345 46.7364237,45.451435 46.7700175,45.6596584 C47.1791074,48.2089218 48.7014995,49.9538406 50.9054988,51.1836313 C52.2294683,51.9221885 53.6250205,52.5080691 55.097807,52.897208 C57.0154748,53.4042678 58.937852,53.8933292 60.8526942,54.4109398 C61.505731,54.5875108 62.1685006,54.7761843 62.6733483,55.2674179 C63.2328251,55.8123365 63.2507208,56.3057423 62.7502686,56.9018634 C62.3675513,57.3577207 61.8557965,57.625215 61.2997733,57.7822359 C60.4448601,58.0230428 59.5777025,58.1828566 58.6738116,58.1726161 C56.3718568,58.1465494 54.069274,58.1474804 51.7673191,58.1716852 C50.5312585,58.1847185 50.3180796,58.4047341 50.2976722,59.6391796 C50.2722415,61.1904599 50.2907651,62.7423608 50.2939047,64.2936411 C50.2945326,64.6548514 50.2810324,65.02413 50.5802363,65.3046576 C50.8602886,65.5975979 51.2282497,65.6131138 51.5968388,65.6118725 C54.4218511,65.602563 57.2512588,65.6782806 60.0712477,65.5519811 C62.4353667,65.4464729 64.7184839,64.8640058 66.8041203,63.6795215 C70.2193774,61.739723 71.5885571,58.4391794 70.7688075,54.3932517" id="Fill-1" fill="#FD547E" mask="url(#mask-2)"></path>
                </g>
            </g>
        </g>
    </g>
</svg>