<?xml version="1.0" encoding="UTF-8"?>
<svg width="103px" height="104px" viewBox="0 0 103 104" version="1.1" xmlns="http://www.w3.org/2000/svg" xmlns:xlink="http://www.w3.org/1999/xlink">
    <!-- Generator: Sketch 56.2 (81672) - https://sketch.com -->
    <title>5_Fontsquirrel</title>
    <desc>Created with Sketch.</desc>
    <defs>
        <polygon id="path-1" points="19 18 82 18 82 86 19 86"></polygon>
    </defs>
    <g id="Page-1" stroke="none" stroke-width="1" fill="none" fill-rule="evenodd">
        <g id="Home-Copy-5" transform="translate(-543.000000, -1136.000000)">
            <g id="5_Fontsquirrel" transform="translate(543.000000, 1136.000000)">
                <rect id="Rectangle-Copy-37" fill="#FED4DE" x="0" y="0" width="103" height="104" rx="15"></rect>
                <mask id="mask-2" fill="white">
                    <use xlink:href="#path-1"></use>
                </mask>
                <g id="Clip-2"></g>
                <path d="M74.9711906,70 C75.5369913,70.0025085 75.9894659,69.5670732 75.9998437,69.0098672 C76.0098065,68.4656781 75.5419727,67.9974907 74.9902859,68 C74.4307119,68.0025295 74.0110313,68.4144504 74.0002384,68.9716564 C73.9886152,69.5582554 74.4033143,69.9974697 74.9711906,70 M56.3001971,66.3008396 C56.9395519,66.3420669 57.5784476,66.391449 58.2182614,66.4227093 C59.6383358,66.4906664 61.0239869,66.735312 62.3687891,67.194249 C63.1876039,67.4737792 64.017893,67.6468433 64.8945388,67.6391415 C66.5707223,67.6250971 68.2446109,67.6083343 69.9047302,67.3410364 C70.2962375,67.2776097 70.3223992,67.2277745 70.4229151,66.8322642 C70.5977853,66.1431791 70.8066198,65.4617958 71.0223389,64.7835839 C71.0806289,64.6005527 71.2004219,64.43066 71.3160841,64.2711873 C71.6277294,63.8389801 72.0389726,63.8638977 72.1991556,64.3713108 C72.3662231,64.9009232 72.4180875,65.4667793 72.5089649,66.0185911 C72.5374215,66.189843 72.5291599,66.3669845 72.5392574,66.5681375 C72.8724746,66.5160371 72.8476899,66.2872482 72.8981773,66.1146371 C73.0739655,65.5184267 73.2240509,64.9145146 73.4305905,64.3296304 C73.5237628,64.0659568 73.698174,63.8163277 73.8877314,63.6047546 C74.1103352,63.3564846 74.3747059,63.37959 74.5275452,63.6713526 C74.6794665,63.9617559 74.7932928,64.2888561 74.8401084,64.6114259 C74.9117088,65.1043414 74.9323628,65.6085832 74.9337397,66.1073883 C74.9341987,66.4181788 75.0397634,66.5604357 75.3495727,66.6460617 C77.2139367,67.1598174 78.8006198,68.1374937 80.1380783,69.5129455 C80.502047,69.8867096 80.8205769,70.2912809 80.9541392,70.8109263 C81.057868,71.2141384 80.9959061,71.5770294 80.6622299,71.8416091 C80.3175383,72.1161558 79.966421,72.395686 79.5799625,72.6036348 C78.0882877,73.4064347 76.4726891,73.9088643 74.8694829,74.4380236 C73.995591,74.7261617 73.1161913,74.9993493 72.2409225,75.2838631 C71.8195817,75.4211364 71.8039765,75.4392583 71.8595127,75.866029 C71.9820595,76.812898 72.2923279,77.6995117 72.8233641,78.4964221 C73.2690306,79.164667 73.6766021,79.8650782 74.3311031,80.3783809 C74.4504371,80.4717087 74.5628864,80.7186195 74.5179067,80.8327874 C74.4692551,80.9564694 74.2388487,81.0593111 74.075453,81.0810574 C73.359908,81.1761973 72.7090789,80.9229438 72.0839524,80.6266509 C70.6900396,79.9661078 69.7647423,78.8620313 69.1189618,77.5042483 C69.0156921,77.2872386 68.9128812,77.070682 68.779319,76.7893395 C68.3345704,77.0838203 67.9279169,77.3470409 67.528148,77.6197754 C67.3633753,77.7321311 67.3284931,77.8843551 67.4615964,78.0497173 C67.8420882,78.5217927 68.2198262,78.9965864 68.6081206,79.4632252 C68.7683035,79.6548642 69.0836206,79.7912315 68.9491404,80.092508 C68.8261346,80.3670547 68.5158662,80.3466676 68.2551674,80.3348883 C67.3353778,80.293661 66.5289554,79.9330353 65.7730205,79.4451033 C65.3622362,79.1800706 65.3796774,79.1927559 64.9739418,79.4405728 C63.9036078,80.0938671 62.8213403,80.7285865 61.7436627,81.3705547 C61.6546211,81.4235612 61.5651207,81.4756617 61.4903074,81.6179185 C61.6284595,81.603421 61.7670705,81.5948131 61.9043046,81.5753321 C62.6203085,81.4733964 63.2670069,81.6156533 63.7351633,82.1873991 C64.1477835,82.6911878 64.5126701,83.2330324 64.8890311,83.764457 C64.9569597,83.8609561 64.9886291,83.9864502 65.0198395,84.1033365 C65.1717608,84.6605848 65.0147908,84.9025121 64.434185,84.8852963 C63.8526613,84.8671744 63.2587453,84.8359141 62.6964986,84.701359 C61.5247307,84.4213757 60.3800424,84.5450577 59.2335182,84.7960459 C58.4624371,84.9650326 57.6849303,85.0248348 56.8982439,84.9908563 C56.421826,84.9700161 56.241907,84.7946868 56.2125325,84.3207992 C56.1771913,83.7399925 56.162963,83.6806433 55.5727188,83.7191523 C54.8255044,83.7685345 54.0851748,83.917134 53.3397963,84.003213 C52.6701491,84.0811371 51.998207,84.1640448 51.3258059,84.1871502 C50.6869101,84.2088965 50.4996475,83.9923399 50.4849603,83.3761954 C50.4780756,83.0966652 50.5538068,82.7514431 50.4165727,82.5570858 C50.2871412,82.3749607 49.9245495,82.3563858 49.6666045,82.2612458 C47.7857173,81.5644589 46.2132626,80.4857531 45.17368,78.7410677 C44.3617499,77.3787542 44.1336384,75.9181294 44.3254908,74.3591934 C44.5513074,72.5257106 45.2443625,70.9142211 46.482682,69.5247247 C46.680501,69.3031846 46.8282916,69.0222952 46.9421179,68.7454832 C47.9045923,66.4054935 48.6146295,63.9925632 49.0552473,61.5035208 C49.4068236,59.5191733 49.4917343,57.5153447 49.3366001,55.5169527 C49.1846788,53.559335 48.7312097,51.6533646 47.8871512,49.8561257 C47.5773418,49.1964887 47.2298964,48.5595041 46.7346603,47.9492492 C46.6075237,48.052091 46.4982872,48.1263908 46.4055739,48.2165472 C43.4947427,51.0317836 40.1377859,53.1882892 36.4081399,54.7861873 C34.6975332,55.519218 32.9235876,56.0855272 31.0775827,56.3573556 C29.1182104,56.6454938 27.1597562,56.6735827 25.259592,55.9509721 C23.3015967,55.2066153 21.946238,53.8492853 21.093459,51.9849953 C20.4352862,50.5461168 20.0703996,49.0279551 20.0323045,47.4508971 C20,46.072727 19.9694247,44.6882142 20.0603021,43.3150276 C20.1677027,41.6908527 20.5844536,40.1147009 21.1421105,38.5815885 C22.5461208,34.7216248 24.9424389,31.5267347 27.995553,28.8012016 C30.8540609,26.2491857 34.085258,24.2403736 37.5858745,22.6547078 C40.2185658,21.4622871 42.9389217,20.5167772 45.7588755,19.8557811 C48.3419973,19.2500567 50.9558705,18.898945 53.6142645,19.0257982 C55.3794895,19.1100651 57.1281913,19.3347766 58.8544033,19.7411601 C60.7169314,20.180163 62.5133669,20.7913239 64.2184659,21.6453182 C67.8503498,23.4633974 70.7373143,26.0579997 72.6760325,29.6298253 C73.8129182,31.7238103 74.5165297,33.9514443 74.8791215,36.2964175 C75.165982,38.1498344 75.2582363,40.0091408 75.1131997,41.8734308 C74.9755066,43.6403156 74.4876142,45.3315415 73.8184259,46.9738382 C72.7356995,49.6291489 71.1903244,52.0121782 69.3993967,54.2461548 C67.5836842,56.5113917 65.5522527,58.5754756 63.3845049,60.5158775 C61.2190521,62.4553734 58.939314,64.2512532 56.5765012,65.9483687 C56.4677236,66.0267459 56.3722565,66.122792 56.2699046,66.2111362 C56.2800021,66.2410373 56.2900996,66.2709384 56.3001971,66.3008396" id="Fill-1" fill="#FD547E" mask="url(#mask-2)"></path>
            </g>
        </g>
    </g>
</svg>