<?xml version="1.0" encoding="UTF-8"?>
<svg width="103px" height="104px" viewBox="0 0 103 104" version="1.1" xmlns="http://www.w3.org/2000/svg" xmlns:xlink="http://www.w3.org/1999/xlink">
    <!-- Generator: Sketch 56.2 (81672) - https://sketch.com -->
    <title>5_Fontspring</title>
    <desc>Created with Sketch.</desc>
    <defs>
        <polygon id="path-1" points="0 0.167567568 35.9998364 0.167567568 35.9998364 31 0 31"></polygon>
    </defs>
    <g id="Page-1" stroke="none" stroke-width="1" fill="none" fill-rule="evenodd">
        <g id="Home-Copy-5" transform="translate(-984.000000, -1136.000000)">
            <g id="5_Fontspring" transform="translate(984.000000, 1136.000000)">
                <rect id="Rectangle-Copy-43" fill="#FED4DE" x="0" y="0" width="103" height="104" rx="15"></rect>
                <g id="Group-8" transform="translate(15.000000, 18.000000)">
                    <g id="Group-3" transform="translate(0.000000, 34.000000)">
                        <mask id="mask-2" fill="white">
                            <use xlink:href="#path-1"></use>
                        </mask>
                        <g id="Clip-2"></g>
                        <path d="M35.9998364,31 C35.9998364,31 24.7089273,0.167567568 10.7188364,0.167567568 C2.86347273,0.167567568 -0.000163636364,5.52972973 -0.000163636364,9.55135135 C-0.000163636364,14.5783784 5.2362,19.3372973 9.81801818,19.3372973 C20.5370182,19.3372973 28.1452909,22.3535135 35.9998364,30.9832432" id="Fill-1" fill="#FD547E" mask="url(#mask-2)"></path>
                    </g>
                    <path d="M39,55 C39,55 50.2963005,24 64.3102617,24 C72.1685577,24 75,29.3913043 75,33.4347826 C75,38.4891304 69.7619546,43.3244565 65.17713,43.3244565 C54.4873917,43.3244565 46.8746675,46.3570652 39.0081857,54.9915761" id="Fill-4" fill="#FD547E"></path>
                    <path d="M34.741601,44 C34.741601,44 47.0826223,13.4717073 37.1049469,3.6097561 C31.4748601,-2.01121951 25.8770374,-0.0926829239 23.2305739,2.81036586 C19.9001114,6.40341464 20.4889314,13.6989024 23.7387336,16.837561 C31.4014593,24.3518293 34.8545254,31.9839024 34.741601,43.8737805" id="Fill-6" fill="#FD547E"></path>
                </g>
            </g>
        </g>
    </g>
</svg>