<?xml version="1.0" encoding="UTF-8"?>
<svg width="103px" height="104px" viewBox="0 0 103 104" version="1.1" xmlns="http://www.w3.org/2000/svg" xmlns:xlink="http://www.w3.org/1999/xlink">
    <!-- Generator: Sketch 56.2 (81672) - https://sketch.com -->
    <title>5_Googlefonts</title>
    <desc>Created with Sketch.</desc>
    <defs>
        <polygon id="path-1" points="0 0 67 0 67 67 0 67"></polygon>
    </defs>
    <g id="Page-1" stroke="none" stroke-width="1" fill="none" fill-rule="evenodd">
        <g id="Home-Copy-5" transform="translate(-106.000000, -1136.000000)">
            <g id="5_Googlefonts" transform="translate(106.000000, 1136.000000)">
                <rect id="Rectangle-Copy-40" fill="#FED4DE" x="0" y="0" width="103" height="104" rx="15"></rect>
                <g id="Group-3" transform="translate(18.000000, 18.000000)">
                    <mask id="mask-2" fill="white">
                        <use xlink:href="#path-1"></use>
                    </mask>
                    <g id="Clip-2"></g>
                    <path d="M30.534188,30.5248349 C30.534188,30.6570191 30.5472514,30.7893666 30.5562326,30.9608223 L33.3869195,30.9608223 C33.7673925,30.9640881 34.1486821,30.9697217 34.5291551,30.9697217 C37.3598421,30.9706198 40.1897125,30.9697217 43.0203995,30.9689052 L43.4825191,30.9689052 C43.5249753,31.0457337 43.5608998,31.0808413 43.5608998,31.1159489 C43.5511022,32.842753 43.5388552,34.5695572 43.5241589,36.2962796 C43.5217095,36.5804879 43.5004813,36.865431 43.4882344,37.1495577 C41.3670562,37.1324121 39.2458781,37.1094697 37.1238835,37.1005703 C35.0835354,37.0915893 33.0423709,37.0973045 31.0012064,37.1005703 C30.8697554,37.1005703 30.7391209,37.1373108 30.6076699,37.1568241 C30.581543,37.2833748 30.5317386,37.409109 30.5309221,37.5356596 C30.5276563,40.8815773 30.5284727,44.2274134 30.5284727,47.5739843 C30.5284727,48.5529965 30.5292892,49.5319271 30.5276563,50.5116741 C30.5276563,50.6169969 30.5121434,50.7231362 30.5047952,50.8219273 C30.2190322,50.8838963 25.4533213,50.9051242 24.0718612,50.8643014 C23.8987704,50.8586678 23.77875,50.852871 23.7273126,50.8456045 C23.7199644,50.83744 23.7093504,50.828459 23.7020022,50.817845 C23.694654,50.8072311 23.6856729,50.7941678 23.6848564,50.7818393 C23.6775082,50.6741488 23.6660777,50.5663766 23.6660777,50.4585228 L23.6660777,50.457788 C23.6677106,39.4274695 23.6709765,28.3970693 23.6758753,17.3660159 C23.6758753,17.3423387 23.6954704,17.3177634 23.7060845,17.2940862 C23.9942969,17.2166045 43.0481593,17.2043577 46.1744068,17.2753893 C46.4226124,17.2802064 46.5703928,17.2867381 46.600602,17.2932697 L46.600602,23.3530867 L46.6071337,23.3547196 C41.4380887,23.3554544 36.2690438,23.3562709 31.0991823,23.3579854 C30.9367056,23.3579854 30.7742289,23.3701506 30.6117522,23.3766823 C30.5848089,23.4885367 30.5350044,23.5996564 30.5350044,23.7115108 C30.5309221,25.9828093 30.5317386,28.2534547 30.534188,30.5248349 M33.5004082,0 C14.9984767,0 0,14.998294 0,33.4999184 C0,52.001706 14.9984767,67 33.5004082,67 C35.5415727,67 37.540281,66.8171139 39.4810202,66.4668543 C53.6801769,63.9088982 64.7694154,52.4016877 66.7003571,37.9945895 C66.8979418,36.5240708 67,35.0242414 67,33.4999184 C67,14.998294 52.0015233,0 33.5004082,0" id="Fill-1" fill="#FD547E" mask="url(#mask-2)"></path>
                </g>
            </g>
        </g>
    </g>
</svg>