<?xml version="1.0" encoding="UTF-8"?>
<svg width="103px" height="103px" viewBox="0 0 103 103" version="1.1" xmlns="http://www.w3.org/2000/svg" xmlns:xlink="http://www.w3.org/1999/xlink">
    <!-- Generator: Sketch 56.2 (81672) - https://sketch.com -->
    <title>6_Colourhunt</title>
    <desc>Created with Sketch.</desc>
    <defs>
        <polygon id="path-1" points="0 0.481646665 59.9868862 0.481646665 59.9868862 51 0 51"></polygon>
    </defs>
    <g id="Page-1" stroke="none" stroke-width="1" fill="none" fill-rule="evenodd">
        <g id="Home-Copy-5" transform="translate(-984.000000, -1499.000000)">
            <g id="6_Colourhunt" transform="translate(984.000000, 1499.000000)">
                <rect id="Rectangle-Copy-47" fill="#FFD3C8" x="0" y="0" width="103" height="103" rx="15"></rect>
                <g id="Group-8" transform="translate(21.000000, 22.000000)">
                    <g id="Group-3" transform="translate(0.000000, 12.000000)">
                        <mask id="mask-2" fill="white">
                            <use xlink:href="#path-1"></use>
                        </mask>
                        <g id="Clip-2"></g>
                        <path d="M21.1618938,43.4686281 C19.2726903,42.1925656 17.6813628,40.5956281 16.4707434,38.6448781 C16.398531,38.5285344 16.3518053,38.3957219 16.2939292,38.2708781 C16.2047257,38.0089719 16.1495044,37.7295344 16.0210088,37.4888781 C15.0875575,35.7336281 14.5597699,33.8705344 14.4833097,31.8810031 C14.2056106,24.6320969 14.437115,17.3800031 14.3633097,10.1289719 C14.3611858,9.92390938 14.3882655,9.71884688 14.4068496,9.43569063 C14.6633097,9.43569063 14.8863186,9.41019063 15.1018938,9.44100313 C15.538354,9.50369063 15.9689735,9.60994063 16.4054336,9.67369063 C16.7149912,9.71884688 16.857292,9.88300313 16.8652566,10.1831594 C16.8695044,10.3462531 16.8705664,10.5098781 16.8710973,10.6729719 C16.8710973,15.4313781 16.8833097,20.1897844 16.8647257,24.9476594 C16.857823,26.7868469 16.7224248,28.6270969 16.758,30.4641594 C16.778177,31.5186906 16.7686195,32.6019094 17.1541062,33.6219094 C17.497646,34.9888156 17.8767611,36.3435031 18.5404779,37.5977844 C18.6148142,37.7369719 18.7231327,37.8580969 18.8155221,37.9877219 C19.3677345,39.2138469 20.237469,40.2221594 21.1528673,41.1683156 C22.1192389,42.1665344 23.1594159,43.1015344 24.357292,43.8373156 C25.8121593,44.7303469 27.3461416,45.4151281 29.0404779,45.7041281 C29.0994159,45.7142219 29.1509204,45.7630969 29.2114513,45.9065344 C28.9751681,45.9267219 28.7394159,45.9601906 28.5026018,45.9655031 C27.2038407,45.9915344 25.9847257,45.5904406 24.7523363,45.2600031 C24.5532212,45.2063469 24.3514513,45.1606594 24.1512743,45.1112531 C23.1514513,44.5688469 22.1001239,44.1024094 21.1618938,43.4686281 M58.3422478,0.868753125 C57.6243717,0.733815625 56.9133982,0.778440625 56.2082655,1.03503438 C54.4804779,1.66403437 52.7542832,2.30684688 51.0004779,2.85881562 C49.4914513,3.33322187 47.9558761,3.74175312 46.4112743,4.08494062 C44.7530442,4.45362813 43.0751681,4.74262812 41.3962301,5.00825312 C40.2238407,5.19365938 39.037646,5.30681562 37.8535752,5.40669062 C36.1810088,5.54853437 34.5052566,5.73128438 32.8295044,5.74615937 C30.2887965,5.76900313 27.7449027,5.70844062 25.2063186,5.59953437 C22.3618938,5.47734687 19.5349912,5.12512812 16.7447257,4.56519062 C14.4859646,4.11097187 12.2234867,3.62647187 10.017292,2.97090938 C7.83286726,2.32119062 5.72384071,1.42178437 3.5680885,0.670596875 C2.82950442,0.414003125 2.03888496,0.406034375 1.30826549,0.725315625 C0.362070796,1.13915937 0.00419469027,1.96525313 -8.30878782e-05,2.93956562 C-0.00483185841,4.03022188 0.561716814,4.81912813 1.53233628,5.24519062 C2.55286726,5.69303437 3.61109735,6.05906562 4.66614159,6.42350312 C6.07269027,6.90906563 7.49463717,7.35000312 8.90065487,7.83715937 C9.05623009,7.89081562 9.1879115,8.10544062 9.26118584,8.27544062 C9.32065487,8.41356562 9.27764602,8.59684687 9.27764602,8.76047187 C9.27817699,12.6826906 9.27817699,16.6054406 9.27764602,20.5276594 C9.27764602,23.9834406 9.28614159,27.4386906 9.27446018,30.8944719 C9.2659646,33.3026281 9.67746903,35.6380031 10.5339292,37.8798781 C11.9452566,41.5757844 14.3856106,44.4992531 17.4721593,46.9169719 C19.0603009,48.1611594 20.7997699,49.1243156 22.6958761,49.8197219 C24.4603009,50.4662531 26.2730442,50.9093156 28.1452566,50.9682844 C29.8884425,51.0230031 31.6326903,51.0394719 33.378,50.7440969 C34.9300354,50.4811281 36.4247257,50.0869406 37.8636637,49.4712219 C40.4096814,48.3826906 42.5638407,46.7390031 44.4849027,44.7648781 C46.3263186,42.8730969 47.7732212,40.7178156 48.7905664,38.2862844 C49.7829558,35.9142531 50.2518053,33.4354406 50.2454336,30.8556906 C50.2284425,23.6413156 50.2395929,16.4269406 50.2395929,9.21256562 C50.2395929,9.07231563 50.2454336,8.93153438 50.237469,8.79234687 C50.2156991,8.40400312 50.398354,8.18619062 50.7705664,8.08790937 C51.2882655,7.95084687 51.8070265,7.81219063 52.3135752,7.64006562 C54.3164071,6.95687813 56.3165841,6.26519062 58.3141062,5.56765937 C59.377646,5.19631562 60.0679115,4.13434688 59.9792389,3.00650312 C59.8879115,1.83297187 59.0495044,1.00209688 58.3422478,0.868753125" id="Fill-1" fill="#F73636" mask="url(#mask-2)"></path>
                    </g>
                    <path d="M44.9705782,7.97498083 C47.0292452,8.26404551 49.008128,5.99332762 49,4.00402098 C48.9935689,2.24490637 47.3076166,0.0159880605 45.0311443,9.24465922e-05 C42.6288808,-0.0169806202 41.0005829,2.33439279 41,4.02050532 C40.9988358,6.03865956 43.0441084,8.25462589 44.9705782,7.97498083" id="Fill-4" fill="#F73636"></path>
                    <path d="M13.9943162,7.97133562 C15.8638261,8.27183001 17.9947406,6.11169449 18,4.03361933 C18.0040765,2.30208681 16.4286468,-0.0794345563 13.977395,0.00203543594 C11.7764614,0.0752403565 10.0977535,1.76131498 10.0026442,3.97104093 C9.91453688,6.01133291 12.0442844,8.28186617 13.9943162,7.97133562" id="Fill-6" fill="#F73636"></path>
                </g>
            </g>
        </g>
    </g>
</svg>