<?xml version="1.0" encoding="UTF-8"?>
<svg width="103px" height="103px" viewBox="0 0 103 103" version="1.1" xmlns="http://www.w3.org/2000/svg" xmlns:xlink="http://www.w3.org/1999/xlink">
    <!-- Generator: Sketch 56.2 (81672) - https://sketch.com -->
    <title>6_Coolers</title>
    <desc>Created with Sketch.</desc>
    <defs>
        <polygon id="path-1" points="22 21 80 21 80 83 22 83"></polygon>
    </defs>
    <g id="Page-1" stroke="none" stroke-width="1" fill="none" fill-rule="evenodd">
        <g id="Home-Copy-5" transform="translate(-543.000000, -1318.000000)">
            <g id="6_Coolers" transform="translate(543.000000, 1318.000000)">
                <rect id="Rectangle-Copy-38" fill="#FFD3C8" x="0" y="0" width="103" height="103" rx="15"></rect>
                <mask id="mask-2" fill="white">
                    <use xlink:href="#path-1"></use>
                </mask>
                <g id="Clip-2"></g>
                <path d="M52.9504231,82.994059 C50.863027,83.0446801 48.8083582,82.7666057 46.7809624,82.3585579 C42.5240106,81.5014182 38.6192195,79.7953476 35.0887484,77.2465027 C33.8014696,76.3171936 32.5073726,75.3858323 31.3939583,74.2526703 C30.4005446,73.2416149 29.4579265,72.1713873 28.5766724,71.0601156 C25.8698415,67.6459222 24.0364238,63.7928979 22.9738052,59.5646611 C22.226529,56.5913508 21.8620954,53.5663933 22.0478918,50.5130468 C22.2895974,46.538258 23.0638056,42.6609492 24.8675641,39.0699237 C25.7205226,37.3717199 26.6174586,35.6793307 27.6718954,34.1035754 C28.9346286,32.2165683 30.429522,30.5098136 32.1524846,28.9939145 C34.4498818,26.9718035 36.9548935,25.2838608 39.6941109,23.9557388 C42.1544634,22.7630628 44.7399301,21.9599646 47.4460791,21.4729067 C49.897227,21.0320236 52.3511021,20.9410423 54.8145228,21.0316816 C56.5927129,21.0970103 58.3576076,21.3477219 60.0993203,21.7838166 C62.4396722,22.3697225 64.7179783,23.0938106 66.8585566,24.2293668 C68.4414049,25.0690628 69.8882299,26.1091912 71.3582368,27.1260613 C73.0818812,28.3183953 74.533138,29.7932503 75.9635993,31.2927317 C77.499061,32.9023485 78.8286127,34.6723796 79.6283892,36.7786312 C79.8169128,37.274924 79.9082769,37.8252583 79.9491862,38.3581488 C80.0596412,39.7844348 79.9969137,41.2107207 79.5625935,42.5826232 C79.4207746,43.030347 79.0767957,43.411374 78.8398628,43.8310509 C77.8675855,45.5555914 76.373033,46.7157742 74.6422295,47.5476033 C73.9750672,47.8680901 73.1647225,47.9590714 72.4099463,48.0107187 C70.4838009,48.1424022 68.6227694,47.8455158 66.936966,46.8300138 C66.0332118,46.2854941 65.2440035,45.6082648 64.6358189,44.721026 C63.4835407,43.039924 62.0858069,41.5855911 60.3795489,40.4722672 C58.6695409,39.356207 56.7621456,38.7723532 54.7477043,38.4313443 C52.3016701,38.0171399 50.0029093,38.5732888 47.7668761,39.3934888 C46.7230075,39.776568 45.7677758,40.4750035 44.8629988,41.1522328 C42.8673076,42.6465837 41.4218463,44.6064443 40.4822964,46.9124443 C39.8911573,48.3633568 39.5291101,49.8758356 39.5570648,51.472797 C39.5809286,52.8122061 39.5778604,54.1375917 39.9518394,55.449638 C40.4741146,57.2822616 41.2899139,58.9452357 42.4759422,60.432746 C44.0523132,62.4086822 45.9869814,63.8886677 48.366538,64.7625671 C51.053937,65.7493381 53.7621315,65.8799955 56.5480536,65.1459883 C59.344544,64.409587 61.5938728,62.8711135 63.4688816,60.726554 C64.196385,59.8947249 64.8144561,58.9640477 65.5630959,58.1530827 C66.4232136,57.2210373 67.4817413,56.6474446 68.7608382,56.3461117 C69.8169795,56.0977943 70.8475526,55.849819 71.9296031,55.9048866 C74.4731378,56.0341758 76.609966,57.1091918 78.1877006,59.0581073 C79.3781608,60.5278317 80.0173683,62.2814452 80,64.2669584 C79.9849818,65.904964 79.751458,67.4475419 78.8766811,68.8399664 C78.3639515,69.656404 77.8355399,70.47763 77.2065597,71.2030862 C75.3073462,73.3948466 73.3089277,75.4860486 70.9239166,77.1726232 C68.3357226,79.0031945 65.6159371,80.5649264 62.5610364,81.470635 C60.4698902,82.0907445 58.3664713,82.6571545 56.1703246,82.7710521 C55.096115,82.8268038 54.02361,82.9184692 52.9504231,82.994059" id="Fill-1" fill="#F73636" mask="url(#mask-2)"></path>
            </g>
        </g>
    </g>
</svg>