<?xml version="1.0" encoding="UTF-8"?>
<svg width="103px" height="103px" viewBox="0 0 103 103" version="1.1" xmlns="http://www.w3.org/2000/svg" xmlns:xlink="http://www.w3.org/1999/xlink">
    <!-- Generator: Sketch 57.1 (83088) - https://sketch.com -->
    <title>6_Khorma</title>
    <desc>Created with Sketch.</desc>
    <defs>
        <polygon id="path-1" points="0 0 50 0 50 53 0 53"></polygon>
        <linearGradient x1="50%" y1="0%" x2="50%" y2="100%" id="linearGradient-3">
            <stop stop-color="#FFFFFF" stop-opacity="0.0707768794" offset="0%"></stop>
            <stop stop-color="#0B1A3F" stop-opacity="0.104731206" offset="100%"></stop>
        </linearGradient>
    </defs>
    <g id="Page-1" stroke="none" stroke-width="1" fill="none" fill-rule="evenodd">
        <g id="Home-Copy-5" transform="translate(-969.000000, -1325.000000)">
            <g id="6_Khorma" transform="translate(969.000000, 1325.000000)">
                <g>
                    <rect id="Rectangle-Copy-45" fill="#FF756D" fill-rule="nonzero" x="0" y="0" width="103" height="103" rx="15"></rect>
                    <g id="Fill-1-Clipped" transform="translate(26.000000, 26.000000)">
                        <mask id="mask-2" fill="white">
                            <use xlink:href="#path-1"></use>
                        </mask>
                        <g id="path-1"></g>
                        <path d="M1.0080908,0 L51,0 C48.3046697,10.4931259 42.9636508,19.2412035 34.8860501,26.4167352 C35.0709826,26.6826908 35.1898429,26.9518083 35.3898077,27.1260672 C37.9019534,29.315546 40.0987699,31.7938166 42.1305805,34.4315904 C43.8624438,36.6797409 45.3586842,39.0821247 46.6727888,41.587799 C48.026397,44.1693602 49.1968206,46.8415641 50.0054196,49.6588667 C50.2298557,50.4412751 50.5116243,51.2071711 50.7496944,51.9860662 C50.8325469,52.2572917 50.862262,52.545381 50.9220417,52.8531447 C50.7329141,52.9139245 50.5993711,52.9947301 50.4654786,52.9947301 C34.041793,53 17.6181073,53 1.146528,53 C1.0923417,52.7617993 1.0322125,52.5745413 1.0115867,52.382716 C0.9899122,52.1799995 1.0052941,51.9734184 1.0052941,51.7685939 C1.0063429,34.9086944 1.0073916,18.0491462 1.0080908,1.1892467 C1.0080908,0.8171899 1.0080908,0.4454844 1.0080908,0" id="Fill-1" fill="#CE2020" fill-rule="nonzero" mask="url(#mask-2)"></path>
                    </g>
                </g>
                <rect id="Rectangle-Copy-43" fill="url(#linearGradient-3)" opacity="0.665108817" x="0" y="0" width="103" height="103" rx="15"></rect>
            </g>
        </g>
    </g>
</svg>