<?xml version="1.0" encoding="UTF-8"?>
<svg width="103px" height="103px" viewBox="0 0 103 103" version="1.1" xmlns="http://www.w3.org/2000/svg" xmlns:xlink="http://www.w3.org/1999/xlink">
    <!-- Generator: Sketch 56.2 (81672) - https://sketch.com -->
    <title>6_Khorma</title>
    <desc>Created with Sketch.</desc>
    <defs>
        <polygon id="path-1" points="26 26 76 26 76 79 26 79"></polygon>
    </defs>
    <g id="Page-1" stroke="none" stroke-width="1" fill="none" fill-rule="evenodd">
        <g id="Home-Copy-5" transform="translate(-543.000000, -1499.000000)">
            <g id="6_Khorma" transform="translate(543.000000, 1499.000000)">
                <rect id="Rectangle-Copy-45" fill="#FFD3C8" x="0" y="0" width="103" height="103" rx="15"></rect>
                <mask id="mask-2" fill="white">
                    <use xlink:href="#path-1"></use>
                </mask>
                <g id="Clip-2"></g>
                <path d="M27.0080908,26 L77,26 C74.3046697,36.4931259 68.9636508,45.2412035 60.8860501,52.4167352 C61.0709826,52.6826908 61.1898429,52.9518083 61.3898077,53.1260672 C63.9019534,55.315546 66.0987699,57.7938166 68.1305805,60.4315904 C69.8624438,62.6797409 71.3586842,65.0821247 72.6727888,67.587799 C74.026397,70.1693602 75.1968206,72.8415641 76.0054196,75.6588667 C76.2298557,76.4412751 76.5116243,77.2071711 76.7496944,77.9860662 C76.8325469,78.2572917 76.862262,78.545381 76.9220417,78.8531447 C76.7329141,78.9139245 76.5993711,78.9947301 76.4654786,78.9947301 C60.041793,79 43.6181073,79 27.146528,79 C27.0923417,78.7617993 27.0322125,78.5745413 27.0115867,78.382716 C26.9899122,78.1799995 27.0052941,77.9734184 27.0052941,77.7685939 C27.0063429,60.9086944 27.0073916,44.0491462 27.0080908,27.1892467 C27.0080908,26.8171899 27.0080908,26.4454844 27.0080908,26" id="Fill-1" fill="#F73636" mask="url(#mask-2)"></path>
            </g>
        </g>
    </g>
</svg>