<?xml version="1.0" encoding="UTF-8"?>
<svg width="103px" height="104px" viewBox="0 0 103 104" version="1.1" xmlns="http://www.w3.org/2000/svg" xmlns:xlink="http://www.w3.org/1999/xlink">
    <!-- Generator: Sketch 57.1 (83088) - https://sketch.com -->
    <title>7_Awwwards</title>
    <desc>Created with Sketch.</desc>
    <defs>
        <polygon id="path-1" points="0 0.211487002 61.9749285 0.211487002 61.9749285 44.5547856 0 44.5547856"></polygon>
        <polygon id="path-3" points="0.0534045496 0.382780506 14.5940909 0.382780506 14.5940909 15 0.0534045496 15"></polygon>
        <linearGradient x1="50%" y1="0%" x2="50%" y2="100%" id="linearGradient-5">
            <stop stop-color="#FFFFFF" stop-opacity="0.0707768794" offset="0%"></stop>
            <stop stop-color="#0B1A3F" stop-opacity="0.104731206" offset="100%"></stop>
        </linearGradient>
    </defs>
    <g id="Page-1" stroke="none" stroke-width="1" fill="none" fill-rule="evenodd">
        <g id="Home-Copy-5" transform="translate(-969.000000, -1485.000000)">
            <g id="7_Awwwards" transform="translate(969.000000, 1485.000000)">
                <g>
                    <rect id="Rectangle-Copy-61" fill="#FFAA51" fill-rule="nonzero" x="0" y="0" width="103" height="104" rx="15"></rect>
                    <g id="Group-7" transform="translate(16.000000, 31.000000)">
                        <g id="Group-3">
                            <g id="Fill-1-Clipped">
                                <mask id="mask-2" fill="white">
                                    <use xlink:href="#path-1"></use>
                                </mask>
                                <g id="path-1"></g>
                                <path d="M0.888183942,0.217 C3.82978978,0.211462959 6.77139562,0.208363636 9.71300146,0.216090909 C10.7869139,0.218818182 10.7629285,0.238818182 11.0421547,1.30563636 C11.6920234,3.78563636 12.3853372,6.25472727 13.0266073,8.737 C13.6588263,11.1824545 14.2340234,13.6424545 14.8603591,16.0892727 C15.4862423,18.5356364 16.1524029,20.9715455 16.7846219,23.4160909 C17.2842423,25.3506364 17.7521839,27.2933636 18.2522569,29.2279091 C18.3400526,29.5692727 18.5183591,29.8874545 18.7835562,30.2065455 C21.3785051,20.2133636 23.7820234,10.2129091 26.2520672,0.248363636 L36.0032642,0.248363636 C37.4129723,5.16927273 38.4796438,10.2115455 39.741819,15.2010909 C40.9990161,20.1692727 42.1688701,25.1601818 43.5781255,30.2274545 C43.7342569,29.9342727 43.9514832,29.6579091 44.0356584,29.3451818 C44.5140088,27.5610909 44.9629431,25.7692727 45.417308,23.9788182 C45.909235,22.0433636 46.3943737,20.1065455 46.8872058,18.1715455 C47.3990453,16.1629091 47.9108847,14.1542727 48.434038,12.1488182 C49.0721401,9.70518182 49.7269869,7.26609091 50.3650891,4.82245455 C50.7547387,3.33109091 51.1267387,1.83472727 51.525892,0.263818182 L61.9749285,0.263818182 C61.9518482,0.573363636 61.9790015,0.840636364 61.9056876,1.07563636 C61.1874832,3.377 60.4543445,5.67336364 59.7225635,7.96972727 C58.7848701,10.9133636 57.8408409,13.8547273 56.9054102,16.7988182 C55.6857752,20.6410909 54.4688555,24.4842727 53.2560088,28.3283636 C52.0544759,32.1360909 50.8592788,35.9456364 49.6613664,39.7542727 C49.231892,41.1183636 48.7883883,42.4779091 48.3797314,43.8488182 C48.2118336,44.412 47.8149431,44.4874545 47.3316146,44.4860909 C45.6720964,44.482 44.0125781,44.4842727 42.3535124,44.4847273 L38.7561547,44.4847273 C36.2580526,35.0347273 33.7762423,25.6447273 31.2251912,15.9956364 C30.9622569,16.4647273 30.7224029,16.7442727 30.6391328,17.0642727 C29.8720526,20.0188182 29.1524905,22.9860909 28.3777168,25.9388182 C27.6033956,28.8910909 26.7661693,31.827 25.9850599,34.7774545 C25.213454,37.6938182 24.4622131,40.6160909 23.7394832,43.5447273 C23.5819942,44.1824545 23.3475708,44.5601818 22.6293664,44.5548985 C19.9144905,44.5324545 17.199162,44.5388182 14.4838336,44.5297273 C14.375673,44.5292727 14.2666073,44.4801818 13.949819,44.4029091 C9.33783358,29.8242727 4.6946219,15.1474545 -0.000181021898,0.307454545 C0.38630073,0.266545455 0.637016058,0.217454545 0.888183942,0.217 Z" id="Fill-1" fill="#E47700" fill-rule="nonzero" mask="url(#mask-2)"></path>
                            </g>
                        </g>
                        <g id="Group-6" transform="translate(58.000000, 30.000000)">
                            <g id="Fill-4-Clipped">
                                <mask id="mask-4" fill="white">
                                    <use xlink:href="#path-3"></use>
                                </mask>
                                <g id="path-3"></g>
                                <path d="M14.589,7.97545455 C14.4476364,11.8840909 11.4162727,15.1190909 7.02763636,14.9968182 C3.29218182,14.8918182 -0.0141818182,11.8954545 0.0544545455,7.5 C0.111272727,3.86636364 3.04036364,0.192272727 7.40172727,0.390454545 C11.5753636,0.249090909 14.7426364,3.72045455 14.589,7.97545455 Z" id="Fill-4" fill="#E47700" fill-rule="nonzero" mask="url(#mask-4)"></path>
                            </g>
                        </g>
                    </g>
                </g>
                <rect id="Rectangle-Copy-46" fill="url(#linearGradient-5)" opacity="0.665108817" x="0" y="1" width="103" height="103" rx="15"></rect>
            </g>
        </g>
    </g>
</svg>