<?xml version="1.0" encoding="UTF-8"?>
<svg width="103px" height="104px" viewBox="0 0 103 104" version="1.1" xmlns="http://www.w3.org/2000/svg" xmlns:xlink="http://www.w3.org/1999/xlink">
    <!-- Generator: Sketch 56.2 (81672) - https://sketch.com -->
    <title>7_Behance</title>
    <desc>Created with Sketch.</desc>
    <defs>
        <polygon id="path-1" points="0 0.297162162 33.6478896 0.297162162 33.6478896 44.7815663 0 44.7815663"></polygon>
        <polygon id="path-3" points="0.226740179 0.367758969 32.6381208 0.367758969 32.6381208 34.0540541 0.226740179 34.0540541"></polygon>
    </defs>
    <g id="Page-1" stroke="none" stroke-width="1" fill="none" fill-rule="evenodd">
        <g id="Home-Copy-5" transform="translate(-106.000000, -1682.000000)">
            <g id="7_Behance" transform="translate(106.000000, 1682.000000)">
                <rect id="Rectangle-Copy-59" fill="#FFE0BF" x="0" y="0" width="103" height="104" rx="15"></rect>
                <g id="Group-9" transform="translate(19.000000, 29.000000)">
                    <g id="Group-3">
                        <mask id="mask-2" fill="white">
                            <use xlink:href="#path-1"></use>
                        </mask>
                        <g id="Clip-2"></g>
                        <path d="M8.97192,18.1832838 C12.45792,18.1832838 15.85072,18.381527 19.20992,18.1220676 C22.02912,17.9043649 23.85832,15.1386892 23.23032,12.0426081 C22.74952,9.67504054 21.20832,8.34936486 18.74232,8.25247297 C16.01432,8.14463514 13.28032,8.18882432 10.54912,8.18233784 C10.04032,8.18112162 9.53032,8.25612162 8.88912,8.30598649 C8.88912,11.2634189 8.88632,14.0882838 8.89272,16.9135541 C8.89352,17.3055811 8.94032,17.6967973 8.97192,18.1832838 M8.99592,26.1296351 L8.99592,37.1870676 C12.28632,37.1870676 15.47192,37.2109865 18.65672,37.1688243 C19.37632,37.1595 20.11512,36.9949054 20.80672,36.7755811 C22.38952,36.2732838 23.63392,35.3878784 24.26352,33.7030135 C25.28272,30.9762568 24.11472,26.5403108 19.62912,26.1847703 C16.13472,25.9078784 12.60232,26.1296351 8.99592,26.1296351 M-8e-05,44.6781486 L-8e-05,0.590310811 C0.48352,0.495851351 0.91672,0.338959459 1.35032,0.338148649 C7.61352,0.327202703 13.87912,0.230310811 20.13912,0.3795 C24.23072,0.476797297 27.89152,1.92085135 30.28672,5.50058108 C33.62072,10.4830135 33.03912,18.276527 26.55952,21.7759865 C29.37912,22.922473 31.39952,24.8080135 32.65952,27.5858514 C35.18112,33.1480135 32.80392,41.1028784 26.37232,43.5835541 C24.41512,44.3392297 22.44792,44.7863919 20.35832,44.7815663 C14.22872,44.7677432 8.09832,44.7823378 1.96872,44.7778784 C1.38192,44.777473 0.79592,44.7203108 -8e-05,44.6781486" id="Fill-1" fill="#FF8300" mask="url(#mask-2)"></path>
                    </g>
                    <g id="Group-6" transform="translate(35.000000, 12.000000)">
                        <mask id="mask-4" fill="white">
                            <use xlink:href="#path-3"></use>
                        </mask>
                        <g id="Clip-5"></g>
                        <path d="M9.7895962,13.3450453 C14.2826089,13.6507112 21.2527101,13.5407535 22.7498241,13.1534399 C22.4908367,10.0602651 20.645343,8.20370368 17.7288114,7.89967893 C13.0578494,7.41225464 10.2754063,9.65243699 9.7895962,13.3450453 M32.4113051,19.80752 L9.79878608,19.80752 C10.0339633,22.9478782 11.6000013,25.1597506 14.3824443,25.9068883 C17.8687481,26.8431697 21.0208747,26.3463087 23.1583557,22.9232608 C25.8062924,22.9232608 28.440862,22.9166962 31.0758494,22.9310563 C31.4041785,22.9331078 31.7320899,23.0455272 32.144381,23.1222514 C32.0036089,25.2803758 30.956381,26.9613331 29.6819127,28.4662761 C27.0348114,31.5943256 23.5543557,33.2264585 19.4732165,33.8554328 C17.2947987,34.1918704 15.179457,34.09217 13.0870899,33.623619 C6.76153291,32.206478 2.70253291,28.3702683 0.996140506,22.2323328 C-0.552353165,16.6614178 0.184507595,11.342831 3.68041899,6.66880951 C7.51969747,1.53526343 12.8514949,-0.356993162 19.2505709,0.612111364 C21.1858747,0.905058287 23.0388873,1.41833084 24.7477861,2.38456333 C29.0958494,4.84301986 31.3377608,8.67840899 32.2316848,13.3983829 C32.6122291,15.4079824 32.8281911,17.423326 32.4113051,19.80752" id="Fill-4" fill="#FF8300" mask="url(#mask-4)"></path>
                    </g>
                    <path d="M62.9489227,10 L40,10 L40,4.334648 C41.7212552,3.94536397 60.3229437,3.87343105 62.7243551,4.23732699 C63.2466255,6.05342161 62.8469639,7.92071553 62.9489227,10" id="Fill-7" fill="#FF8300"></path>
                </g>
            </g>
        </g>
    </g>
</svg>