<?xml version="1.0" encoding="UTF-8"?>
<svg width="103px" height="104px" viewBox="0 0 103 104" version="1.1" xmlns="http://www.w3.org/2000/svg" xmlns:xlink="http://www.w3.org/1999/xlink">
    <!-- Generator: Sketch 56.2 (81672) - https://sketch.com -->
    <title>7_Designspiration</title>
    <desc>Created with Sketch.</desc>
    <defs>
        <polygon id="path-1" points="0.000137288032 0.00261499688 64.9973664 0.00261499688 64.9973664 65 0.000137288032 65"></polygon>
    </defs>
    <g id="Page-1" stroke="none" stroke-width="1" fill="none" fill-rule="evenodd">
        <g id="Home-Copy-5" transform="translate(-106.000000, -1864.000000)">
            <g id="7_Designspiration" transform="translate(106.000000, 1864.000000)">
                <rect id="Rectangle-Copy-60" fill="#FFE0BF" x="0" y="0" width="103" height="104" rx="15"></rect>
                <g id="Group-6" transform="translate(19.000000, 20.000000)">
                    <g id="Group-3">
                        <mask id="mask-2" fill="white">
                            <use xlink:href="#path-1"></use>
                        </mask>
                        <g id="Clip-2"></g>
                        <path d="M19.8850826,37.7458674 C19.9280391,40.0999978 19.9972783,42.4541283 20.0919522,44.806563 C20.1903,47.2457587 21.6629739,48.960063 23.9911043,48.9984978 C28.037213,49.0654761 32.1079087,49.1853022 36.1291478,48.83515 C41.6312565,48.3561283 45.447887,45.2946283 47.456387,40.1271283 C48.9977348,36.1604326 49.2026261,32.0366065 48.4387348,27.8890413 C47.0206043,20.1893674 41.7508,15.8278674 33.9134957,15.7727587 C30.8056478,15.7507152 27.6972348,15.7560848 24.5891043,15.771063 C21.7952348,15.7843457 20.1351913,17.3302152 20.0976043,20.0896065 C20.0419304,24.1851717 19.8525826,35.9569543 19.8850826,37.7458674 M64.9973664,32.5546283 C64.9761478,50.3544543 50.267213,65.0153457 32.4450609,65.0000967 C14.6531478,64.9848239 -0.0249826087,50.2580848 0.000137288033,32.4483674 C0.0253217391,14.64515 14.7319957,-0.0134804348 32.5516043,0.00261499688 C50.3457783,0.0190195652 65.0185391,14.7398239 64.9973664,32.5546283" id="Fill-1" fill="#FF8300" mask="url(#mask-2)"></path>
                    </g>
                    <path d="M28.0097007,33.035695 C28.0102752,31.134688 27.9824145,29.232565 28.0186046,27.332116 C28.0507736,25.6442539 28.7406836,25.0232323 30.4993507,25.0070511 C31.5971175,24.9967286 32.6954587,24.9989605 33.7938,25.0059352 C37.5673373,25.0299279 39.9153864,26.8243625 40.7012288,30.3978873 C41.177732,32.5642095 41.113394,34.743086 40.2965315,36.8388249 C39.2823466,39.4417593 37.3398566,40.8757447 34.4423498,40.9733896 C33.1547285,41.0166323 31.864235,40.9962664 30.5754649,40.9873388 C28.6616972,40.9742265 28.0389975,40.3716179 28.0140091,38.4614044 C27.9904568,36.6532996 28.008839,34.8443578 28.0097007,33.035695" id="Fill-4" fill="#FF8300"></path>
                </g>
            </g>
        </g>
    </g>
</svg>