<?xml version="1.0" encoding="UTF-8"?>
<svg width="103px" height="103px" viewBox="0 0 103 103" version="1.1" xmlns="http://www.w3.org/2000/svg" xmlns:xlink="http://www.w3.org/1999/xlink">
    <!-- Generator: Sketch 56.2 (81672) - https://sketch.com -->
    <title>8_Mobbin</title>
    <desc>Created with Sketch.</desc>
    <defs>
        <polygon id="path-1" points="0 0 70 0 70 67 0 67"></polygon>
    </defs>
    <g id="Page-1" stroke="none" stroke-width="1" fill="none" fill-rule="evenodd">
        <g id="Home-Copy-5" transform="translate(-543.000000, -1864.000000)">
            <g id="8_Mobbin" transform="translate(543.000000, 1864.000000)">
                <rect id="Rectangle-Copy-58" fill="#FFEEBF" x="0" y="0" width="103" height="103" rx="15"></rect>
                <g id="Group-3" transform="translate(17.000000, 18.000000)">
                    <mask id="mask-2" fill="white">
                        <use xlink:href="#path-1"></use>
                    </mask>
                    <g id="Clip-2"></g>
                    <path d="M55.7607455,63.118178 C56.1789551,60.9349807 56.0755841,29.6915938 55.6496955,28.4072547 C52.9942414,29.9584423 50.3609382,31.4970794 47.6461196,33.0826316 C47.6159943,33.7298811 47.5640135,34.3490413 47.5622414,34.9685004 C47.5536763,37.8912833 47.5586972,40.8143651 47.5586972,43.7377456 C47.5586972,48.1507564 47.561946,52.5640659 47.5566298,56.9770767 C47.5557438,57.6772178 47.5368416,58.3516602 48.263097,58.7691152 C50.7132857,60.1780633 53.1537281,61.6043432 55.7607455,63.118178 L55.7607455,63.118178 Z M14.5399226,28.2715893 C14.352378,28.5217037 14.2309909,28.6077646 14.2309909,28.6938255 C14.218291,39.6997571 14.2135655,50.70539 14.2162236,61.7113216 C14.2162236,61.990123 14.2962623,62.2695221 14.3473571,62.5471282 C14.3571036,62.5994221 14.3957939,62.6561984 14.4383236,62.68877 C14.4802628,62.7219393 14.5434668,62.7273181 14.8396986,62.8241366 C17.3087895,61.3814216 19.9255533,59.8523468 22.4356973,58.3854271 L22.4356973,32.8638935 C19.7693154,31.3127059 17.1422145,29.7851252 14.5399226,28.2715893 L14.5399226,28.2715893 Z M57.2407233,2.95893255 C56.6751361,3.2610421 56.2681496,3.46185082 55.8768164,3.69015122 C49.4976424,7.40839964 43.0983849,11.0925823 36.7605594,14.8819505 C35.402264,15.69415 34.3310448,15.7114817 32.992833,14.9070516 C28.1246481,11.9806828 23.2062545,9.14007605 18.3032188,6.27377059 C16.4026686,5.16304734 14.4920766,4.07025344 12.5873915,2.9702878 C9.96856028,4.51878602 7.4525094,6.00662327 4.65263119,7.66209995 C14.8163663,13.6003008 24.6564024,19.3493469 34.5841561,25.1497906 C37.9233358,23.2020655 41.2521783,21.2585239 44.5824976,19.3182694 C47.9686372,17.3454432 51.3816533,15.4186357 54.7361909,13.3929179 C57.9944458,11.4248729 61.4071665,9.70246001 64.7684971,7.35999039 C62.0855758,5.79147107 59.6997725,4.39656762 57.2407233,2.95893255 L57.2407233,2.95893255 Z M67.01726,9.64807431 C66.3161091,9.99948958 65.8125445,10.2179288 65.3411726,10.4931444 C55.6807068,16.1307297 46.0075411,21.746501 36.3854702,27.4516203 C35.0682279,28.2327423 34.0986076,28.2088365 32.8162162,27.4501262 C24.8017125,22.7063189 16.744679,18.0351255 8.70123145,13.3418193 C6.89430583,12.2872747 5.08413141,11.2399018 3.10236108,10.0882399 L3.10236108,58.4365258 C5.74363859,59.9811393 8.41504136,61.5430845 11.3764737,63.2744621 C11.4216616,62.3684323 11.477482,61.7686955 11.477482,61.1695564 C11.4827982,49.9164985 11.4807308,38.6637395 11.4827982,27.4106816 C11.4830936,26.8369424 11.4411545,26.2530432 11.5306442,25.6918546 C11.6883589,24.7006603 12.6083611,24.1618834 13.5457886,24.4786352 C13.9173337,24.6041407 14.2670231,24.8088341 14.6093289,25.0081487 C20.0546194,28.181046 25.4966612,31.3608163 30.9419517,34.5346101 C32.3599069,35.3608543 33.7861318,36.1724563 35.187843,36.9789782 C35.7439791,36.6858333 36.2029465,36.4647047 36.6421257,36.208315 C42.9208821,32.5447511 49.1952083,28.873119 55.4745554,25.2107503 C58.0880704,23.6861579 58.979424,24.2380831 58.979424,27.3649618 C58.9803101,38.5603469 58.9788334,49.755732 58.9835589,60.9511172 C58.9838542,61.5487622 59.0384932,62.1464072 59.0757068,62.9066116 C59.634501,62.6448431 59.996595,62.5055918 60.3294497,62.3146442 C62.0536785,61.3255418 63.7380356,60.2590442 65.5009547,59.3476356 C66.7139399,58.7204072 67.1466215,57.90253 67.1416438,56.5019489 C67.0913918,41.5174944 67.1114754,26.5327411 67.1070452,11.5482866 C67.1070452,10.9960626 67.0562457,10.4441375 67.01726,9.64807431 L67.01726,9.64807431 Z M44.8515576,34.7584282 C43.5189573,35.5111621 42.5865507,36.0284238 41.6630043,36.561822 C40.0388978,37.4998258 38.3976611,38.4100392 36.8075193,39.4045205 C35.7227142,40.0825487 34.7563427,40.1061557 33.648796,39.4242428 C31.4723928,38.0846215 29.2401692,36.837934 27.0274385,35.5586748 C26.5968243,35.3100545 26.1496707,35.09042 25.4544267,34.7213742 L25.4544267,36.80596 C25.4547221,43.8109571 25.4183945,50.8159543 25.4842566,57.820055 C25.4987286,59.3323957 25.0122941,60.2805595 23.7074563,61.0090887 C20.535147,62.7805085 17.4021188,64.6245422 14.2865159,66.4963664 C13.1913737,67.1540747 12.2468578,67.1782793 11.1366529,66.5059287 C8.02784302,64.6233469 4.87945677,62.8062073 1.7257543,61.0007217 C0.524287574,60.3125335 -0.0037907201,59.4139742 2.42430844e-05,57.9500427 C0.0455320288,41.6441951 0.0455320288,25.3377499 2.42430844e-05,9.03190231 C-0.00408606591,7.56826968 0.514245817,6.67479039 1.72221015,5.98421158 C4.87620797,4.18141542 8.0186873,2.35590874 11.1245438,0.470637555 C12.1815864,-0.170934362 13.0463589,-0.138661531 14.1042875,0.488865728 C20.3555768,4.19874712 26.661505,7.81479825 32.8959595,11.552769 C34.2595711,12.3700485 35.2610887,12.488681 36.7127133,11.6071547 C42.925903,7.835417 49.2528007,4.25641986 55.5017272,0.543849069 C56.6695245,-0.150016786 57.6208334,-0.199621322 58.7868586,0.508886836 C61.9420378,2.42613202 65.1415189,4.26956805 68.3448394,6.10403941 C69.4928486,6.76144892 70.0037968,7.60980601 69.9999788,9.01008826 C69.9577228,25.3733098 69.9591996,41.7368301 69.9978899,58.1003505 C70.0011387,59.4922657 69.5076158,60.3331522 68.3368651,60.991757 C65.2682222,62.7177558 62.2031235,64.4569028 59.2168821,66.3224517 C57.9448277,67.1173195 56.9223405,67.1797734 55.6375863,66.3893879 C52.5910943,64.5157708 49.4929169,62.7240311 46.3722931,60.9789077 C45.2325537,60.3415193 44.8167068,59.5329056 44.8267486,58.2198795 C44.8799108,51.1584049 44.8515576,44.0960338 44.8515576,37.0336627 L44.8515576,34.7584282 Z" id="Fill-1" stroke="#FFBA01" fill="#FFBA01" mask="url(#mask-2)"></path>
                </g>
            </g>
        </g>
    </g>
</svg>