<?xml version="1.0" encoding="UTF-8"?>
<svg width="103px" height="103px" viewBox="0 0 103 103" version="1.1" xmlns="http://www.w3.org/2000/svg" xmlns:xlink="http://www.w3.org/1999/xlink">
    <!-- Generator: Sketch 56.2 (81672) - https://sketch.com -->
    <title>8_Uisources</title>
    <desc>Created with Sketch.</desc>
    <defs>
        <polygon id="path-1" points="0.000326315789 0.613009128 30.8642303 0.613009128 30.8642303 25 0.000326315789 25"></polygon>
        <polygon id="path-3" points="0.0207428571 0.072 10.9184571 0.072 10.9184571 31.8168 0.0207428571 31.8168"></polygon>
    </defs>
    <g id="Page-1" stroke="none" stroke-width="1" fill="none" fill-rule="evenodd">
        <g id="Home-Copy-5" transform="translate(-104.000000, -2045.000000)">
            <g id="8_Uisources" transform="translate(104.000000, 2045.000000)">
                <rect id="Rectangle-Copy-58" fill="#FFEEBF" x="0" y="0" width="103" height="103" rx="15"></rect>
                <g id="Group-11" transform="translate(17.000000, 21.000000)">
                    <path d="M37.1427145,0 L47.9823066,0 C48.2878118,0.314077564 48.6383916,0.507731606 48.640061,0.706267683 C48.7051687,6.91133375 49.4497333,13.2140405 48.5849699,19.2986831 C47.5449166,26.6396359 42.0691947,30.8479497 34.7637805,32.1660991 C28.4650309,33.3003585 22.0227106,33.3280234 15.7089361,31.9366435 C8.33507532,30.3109259 3.61226521,25.951269 2.49875714,18.5273216 C1.59559692,12.5094002 2.19492135,0.060211761 2.19492135,0.060211761 L14.0545336,0.060211761 C14.0545336,0.060211761 13.9977731,3.09358264 14.0278227,4.52890083 C14.0979387,7.77870858 13.9209794,11.0415351 14.1446827,14.2783241 C14.4451796,18.637981 16.1980784,22.2279039 20.9375827,23.47445 C25.8456993,24.7665619 30.7821961,24.8105002 34.5066886,20.9325373 C35.969107,19.4093425 36.7387131,16.8869579 37.0074909,14.7225892 C37.4215089,11.3832775 37.1343674,7.96259855 37.1427145,4.57609383 C37.1460533,3.24329837 37.1427145,0 37.1427145,0" id="Fill-1" fill="#FFBA01"></path>
                    <path d="M55.78266,43.7929194 C53.3201463,43.2199864 50.7375512,43.1740204 48.266581,43.7108373 C47.953693,43.7781446 47.64757,43.8553018 47.3482123,43.9472337 C44.6928918,44.7549215 43.5800251,46.2340408 43.4650176,48.6702373 C43.3449362,51.2311986 44.5102328,53.0895372 47.0979018,54.0433311 C50.5092274,55.3008288 53.9949697,55.267996 57.3640132,53.9251329 C59.4561351,53.0895372 60.6755529,51.4922197 60.7398218,49.180788 C60.8023995,46.8759228 59.7605667,45.1357824 57.6177062,44.3330195 C57.0189907,44.1097562 56.401671,43.9373839 55.78266,43.7929194 M56.3560062,60.713322 C53.3827239,61.1056744 50.3637768,61.0958246 47.393877,60.6804892 C45.4962531,60.4161848 43.6341462,60.1141227 41.8413821,59.5953639 C36.4800027,58.0423707 33.9126292,54.2140619 34.0022674,48.8081353 C34.088523,43.5565229 36.6102318,40.0844504 41.9242552,38.5035493 C48.667416,36.4974629 55.5154366,36.4908964 62.2484498,38.5314572 C67.6047553,40.155041 69.9674831,43.5204068 69.9996176,48.8902173 C70.0351346,54.4603082 67.5979902,58.1063948 62.1689593,59.6232718 C60.2797918,60.1518805 58.3229729,60.4506593 56.3560062,60.713322" id="Fill-3" fill="#FFBA01"></path>
                    <g id="Group-7" transform="translate(0.000000, 36.000000)">
                        <mask id="mask-2" fill="white">
                            <use xlink:href="#path-1"></use>
                        </mask>
                        <g id="Clip-6"></g>
                        <path d="M29.8941158,8.0465 C26.2377474,7.92983333 22.8734316,9.03316667 19.2823263,6.8165 C16.4254316,5.05483333 12.8995895,5.30983333 9.66906316,7.0015 C10.3265895,9.3315 11.9239053,9.33983333 13.3596947,9.43816667 C15.5248,9.58483333 17.7111158,9.4615 19.8713263,9.65816667 C22.0250105,9.85316667 24.1982737,10.1331667 26.2866947,10.6798333 C28.8580632,11.3515 30.5124842,13.0681667 30.8110632,15.9248333 C31.1324842,19.0098333 29.9969053,21.3965 27.3945368,22.8815 C26.8055368,23.2181667 26.1806421,23.5398333 25.5312737,23.7048333 C18.9609053,25.3548333 12.3513789,25.4865 5.79406316,23.7648333 C2.57822105,22.9181667 0.289115789,20.9315 0.000326315789,16.7665 L8.77985263,16.7665 C12.9779053,20.5731667 18.2528,20.9248333 21.0379053,17.3015 C20.3379579,15.2681667 18.5530105,15.4815 16.9850632,15.3531667 C13.8752737,15.0965 10.7491684,15.0215 7.65243158,14.6565 C6.20195789,14.4848333 4.72048421,13.9948333 3.40869474,13.3331667 C1.28111579,12.2581667 0.277694737,10.3065 0.307063158,7.88816667 C0.336431579,5.4665 1.39206316,3.6165 3.55390526,2.53983333 C4.40395789,2.1165 5.29969474,1.7115 6.21664211,1.5265 C12.1490632,0.328166667 18.1075895,0.2365 23.9975895,1.68483333 C26.9817474,2.41816667 29.6395895,3.79816667 29.8941158,8.0465" id="Fill-5" fill="#FFBA01" mask="url(#mask-2)"></path>
                    </g>
                    <g id="Group-10" transform="translate(56.000000, 0.000000)">
                        <mask id="mask-4" fill="white">
                            <use xlink:href="#path-3"></use>
                        </mask>
                        <g id="Clip-9"></g>
                        <polygon id="Fill-8" fill="#FFBA01" mask="url(#mask-4)" points="10.9184571 31.8168 0.308742857 31.8168 0.0207428571 0.3592 10.6493143 0.0712"></polygon>
                    </g>
                </g>
            </g>
        </g>
    </g>
</svg>