<?xml version="1.0" encoding="UTF-8"?>
<svg width="103px" height="103px" viewBox="0 0 103 103" version="1.1" xmlns="http://www.w3.org/2000/svg" xmlns:xlink="http://www.w3.org/1999/xlink">
    <!-- Generator: Sketch 56.2 (81672) - https://sketch.com -->
    <title>9_Calligraphr</title>
    <desc>Created with Sketch.</desc>
    <defs>
        <polygon id="path-1" points="0.301134129 0.18361165 34.7322973 0.18361165 34.7322973 63.9999689 0.301134129 63.9999689"></polygon>
    </defs>
    <g id="Page-1" stroke="none" stroke-width="1" fill="none" fill-rule="evenodd">
        <g id="Home-Copy-5" transform="translate(-984.000000, -2045.000000)">
            <g id="9_Calligraphr" transform="translate(984.000000, 2045.000000)">
                <rect id="Rectangle-Copy-65" fill="#D6F5D4" x="0" y="0" width="103" height="103" rx="15"></rect>
                <g id="Group-6" transform="translate(18.000000, 21.000000)">
                    <g id="Group-3" transform="translate(34.000000, 0.000000)">
                        <mask id="mask-2" fill="white">
                            <use xlink:href="#path-1"></use>
                        </mask>
                        <g id="Clip-2"></g>
                        <path d="M11.1903514,34.914765 C15.4244054,33.7251728 19.5865676,32.5554641 23.8171532,31.3668039 L23.8171532,26.7550757 L23.8171532,22.1756583 C23.8171532,20.6489786 23.8307117,19.122299 23.8130541,17.5962408 C23.796027,16.0922408 23.889991,14.5835806 23.7540901,13.0099883 C19.4648559,14.2123184 15.2963874,15.3810951 11.1903514,16.5321631 L11.1903514,34.914765 Z M0.511567568,63.9999689 C0.269720721,63.3382214 0.225261261,54.4810563 0.436207207,53.5176388 C8.16521622,51.3422602 15.9399459,49.153833 23.7613423,46.9523573 L23.7613423,41.0485126 C15.9642252,43.2434641 8.25192793,45.4079689 0.410351351,47.586765 C0.365576577,47.1092505 0.310081081,46.7895612 0.30945045,46.4695612 C0.304720721,42.7681243 0.308189189,39.0663767 0.30881982,35.3646291 C0.310396396,27.1331728 0.311657658,18.9017165 0.312918919,10.6699495 L0.312918919,9.81961942 C11.7557117,6.60097864 23.1452162,3.39787184 34.5728739,0.183580583 C34.6491802,0.446726214 34.7273784,0.589328155 34.7273784,0.731930097 C34.7324269,18.5873087 34.7324269,36.4433087 34.7324269,54.3797748 C30.8909369,55.5233864 27.0816126,56.5548427 23.283955,57.626066 C19.4828288,58.6982214 15.6848559,59.7824932 11.8796306,60.8397359 C8.0867027,61.8938718 4.31427027,63.0231922 0.511567568,63.9999689 L0.511567568,63.9999689 Z" id="Fill-1" fill="#5BD653" mask="url(#mask-2)"></path>
                    </g>
                    <path d="M29.6439373,18.7165392 C23.4175291,17.0558367 17.2319642,15.4063069 11.0548821,13.7589497 C10.8390408,14.3163448 10.7931706,31.8985009 10.9911036,32.7324212 C17.2809762,34.2723961 23.6060368,35.787853 29.8418704,37.3483113 C30.0693363,38.295821 30.0426311,46.3190841 29.8179928,47 C29.5424574,46.9844823 29.226707,47.021104 28.9436314,46.9428949 C26.1508903,46.1719764 23.3628619,45.3839884 20.5751476,44.5963108 C17.1399096,43.6258349 13.7052999,42.6550486 10.2725753,41.6761932 C7.86407562,40.9900012 5.45966032,40.2876709 3.05210323,39.5977547 C2.40018088,39.4109218 1.73977568,39.2526414 1.08848169,39.0627049 C0.742884303,38.9612193 0.408911552,38.8203187 0.00330588777,38.6735214 C-0.00234934225,26.1429921 0.00110663165,13.647843 0.000478272762,1 C3.46430666,1.91337085 6.754708,2.78143006 10.0451093,3.64886856 C13.3480778,4.51972095 16.6589008,5.3614001 19.9515014,6.26825352 C23.2359334,7.17293446 26.5492698,7.979854 29.7598696,8.91867385 C29.9870213,10.3174378 29.9091048,18.0790727 29.6439373,18.7165392" id="Fill-4" fill="#5BD653"></path>
                </g>
            </g>
        </g>
    </g>
</svg>