<?xml version="1.0" encoding="UTF-8"?>
<svg width="103px" height="103px" viewBox="0 0 103 103" version="1.1" xmlns="http://www.w3.org/2000/svg" xmlns:xlink="http://www.w3.org/1999/xlink">
    <!-- Generator: Sketch 57.1 (83088) - https://sketch.com -->
    <title>9_Papersizes</title>
    <desc>Created with Sketch.</desc>
    <defs>
        <polygon id="path-1" points="0 0.258646376 45.6967942 0.258646376 45.6967942 64 0 64"></polygon>
        <linearGradient x1="50%" y1="0%" x2="50%" y2="100%" id="linearGradient-3">
            <stop stop-color="#FFFFFF" stop-opacity="0.0707768794" offset="0%"></stop>
            <stop stop-color="#0B1A3F" stop-opacity="0.104731206" offset="100%"></stop>
        </linearGradient>
    </defs>
    <g id="Page-1" stroke="none" stroke-width="1" fill="none" fill-rule="evenodd">
        <g id="Home-Copy-5" transform="translate(-549.000000, -1997.000000)">
            <g id="9_Papersizes" transform="translate(549.000000, 1997.000000)">
                <g>
                    <rect id="Rectangle-Copy-63" fill="#92E58D" fill-rule="nonzero" x="0" y="0" width="103" height="103" rx="15"></rect>
                    <g id="Group-6" transform="translate(25.000000, 16.000000)">
                        <path d="M47.0992006,17.5145862 C45.254799,15.1086859 36.6730163,6.71719704 35.5175266,6.1331384 L35.5175266,17.5145862 L47.0992006,17.5145862 Z M49.7396243,20.9176796 C46.2009373,20.9176796 42.9673514,20.9265904 39.7353884,20.9136293 C38.4533142,20.9087689 37.1615028,20.9444119 35.8907887,20.8099407 C33.4597164,20.5515292 32.1638477,19.0982681 32.1435617,16.6397134 C32.1102927,12.5934264 32.1354474,8.54632937 32.1297673,4.5000424 C32.1297673,4.17277514 32.0900067,3.84550789 32.0583606,3.36189761 C31.3475397,3.32544458 30.6959539,3.26306938 30.0443681,3.26225931 C24.0997633,3.25415864 18.1551586,3.25820898 12.2097424,3.25658884 C11.6701352,3.25577877 11.1199793,3.29709221 10.5925437,3.2128452 C9.74215527,3.0759438 9.03701447,2.71384364 9.00131114,1.69315864 C8.96885356,0.781022678 9.53929543,0.208304982 10.6818021,0.0438612875 C11.0128693,-0.00393269279 11.3561082,0.0187491961 11.6936669,0.0187491961 C18.6517595,0.0179391287 25.6106634,0.0398109502 32.568756,-0.000114285667 C33.8816649,-0.0079830301 34.869998,0.401911106 35.793416,1.33753902 C41.1050981,6.71638697 46.4468034,12.0660725 51.8152862,17.3906459 C52.6445772,18.2128644 53.002422,19.0699158 53.0000122,20.2388431 C52.9699644,33.3230528 52.9813246,46.4064523 52.9813246,59.4898519 C52.9813246,59.5578976 52.982136,59.6251332 52.9805131,59.6923688 C52.9350725,61.255799 52.3946539,62.0237429 51.356823,62.000534 C50.3068204,61.9751389 49.7509845,61.2306869 49.7485501,59.634854 C49.7331328,48.4389116 49.7396243,37.2429692 49.7396243,26.0478369 L49.7396243,20.9176796 Z" id="Fill-1" stroke="#32BB5F" fill="#32BB5F" fill-rule="nonzero" stroke-linejoin="round"></path>
                        <g id="Group-5" transform="translate(0.000000, 7.000000)">
                            <g id="Fill-3-Clipped">
                                <mask id="mask-2" fill="white">
                                    <use xlink:href="#path-1"></use>
                                </mask>
                                <g id="path-1"></g>
                                <path d="M9.59453214,54.6454154 L40.2223179,54.6454154 C39.9364607,54.1957744 39.7417821,53.8150564 39.478925,53.4909538 C38.9622464,52.8542359 38.3773893,52.2708513 37.8763179,51.6234667 C37.1986393,50.7479795 37.1928893,49.7994667 37.794175,49.2193641 C38.3971036,48.638441 39.4756393,48.6409026 40.1820679,49.4179282 C41.9292464,51.3403897 43.6057821,53.3276718 45.2856036,55.3092103 C45.8433536,55.9672615 45.8285679,56.7131077 45.2724607,57.3678769 C43.544175,59.3994667 41.801925,61.4195692 40.0407821,63.4216205 C39.3934964,64.1576205 38.6016393,64.1609026 37.8385321,63.6045949 C37.0951393,63.0630564 37.0105321,62.1309538 37.6939607,61.2439795 C38.4776036,60.2273641 39.3548893,59.2821333 40.4038536,58.0603897 C39.478925,58.0193641 38.8423179,57.9676718 38.2057107,57.9668513 C29.307175,57.9619282 20.4094607,57.9693128 11.5117464,57.9537231 C10.6977107,57.9520821 9.85985357,57.9159795 9.07456786,57.7272615 C7.33396071,57.3063385 6.28335357,56.0058256 6.13878214,54.2261333 C6.08949643,53.6140308 6.11496071,52.9961846 6.11496071,52.3808 C6.11413929,37.6132103 6.11413929,22.8456205 6.11413929,8.07803077 L6.11413929,5.3728 C5.13910357,6.20233846 4.44663929,6.81444103 3.72871071,7.3953641 C3.25474643,7.77854359 2.76846071,8.15926154 2.24274643,8.46367179 C1.53960357,8.86982564 0.891496429,8.60151795 0.413425,8.05095385 C-0.0892892857,7.47249231 -0.176360714,6.69874872 0.390425,6.18346667 C2.51135357,4.25526154 4.66021071,2.35249231 6.88628214,0.54654359 C7.583675,-0.0179692308 8.463425,0.325005128 9.13946071,0.910030769 C11.0024607,2.52151795 12.8859964,4.10838974 14.7095679,5.7633641 C15.6032821,6.57567179 15.6944607,7.44213333 15.1375321,8.12069744 C14.5419964,8.84849231 13.5488893,8.90018462 12.5705679,8.15105641 C11.6127821,7.41751795 10.7215321,6.59864615 9.59453214,5.64110769 L9.59453214,54.6454154 Z" id="Fill-3" stroke="#32BB5F" fill="#32BB5F" fill-rule="nonzero" stroke-linejoin="round" mask="url(#mask-2)"></path>
                            </g>
                        </g>
                    </g>
                </g>
                <rect id="Rectangle-Copy-53" fill="url(#linearGradient-3)" opacity="0.610165551" x="0" y="0" width="103" height="103" rx="15"></rect>
            </g>
        </g>
    </g>
</svg>