<?xml version="1.0" encoding="UTF-8"?>
<svg width="103px" height="103px" viewBox="0 0 103 103" version="1.1" xmlns="http://www.w3.org/2000/svg" xmlns:xlink="http://www.w3.org/1999/xlink">
    <!-- Generator: Sketch 56.2 (81672) - https://sketch.com -->
    <title>9_Smallpdf</title>
    <desc>Created with Sketch.</desc>
    <g id="Page-1" stroke="none" stroke-width="1" fill="none" fill-rule="evenodd">
        <g id="Home-Copy-5" transform="translate(-984.000000, -2226.000000)">
            <g id="9_Smallpdf" transform="translate(984.000000, 2226.000000)">
                <rect id="Rectangle-Copy-72" fill="#D6F5D4" x="0" y="0" width="103" height="103" rx="15"></rect>
                <g id="Group-14" transform="translate(22.000000, 21.000000)" stroke="#5BD653">
                    <polygon id="Fill-1" fill="#5BD653" points="0 20 20 20 20 0 0 0"></polygon>
                    <polygon id="Stroke-2" points="20 20 40 20 40 0 20 0"></polygon>
                    <polygon id="Fill-4" fill="#5BD653" points="39 20 59 20 59 0 39 0"></polygon>
                    <polygon id="Stroke-5" points="0 40 20 40 20 20 0 20"></polygon>
                    <polygon id="Fill-7" fill="#5BD653" points="21 39 39 39 39 21 21 21"></polygon>
                    <polygon id="Stroke-8" points="39 40 59 40 59 20 39 20"></polygon>
                    <polygon id="Fill-10" fill="#5BD653" points="0 59 20 59 20 39 0 39"></polygon>
                    <polygon id="Stroke-11" points="20 59 40 59 40 39 20 39"></polygon>
                    <polygon id="Fill-13" fill="#5BD653" points="39 59 59 59 59 39 39 39"></polygon>
                </g>
            </g>
        </g>
    </g>
</svg>