<svg width="18" height="17" viewBox="0 0 18 17" fill="none" xmlns="http://www.w3.org/2000/svg">
<g clip-path="url(#clip0)">
<path d="M17.6203 0.244578C17.385 0.0542303 17.0761 -0.0193065 16.7803 0.0445781L9.0003 1.79458L1.2203 0.0245781C0.919639 -0.043327 0.60446 0.031218 0.366073 0.226618C0.127685 0.422018 -0.00727033 0.716435 0.000302508 1.02458V13.2246C-0.0113471 13.7012 0.31515 14.1198 0.780303 14.2246L8.7803 16.0246H9.2203L17.2203 14.2246C17.6855 14.1198 18.012 13.7012 18.0003 13.2246V1.02458C17.9989 0.720306 17.859 0.433225 17.6203 0.244578ZM2.0003 2.27458L8.0003 3.62458V13.7746L2.0003 12.4246V2.27458ZM16.0003 12.4246L10.0003 13.7746V3.62458L16.0003 2.27458V12.4246Z" fill="#555555"/>
</g>
<defs>
<clipPath id="clip0">
<rect width="18" height="17" fill="white"/>
</clipPath>
</defs>
</svg>
