<svg width="25" height="21" viewBox="0 0 25 21" fill="none" xmlns="http://www.w3.org/2000/svg">
<path fill-rule="evenodd" clip-rule="evenodd" d="M23 17.1111C23 18.1543 22.1453 19 21.0909 19H3.90909C2.85473 19 2 18.1543 2 17.1111V6.72222C2 5.67902 2.85473 4.83333 3.90909 4.83333H7.72727L9.63636 2H15.3636L17.2727 4.83333H21.0909C22.1453 4.83333 23 5.67902 23 6.72222V17.1111Z" stroke="#555555" stroke-width="2.5" stroke-linecap="round" stroke-linejoin="round"/>
<path d="M12.5 15.2223C14.6087 15.2223 16.3182 13.5309 16.3182 11.4445C16.3182 9.35812 14.6087 7.66675 12.5 7.66675C10.3913 7.66675 8.68182 9.35812 8.68182 11.4445C8.68182 13.5309 10.3913 15.2223 12.5 15.2223Z" stroke="#555555" stroke-width="2.5" stroke-linecap="round" stroke-linejoin="round"/>
</svg>
