<?xml version="1.0" encoding="utf-8"?>
<!-- Generator: Adobe Illustrator 21.0.2, SVG Export Plug-In . SVG Version: 6.00 Build 0)  -->
<svg version="1.1" id="Layer_1" xmlns="http://www.w3.org/2000/svg" xmlns:xlink="http://www.w3.org/1999/xlink" x="0px" y="0px"
	 viewBox="0 0 21 20" style="enable-background:new 0 0 21 20;" xml:space="preserve">
<style type="text/css">
	.st0{fill:#555555;}
</style>
<g>
	<path class="st0" d="M18.5,3.1c-2-2-4.8-3.1-7.6-3.1c-5.5,0-10,4.5-10,10c0,5.5,4.5,10,10,10c1.2,0,1.9-0.5,2.4-1.7
		c0.2-0.8,0.1-1.8-0.4-2.5c-0.1-0.1-0.2-0.4-0.1-0.5c0.1-0.2,0.3-0.3,0.5-0.3h1.7c3.2,0,5.9-2.5,6.2-5.7C21.1,7,20.2,4.7,18.5,3.1z
		 M14.9,13h-1.7c-1,0-1.9,0.6-2.3,1.5c-0.4,0.9-0.2,1.9,0.4,2.7c0.1,0.1,0.2,0.4,0.1,0.5c0,0.2-0.3,0.3-0.6,0.3c-2.3,0-4.5-1-6-2.8
		s-2.2-4-1.9-6.3C3.7,5,7,2.1,10.9,2H11c2.3,0,4.5,0.9,6.1,2.5c1.3,1.3,1.9,3,1.9,4.8C18.8,11.4,17,13,14.9,13z"/>
	<path class="st0" d="M11.2,6.7c0.8,0,1.5-0.7,1.5-1.5S12,3.8,11.2,3.8c-0.8,0-1.5,0.7-1.5,1.5S10.4,6.7,11.2,6.7z"/>
	<path class="st0" d="M14.3,5.8c-0.7,0.4-0.9,1.3-0.5,2c0.4,0.7,1.3,0.9,2,0.5c0.7-0.4,0.9-1.3,0.5-2c-0.2-0.3-0.5-0.6-0.9-0.7
		C15.1,5.6,14.7,5.6,14.3,5.8z"/>
	<path class="st0" d="M8,5.8C7.3,5.4,6.5,5.6,6,6.3C5.6,7,5.9,7.9,6.6,8.3c0.7,0.4,1.6,0.2,2-0.5C8.8,7.4,8.8,7,8.7,6.7
		C8.6,6.3,8.4,6,8,5.8z"/>
	<path class="st0" d="M5.5,9.8c-0.5,0.3-0.7,0.9-0.6,1.5c0.1,0.6,0.6,1,1.2,1.1c0.6,0.1,1.2-0.1,1.5-0.6c0.3-0.5,0.3-1.1,0-1.6
		C7.3,9.8,7,9.6,6.6,9.5C6.2,9.5,5.8,9.6,5.5,9.8z"/>
</g>
</svg>
