<?xml version="1.0" encoding="utf-8"?>
<!-- Generator: Adobe Illustrator 21.0.2, SVG Export Plug-In . SVG Version: 6.00 Build 0)  -->
<svg version="1.1" id="Layer_1" xmlns="http://www.w3.org/2000/svg" xmlns:xlink="http://www.w3.org/1999/xlink" x="0px" y="0px"
	 viewBox="0 0 18 17" style="enable-background:new 0 0 18 17;" xml:space="preserve">
<style type="text/css">
	.st0{fill:#555555;}
</style>
<g>
	<path class="st0" d="M15.8,1.3H2.2c-0.5,0-0.8,0.4-0.8,0.8v2.5c0,0.5,0.4,0.8,0.8,0.8c0.5,0,0.8-0.4,0.8-0.8V3h5.1v11H6.5
		c-0.5,0-0.8,0.4-0.8,0.8c0,0.5,0.4,0.8,0.8,0.8h5.1c0.5,0,0.8-0.4,0.8-0.8c0-0.5-0.4-0.8-0.8-0.8H9.8V3h5.1v1.7
		c0,0.5,0.4,0.8,0.8,0.8c0.5,0,0.8-0.4,0.8-0.8V2.1C16.6,1.7,16.2,1.3,15.8,1.3z"/>
	<path class="st0" d="M11.5,15.8H6.5c-0.5,0-1-0.4-1-1s0.4-1,1-1H8V3.1H3.2v1.6c0,0.5-0.4,1-1,1s-1-0.4-1-1V2.1c0-0.5,0.4-1,1-1
		h13.6c0.5,0,1,0.4,1,1v2.5c0,0.5-0.4,1-1,1s-1-0.4-1-1V3.1H10v10.8h1.6c0.5,0,1,0.4,1,1S12.1,15.8,11.5,15.8z M6.5,14.1
		c-0.4,0-0.7,0.3-0.7,0.7c0,0.4,0.3,0.7,0.7,0.7h5.1c0.4,0,0.7-0.3,0.7-0.7c0-0.4-0.3-0.7-0.7-0.7H9.7V2.9h5.3v1.8
		c0,0.4,0.3,0.7,0.7,0.7c0.4,0,0.7-0.3,0.7-0.7V2.1c0-0.4-0.3-0.7-0.7-0.7H2.2c-0.4,0-0.7,0.3-0.7,0.7v2.5c0,0.4,0.3,0.7,0.7,0.7
		s0.7-0.3,0.7-0.7V2.9h5.3v11.3H6.5z"/>
</g>
</svg>
