<svg width="21" height="17" viewBox="0 0 21 17" fill="none" xmlns="http://www.w3.org/2000/svg">
<path d="M20.49 6.19008L19.49 5.64008L10.49 0.640078H10.38C10.3187 0.614157 10.2551 0.594068 10.19 0.580078H10H9.82C9.75168 0.594077 9.68475 0.614157 9.62 0.640078H9.51L0.51 5.64008C0.19669 5.81764 0.00305176 6.14995 0.00305176 6.51008C0.00305176 6.87021 0.19669 7.20252 0.51 7.38008L3 8.76008V13.5001C3 15.1569 4.34315 16.5001 6 16.5001H14C15.6569 16.5001 17 15.1569 17 13.5001V8.76008L19 7.64008V10.5001C19 11.0524 19.4477 11.5001 20 11.5001C20.5523 11.5001 21 11.0524 21 10.5001V7.06008C20.9994 6.69931 20.8045 6.36685 20.49 6.19008ZM15 13.5001C15 14.0524 14.5523 14.5001 14 14.5001H6C5.44772 14.5001 5 14.0524 5 13.5001V9.87008L9.51 12.3701L9.66 12.4301H9.75C9.83301 12.4405 9.91699 12.4405 10 12.4301C10.083 12.4405 10.167 12.4405 10.25 12.4301H10.34C10.3931 12.4189 10.4438 12.3986 10.49 12.3701L15 9.87008V13.5001ZM10 10.3601L3.06 6.50008L10 2.64008L16.94 6.50008L10 10.3601Z" fill="#555555"/>
</svg>
