<svg width="20" height="20" viewBox="0 0 20 20" fill="none" xmlns="http://www.w3.org/2000/svg">
<g clip-path="url(#clip0)">
<path d="M16 8C18.2092 8 20 6.20914 20 4C20 1.79086 18.2092 0 16 0C13.7909 0 12 1.79086 12 4C12 6.20914 13.7909 8 16 8ZM16 2C17.1046 2 18 2.89543 18 4C18 5.10457 17.1046 6 16 6C14.8955 6 14 5.10457 14 4C14 2.89543 14.8955 2 16 2ZM14.85 10.47C14.6677 10.1758 14.3462 9.99678 14 9.99678C13.6539 9.99678 13.3324 10.1758 13.15 10.47L12.15 12.1L8.86003 6.5C8.67989 6.19641 8.35304 6.01029 8.00003 6.01029C7.64702 6.01029 7.32017 6.19641 7.14003 6.5L0.140028 18.5C-0.0380764 18.8085 -0.0386537 19.1884 0.138512 19.4974C0.315678 19.8064 0.643839 19.9979 1.00003 20H19C19.3639 20.0007 19.6995 19.8037 19.8762 19.4856C20.0529 19.1676 20.0429 18.7786 19.85 18.47L14.85 10.47ZM8.45003 18H2.74003L8.00003 9L10.94 14L9.69003 16L8.45003 18ZM10.8 18L12.29 15.63L13 14.57L14 12.89L17.2 18H10.8Z" fill="#555555"/>
</g>
<defs>
<clipPath id="clip0">
<rect width="20" height="20" fill="white"/>
</clipPath>
</defs>
</svg>
