<?xml version="1.0" encoding="utf-8"?>
<!-- Generator: Adobe Illustrator 21.0.2, SVG Export Plug-In . SVG Version: 6.00 Build 0)  -->
<svg version="1.1" id="Layer_1" xmlns="http://www.w3.org/2000/svg" xmlns:xlink="http://www.w3.org/1999/xlink" x="0px" y="0px"
	 viewBox="0 0 20 22" style="enable-background:new 0 0 20 22;" xml:space="preserve">
<style type="text/css">
	.st0{clip-path:url(#SVGID_2_);}
	.st1{fill:#555555;}
</style>
<g>
	<defs>
		<rect id="SVGID_1_" width="20" height="22"/>
	</defs>
	<clipPath id="SVGID_2_">
		<use xlink:href="#SVGID_1_"  style="overflow:visible;"/>
	</clipPath>
	<g class="st0">
		<path class="st1" d="M0.5,7.5l9,5.2c0.3,0.2,0.7,0.2,1,0l9-5.2C19.8,7.3,20,7,20,6.6c0-0.4-0.2-0.7-0.5-0.9l-9-5.2
			c-0.3-0.2-0.7-0.2-1,0l-9,5.2C0.2,5.9,0,6.2,0,6.6C0,7,0.2,7.3,0.5,7.5z M10,2.6l7,4l-7,4l-7-4L10,2.6z M18.5,10.2L10,15l-8.5-4.9
			C1.3,10,1,10,0.7,10c-0.3,0.1-0.5,0.2-0.6,0.5C-0.1,11,0,11.6,0.5,11.9l9,5.2c0.3,0.2,0.7,0.2,1,0l9-5.2c0.5-0.3,0.6-0.9,0.4-1.4
			c-0.1-0.2-0.4-0.4-0.6-0.5C19,10,18.7,10,18.5,10.2L18.5,10.2z M18.5,14.6L10,19.4l-8.5-4.9c-0.2-0.1-0.5-0.2-0.8-0.1
			c-0.3,0.1-0.5,0.2-0.6,0.5C-0.1,15.4,0,16,0.5,16.3l9,5.2c0.3,0.2,0.7,0.2,1,0l9-5.2c0.5-0.3,0.6-0.9,0.4-1.4
			c-0.1-0.2-0.4-0.4-0.6-0.5C19,14.4,18.7,14.4,18.5,14.6L18.5,14.6z"/>
	</g>
</g>
</svg>
