<?xml version="1.0" encoding="utf-8"?>
<!-- Generator: Adobe Illustrator 21.0.2, SVG Export Plug-In . SVG Version: 6.00 Build 0)  -->
<svg version="1.1" id="Layer_1" xmlns="http://www.w3.org/2000/svg" xmlns:xlink="http://www.w3.org/1999/xlink" x="0px" y="0px"
	 viewBox="0 0 18 18" style="enable-background:new 0 0 18 18;" xml:space="preserve">
<style type="text/css">
	.st0{fill:#555555;}
</style>
<path class="st0" d="M17,10.2h-4.1l2.3-2.5c0.4-0.4,0.4-1,0-1.4L11,2.4c-0.2-0.2-0.5-0.3-0.7-0.3c-0.3,0-0.5,0.1-0.7,0.3l-1.8,2V1
	c0-0.5-0.5-1-1-1H1C0.5,0,0,0.5,0,1v13.1C0,16.2,1.8,18,3.9,18H17c0.5,0,1-0.5,1-1v-5.8C18,10.6,17.5,10.2,17,10.2z M5.8,5v2v3v2
	v2.1c0,1-0.9,1.9-1.9,1.9c-1,0-1.9-0.9-1.9-1.9V2h3.8V5z M7.8,7.4l2.6-2.8l2.7,2.5l-5.3,5.7V7.4z M16,16H7.5l3.6-3.8H16V16z"/>
</svg>
