<svg width="20" height="20" viewBox="0 0 20 20" fill="none" xmlns="http://www.w3.org/2000/svg">
<g clip-path="url(#clip0)">
<path d="M20 5.24002C20.0016 4.97421 19.8972 4.71874 19.71 4.53002L15.47 0.290017C15.2813 0.10283 15.0258 -0.00152002 14.76 1.67363e-05C14.4942 -0.00152002 14.2387 0.10283 14.05 0.290017L11.22 3.12002L0.290017 14.05C0.10283 14.2387 -0.00152002 14.4942 1.67363e-05 14.76V19C1.67363e-05 19.5523 0.447732 20 1.00002 20H5.24002C5.523 20.0154 5.79922 19.91 6.00002 19.71L16.87 8.78002L19.71 6.00002C19.8013 5.9031 19.8757 5.79155 19.93 5.67002C19.9397 5.59031 19.9397 5.50973 19.93 5.43002C19.9347 5.38347 19.9347 5.33657 19.93 5.29002L20 5.24002ZM4.83002 18H2.00002V15.17L11.93 5.24002L14.76 8.07002L4.83002 18ZM16.17 6.66002L13.34 3.83002L14.76 2.42002L17.58 5.24002L16.17 6.66002Z" fill="#555555"/>
</g>
<defs>
<clipPath id="clip0">
<rect width="20" height="20" fill="white"/>
</clipPath>
</defs>
</svg>
