<svg width="14" height="18" viewBox="0 0 14 18" fill="none" xmlns="http://www.w3.org/2000/svg">
<path d="M11.375 0H2.625C1.17525 0 0 1.20883 0 2.7V15.3C0 16.7912 1.17525 18 2.625 18H11.375C12.8247 18 14 16.7912 14 15.3V2.7C14 1.20883 12.8247 0 11.375 0ZM12.25 15.3C12.25 15.7971 11.8582 16.2 11.375 16.2H2.625C2.14175 16.2 1.75 15.7971 1.75 15.3V2.7C1.75 2.20294 2.14175 1.8 2.625 1.8H11.375C11.8582 1.8 12.25 2.20294 12.25 2.7V15.3Z" fill="#555555"/>
<path d="M7 14.4C7.72487 14.4 8.3125 13.7955 8.3125 13.05C8.3125 12.3044 7.72487 11.7 7 11.7C6.27513 11.7 5.6875 12.3044 5.6875 13.05C5.6875 13.7955 6.27513 14.4 7 14.4Z" fill="#555555"/>
<path fill-rule="evenodd" clip-rule="evenodd" d="M9.1875 3.6001H4.8125C4.32925 3.6001 3.9375 4.00304 3.9375 4.5001C3.9375 4.99715 4.32925 5.4001 4.8125 5.4001H9.1875C9.67075 5.4001 10.0625 4.99715 10.0625 4.5001C10.0625 4.00304 9.67075 3.6001 9.1875 3.6001Z" fill="#555555"/>
</svg>
