<svg width="20" height="19" viewBox="0 0 20 19" fill="none" xmlns="http://www.w3.org/2000/svg">
<g clip-path="url(#clip0)">
<path d="M15.56 19C15.4001 19.0006 15.2423 18.9629 15.1 18.89L10 16.22L4.9 18.89C4.56214 19.0676 4.1526 19.0374 3.84443 18.8122C3.53626 18.5869 3.38323 18.2058 3.45 17.83L4.45 12.2L0.330002 8.19996C0.0680582 7.93856 -0.0281137 7.55387 0.0800019 7.19996C0.198246 6.83738 0.512425 6.57363 0.890002 6.51996L6.59 5.68996L9.1 0.55996C9.26709 0.214969 9.61668 -0.00415039 10 -0.00415039C10.3833 -0.00415039 10.7329 0.214969 10.9 0.55996L13.44 5.67996L19.14 6.50996C19.5176 6.56363 19.8318 6.82738 19.95 7.18996C20.0581 7.54387 19.9619 7.92856 19.7 8.18996L15.58 12.19L16.58 17.82C16.6529 18.2028 16.4968 18.593 16.18 18.82C15.9989 18.9469 15.7809 19.0102 15.56 19ZM10 14.1C10.1603 14.0959 10.3189 14.1338 10.46 14.21L14.23 16.21L13.51 12C13.4533 11.6736 13.5619 11.3403 13.8 11.11L16.8 8.17996L12.6 7.55996C12.2876 7.49707 12.0239 7.28908 11.89 6.99996L10 3.24996L8.11 6.99996C7.96316 7.29161 7.68317 7.49321 7.36 7.53996L3.16 8.15996L6.16 11.09C6.39812 11.3203 6.50672 11.6536 6.45 11.98L5.73 16.14L9.5 14.14C9.65975 14.0806 9.83285 14.0667 10 14.1Z" fill="#555555"/>
</g>
<defs>
<clipPath id="clip0">
<rect width="20" height="19" fill="white"/>
</clipPath>
</defs>
</svg>
